<svg width="40" height="40" viewBox="0 0 40 40" fill="none" xmlns="http://www.w3.org/2000/svg">
<g clip-path="url(#clip0)">
<path d="M33.25 9.22616L27.44 3.41616C26.3593 2.32962 25.0739 1.4682 23.6581 0.881731C22.2422 0.295263 20.7242 -0.00460025 19.1917 -0.000507989H11.6667C9.45738 0.00213844 7.3393 0.880962 5.77707 2.44319C4.21484 4.00542 3.33602 6.1235 3.33337 8.33283V31.6662C3.33602 33.8755 4.21484 35.9936 5.77707 37.5558C7.3393 39.118 9.45738 39.9968 11.6667 39.9995H28.3334C30.5427 39.9968 32.6608 39.118 34.223 37.5558C35.7852 35.9936 36.6641 33.8755 36.6667 31.6662V17.4745C36.6708 15.942 36.3709 14.424 35.7845 13.0081C35.198 11.5923 34.3366 10.3069 33.25 9.22616ZM30.8934 11.5828C31.4018 12.1068 31.8394 12.6952 32.195 13.3328H25C24.558 13.3328 24.1341 13.1572 23.8215 12.8447C23.509 12.5321 23.3334 12.1082 23.3334 11.6662V4.47116C23.971 4.8268 24.5594 5.26441 25.0834 5.77283L30.8934 11.5828ZM33.3334 31.6662C33.3334 32.9922 32.8066 34.264 31.8689 35.2017C30.9312 36.1394 29.6595 36.6662 28.3334 36.6662H11.6667C10.3406 36.6662 9.06886 36.1394 8.13117 35.2017C7.19349 34.264 6.66671 32.9922 6.66671 31.6662V8.33283C6.66671 7.00674 7.19349 5.73497 8.13117 4.79729C9.06886 3.85961 10.3406 3.33283 11.6667 3.33283H19.1917C19.4667 3.33283 19.73 3.38616 20 3.41116V11.6662C20 12.9922 20.5268 14.264 21.4645 15.2017C22.4022 16.1394 23.674 16.6662 25 16.6662H33.255C33.28 16.9362 33.3334 17.1995 33.3334 17.4745V31.6662ZM27.8734 22.1845C28.1777 22.5046 28.3425 22.9325 28.3316 23.3741C28.3206 23.8156 28.1348 24.2348 27.815 24.5395L21.8334 30.2295C20.8931 31.155 19.6252 31.6713 18.3059 31.666C16.9866 31.6607 15.7228 31.1342 14.79 30.2012L12.2234 27.9112C11.8932 27.6168 11.6935 27.2033 11.6681 26.7616C11.6556 26.5429 11.6863 26.3239 11.7584 26.1171C11.8305 25.9103 11.9426 25.7197 12.0884 25.5562C12.2341 25.3927 12.4107 25.2595 12.6079 25.1642C12.8052 25.0689 13.0192 25.0135 13.2379 25.0009C13.6796 24.9756 14.1132 25.1268 14.4434 25.4212L17.085 27.7778C17.2363 27.9477 17.4206 28.0847 17.6268 28.1806C17.833 28.2765 18.0567 28.3292 18.284 28.3355C18.5113 28.3417 18.7375 28.3014 18.9486 28.217C19.1598 28.1325 19.3514 28.0058 19.5117 27.8445L25.5117 22.1262C25.6704 21.9745 25.8574 21.8556 26.0621 21.7764C26.2669 21.6972 26.4852 21.6592 26.7047 21.6646C26.9241 21.6701 27.1403 21.7188 27.3409 21.808C27.5414 21.8972 27.7224 22.0251 27.8734 22.1845Z" fill="#DEDEDE"/>
</g>
<defs>
<clipPath id="clip0">
<rect width="40" height="40" fill="white"/>
</clipPath>
</defs>
</svg>
