<svg width="40" height="40" viewBox="0 0 40 40" fill="none" xmlns="http://www.w3.org/2000/svg">
<g clip-path="url(#clip0)">
<path d="M28.3333 40H11.6749C10.7111 39.9995 9.75881 39.7907 8.88317 39.388C8.00753 38.9853 7.22925 38.3981 6.6016 37.6667C5.98278 36.9512 5.52585 36.1105 5.26207 35.2021C4.99828 34.2936 4.93388 33.339 5.07326 32.4033C5.96812 27.5292 8.56821 23.1325 12.4083 20C8.56815 16.8664 5.96861 12.4685 5.07493 7.59333C4.93582 6.65836 5.00021 5.70437 5.26369 4.79657C5.52717 3.88876 5.98354 3.04855 6.6016 2.33333C7.22925 1.60191 8.00753 1.01474 8.88317 0.612016C9.75881 0.209292 10.7111 0.000523069 11.6749 0L28.3333 0C29.297 0.000853572 30.2492 0.20977 31.1248 0.612472C32.0004 1.01517 32.7787 1.60217 33.4066 2.33333C34.0247 3.04825 34.4814 3.88808 34.7454 4.79553C35.0095 5.70299 35.0747 6.65672 34.9366 7.59167C34.0338 12.4682 31.4284 16.8657 27.5849 20C31.4262 23.137 34.0286 27.5362 34.9283 32.4133C35.0665 33.3485 35.0013 34.3026 34.7373 35.2103C34.4733 36.1181 34.0165 36.9582 33.3983 37.6733C32.7707 38.4022 31.9934 38.9873 31.1194 39.3888C30.2454 39.7903 29.2951 39.9988 28.3333 40ZM28.3333 3.33333H11.6749C11.1915 3.33304 10.7137 3.43712 10.2742 3.63847C9.83463 3.83982 9.44376 4.13369 9.12826 4.5C8.82018 4.85072 8.59253 5.26457 8.46124 5.71255C8.32996 6.16053 8.29822 6.6318 8.36826 7.09333C8.99493 11.26 11.5749 15.16 16.0349 18.6883C16.232 18.8444 16.3912 19.043 16.5007 19.2692C16.6101 19.4955 16.667 19.7436 16.667 19.995C16.667 20.2464 16.6101 20.4945 16.5007 20.7208C16.3912 20.947 16.232 21.1456 16.0349 21.3017C11.5749 24.8333 8.99993 28.7367 8.36826 32.9017C8.29747 33.364 8.32882 33.8362 8.46012 34.2851C8.59143 34.734 8.81949 35.1487 9.12826 35.5C9.44376 35.8663 9.83463 36.1602 10.2742 36.3615C10.7137 36.5629 11.1915 36.667 11.6749 36.6667H28.3333C28.8167 36.6671 29.2946 36.563 29.7341 36.3617C30.1736 36.1603 30.5645 35.8664 30.8799 35.5C31.1879 35.1499 31.4156 34.7366 31.5469 34.2892C31.6782 33.8418 31.7099 33.371 31.6399 32.91C31.0183 28.765 28.4399 24.8617 23.9733 21.3067C23.7774 21.1506 23.6192 20.9523 23.5105 20.7267C23.4018 20.501 23.3454 20.2538 23.3454 20.0033C23.3454 19.7529 23.4018 19.5056 23.5105 19.28C23.6192 19.0543 23.7774 18.8561 23.9733 18.7C28.4416 15.145 31.0199 11.2417 31.6399 7.095C31.7097 6.63258 31.677 6.16049 31.5443 5.71208C31.4115 5.26367 31.1819 4.8499 30.8716 4.5C30.5571 4.13467 30.1676 3.84137 29.7296 3.64005C29.2916 3.43874 28.8153 3.33412 28.3333 3.33333ZM26.1349 33.3333H13.8633C13.5906 33.3332 13.3221 33.2662 13.0813 33.1381C12.8405 33.0101 12.6349 32.8249 12.4824 32.5988C12.3298 32.3727 12.2351 32.1127 12.2065 31.8415C12.1779 31.5703 12.2163 31.2962 12.3183 31.0433C13.6234 28.2252 15.6119 25.7777 18.1033 23.9233L18.9666 23.2367C19.2615 23.0021 19.6272 22.8744 20.0041 22.8744C20.3809 22.8744 20.7467 23.0021 21.0416 23.2367L21.8899 23.9133C24.3777 25.775 26.3663 28.2233 27.6783 31.04C27.7809 31.2929 27.8198 31.5672 27.7917 31.8388C27.7635 32.1103 27.669 32.3707 27.5166 32.5972C27.3642 32.8237 27.1585 33.0092 26.9176 33.1376C26.6767 33.2659 26.4079 33.3332 26.1349 33.3333ZM16.7233 30H23.2699C22.319 28.7605 21.2209 27.6412 19.9999 26.6667C18.7735 27.6374 17.6728 28.7571 16.7233 30Z" fill="#DEDEDE"/>
</g>
<defs>
<clipPath id="clip0">
<rect width="40" height="40" fill="white"/>
</clipPath>
</defs>
</svg>
