<svg width="40" height="40" viewBox="0 0 40 40" fill="none" xmlns="http://www.w3.org/2000/svg">
<g clip-path="url(#clip0)">
<path d="M31.6667 0H21.6667C19.4573 0.00264643 17.3393 0.88147 15.777 2.4437C14.2148 4.00593 13.336 6.12401 13.3333 8.33333V8.5C11.4524 8.88683 9.76224 9.9103 8.54786 11.3979C7.33348 12.8855 6.66909 14.7463 6.66667 16.6667V16.8333C4.78569 17.2202 3.09558 18.2436 1.8812 19.7312C0.666817 21.2189 0.00242421 23.0797 0 25L0 31.6667C0.00264643 33.876 0.88147 35.9941 2.4437 37.5563C4.00593 39.1185 6.12401 39.9974 8.33333 40H18.3333C20.5427 39.9974 22.6607 39.1185 24.223 37.5563C25.7852 35.9941 26.664 33.876 26.6667 31.6667V31.5C28.5476 31.1132 30.2378 30.0897 31.4521 28.6021C32.6665 27.1145 33.3309 25.2537 33.3333 23.3333V23.1667C35.2143 22.7798 36.9044 21.7564 38.1188 20.2687C39.3332 18.7811 39.9976 16.9203 40 15V8.33333C39.9974 6.12401 39.1185 4.00593 37.5563 2.4437C35.9941 0.88147 33.876 0.00264643 31.6667 0V0ZM3.33333 25C3.33333 23.6739 3.86012 22.4021 4.7978 21.4645C5.73548 20.5268 7.00725 20 8.33333 20H18.3333C19.2394 20.0024 20.1277 20.2521 20.9025 20.722C21.6772 21.1919 22.3091 21.8642 22.73 22.6667L16.9717 28.4383L16.18 27.64C15.5898 27.0454 14.7967 26.6959 13.9596 26.6616C13.1226 26.6273 12.3035 26.9107 11.6667 27.455L3.965 34.055C3.55529 33.3253 3.33792 32.5035 3.33333 31.6667V25ZM23.3333 31.6667C23.3333 32.9927 22.8065 34.2645 21.8689 35.2022C20.9312 36.1399 19.6594 36.6667 18.3333 36.6667H8.33333C7.69427 36.6653 7.06152 36.5402 6.47 36.2983L13.8133 30L14.6067 30.8017C15.2318 31.4266 16.0795 31.7776 16.9633 31.7776C17.8472 31.7776 18.6949 31.4266 19.32 30.8017L23.3333 26.78V31.6667ZM30 23.3333C29.9957 24.3638 29.6732 25.3677 29.0765 26.2078C28.4798 27.0479 27.6382 27.6832 26.6667 28.0267V25C26.664 22.7907 25.7852 20.6726 24.223 19.1104C22.6607 17.5481 20.5427 16.6693 18.3333 16.6667H10C10 15.3406 10.5268 14.0688 11.4645 13.1311C12.4021 12.1935 13.6739 11.6667 15 11.6667H25C26.3261 11.6667 27.5979 12.1935 28.5355 13.1311C29.4732 14.0688 30 15.3406 30 16.6667V23.3333ZM36.6667 15C36.6624 16.0304 36.3399 17.0344 35.7432 17.8745C35.1465 18.7146 34.3048 19.3499 33.3333 19.6933V16.6667C33.3307 14.4573 32.4519 12.3393 30.8896 10.777C29.3274 9.2148 27.2093 8.33598 25 8.33333H16.6667C16.6667 7.00725 17.1934 5.73548 18.1311 4.7978C19.0688 3.86012 20.3406 3.33333 21.6667 3.33333H31.6667C32.9927 3.33333 34.2645 3.86012 35.2022 4.7978C36.1399 5.73548 36.6667 7.00725 36.6667 8.33333V15ZM6.66667 25C6.66667 24.6704 6.76441 24.3481 6.94755 24.074C7.13069 23.8 7.39098 23.5863 7.69553 23.4602C8.00007 23.3341 8.33518 23.301 8.65848 23.3654C8.98178 23.4297 9.27876 23.5884 9.51184 23.8215C9.74493 24.0546 9.90367 24.3515 9.96798 24.6748C10.0323 24.9981 9.99928 25.3333 9.87313 25.6378C9.74699 25.9423 9.53337 26.2026 9.25928 26.3858C8.9852 26.5689 8.66297 26.6667 8.33333 26.6667C7.89131 26.6667 7.46738 26.4911 7.15482 26.1785C6.84226 25.8659 6.66667 25.442 6.66667 25Z" fill="#DEDEDE"/>
</g>
<defs>
<clipPath id="clip0">
<rect width="40" height="40" fill="white"/>
</clipPath>
</defs>
</svg>
