<svg width="40" height="40" viewBox="0 0 40 40" fill="none" xmlns="http://www.w3.org/2000/svg">
<g clip-path="url(#clip0)">
<path d="M29.99 3.81022C27.9557 1.99279 25.4643 0.764527 22.7839 0.257606C20.1035 -0.249314 17.3356 -0.015696 14.7781 0.933319C12.2206 1.88233 9.97034 3.51082 8.26943 5.64351C6.56852 7.7762 5.48139 10.3324 5.12504 13.0369C4.80501 15.4083 5.06096 17.8219 5.87124 20.0735C6.68152 22.325 8.02228 24.3482 9.78004 25.9719C10.867 26.9251 11.7442 28.0938 12.3559 29.4037C12.9675 30.7137 13.3004 32.1365 13.3334 33.5819V33.8502C13.3351 35.4808 13.9837 37.044 15.1366 38.197C16.2896 39.3499 17.8528 39.9985 19.4834 40.0002H20.5167C22.1473 39.9985 23.7105 39.3499 24.8635 38.197C26.0164 37.044 26.6649 35.4808 26.6667 33.8502V32.9352C26.6917 31.6577 26.9923 30.4006 27.548 29.2499C28.1038 28.0993 28.9015 27.0823 29.8867 26.2686C31.4844 24.8693 32.7664 23.1465 33.648 21.2144C34.5296 19.2822 34.9905 17.1848 35.0003 15.061C35.0101 12.9373 34.5684 10.8357 33.7047 8.89548C32.8409 6.95529 31.5748 5.22079 29.99 3.80689V3.81022ZM20.5167 36.6669H19.4834C18.7366 36.666 18.0207 36.369 17.4927 35.8409C16.9646 35.3129 16.6676 34.597 16.6667 33.8502C16.6667 33.8502 16.655 33.4169 16.6534 33.3336H23.3334V33.8502C23.3325 34.597 23.0355 35.3129 22.5074 35.8409C21.9794 36.369 21.2635 36.666 20.5167 36.6669ZM27.6834 23.7652C25.7858 25.4111 24.4153 27.5798 23.7434 30.0002H21.6667V18.0269C22.6382 17.6834 23.4799 17.0482 24.0766 16.2081C24.6732 15.3679 24.9958 14.364 25 13.3336C25 12.8915 24.8245 12.4676 24.5119 12.155C24.1993 11.8425 23.7754 11.6669 23.3334 11.6669C22.8914 11.6669 22.4674 11.8425 22.1549 12.155C21.8423 12.4676 21.6667 12.8915 21.6667 13.3336C21.6667 13.7756 21.4911 14.1995 21.1786 14.5121C20.866 14.8246 20.4421 15.0002 20 15.0002C19.558 15.0002 19.1341 14.8246 18.8215 14.5121C18.509 14.1995 18.3334 13.7756 18.3334 13.3336C18.3334 12.8915 18.1578 12.4676 17.8452 12.155C17.5327 11.8425 17.1087 11.6669 16.6667 11.6669C16.2247 11.6669 15.8008 11.8425 15.4882 12.155C15.1756 12.4676 15 12.8915 15 13.3336C15.0043 14.364 15.3269 15.3679 15.9235 16.2081C16.5202 17.0482 17.3619 17.6834 18.3334 18.0269V30.0002H16.13C15.3784 27.5156 13.9686 25.2805 12.05 23.5319C10.4216 22.0145 9.26125 20.0631 8.70583 17.9077C8.1504 15.7523 8.22312 13.4831 8.91539 11.3677C9.60767 9.25234 10.8906 7.37914 12.6128 5.96916C14.335 4.55918 16.4246 3.67128 18.635 3.41022C19.0933 3.35907 19.554 3.33348 20.015 3.33355C22.8777 3.32504 25.6412 4.38126 27.7684 6.29689C29.0012 7.39622 29.9863 8.74504 30.6583 10.2539C31.3303 11.7628 31.6739 13.3973 31.6664 15.0491C31.6588 16.7009 31.3002 18.3321 30.6144 19.8348C29.9286 21.3375 28.9312 22.6772 27.6884 23.7652H27.6834Z" fill="#DEDEDE"/>
</g>
<defs>
<clipPath id="clip0">
<rect width="40" height="40" fill="white"/>
</clipPath>
</defs>
</svg>
