<svg width="344" height="337" viewBox="0 0 344 337" fill="none" xmlns="http://www.w3.org/2000/svg">
<path d="M234.917 139.7H48V210.177H234.917V139.7Z" fill="#EBFF6D" stroke="#2064B4" stroke-width="2" stroke-miterlimit="10"/>
<path d="M215.978 108.121H250.458" stroke="#2064B4" stroke-width="3" stroke-miterlimit="10"/>
<path d="M66.1294 268.296L6.49371 268.37C3.45771 268.37 1 265.866 1 262.773V227.351C1 224.257 3.45771 221.754 6.49371 221.754L66.1294 221.68C69.1654 221.68 71.6231 224.184 71.6231 227.277V262.7C71.5509 265.793 69.0931 268.223 66.1294 268.296Z" fill="#EBFF6D" stroke="#2064B4" stroke-width="2" stroke-miterlimit="10"/>
<path d="M60.2747 238.692C62.8697 238.692 64.9733 236.549 64.9733 233.905C64.9733 231.262 62.8697 229.118 60.2747 229.118C57.6798 229.118 55.5762 231.262 55.5762 233.905C55.5762 236.549 57.6798 238.692 60.2747 238.692Z" fill="#EBFF6D" stroke="#2064B4" stroke-width="2" stroke-miterlimit="10"/>
<path d="M60.2744 244.215V267.045" stroke="#2064B4" stroke-width="2" stroke-miterlimit="10"/>
<path d="M47.7686 222.71L47.8409 267.045" stroke="#2064B4" stroke-width="2" stroke-miterlimit="10"/>
<path d="M1.93945 233.905H29.6249" stroke="#2064B4" stroke-width="2" stroke-miterlimit="10"/>
<path d="M1.93945 242.742H28.6129" stroke="#2064B4" stroke-width="2" stroke-miterlimit="10"/>
<path d="M1.93945 259.018H20.5892" stroke="#2064B4" stroke-width="2" stroke-miterlimit="10"/>
<path d="M158.077 266.529L98.441 266.603C95.405 266.603 92.9473 264.099 92.9473 261.006V225.583C92.9473 222.49 95.405 219.986 98.441 219.986L158.077 219.913C161.113 219.913 163.57 222.417 163.57 225.51V260.932C163.57 264.025 161.113 266.529 158.077 266.529Z" fill="#EBFF6D" stroke="#2064B4" stroke-width="2" stroke-miterlimit="10"/>
<path d="M152.222 236.925C154.817 236.925 156.921 234.781 156.921 232.137C156.921 229.493 154.817 227.35 152.222 227.35C149.627 227.35 147.523 229.493 147.523 232.137C147.523 234.781 149.627 236.925 152.222 236.925Z" fill="#EBFF6D" stroke="#2064B4" stroke-width="2" stroke-miterlimit="10"/>
<path d="M152.222 242.448L152.294 265.351" stroke="#2064B4" stroke-width="2" stroke-miterlimit="10"/>
<path d="M139.788 221.017V265.351" stroke="#2064B4" stroke-width="2" stroke-miterlimit="10"/>
<path d="M93.8867 232.211H121.572" stroke="#2064B4" stroke-width="2" stroke-miterlimit="10"/>
<path d="M93.8867 241.048H120.56" stroke="#2064B4" stroke-width="2" stroke-miterlimit="10"/>
<path d="M93.959 257.324H112.536" stroke="#2064B4" stroke-width="2" stroke-miterlimit="10"/>
<path d="M217.641 170.571H207.159V205.773H217.641V170.571Z" fill="#2064B4"/>
<path d="M238.604 159.745H228.122V205.847H238.604V159.745Z" fill="#2064B4"/>
<path d="M70.9492 36.318C70.9492 36.318 93.5747 27.3335 98.3455 22.5467C103.189 17.7598 114.827 22.5467 114.827 22.5467C114.827 22.5467 146.632 47.4382 176.559 51.7832" stroke="#2064B4" stroke-width="3" stroke-miterlimit="10"/>
<path d="M77.9609 26.4496C77.9609 26.4496 99.0684 17.4651 103.55 12.6783C108.032 7.89143 118.947 12.6783 118.947 12.6783C118.947 12.6783 148.656 37.5698 176.559 41.9148" stroke="#2064B4" stroke-width="3" stroke-miterlimit="10"/>
<path d="M245.085 2H176.992V105.028H245.085V2Z" fill="#EBFF6D" stroke="#2064B4" stroke-width="3" stroke-miterlimit="10"/>
<path d="M238.652 6.63965H183.137V77.1172H238.652V6.63965Z" fill="white" stroke="#2064B4" stroke-width="3" stroke-miterlimit="10"/>
<path d="M219.785 29.3221C224.257 29.3221 227.881 25.6293 227.881 21.0739C227.881 16.5185 224.257 12.8257 219.785 12.8257C215.314 12.8257 211.689 16.5185 211.689 21.0739C211.689 25.6293 215.314 29.3221 219.785 29.3221Z" fill="#2064B4" stroke="#2064B4" stroke-width="3" stroke-miterlimit="10"/>
<path d="M183.535 49.2833C183.535 49.2833 195.316 42.5662 197.782 38.9838C200.316 35.4014 206.412 38.9838 206.412 38.9838C206.412 38.9838 222.987 57.6423 238.535 60.8516" stroke="#2064B4" stroke-width="3" stroke-miterlimit="10"/>
<path d="M183.137 42.0621C183.137 42.0621 194.992 35.4343 197.522 31.8994C200.052 28.3646 206.196 31.8994 206.196 31.8994C206.196 31.8994 222.894 50.3102 238.58 53.4768" stroke="#2064B4" stroke-width="3" stroke-miterlimit="10"/>
<path d="M185.811 85.8804H218.845" stroke="#2064B4" stroke-width="3" stroke-miterlimit="10"/>
<path d="M185.811 90.1521H218.845" stroke="#2064B4" stroke-width="3" stroke-miterlimit="10"/>
<path d="M185.811 95.3069H202.292" stroke="#2064B4" stroke-width="3" stroke-miterlimit="10"/>
<path d="M166.22 78.3095L166.292 173.899C166.292 176.256 164.413 178.097 162.172 178.097L124.728 178.171C122.415 178.171 120.607 176.256 120.607 173.973L120.535 78.3832C120.535 76.0266 122.415 74.1855 124.655 74.1855L162.099 74.1118C164.413 74.1118 166.22 76.0266 166.22 78.3095Z" fill="white" stroke="#2064B4" stroke-width="3" stroke-miterlimit="10"/>
<path d="M121.691 160.568L165.207 160.496" stroke="#2064B4" stroke-width="3" stroke-miterlimit="10"/>
<path d="M127.764 119.55V107.546" stroke="#2064B4" stroke-width="3" stroke-miterlimit="10"/>
<path d="M141.209 135.678V107.472" stroke="#2064B4" stroke-width="3" stroke-miterlimit="10"/>
<path d="M132.534 138.55L132.462 107.472" stroke="#2064B4" stroke-width="3" stroke-miterlimit="10"/>
<path d="M136.872 126.178V107.178" stroke="#2064B4" stroke-width="3" stroke-miterlimit="10"/>
<path d="M108.562 55.3842L108.634 150.974C108.634 153.331 106.754 155.172 104.514 155.172L67.0695 155.246C64.7564 155.246 62.9492 153.331 62.9492 151.048L62.877 55.4579C62.877 53.1013 64.7564 51.2602 66.9972 51.2602L104.441 51.1865C106.682 51.1865 108.562 53.0276 108.562 55.3842Z" fill="white" stroke="#2064B4" stroke-width="3" stroke-miterlimit="10"/>
<path d="M64.0332 137.571H107.549" stroke="#2064B4" stroke-width="3" stroke-miterlimit="10"/>
<path d="M70.1055 96.551V84.5469" stroke="#2064B4" stroke-width="3" stroke-miterlimit="10"/>
<path d="M83.5508 112.679L83.4785 84.4731" stroke="#2064B4" stroke-width="3" stroke-miterlimit="10"/>
<path d="M74.8037 115.625V84.5469" stroke="#2064B4" stroke-width="3" stroke-miterlimit="10"/>
<path d="M79.2139 103.179L79.1416 84.2524" stroke="#2064B4" stroke-width="3" stroke-miterlimit="10"/>
<path d="M102.923 78.8038C96.1282 78.8038 90.7067 73.2069 90.6344 66.358C90.6344 63.5595 91.5742 60.982 93.0922 58.9199C86.5142 59.1409 81.2373 64.6642 81.2373 71.3658C81.2373 78.2883 86.731 83.8116 93.5259 83.8116C97.5016 83.8116 101.116 81.8233 103.284 78.8038C103.212 78.8038 103.068 78.8038 102.923 78.8038Z" fill="#2064B4"/>
<path d="M152.077 86.8311C152.077 85.4318 152.294 84.0326 152.727 82.707C152.511 82.707 152.294 82.707 152.077 82.707C144.848 82.707 138.993 88.6722 138.993 96.0365C138.993 103.401 144.848 109.366 152.077 109.366C157.932 109.366 162.847 105.463 164.51 100.161C157.571 99.7923 152.077 93.9745 152.077 86.8311Z" fill="#2064B4"/>
<path d="M298.777 258.063L298.849 240.903L225.985 226.764V243.923L298.777 258.063Z" fill="#C4C4C4" stroke="#DEDEDE" stroke-width="3" stroke-miterlimit="10"/>
<path d="M254.249 277.579V260.419L181.385 246.353V263.439L254.249 277.579Z" fill="#C4C4C4" stroke="#DEDEDE" stroke-width="3" stroke-miterlimit="10"/>
<path d="M208.925 296.358L208.998 279.273L136.134 265.133V282.292L208.925 296.358Z" fill="#C4C4C4" stroke="#DEDEDE" stroke-width="3" stroke-miterlimit="10"/>
<path d="M163.675 315.21L163.747 298.052L90.8105 283.912V301.071L163.675 315.21Z" fill="#C4C4C4" stroke="#DEDEDE" stroke-width="3" stroke-miterlimit="10"/>
<path d="M121.243 334.726L121.315 317.567L48.4512 303.501V318.451L121.243 334.726Z" fill="#C4C4C4" stroke="#DEDEDE" stroke-width="3" stroke-miterlimit="10"/>
<path d="M120.737 316.831H166.349L93.4854 302.765H47.8008L120.737 316.831Z" fill="white" stroke="#DEDEDE" stroke-width="2" stroke-miterlimit="10"/>
<path d="M253.237 259.61H298.922L226.058 245.47H180.373L253.237 259.61Z" fill="white" stroke="#DEDEDE" stroke-width="2" stroke-miterlimit="10"/>
<path d="M208.636 278.389H254.249L181.385 264.323H135.772L208.636 278.389Z" fill="white" stroke="#DEDEDE" stroke-width="2" stroke-miterlimit="10"/>
<path d="M162.88 297.242H208.492L135.628 283.176H89.9434L162.88 297.242Z" fill="white" stroke="#DEDEDE" stroke-width="2" stroke-miterlimit="10"/>
<path d="M297.403 239.431H343.088L270.224 225.292H224.539L297.403 239.431Z" fill="white" stroke="#DEDEDE" stroke-width="2" stroke-miterlimit="10"/>
<path d="M198.155 224.04L184.565 247.238L212.106 262.04L208.131 243.776L212.757 232.288L198.155 224.04Z" fill="#3D4B65"/>
<path d="M224.612 227.648L222.154 250.405L254.972 252.908L244.201 240.168L243.262 231.331L224.612 227.648Z" fill="#272D33"/>
<path d="M229.889 142.442C229.889 142.442 236.105 183.167 235.744 197.086C235.31 211.078 234.081 235.16 234.081 235.16" stroke="#36818E" stroke-width="29" stroke-miterlimit="10"/>
<path d="M224.467 92.8064C224.467 92.8064 218.54 94.2056 213.191 97.225C209.721 99.2134 205.745 107.02 206.902 124.473C207.335 131.175 211.311 133.9 227.142 133.31C245.864 132.574 249.044 129.776 249.044 129.776C249.044 129.776 250.779 107.462 242.466 98.5506C240.948 96.9304 235.599 94.0583 233.792 94.132C227.503 94.3529 224.467 92.8064 224.467 92.8064Z" fill="#E2E2E2"/>
<path d="M244.219 81.3037L244.955 81.8212C243.346 86.8105 244.389 93.2457 241.289 95.3349C238.189 97.424 235.418 96.414 234.864 96.2121C234.864 96.2121 231.369 99.307 231.307 100.568C231.245 101.829 223.141 94.1237 223.141 94.1237C223.141 94.1237 224.588 75.7768 230.798 82.3328L232.154 76.3502L244.219 81.3037Z" fill="#FFBC85"/>
<path d="M233.234 79.108C233.234 79.108 237.944 82.9091 241.276 83.4445C241.276 83.4445 244.387 84.0339 245.896 82.0836C245.896 82.0836 250.407 77.725 241.688 75.6407C241.688 75.6407 239.063 74.5738 236.564 72.9959C234.415 71.5254 231.05 71.9579 230.986 73.2216C230.986 73.2216 226.94 71.2752 224.693 81.3723C222.447 91.4694 216.454 95.5551 216.454 95.5551C216.454 95.5551 225.972 97.5499 227.522 95.2299C229.213 94.2676 229.047 93.1318 229.052 87.7546C230.781 79.7751 233.234 79.108 233.234 79.108Z" fill="#6057C0"/>
<path d="M210.01 121.822C210.01 121.822 214.058 134.636 223.527 134.636C227.214 134.636 228.66 130.733 228.66 130.733" stroke="black" stroke-miterlimit="10"/>
<path d="M223.238 137.434C223.238 137.434 207.841 221.168 200.251 238.253" stroke="#4DBED8" stroke-width="29" stroke-miterlimit="10"/>
<path d="M215.431 155.698C227.575 159.822 234.804 156.655 238.274 154.078C239.864 152.899 240.804 150.985 240.876 148.996L241.237 135.299L207.914 134.636C207.335 140.233 206.396 142.147 206.685 145.461C207.119 150.248 211.094 154.151 215.431 155.698Z" fill="#4DBED8"/>
<path d="M210.661 110.406L205.312 144.946L241.021 148.039L241.454 129.26L210.661 110.406Z" fill="#E2E2E2"/>
<path d="M233.142 74.4689C233.142 74.4689 231.841 79.8448 232.563 81.8331C232.563 81.8331 244.707 85.8835 246.442 81.8331C248.177 77.7828 245.358 73.1433 233.142 74.4689Z" fill="#6057C0"/>
<path d="M263.361 161.074L223.238 147.87V127.199L263.885 139.468L263.361 161.074Z" fill="white" stroke="#2064B4" stroke-miterlimit="10"/>
<path d="M289.888 151.605L264.343 160.673L264.866 139.669L290 131.067L289.888 151.605Z" fill="white" stroke="#2064B4" stroke-miterlimit="10"/>
<path d="M289.084 130.466L263.884 139.002L223.893 126.665L256.488 118.864L289.084 130.466Z" fill="white" stroke="#2064B4" stroke-miterlimit="10"/>
<path d="M245 119.152L234 124.4V108.289L245 102.98V119.152Z" fill="#666666" stroke="#2064B4" stroke-width="3" stroke-miterlimit="10"/>
<path d="M284.869 128.48L252 120.802V104L285 112.433L284.869 128.48Z" fill="#666666" stroke="#2064B4" stroke-miterlimit="10"/>
<path d="M262.379 121.598L239.732 115.196V98.0586L262.379 104.46V121.598Z" fill="white" stroke="#2064B4" stroke-miterlimit="10"/>
<path d="M266.044 118.864L243.463 112.462V95.3245L266.044 101.726V118.864Z" fill="white" stroke="#2064B4" stroke-miterlimit="10"/>
<path d="M264.343 121.131L245.165 114.729V97.5918L264.343 102.926V121.131Z" fill="white" stroke="#2064B4" stroke-miterlimit="10"/>
<path d="M280.706 122.198L258.125 115.796V98.6587L280.706 105.06V122.198Z" fill="white" stroke="#2064B4" stroke-miterlimit="10"/>
<path d="M278.938 124.465L259.826 118.064V100.926L278.938 106.328V124.465Z" fill="white" stroke="#2064B4" stroke-miterlimit="10"/>
<path d="M273.637 118.063L251.056 110.862V91.5239L273.637 97.4586V118.063Z" fill="white" stroke="#2064B4" stroke-miterlimit="10"/>
<path d="M271.936 120.596L252.758 113.394V94.0562L271.936 98.8573V120.596Z" fill="white" stroke="#2064B4" stroke-miterlimit="10"/>
<path d="M270.822 123.331L248.241 116.93V99.7922L270.822 106.194V123.331Z" fill="white" stroke="#2064B4" stroke-miterlimit="10"/>
<path d="M268.729 125.265L249.551 118.864V101.659L268.729 107.061V125.265Z" fill="white" stroke="#2064B4" stroke-miterlimit="10"/>
<path d="M256.489 122.731L247.391 119.064L256.489 103.727L265.063 106.261L256.489 122.731Z" fill="white" stroke="#2064B4" stroke-miterlimit="10"/>
<path d="M259.499 123.598L236.918 117.197V99.9924L259.499 106.394V123.598Z" fill="white" stroke="#2064B4" stroke-miterlimit="10"/>
<path d="M263.819 123.398C265.41 123.398 266.699 122.144 266.699 120.597C266.699 119.05 265.41 117.797 263.819 117.797C262.229 117.797 260.939 119.05 260.939 120.597C260.939 122.144 262.229 123.398 263.819 123.398Z" stroke="#2064B4" stroke-width="2" stroke-miterlimit="10"/>
<path d="M239.013 115.93C239.013 115.93 245.558 112.529 246.932 110.728C248.307 108.928 251.711 110.728 251.711 110.728C251.711 110.728 260.678 130.066 269.317 131.667" stroke="#2064B4" stroke-miterlimit="10"/>
<path d="M241.042 112.195C241.042 112.195 247.129 108.794 248.438 106.994C249.747 105.194 252.889 106.994 252.889 106.994C252.889 106.994 261.201 126.332 269.318 127.932" stroke="#2064B4" stroke-miterlimit="10"/>
<path d="M266.045 135.001L233.057 126.265V108.861L266.045 117.53V135.001Z" fill="white" stroke="#2064B4" stroke-miterlimit="10"/>
<path d="M285.091 128.419L266.896 134.354V117.597L285.222 112.462L285.091 128.419Z" fill="white" stroke="#2064B4" stroke-miterlimit="10"/>
<path d="M224.684 147.892C224.973 148.334 231.623 161.001 242.539 156.656C242.539 156.656 248.466 153.783 246.587 152.532C244.635 151.28 240.804 147.376 240.804 147.376L227.72 143.621C227.792 143.621 223.238 145.683 224.684 147.892Z" fill="#FFBC85"/>
<path d="M218.058 109.67C218.058 109.67 209.817 133.237 234.466 148.039" stroke="#E2E2E2" stroke-width="19" stroke-miterlimit="10"/>
<path d="M33.0546 281.482L15.7783 298.788L42.2349 322.06L41.2229 303.87L43.4637 295.032L33.0546 281.482Z" fill="#272D33"/>
<path d="M79.0279 283.544L77.0762 307.331L110.255 306.889L96.9547 294.517L96.015 285.017L79.0279 283.544Z" fill="#3D4B65"/>
<path d="M51.1139 211.078C51.1139 211.078 55.0896 250.625 34.9941 294.075" stroke="#36818E" stroke-width="29" stroke-miterlimit="10"/>
<path d="M66.306 203.051L39.4157 202.83C39.4157 202.83 32.6208 216.16 38.7651 225.218C44.6203 233.834 67.5348 227.427 67.5348 227.427C67.5348 227.427 69.5588 213.582 66.306 203.051Z" fill="#4DBED8"/>
<path d="M61.6074 216.307C61.6074 216.307 85.9677 231.33 89.9434 243.187C93.0517 252.54 88.2808 290.025 88.2086 294.075" stroke="#4DBED8" stroke-width="29" stroke-miterlimit="10"/>
<path d="M66.9561 205.702L36.813 210.416C36.813 210.416 36.0901 205.629 34.789 194.95C31.3192 184.493 30.8132 182.873 31.6084 171.384C31.753 168.88 34.6444 161.369 36.5238 160.264C41.5838 160.853 44.6921 161.442 50.4027 163.21C54.8844 167.849 60.5227 175.803 65.2212 188.617C66.5947 192.373 66.9561 199.884 66.9561 205.702Z" fill="#E2E2E2"/>
<path d="M67.8965 180.295C67.8965 180.295 86.4739 182.872 92.9796 160.999" stroke="#E2E2E2" stroke-width="19" stroke-miterlimit="10"/>
<path d="M99.9184 133.531C99.9184 133.531 90.6658 152.973 89.5816 162.4C88.5696 171.826 68.0404 206.218 68.0404 206.218C68.0404 206.218 68.3296 210.784 58.7156 210.342C49.1016 209.973 49.1738 204.082 49.1738 204.082C49.1738 204.082 61.0287 182.578 65.7273 172.857C70.4981 163.062 70.5 126 70.5 126C70.5 126 83.5819 140.159 99.9184 133.531Z" fill="white" stroke="#2064B4" stroke-width="2" stroke-miterlimit="10"/>
<path d="M43.7979 128.965C43.7979 128.965 39.9071 124.372 41.3019 125.167C42.6967 125.962 53.1946 123.577 55.8374 122.782C57.9663 122.164 65.1606 121.546 63.8392 126.227C63.4721 127.463 62.6646 128.965 60.9762 130.996C52.8275 140.799 43.3574 131.967 43.3574 131.967C41.4487 131.084 42.7701 129.936 45.2661 128.876C48.4228 127.551 53.4148 126.403 55.5437 126.403C59.2877 126.315 58.7004 127.64 55.3235 130.201C51.9465 132.762 47.9823 130.113 47.9823 130.113L49.5974 134.617" fill="white"/>
<path d="M43.7979 128.965C43.7979 128.965 39.9071 124.372 41.3019 125.167C42.6967 125.962 53.1946 123.577 55.8374 122.782C57.9663 122.164 65.1606 121.546 63.8392 126.227C63.4721 127.463 62.6646 128.965 60.9762 130.996C52.8275 140.799 43.3574 131.967 43.3574 131.967C41.4487 131.084 42.7701 129.936 45.2661 128.876C48.4228 127.551 53.4148 126.403 55.5437 126.403C59.2877 126.315 58.7004 127.64 55.3235 130.201C51.9465 132.762 47.9823 130.113 47.9823 130.113L49.5974 134.617" stroke="#2064B4" stroke-width="2" stroke-miterlimit="10"/>
<path d="M44 134.429C44 134.429 51.8321 148.786 52.5573 157.883C53.2824 166.98 63.6527 203.44 63.6527 203.44C63.6527 203.44 62.9275 205.928 72.2099 205.999C81.5649 206.07 82 202.303 82 202.303C82 202.303 71.1221 181.124 66.771 171.458C62.4199 161.863 63.2901 130.52 63.2901 130.52C63.2901 130.52 59.6641 141.536 44 134.429Z" fill="white" stroke="#2064B4" stroke-width="2" stroke-miterlimit="10"/>
<path d="M62.8354 139.349C62.8354 139.349 65.8714 155.919 63.7751 165.124C61.6788 174.33 60.3777 213.582 60.3777 213.582C60.3777 213.582 58.8597 215.791 67.7508 218.737C76.5696 221.683 78.1599 218.074 78.1599 218.074C78.1599 218.074 74.3288 193.772 73.0999 182.946C71.9434 172.12 82.2802 141.411 82.2802 141.411C82.2802 141.411 75.5576 151.206 62.8354 139.349Z" fill="white" stroke="#2064B4" stroke-width="2" stroke-miterlimit="10"/>
<path d="M79 132.5L83 130L100 132.5L93 135.176L79 132.5Z" fill="white"/>
<path d="M100.641 132.942C100.641 132.942 96.8101 129.628 87.0515 128.008C77.2929 126.388 78.8832 129.849 78.8832 129.849C78.8832 129.849 89.0032 135.225 92.1115 133.531C95.2198 131.837 87.4129 130.733 87.4129 130.733" fill="white"/>
<path d="M100.641 132.942C100.641 132.942 96.8101 129.628 87.0515 128.008C77.2929 126.388 78.8832 129.849 78.8832 129.849C78.8832 129.849 89.0032 135.225 92.1115 133.531C95.2198 131.837 87.4129 130.733 87.4129 130.733" stroke="#2064B4" stroke-width="2" stroke-miterlimit="10"/>
<path d="M78.9551 132.425V129.775" stroke="#2064B4" stroke-width="2" stroke-miterlimit="10"/>
<path d="M64.0651 135.593C64.0651 135.593 61.5351 130.732 62.6916 131.763C63.8482 132.794 74.2573 134.046 76.9319 134.267C79.0282 134.415 85.9676 136.035 83.5822 139.422C83.0039 140.306 81.7751 141.264 79.7511 142.295C69.7034 147.671 62.9808 137.729 62.9808 137.729C61.3905 136.477 62.9808 135.961 65.5108 135.888C68.8359 135.814 73.7514 136.403 75.7754 136.992C79.3174 138.023 78.3776 138.981 74.6188 139.938C70.7876 140.969 67.7516 137.655 67.7516 137.655L68.1854 141.705" fill="white"/>
<path d="M64.0651 135.593C64.0651 135.593 61.5351 130.732 62.6916 131.763C63.8482 132.794 74.2573 134.046 76.9319 134.267C79.0282 134.415 85.9676 136.035 83.5822 139.422C83.0039 140.306 81.7751 141.264 79.7511 142.295C69.7034 147.671 62.9808 137.729 62.9808 137.729C61.3905 136.477 62.9808 135.961 65.5108 135.888C68.8359 135.814 73.7514 136.403 75.7754 136.992C79.3174 138.023 78.3776 138.981 74.6188 139.938C70.7876 140.969 67.7516 137.655 67.7516 137.655L68.1854 141.705" stroke="#2064B4" stroke-width="2" stroke-miterlimit="10"/>
<path d="M37.9695 138.76C38.331 138.76 38.6924 138.613 38.837 138.244C39.2707 137.287 40.7164 135.52 45.1981 135.814C51.4147 136.182 50.7641 137.14 56.4024 138.392C59.4384 139.054 62.2575 146.345 47.1498 145.314C46.7161 145.314 46.2824 145.535 46.0655 145.977C45.415 147.523 43.897 151.058 42.7404 150.985C41.7284 150.911 41.4393 155.035 41.367 157.318C41.367 158.054 40.6441 158.496 39.9213 158.275C39.9213 158.275 35.4395 158.864 35.3673 158.864C34.4275 158.57 27.3435 161.368 29.8013 157.023C32.259 152.678 32.765 138.834 37.9695 138.76Z" fill="#6057C0"/>
<path d="M52.7154 144.136L55.2454 143.841C55.3177 149.364 58.3537 152.899 55.896 156.14C53.4383 159.38 50.33 159.38 49.6072 159.38L48.306 166.597L36.5234 162.399C36.5234 162.399 39.9209 157.981 40.5714 156.508C40.5714 156.508 41.0774 153.857 40.0654 153.709C37.4631 153.341 37.8246 143.915 42.8846 149.143L44.6917 145.314C45.9206 141.853 50.9083 143.399 52.7154 144.136Z" fill="#FFBC85"/>
<path d="M46.138 141.999C46.2826 144.356 48.2343 146.123 50.6197 145.902C53.0051 145.681 54.8123 143.693 54.6677 141.336C54.5231 138.98 52.5714 137.213 50.186 137.433C47.8006 137.654 45.9934 139.643 46.138 141.999Z" fill="#6057C0"/>
<path d="M73.3894 186.408C73.7508 186.408 84.3768 188.617 87.6297 179.779C87.6297 179.779 89.1477 174.698 87.4128 175.287C85.678 175.876 81.4854 176.244 81.4854 176.244L72.5943 182.431C72.522 182.431 71.3654 186.187 73.3894 186.408Z" fill="#FFBC85"/>
<path d="M91.6057 164.314C91.8949 164.02 99.9909 157.613 96.4489 151.721C96.3766 151.647 96.3043 151.5 96.232 151.426C95.726 150.837 93.8466 148.628 93.196 149.88C92.6177 150.985 91.0997 153.047 90.4491 153.93C90.2323 154.225 90.0154 154.593 89.9431 155.035L88.642 161.958C88.4251 163.062 89.0034 164.241 90.0154 164.609C90.5214 164.83 91.0997 164.83 91.6057 164.314Z" fill="#FFBC85"/>
<path d="M44.7646 175.729C44.7646 175.729 53.8004 192.446 74.9801 184.64" stroke="#E2E2E2" stroke-width="19" stroke-miterlimit="10"/>
<path d="M37.2773 169C35.2773 167.5 34.7773 167 35.2773 165C29.2773 170 29.7774 182.5 30.2774 186C30.6774 188.8 33.7774 205.833 35.2774 214L49.2774 212C44.7773 209 48.2773 199.4 46.2773 199C44.2773 198.6 48.2773 195.833 48.7773 195C49.944 194.667 46.2773 193.5 42.7773 186C40.5297 181.184 40.2774 178.5 40.7774 176.5C41.1774 174.9 40.7773 175.5 39.7773 174C38.7773 172.5 39.2773 170.5 37.2773 169Z" fill="url(#paint0_linear)"/>
<defs>
<linearGradient id="paint0_linear" x1="39.6387" y1="165" x2="39.6387" y2="214" gradientUnits="userSpaceOnUse">
<stop offset="0.510417" stop-color="#C4C4C4"/>
<stop offset="1" stop-color="#C4C4C4" stop-opacity="0"/>
</linearGradient>
</defs>
</svg>
