<svg width="724" height="458" viewBox="0 0 724 458" fill="none" xmlns="http://www.w3.org/2000/svg">
<path fill-rule="evenodd" clip-rule="evenodd" d="M0.363281 411.12C56.1168 372.553 107.399 313.327 154.225 259.249C192.254 215.33 227.343 174.805 259.5 151.5C363.199 76.3451 568 1 658 1H0.363317L0.363297 229.4L0.363281 411.12Z" fill="#7880E1"/>
<path fill-rule="evenodd" clip-rule="evenodd" d="M0.363281 457.88C94.3061 426.907 187.652 346.155 265.003 279.24C294.638 253.603 321.926 229.997 346 212C402.591 169.693 495.654 122.869 576.352 82.2668C642.591 48.9393 700.498 19.8036 723.066 0.79834L0.363321 0.798343L0.363301 229.399L0.363281 457.88Z" fill="url(#paint0_linear)"/>
<defs>
<linearGradient id="paint0_linear" x1="362" y1="-3.16903e-08" x2="362" y2="458" gradientUnits="userSpaceOnUse">
<stop stop-color="#8AC6F1"/>
<stop offset="1" stop-color="#8AC6F1" stop-opacity="0"/>
</linearGradient>
</defs>
</svg>
