<svg width="607" height="1317" viewBox="0 0 607 1317" fill="none" xmlns="http://www.w3.org/2000/svg">
<g clip-path="url(#clip0)">
<path fill-rule="evenodd" clip-rule="evenodd" d="M642.452 1.30577e-05L262.503 0H242.97C193.717 38.5293 58.258 175.869 58.258 175.869C58.258 175.869 23.0004 210 23 245C22.9996 280 71 296 71 296C71 296 226.957 338.77 99.6022 406.816C30.8825 443.533 97.4282 542.418 199.06 628.175C287.791 703.046 189.688 786.97 158.854 813.348C154.371 817.183 151.31 819.801 150.452 820.999H426.452C420.556 814.357 413.995 797.997 405.772 777.493C389.375 736.606 366.371 679.243 328.856 649.614C272.528 605.128 319.843 550.994 328.856 543.49C328.856 543.49 451.65 473.278 365.79 350.002C332.621 302.379 513.791 189.098 642.452 169.193V1.30577e-05Z" fill="url(#paint0_linear)"/>
<path d="M237.373 1066.01C139.561 1133.17 145.237 1273.9 -1 1318V854L1 848L3 845H454.071L459.6 849.5L469 856.5H607L469 1001.98C414.871 1045.13 353.973 985.945 237.373 1066.01Z" fill="url(#paint1_linear)"/>
<path fill-rule="evenodd" clip-rule="evenodd" d="M658 0H487.366L344.493 1.14441e-05H324.961C255.305 54.2988 114.217 179.994 100.248 244.084C92.8784 277.899 138.033 294.967 179.259 310.55C235.705 331.886 284.786 350.438 181.599 405.378C112.882 441.966 179.425 540.503 281.053 625.956C367.272 698.454 240.478 782.999 195.922 812.708C187.96 818.017 182.624 821.575 181.599 823H439.394C430.469 812.982 428.006 778.843 425.357 742.147C422.768 706.26 420.001 667.928 410.843 647.32C392.32 605.64 401.831 549.048 410.843 541.571C410.843 541.571 497.555 446 439.394 366C385.112 291.336 625.668 217.543 658 208.031V0Z" fill="url(#paint2_linear)"/>
<ellipse rx="256.949" ry="53.9645" transform="matrix(0.999553 0.029904 -0.0431853 0.999067 307.165 861.247)" fill="url(#paint3_angular)"/>
<ellipse rx="212.33" ry="33.7846" transform="matrix(0.999553 0.029904 -0.0431853 0.999067 307.521 850.512)" fill="white"/>
<path d="M496.5 858.078C424.5 890.078 140.788 870.915 125.5 851.077C129.448 849.025 141.589 841.714 145.5 839.818L141.965 822.783C139.563 814.709 137.178 806.687 138.5 806.078C142.184 804.379 150.351 813.641 154 812.078C155.355 811.497 159.403 815.817 163.412 820.082L172.5 827.811C197.642 817.631 221.876 810.607 245 806.14C250.85 805.01 256.629 804.043 262.333 803.231C268.476 802.356 274.533 801.659 280.5 801.129C308.057 798.68 333.691 799.779 357 803.231L374 785.577C374 785.577 381.421 789.116 385.5 790.078L394 811.061C434.493 822.316 478.815 842.908 496.5 858.078Z" fill="#7399D1"/>
<path d="M142 806.578C141.333 808.911 141.6 813.778 148 814.578C152.267 815.111 153.807 815.081 154.163 814.904L154 814.578C154.222 814.689 154.341 814.815 154.163 814.904L161.5 829.578C162 830.744 163.2 832.878 164 832.078C164.8 831.278 162.667 825.411 161.5 822.578L171 833.578C172.833 833.911 176.2 834.078 175 832.078C179.333 833.244 183.8 836.678 167 841.078C146 846.578 136 845.078 139.5 843.078C142.3 841.478 144.667 840.078 145.5 839.578L138 806.578C138.833 806.244 140.8 805.778 142 806.578Z" fill="url(#paint4_linear)"/>
<path d="M385 802.578L382 789.078L386 790.078L393.5 811.578L402.5 824.078L382 811.578L378 797.078L382 801.078L385 802.578Z" fill="#C4C4C4"/>
<path d="M401.952 874.19C426.752 869.548 406.542 827.676 392 810.578C432.8 820.978 483.5 843.578 496.5 858.078C461.848 877.065 424.343 872.168 401.952 874.19C400.886 874.39 399.736 874.521 398.5 874.578C399.606 874.426 400.757 874.298 401.952 874.19Z" fill="url(#paint5_linear)"/>
<path d="M304 874.578C355.6 853.778 310 816.5 282.5 801C313.3 797.4 344.667 801.078 354 803.078C378.8 817.878 375.667 857.578 368 875.078C349 875.078 314.833 875.744 304 874.578Z" fill="url(#paint6_linear)"/>
<circle cx="272.452" cy="33" r="2" fill="white"/>
<circle cx="298.452" cy="105" r="2" fill="white"/>
<circle cx="322.452" cy="118" r="2" fill="white"/>
<circle cx="420.452" cy="45" r="2" fill="white"/>
<circle cx="444.452" cy="58" r="2" fill="white"/>
<circle r="0.5" transform="matrix(-1 0 0 1 262.952 41.5)" fill="white"/>
<circle r="0.5" transform="matrix(-1 0 0 1 286.952 54.5)" fill="white"/>
<circle r="0.5" transform="matrix(-1 0 0 1 279.952 33.5)" fill="white"/>
<circle r="0.5" transform="matrix(-1 0 0 1 303.952 46.5)" fill="white"/>
<circle r="0.5" transform="matrix(-1 0 0 1 277.952 35.5)" fill="white"/>
<circle r="0.5" transform="matrix(-1 0 0 1 301.952 48.5)" fill="white"/>
<circle r="0.5" transform="matrix(-1 0 0 1 262.952 32.5)" fill="white"/>
<circle r="0.5" transform="matrix(-1 0 0 1 286.952 45.5)" fill="white"/>
<circle r="0.5" transform="matrix(-1 0 0 1 250.952 43.5)" fill="white"/>
<circle r="0.5" transform="matrix(-1 0 0 1 274.952 56.5)" fill="white"/>
<circle r="0.5" transform="matrix(-1 0 0 1 299.952 42.5)" fill="white"/>
<circle r="0.5" transform="matrix(-1 0 0 1 299.952 48.5)" fill="white"/>
<circle r="0.5" transform="matrix(-1 0 0 1 295.952 45.5)" fill="white"/>
<circle r="1" transform="matrix(-1 0 0 1 273.452 28)" fill="white"/>
<circle r="1" transform="matrix(-1 0 0 1 281.452 34)" fill="white"/>
<circle r="1" transform="matrix(-1 0 0 1 372.452 34)" fill="white"/>
<circle r="1" transform="matrix(-1 0 0 1 276.452 81)" fill="white"/>
<circle r="1" transform="matrix(-1 0 0 1 375.452 39)" fill="white"/>
<circle r="1" transform="matrix(-1 0 0 1 279.452 86)" fill="white"/>
<circle cx="303.452" cy="46" r="2" fill="white"/>
<circle cx="329.452" cy="118" r="2" fill="white"/>
<circle cx="451.452" cy="58" r="2" fill="white"/>
<circle cx="207.452" cy="93" r="2" fill="white"/>
<circle cx="375.452" cy="33" r="2" fill="white"/>
<circle cx="279.452" cy="80" r="2" fill="white"/>
<circle r="0.5" transform="matrix(-1 0 0 1 363.952 31.5)" fill="white"/>
<circle r="0.5" transform="matrix(-1 0 0 1 426.952 56.5)" fill="white"/>
<circle r="0.5" transform="matrix(-1 0 0 1 267.952 78.5)" fill="white"/>
<circle r="0.5" transform="matrix(-1 0 0 1 330.952 103.5)" fill="white"/>
<circle r="0.5" transform="matrix(-1 0 0 1 400.952 32.5)" fill="white"/>
<circle r="0.5" transform="matrix(-1 0 0 1 463.952 57.5)" fill="white"/>
<circle r="0.5" transform="matrix(-1 0 0 1 304.952 79.5)" fill="white"/>
<circle r="0.5" transform="matrix(-1 0 0 1 275.952 92.5)" fill="white"/>
<circle r="0.5" transform="matrix(-1 0 0 1 270.952 97.5)" fill="white"/>
<circle r="0.5" transform="matrix(-1 0 0 1 241.952 110.5)" fill="white"/>
<circle r="0.5" transform="matrix(-1 0 0 1 367.952 104.5)" fill="white"/>
<circle r="0.5" transform="matrix(-1 0 0 1 338.952 117.5)" fill="white"/>
<circle r="0.5" transform="matrix(-1 0 0 1 333.952 122.5)" fill="white"/>
<circle r="0.5" transform="matrix(-1 0 0 1 304.952 135.5)" fill="white"/>
<circle r="0.5" transform="matrix(-1 0 0 1 396.952 35.5)" fill="white"/>
<circle r="0.5" transform="matrix(-1 0 0 1 367.952 48.5)" fill="white"/>
<circle r="0.5" transform="matrix(-1 0 0 1 362.952 53.5)" fill="white"/>
<circle r="0.5" transform="matrix(-1 0 0 1 333.952 66.5)" fill="white"/>
<circle r="0.5" transform="matrix(-1 0 0 1 459.952 60.5)" fill="white"/>
<circle r="0.5" transform="matrix(-1 0 0 1 430.952 73.5)" fill="white"/>
<circle r="0.5" transform="matrix(-1 0 0 1 425.952 78.5)" fill="white"/>
<circle r="0.5" transform="matrix(-1 0 0 1 396.952 91.5)" fill="white"/>
<circle r="0.5" transform="matrix(-1 0 0 1 300.952 82.5)" fill="white"/>
<circle r="0.5" transform="matrix(-1 0 0 1 271.952 95.5)" fill="white"/>
<circle r="0.5" transform="matrix(-1 0 0 1 266.952 100.5)" fill="white"/>
<circle r="0.5" transform="matrix(-1 0 0 1 237.952 113.5)" fill="white"/>
<path d="M364.452 39L365.35 41.7639H368.256L365.905 43.4721L366.803 46.2361L364.452 44.5279L362.101 46.2361L362.999 43.4721L360.648 41.7639H363.554L364.452 39Z" fill="white"/>
<path d="M448.095 156.752L447.728 158.481L449.259 159.365L447.501 159.55L447.133 161.279L446.414 159.664L444.656 159.849L445.97 158.666L445.251 157.051L446.782 157.935L448.095 156.752Z" fill="white"/>
<path d="M254.795 108.097L255.973 109.415L257.59 108.703L256.7 110.23L257.878 111.548L256.151 111.174L255.261 112.702L255.083 110.943L253.355 110.569L254.973 109.856L254.795 108.097Z" fill="white"/>
<circle r="0.5" transform="matrix(-1 0 0 1 262.952 41.5)" fill="white"/>
<circle r="0.5" transform="matrix(-1 0 0 1 299.952 42.5)" fill="white"/>
<circle r="0.5" transform="matrix(-1 0 0 1 295.952 45.5)" fill="white"/>
<path d="M399.452 584H161.252C141.452 584 124.452 575.261 124.452 564.446V397.5C124.452 386.685 146.152 385 165.952 385L391.452 385C411.252 385 435.952 386.685 435.952 397.5L435.352 564.446C435.252 575.206 419.252 584 399.452 584Z" fill="white" stroke="#549BEF" stroke-miterlimit="10"/>
<path d="M431.471 429.62H128.529C125.742 429.62 123.452 426.899 123.452 423.586V389.035C123.452 385.722 125.742 383 128.529 383H431.372C434.159 383 436.449 385.722 436.449 389.035V423.468C436.549 426.899 434.259 429.62 431.471 429.62Z" fill="#20B47F"/>
<path d="M430.535 429.62H131.465C128.713 429.62 126.452 426.899 126.452 423.586V389.035C126.452 385.722 128.713 383 131.465 383H430.437C433.189 383 435.449 385.722 435.449 389.035V423.468C435.547 426.899 433.287 429.62 430.535 429.62Z" fill="url(#paint7_linear)"/>
<path d="M429.438 430H132.466C128.614 430 125.452 426.376 125.452 421.959V391.041C125.452 386.624 128.614 383 132.466 383H429.438C433.291 383 436.452 386.624 436.452 391.041V421.959C436.452 426.489 433.291 430 429.438 430Z" fill="url(#paint8_linear)" style="mix-blend-mode:lighten"/>
<path d="M381.152 404.417H365.052V418.734H381.152V404.417Z" stroke="white" stroke-width="3" stroke-miterlimit="10"/>
<path d="M388.252 396.134H372.152V410.452H388.252V396.134Z" stroke="white" stroke-width="3" stroke-miterlimit="10"/>
<line x1="328.452" y1="407" x2="352.452" y2="407" stroke="white" stroke-width="2"/>
<line x1="403.871" y1="414.979" x2="421.9" y2="399.851" stroke="white" stroke-width="3"/>
<line x1="404.416" y1="399.851" x2="422.446" y2="414.979" stroke="white" stroke-width="3"/>
<g filter="url(#filter0_d)">
<path d="M261.335 680H110.163C97.6022 680 87.4521 666.995 87.4521 650.901V549.868C87.4521 533.774 97.6022 523.17 110.163 523.17H185.749H261.335C273.895 523.17 284.768 517.568 283.323 549.868C283.323 549.868 283.323 634.807 283.323 650.901C283.323 666.995 273.895 680 261.335 680Z" fill="white" stroke="#549BEF" stroke-miterlimit="10"/>
<path d="M279.557 545H91.4431C89.0025 545 87 542.687 87 539.867V520.133C87 517.313 89.0025 515 91.4431 515H279.557C281.997 515 284 517.313 284 520.133V539.867C284 542.759 281.997 545 279.557 545Z" fill="#20B47F"/>
<path d="M277.579 545H90.4206C87.9924 545 86 542.764 86 540.039V520.961C86 518.236 87.9924 516 90.4206 516H277.579C280.008 516 282 518.236 282 520.961V540.039C282 542.834 280.008 545 277.579 545Z" fill="url(#paint9_linear)" style="mix-blend-mode:lighten"/>
<g filter="url(#filter1_d)">
<path d="M118 572H260" stroke="#20B47F" stroke-width="5" stroke-miterlimit="10"/>
</g>
<g filter="url(#filter2_d)">
<path d="M118 600H261" stroke="#20B47F" stroke-width="5" stroke-miterlimit="10"/>
</g>
<g filter="url(#filter3_d)">
<path d="M131 630H240" stroke="#20B47F" stroke-width="5" stroke-miterlimit="10"/>
</g>
<path d="M260.058 523L272 537" stroke="white" stroke-width="2" stroke-miterlimit="10"/>
<path d="M272.001 523L258.731 537" stroke="white" stroke-width="2" stroke-miterlimit="10"/>
<path d="M203 530.636H220.25" stroke="white" stroke-width="2" stroke-miterlimit="10"/>
<path d="M247.446 523H236.904V531.751H247.446V523Z" stroke="white" stroke-width="2" stroke-miterlimit="10"/>
<path d="M242.797 528.063H232.256V536.814H242.797V528.063Z" stroke="white" stroke-width="2" stroke-miterlimit="10"/>
</g>
<path d="M356.352 768L349.952 829.8H353.152L363.452 769.4L356.352 768Z" fill="#939393"/>
<path d="M404.952 770.1L422.552 838L425.552 836.9L412.252 769.1L404.952 770.1Z" fill="#939393"/>
<path d="M417.352 696.6C418.052 697.5 418.552 698.6 418.652 699.8C420.052 709.2 426.452 756.6 416.452 767.7C406.652 778.5 361.852 777.1 350.852 776.6C348.452 776.5 346.152 775.1 345.152 772.9C344.452 771.5 344.252 769.7 345.352 767.7C348.152 762.5 387.852 747.3 396.652 737.6C405.052 728.2 406.252 682.6 417.352 696.6Z" fill="#2064B4"/>
<path d="M397.954 766.745C408.593 760.313 392.446 753.642 383.042 751.111C339.84 749.681 339.517 762.427 344.756 768.979C358.056 770.914 387.314 773.178 397.954 766.745Z" fill="#42B0FF"/>
<path d="M404.952 768C411.752 763.2 414.452 717 414.952 694.5C424.452 697 425 753 418.452 765.5C413.452 775.045 390.285 776.333 378.952 776.5C384.785 775.667 398.152 772.8 404.952 768Z" fill="#42B0FF"/>
<path d="M342.652 650.1C346.683 650.1 349.952 646.832 349.952 642.8C349.952 638.768 346.683 635.5 342.652 635.5C338.62 635.5 335.352 638.768 335.352 642.8C335.352 646.832 338.62 650.1 342.652 650.1Z" fill="#6057C0"/>
<path d="M365.652 639.1C365.652 639.1 364.952 634.7 356.952 635.7C348.952 636.7 349.752 638 342.552 640.1C338.652 641.3 335.252 651.4 356.052 648.2C356.052 648.2 359.252 655.7 361.052 655.4C362.852 655.1 362.652 662.6 362.652 662.6L367.052 661.2C367.052 661.2 367.752 655.7 370.652 654C373.552 652.3 372.552 636.4 365.652 639.1Z" fill="#6057C0"/>
<path d="M361.952 652.688C370.452 637.5 354.952 639 354.452 639C363.952 636.312 365.952 637.333 365.952 639C372.952 636.5 374.452 652.688 371.952 653.688C369.952 654.488 368.452 659.021 367.952 661.188L365.452 662.188C363.619 661.355 359.108 657.77 361.952 652.688Z" fill="#0B0A54"/>
<path d="M347.452 648.2L341.952 650C342.252 657.3 341.052 662.5 344.352 666.5C347.752 670.5 347.452 670.5 353.952 668.5L357.052 679.5L369.852 669.8C369.852 669.8 365.152 664.3 364.252 662.4C364.252 662.4 363.452 659 364.752 658.7C368.152 658 367.052 645.6 360.752 653L358.152 648.2C356.352 643.6 349.752 647.1 347.452 648.2Z" fill="#FFBC85"/>
<path d="M359.452 664.5L353.952 668.5L354.952 672C354.952 672 356.952 672 357.952 670C358.952 668 359.452 664.5 359.452 664.5Z" fill="#F07B61"/>
<path d="M350.552 649.4C353.645 649.4 356.152 646.893 356.152 643.8C356.152 640.707 353.645 638.2 350.552 638.2C347.459 638.2 344.952 640.707 344.952 643.8C344.952 646.893 347.459 649.4 350.552 649.4Z" fill="#6057C0"/>
<path d="M365.349 652.706C364.031 651.565 363.289 651.755 362.465 653.657C362.465 655.084 363.701 655.084 362.465 657.938C362.281 658.363 364.113 656.511 363.701 655.56C363.372 654.799 364.113 654.926 364.937 655.084C365.761 655.084 365.349 653.023 365.349 652.706Z" fill="#F07B61"/>
<path d="M364.452 656C364.052 656.667 363.092 658 362.452 658" stroke="#F07B61" stroke-width="0.5"/>
<path d="M322.352 701.2L325.652 690.5C325.652 690.5 340.052 694.7 346.352 698.8C352.652 702.9 358.352 708.2 358.352 708.2L344.252 717.4C344.252 717.4 325.652 705.1 322.352 701.2Z" fill="#C4C4C4"/>
<path d="M329.252 695.4C329.452 694.9 328.052 679.6 317.752 680.8C317.752 680.8 311.952 682 313.052 684.1C314.152 686.1 315.952 691.7 315.952 691.7L325.252 700.1C325.252 700.1 328.352 698 329.252 695.4Z" fill="#FFBC85"/>
<path d="M322.252 678.2H307.952V694.2H322.252V678.2Z" fill="#E2E2E2"/>
<path d="M323.952 718.1C323.552 717.6 312.652 703.5 303.252 709.4C303.252 709.4 298.252 713.2 300.652 714.5C303.052 715.8 308.152 720 308.152 720L322.452 723.3C322.352 723.3 326.152 720.5 323.952 718.1Z" fill="#FFBC85"/>
<path d="M391.751 733.9H368.101H344.451C346.251 732.9 347.151 731.5 349.951 729.3C339.251 728.3 321.051 727.9 321.051 727.9L319.151 711C319.151 711 335.951 708 349.951 707.5C353.251 708.5 355.051 688.8 354.951 686.5C354.951 674.1 362.651 662.1 376.551 671.5C395.451 684.4 391.751 733.9 391.751 733.9Z" fill="#E2E2E2"/>
<path d="M315.152 680C319.129 680 322.352 679.194 322.352 678.2C322.352 677.206 319.129 676.4 315.152 676.4C311.176 676.4 307.952 677.206 307.952 678.2C307.952 679.194 311.176 680 315.152 680Z" fill="#E2E2E2"/>
<path d="M315.152 679.9C318.245 679.9 320.752 679.273 320.752 678.5C320.752 677.727 318.245 677.1 315.152 677.1C312.059 677.1 309.552 677.727 309.552 678.5C309.552 679.273 312.059 679.9 315.152 679.9Z" fill="#939393"/>
<path d="M315.152 696C319.129 696 322.352 695.194 322.352 694.2C322.352 693.206 319.129 692.4 315.152 692.4C311.176 692.4 307.952 693.206 307.952 694.2C307.952 695.194 311.176 696 315.152 696Z" fill="#E2E2E2"/>
<path d="M335.452 810.7L343.352 842.3H293.952L306.852 825.8L309.652 813.3L335.452 810.7Z" fill="#272D33"/>
<path d="M343.952 816.8L344.552 848.4H302.452L316.252 831.9L317.052 819.5L343.952 816.8Z" fill="#3D4B65"/>
<path d="M389.252 753C387.452 771.1 351.252 764.7 338.652 763.8C334.752 763.5 331.552 767.1 332.152 771.1L339.952 824H307.252V749.3C307.252 748.2 307.352 747.1 307.652 746C309.252 739.6 315.052 733.7 321.052 733.7L373.052 733.2L389.152 733.7C389.252 734.1 390.152 743.7 389.252 753Z" fill="#36818E"/>
<path d="M391.652 753.2C389.952 772 371.552 765.6 348.452 765.8C344.752 765.8 342.352 767.2 344.052 771.3V827.2L316.452 827L315.252 749.4C315.252 748.2 315.352 747.1 315.652 745.9C317.152 739.2 322.552 733.2 328.152 733.2L376.452 733H391.952C391.952 733.4 392.552 743.6 391.652 753.2Z" fill="#4DBED8"/>
<path d="M330.105 832.5C334.905 831.7 334.618 828.167 334.452 827H344.452L344.605 848.5H320.105C325.105 848.5 341.952 838.5 336.452 838C332.052 837.6 329.272 833 330.105 832.5Z" fill="#32345A"/>
<path d="M391.852 753.6C390.152 772.4 371.752 766 348.652 766.2C344.952 766.2 342.552 767.6 344.252 771.7L344.452 827H334.452L338.952 803C338.952 781 330.952 753.6 330.952 753.6C330.952 753.6 338.652 763 344.252 763C344.252 763 368.452 767 380.452 760C392.452 753 391.952 733 391.952 733C391.952 733.4 392.752 744 391.852 753.6Z" fill="#36789D"/>
<path d="M379.452 688C379.452 683.6 372.785 673.5 369.452 669C390.452 671.5 393.785 713.833 391.952 733H370.952C371.285 731.333 372.252 727.7 371.452 726.5C370.652 725.3 359.785 727 354.452 728C358.619 726.833 367.452 724.3 369.452 723.5C371.952 722.5 374.452 704.5 375.952 702C377.152 700 374.452 696 370.952 693C374.152 691.8 375.785 694.5 377.452 697L378.452 696C378.452 696.667 378.704 694.504 377.452 692C373.452 684 362.952 681.5 367.452 681C371.052 680.6 377.619 685.5 379.452 688Z" fill="#C4C4C4"/>
<path d="M316.452 681C320.378 680.611 322.236 679 322.236 679C322.236 679 322.628 693.766 322.236 694.543C321.695 695.614 318.147 695.838 316.348 696C314.549 696.162 317.329 693 317.329 693C321.424 684.414 315.471 681 316.452 681Z" fill="#C4C4C4"/>
<path d="M170.952 769.3L164.552 830H167.752L178.052 770.7L170.952 769.3Z" fill="#939393"/>
<path d="M219.652 771.4L237.152 838L240.152 836.9L226.852 770.4L219.652 771.4Z" fill="#939393"/>
<path d="M169.052 695.4C167.852 696.6 166.752 698.7 166.452 700.3C164.952 710.6 161.152 758.4 170.852 769.3C180.452 780.1 222.352 776.8 233.152 776.3C235.552 776.2 238.352 774.7 239.352 772.5C240.052 771.1 240.452 765.8 239.352 763.7C236.652 758.5 181.952 762.7 185.652 750.3C205.652 683.6 179.052 685.3 169.052 695.4Z" fill="#2064B4"/>
<path d="M205.952 777.5C176.452 777.5 166.97 770.47 165.561 757.63C164.204 745.265 161.415 714.62 165.901 699.609C167.377 694.668 170.174 693.06 173.703 692C168.452 699 169.632 728.619 169.632 728.619C169.757 741.851 170.004 750.373 172.335 756.56C173.085 758.262 173.983 759.943 175.054 761.568C179.794 767.868 188.784 771.594 205.952 777.5Z" fill="#42B0FF"/>
<path d="M232.052 774.7L195.952 772.5C191.552 772.5 183.452 766.9 183.452 762.5C183.452 758.1 184.852 758.7 189.252 758.7H231.952C236.352 758.7 239.952 762.3 239.952 766.7C240.052 771.1 236.452 774.7 232.052 774.7Z" fill="#2064B4"/>
<path d="M183.552 720.6C182.252 732.3 180.752 767.9 212.252 763.3C212.452 763.3 212.552 763.3 212.752 763.3H228.652C229.852 763.3 223.152 762.7 223.852 761.6L237.152 741.9C238.952 739.2 237.252 735.4 234.152 735.3C232.052 735.2 229.652 735.9 229.652 733.7L222.152 721C222.152 718.7 228.752 717 226.652 717H187.352C185.352 717 183.752 718.5 183.552 720.6Z" fill="#E2E2E2"/>
<path d="M214.79 739.792C207.266 746.087 207.768 759.639 230.639 763.359H244.783C244.783 763.359 248.595 767.073 248.294 772.51C247.993 777.947 250.453 818 250.453 818H265.953L267.453 748.663C267.453 748.663 266.651 737.312 256.319 737.502H221.109C218.702 737.598 216.495 738.361 214.79 739.792Z" fill="#36818E"/>
<path d="M241.452 818L235.152 839.7H274.452L264.452 823.3V818H241.452Z" fill="#272D33"/>
<path d="M235.253 814.3L231.853 845.9H267.753L260.053 829.4L259.553 814L235.253 814.3Z" fill="#3D4B65"/>
<path d="M241.953 826.5C241.153 825.3 245.286 823.667 247.453 823H233.953L231.453 846H256.453C250.286 842.167 239.153 834.4 243.953 834C249.953 833.5 251.953 829.5 250.453 829.5C248.953 829.5 242.953 828 241.953 826.5Z" fill="#32345A"/>
<path d="M206.353 765.4L234.753 767.4C234.753 767.4 238.253 765.1 238.053 771C237.753 776.9 233.953 823.1 233.953 823.1H259.808L263.953 756.1C263.953 756.1 262.053 742.7 252.453 743L231.953 741.993V733.973L182.453 733.8C183.153 737.2 177.053 764.6 206.353 765.4Z" fill="#4DBED8"/>
<path d="M210.486 736.328C210.997 732.546 212.529 733.019 212.529 733.019H232.453V742C232.453 742 222.747 741.527 219.17 741.055C215.594 740.582 209.975 740.109 210.486 736.328Z" fill="#36818E"/>
<path d="M204.452 668.1C205.052 667.8 198.552 669 189.452 673.6C187.74 674.474 185.31 674.64 183.452 677C179.996 681.391 177.209 691.095 175.452 711C174.652 720.1 175.352 726.5 201.252 727C227.152 727.6 238.953 727 238.953 727C238.953 727 242.752 688.7 233.052 675.1C231.252 672.6 225.852 670.6 223.352 670.3C206.952 668.2 204.452 668.1 204.452 668.1Z" fill="#E2E2E2"/>
<path d="M216.952 677C216.756 666 225.452 671.5 230.452 673C238.452 677 241.452 706 241.952 720H228.452C231.252 717.6 217.119 686.333 216.952 677Z" fill="#C4C4C4"/>
<path d="M216.952 733.5C216.952 733.5 199.452 733.5 182.452 734V724.5C192.952 724.5 193.452 725.7 195.452 720.5L192.952 712C191.785 708 193.952 704 195.952 696.5C195.668 701.689 196.063 709.164 197.819 716C198.216 717.544 199.225 720.5 199.225 720.5C228.952 718 216.952 733.5 216.952 733.5Z" fill="#C4C4C4"/>
<path d="M225.952 644L227.752 650.4C227.452 657.5 228.252 664.6 224.952 668.5C221.552 672.4 220.052 671.8 219.152 671.8L215.452 680.5L202.552 671.6C202.552 671.6 206.652 665.7 205.452 663.7C205.452 663.7 205.152 663 203.852 662.7C200.452 662 197.152 649.2 208.052 655.3L207.752 645.2L225.952 644Z" fill="#FFBC85"/>
<path d="M213.952 669.5L219.452 671.692L216.452 678C214.697 673.246 212.587 673.337 213.952 669.5Z" fill="#F07B61"/>
<path d="M201.952 656C203.552 654.8 204.452 655 205.452 657C205.452 658.5 203.952 658.5 205.452 661.5C205.676 661.947 203.452 660 203.952 659C204.352 658.2 203.452 658.333 202.452 658.5C201.452 658.5 201.952 656.333 201.952 656Z" fill="#F07B61"/>
<path d="M202.452 659.5C202.952 660.333 204.152 662 204.952 662" stroke="#F07B61" stroke-width="0.5"/>
<path d="M208.952 647.8C208.952 647.8 219.052 650.3 222.752 648.4C222.752 648.4 227.152 650.5 228.452 647.4C228.452 647.4 232.252 640.5 219.652 641.1C219.652 641.1 215.352 639.9 212.052 638.4C208.752 636.8 204.552 639.9 204.952 641.5C204.952 641.5 191.952 640.9 199.752 654.3L200.652 655.5C200.652 655.5 202.152 653.8 203.952 654C203.952 654 206.152 653.8 206.352 656.6C206.352 656.6 208.652 657.4 208.552 653.7C208.452 650 208.952 647.8 208.952 647.8Z" fill="#6057C0"/>
<path d="M207.352 647C210.5 647 213.052 644.627 213.052 641.7C213.052 638.773 210.5 636.4 207.352 636.4C204.204 636.4 201.652 638.773 201.652 641.7C201.652 644.627 204.204 647 207.352 647Z" fill="#6057C0"/>
<path d="M208.952 648C207.752 647.2 207.785 644.5 207.952 643.5C208.952 644.5 211.11 646.329 212.452 647C213.452 647.5 225.155 648.778 225.452 647C225.952 644 228.098 643.646 228.452 644C228.952 644.5 229.452 645 228.452 647.5C227.452 650 224.118 649 222.452 648.5C219.452 650.5 210.452 649 208.952 648Z" fill="#0B0A54"/>
<path d="M187.952 721C185.152 714.6 189.119 712.666 191.452 713L195.452 720C194.452 723 190.752 727.4 187.952 721Z" fill="#C4C4C4"/>
<path d="M190.553 713.3C191.053 713 204.953 702.6 211.953 711C211.953 711 215.453 716.1 212.953 716.6C210.453 717.2 204.553 719.7 204.553 719.7L190.553 718.7C190.553 718.8 187.853 715 190.553 713.3Z" fill="#FFBC85"/>
<path d="M204.952 638C204.452 639.167 203.652 641.8 204.452 643C205.35 644.346 201.415 644.082 200.598 644.736C200.541 644.831 200.492 644.92 200.452 645C200.452 644.897 200.505 644.811 200.598 644.736C201.02 644.034 201.896 643 202.952 643C204.452 643 201.452 640 204.952 638Z" fill="#0B0A54"/>
<path d="M204.476 652C201.793 652 199.453 647.167 198.453 644C194.953 646 199.976 658 200.476 656.5C200.876 655.3 202.31 654.333 202.976 654C206.953 654.5 205.476 655.5 206.476 656.5C207.476 657.5 208.476 656.5 208.476 655.5C208.476 654.7 208.453 653.5 208.453 651.5C207.953 652.333 206.953 652 204.476 652Z" fill="#0B0A54"/>
<path d="M182.413 694.941C177.978 692.344 182.565 681.231 184.413 676C177.638 679.247 176.638 700.894 174.79 711.176C173.311 719.402 178.399 723.32 180.452 723.5C177.003 721.335 177.843 712.8 178.869 709.553L180.565 700.894C183.029 699.992 186.848 697.539 182.413 694.941Z" fill="#C4C4C4"/>
<path d="M193.952 691.5C192.573 685 188.619 682.667 185.952 681C204.952 687.5 192.452 703 192.952 711.5C193.058 713.3 187.952 708.5 186.452 708.5C185.187 708.5 182.619 709.5 179.452 710.5C179.619 709.667 180.652 707.7 183.452 706.5C186.252 705.3 188.952 708.5 190.952 707.5C193.952 704.5 192.952 698.7 192.952 697.5C192.952 696 184.952 687.5 187.952 688.5C190.352 689.3 192.785 690.333 193.952 691.5Z" fill="#C4C4C4"/>
<path d="M245.952 761C243.152 765 233.119 766.666 229.452 767C234.952 768.5 238.452 770 237.952 771.5C240.452 771.5 249.452 756 245.952 761Z" fill="#36789D"/>
<path d="M240.952 811L237.452 779L233.952 823H247.452L240.952 811Z" fill="#36789D"/>
<path d="M197.753 733.2V727.6H353.253V733.2H197.753Z" fill="#DEDEDE" stroke="white"/>
<path d="M335.353 729.4L360.753 848.4" stroke="white" stroke-width="10" stroke-miterlimit="10"/>
<path d="M207.653 729.2L185.853 848.4" stroke="white" stroke-width="10" stroke-miterlimit="10"/>
<path d="M238.453 694.7H273.253L275.453 697.8L264.553 727.1H199.153L198.253 723.3H221.453L234.353 696.6L238.453 694.7Z" fill="white" stroke="#9B9B9B" stroke-miterlimit="10"/>
<g filter="url(#filter4_d)">
<circle cx="434.993" cy="490.906" r="22.5606" transform="rotate(45.7914 434.993 490.906)" fill="#EDC589"/>
</g>
<mask id="mask0" mask-type="alpha" maskUnits="userSpaceOnUse" x="413" y="467" width="46" height="46">
<ellipse cx="435.992" cy="490.073" rx="22.5606" ry="22.5606" transform="rotate(28.6681 435.992 490.073)" fill="#85C2A9"/>
</mask>
<g mask="url(#mask0)">
<path d="M421.963 464.155C428.273 473.245 452.96 481.795 464.516 484.933L466.98 488.769C446.897 496.997 415.271 470.725 408.641 465.637C408.065 465.488 407.646 465.257 407.441 464.924C407.248 464.609 407.684 464.902 408.641 465.637C411.526 466.381 418.355 465.063 421.963 464.155Z" fill="#AE4EFA"/>
<path d="M415.055 479.829C423.128 486.271 447.931 494.034 459.323 497.11L462.548 499.811C446.183 503.297 410.563 483.461 403.201 479.574C402.635 479.426 402.193 479.239 401.922 479.005C401.665 478.784 402.139 479.013 403.201 479.574C406.036 480.317 411.972 480.087 415.055 479.829Z" fill="#AE4EFA"/>
<path d="M413.552 490.493C422.017 496.004 446.476 504.585 457.647 508.186L461.045 510.476C446.014 510.791 409.771 492.438 402.307 488.792C401.753 488.616 401.31 488.429 401.024 488.232C400.752 488.046 401.23 488.266 402.307 488.792C405.084 489.672 410.669 490.276 413.552 490.493Z" fill="#AE4EFA"/>
</g>
<g filter="url(#filter5_d)">
<circle cx="419" cy="134" r="25" fill="white"/>
</g>
<path d="M550.085 214.863C547.353 223.734 540.564 230.938 530.543 236.354C520.518 241.771 507.289 245.38 491.757 247.059C460.695 250.419 420.521 246.054 378.608 233.146C336.696 220.238 301.026 201.245 277.236 180.993C265.34 170.866 256.434 160.44 251.194 150.322C245.955 140.206 244.395 130.43 247.127 121.56C249.859 112.689 256.649 105.484 266.67 100.069C276.695 94.6515 289.923 91.0429 305.455 89.363C336.517 86.0035 376.692 90.3685 418.605 103.277C460.517 116.185 496.187 135.177 519.977 155.43C531.873 165.557 540.779 175.982 546.019 186.101C551.258 196.216 552.817 205.992 550.085 214.863Z" stroke="white"/>
<path d="M507.607 191.776C505.779 197.709 501.336 202.569 494.792 206.262C488.245 209.956 479.62 212.467 469.497 213.7C449.254 216.166 423.118 213.511 395.899 205.129C368.681 196.746 345.579 184.237 330.231 170.809C322.556 164.095 316.837 157.167 313.503 150.43C310.17 143.695 309.231 137.178 311.058 131.244C312.886 125.31 317.329 120.451 323.873 116.758C330.42 113.063 339.045 110.553 349.168 109.32C369.411 106.854 395.548 109.508 422.766 117.891C449.985 126.273 473.086 138.783 488.435 152.21C496.109 158.924 501.828 165.852 505.162 172.59C508.495 179.325 509.434 185.842 507.607 191.776Z" stroke="white"/>
<path d="M543.3 208.744C541.013 216.171 535.098 222.147 526.258 226.571C517.417 230.996 505.69 233.845 491.876 235.028C464.25 237.393 428.384 233.084 390.835 221.52C353.286 209.956 321.21 193.34 299.701 175.843C288.946 167.094 280.854 158.141 276.034 149.508C271.214 140.878 269.687 132.609 271.974 125.182C274.261 117.755 280.176 111.779 289.016 107.355C297.857 102.93 309.584 100.081 323.398 98.898C351.024 96.5327 386.891 100.842 424.439 112.406C461.988 123.97 494.065 140.585 515.573 158.083C526.328 166.832 534.42 175.785 539.241 184.418C544.06 193.048 545.588 201.317 543.3 208.744Z" stroke="white"/>
<g filter="url(#filter6_f)">
<circle cx="371" cy="97" r="10" fill="#FFDA7B"/>
</g>
<path d="M470.367 172.388C469.243 176.037 466.508 179.038 462.45 181.328C458.389 183.62 453.027 185.183 446.72 185.951C434.108 187.488 417.81 185.835 400.828 180.605C383.846 175.375 369.442 167.573 359.879 159.207C355.097 155.023 351.544 150.715 349.476 146.535C347.409 142.359 346.837 138.339 347.96 134.69C349.084 131.042 351.819 128.04 355.877 125.75C359.938 123.459 365.3 121.896 371.607 121.127C384.219 119.591 400.517 121.244 417.499 126.474C434.481 131.704 448.885 139.506 458.448 147.872C463.23 152.055 466.783 156.364 468.851 160.544C470.918 164.72 471.491 168.74 470.367 172.388Z" stroke="white"/>
<path d="M285.227 285.981L286.404 287.299L288.022 286.587L287.132 288.114L288.31 289.432L286.582 289.058L285.692 290.585L285.514 288.827L283.787 288.452L285.404 287.74L285.227 285.981Z" fill="white"/>
<g filter="url(#filter7_f)">
<circle cx="466" cy="213" r="5" fill="#FF6464"/>
</g>
<circle cx="270.676" cy="120.641" r="2" transform="rotate(-21.0753 270.676 120.641)" fill="white"/>
<circle cx="320.828" cy="178.475" r="2" transform="rotate(-21.0753 320.828 178.475)" fill="white"/>
<circle cx="347.897" cy="181.975" r="2" transform="rotate(-21.0753 347.897 181.975)" fill="white"/>
<circle cx="413.091" cy="78.6182" r="2" transform="rotate(-21.0753 413.091 78.6182)" fill="white"/>
<circle cx="440.161" cy="82.1182" r="2" transform="rotate(-21.0753 440.161 82.1182)" fill="white"/>
<circle r="0.5" transform="matrix(-0.933109 0.359594 0.359594 0.933109 264.868 131.988)" fill="white"/>
<circle r="0.5" transform="matrix(-0.933109 0.359594 0.359594 0.933109 291.937 135.489)" fill="white"/>
<circle r="0.5" transform="matrix(-0.933109 0.359594 0.359594 0.933109 277.854 118.411)" fill="white"/>
<circle r="0.5" transform="matrix(-0.933109 0.359594 0.359594 0.933109 304.923 121.911)" fill="white"/>
<circle r="0.5" transform="matrix(-0.933109 0.359594 0.359594 0.933109 276.707 120.996)" fill="white"/>
<circle r="0.5" transform="matrix(-0.933109 0.359594 0.359594 0.933109 303.777 124.496)" fill="white"/>
<circle r="0.5" transform="matrix(-0.933109 0.359594 0.359594 0.933109 261.631 123.59)" fill="white"/>
<circle r="0.5" transform="matrix(-0.933109 0.359594 0.359594 0.933109 288.701 127.091)" fill="white"/>
<circle r="0.5" transform="matrix(-0.933109 0.359594 0.359594 0.933109 254.39 138.17)" fill="white"/>
<circle r="0.5" transform="matrix(-0.933109 0.359594 0.359594 0.933109 281.459 141.67)" fill="white"/>
<circle r="0.5" transform="matrix(-0.933109 0.359594 0.359594 0.933109 299.752 119.617)" fill="white"/>
<circle r="0.5" transform="matrix(-0.933109 0.359594 0.359594 0.933109 301.911 125.215)" fill="white"/>
<circle r="0.5" transform="matrix(-0.933109 0.359594 0.359594 0.933109 297.099 123.854)" fill="white"/>
<circle r="1" transform="matrix(-0.933109 0.359594 0.359594 0.933109 269.811 115.616)" fill="white"/>
<circle r="1" transform="matrix(-0.933109 0.359594 0.359594 0.933109 279.433 118.338)" fill="white"/>
<circle r="1" transform="matrix(-0.933109 0.359594 0.359594 0.933109 364.346 85.6145)" fill="white"/>
<circle r="1" transform="matrix(-0.933109 0.359594 0.359594 0.933109 291.669 163.992)" fill="white"/>
<circle r="1" transform="matrix(-0.933109 0.359594 0.359594 0.933109 368.944 89.2014)" fill="white"/>
<circle r="1" transform="matrix(-0.933109 0.359594 0.359594 0.933109 296.266 167.578)" fill="white"/>
<circle cx="304.277" cy="121.624" r="2" transform="rotate(-21.0753 304.277 121.624)" fill="white"/>
<circle cx="354.428" cy="179.458" r="2" transform="rotate(-21.0753 354.428 179.458)" fill="white"/>
<circle cx="446.692" cy="79.6011" r="2" transform="rotate(-21.0753 446.692 79.6011)" fill="white"/>
<circle cx="231.599" cy="200.001" r="2" transform="rotate(-21.0753 231.599 200.001)" fill="white"/>
<circle cx="366.786" cy="83.6026" r="2" transform="rotate(-21.0753 366.786 83.6026)" fill="white"/>
<circle cx="294.109" cy="161.98" r="2" transform="rotate(-21.0753 294.109 161.98)" fill="white"/>
<circle r="0.5" transform="matrix(-0.933109 0.359594 0.359594 0.933109 355.516 86.3382)" fill="white"/>
<circle r="0.5" transform="matrix(-0.933109 0.359594 0.359594 0.933109 423.291 87.0116)" fill="white"/>
<circle r="0.5" transform="matrix(-0.933109 0.359594 0.359594 0.933109 282.838 164.715)" fill="white"/>
<circle r="0.5" transform="matrix(-0.933109 0.359594 0.359594 0.933109 350.614 165.389)" fill="white"/>
<circle r="0.5" transform="matrix(-0.933109 0.359594 0.359594 0.933109 390.401 73.9664)" fill="white"/>
<circle r="0.5" transform="matrix(-0.933109 0.359594 0.359594 0.933109 458.176 74.6398)" fill="white"/>
<circle r="0.5" transform="matrix(-0.933109 0.359594 0.359594 0.933109 317.723 152.344)" fill="white"/>
<circle r="0.5" transform="matrix(-0.933109 0.359594 0.359594 0.933109 295.337 174.902)" fill="white"/>
<circle r="0.5" transform="matrix(-0.933109 0.359594 0.359594 0.933109 292.47 181.366)" fill="white"/>
<circle r="0.5" transform="matrix(-0.933109 0.359594 0.359594 0.933109 270.084 203.924)" fill="white"/>
<circle r="0.5" transform="matrix(-0.933109 0.359594 0.359594 0.933109 385.498 153.017)" fill="white"/>
<circle r="0.5" transform="matrix(-0.933109 0.359594 0.359594 0.933109 363.114 175.576)" fill="white"/>
<circle r="0.5" transform="matrix(-0.933109 0.359594 0.359594 0.933109 360.245 182.039)" fill="white"/>
<circle r="0.5" transform="matrix(-0.933109 0.359594 0.359594 0.933109 337.861 204.598)" fill="white"/>
<circle r="0.5" transform="matrix(-0.933109 0.359594 0.359594 0.933109 387.746 78.2042)" fill="white"/>
<circle r="0.5" transform="matrix(-0.933109 0.359594 0.359594 0.933109 365.362 100.763)" fill="white"/>
<circle r="0.5" transform="matrix(-0.933109 0.359594 0.359594 0.933109 362.494 107.226)" fill="white"/>
<circle r="0.5" transform="matrix(-0.933109 0.359594 0.359594 0.933109 340.109 129.785)" fill="white"/>
<circle r="0.5" transform="matrix(-0.933109 0.359594 0.359594 0.933109 455.523 78.8773)" fill="white"/>
<circle r="0.5" transform="matrix(-0.933109 0.359594 0.359594 0.933109 433.137 101.436)" fill="white"/>
<circle r="0.5" transform="matrix(-0.933109 0.359594 0.359594 0.933109 430.27 107.9)" fill="white"/>
<circle r="0.5" transform="matrix(-0.933109 0.359594 0.359594 0.933109 407.884 130.458)" fill="white"/>
<circle r="0.5" transform="matrix(-0.933109 0.359594 0.359594 0.933109 315.07 156.581)" fill="white"/>
<circle r="0.5" transform="matrix(-0.933109 0.359594 0.359594 0.933109 292.684 179.14)" fill="white"/>
<circle r="0.5" transform="matrix(-0.933109 0.359594 0.359594 0.933109 289.817 185.603)" fill="white"/>
<circle r="0.5" transform="matrix(-0.933109 0.359594 0.359594 0.933109 267.431 208.162)" fill="white"/>
<path d="M358.68 93.1568L360.512 95.413L363.223 94.3679L361.644 96.8073L363.476 99.0634L360.667 98.3149L359.088 100.754L358.932 97.8523L356.124 97.1039L358.836 96.0588L358.68 93.1568Z" fill="white"/>
<path d="M479.071 172.955L479.349 174.701L481.096 174.975L479.522 175.779L479.801 177.525L478.549 176.277L476.975 177.081L477.775 175.505L476.524 174.257L478.27 174.531L479.071 172.955Z" fill="white"/>
<path d="M281.204 197.064L282.777 197.871L284.03 196.624L283.749 198.369L285.322 199.176L283.576 199.448L283.295 201.193L282.496 199.616L280.75 199.888L282.003 198.641L281.204 197.064Z" fill="white"/>
<circle r="0.5" transform="matrix(-0.933109 0.359594 0.359594 0.933109 264.868 131.988)" fill="white"/>
<circle r="0.5" transform="matrix(-0.933109 0.359594 0.359594 0.933109 299.752 119.617)" fill="white"/>
<circle r="0.5" transform="matrix(-0.933109 0.359594 0.359594 0.933109 297.099 123.854)" fill="white"/>
</g>
<defs>
<filter id="filter0_d" x="82" y="515" width="206" height="173.5" filterUnits="userSpaceOnUse" color-interpolation-filters="sRGB">
<feFlood flood-opacity="0" result="BackgroundImageFix"/>
<feColorMatrix in="SourceAlpha" type="matrix" values="0 0 0 0 0 0 0 0 0 0 0 0 0 0 0 0 0 0 127 0"/>
<feOffset dy="4"/>
<feGaussianBlur stdDeviation="2"/>
<feColorMatrix type="matrix" values="0 0 0 0 0 0 0 0 0 0 0 0 0 0 0 0 0 0 0.25 0"/>
<feBlend mode="normal" in2="BackgroundImageFix" result="effect1_dropShadow"/>
<feBlend mode="normal" in="SourceGraphic" in2="effect1_dropShadow" result="shape"/>
</filter>
<filter id="filter1_d" x="114" y="569.5" width="150" height="13" filterUnits="userSpaceOnUse" color-interpolation-filters="sRGB">
<feFlood flood-opacity="0" result="BackgroundImageFix"/>
<feColorMatrix in="SourceAlpha" type="matrix" values="0 0 0 0 0 0 0 0 0 0 0 0 0 0 0 0 0 0 127 0"/>
<feOffset dy="4"/>
<feGaussianBlur stdDeviation="2"/>
<feColorMatrix type="matrix" values="0 0 0 0 0 0 0 0 0 0 0 0 0 0 0 0 0 0 0.25 0"/>
<feBlend mode="normal" in2="BackgroundImageFix" result="effect1_dropShadow"/>
<feBlend mode="normal" in="SourceGraphic" in2="effect1_dropShadow" result="shape"/>
</filter>
<filter id="filter2_d" x="114" y="597.5" width="151" height="13" filterUnits="userSpaceOnUse" color-interpolation-filters="sRGB">
<feFlood flood-opacity="0" result="BackgroundImageFix"/>
<feColorMatrix in="SourceAlpha" type="matrix" values="0 0 0 0 0 0 0 0 0 0 0 0 0 0 0 0 0 0 127 0"/>
<feOffset dy="4"/>
<feGaussianBlur stdDeviation="2"/>
<feColorMatrix type="matrix" values="0 0 0 0 0 0 0 0 0 0 0 0 0 0 0 0 0 0 0.25 0"/>
<feBlend mode="normal" in2="BackgroundImageFix" result="effect1_dropShadow"/>
<feBlend mode="normal" in="SourceGraphic" in2="effect1_dropShadow" result="shape"/>
</filter>
<filter id="filter3_d" x="127" y="627.5" width="117" height="13" filterUnits="userSpaceOnUse" color-interpolation-filters="sRGB">
<feFlood flood-opacity="0" result="BackgroundImageFix"/>
<feColorMatrix in="SourceAlpha" type="matrix" values="0 0 0 0 0 0 0 0 0 0 0 0 0 0 0 0 0 0 127 0"/>
<feOffset dy="4"/>
<feGaussianBlur stdDeviation="2"/>
<feColorMatrix type="matrix" values="0 0 0 0 0 0 0 0 0 0 0 0 0 0 0 0 0 0 0.25 0"/>
<feBlend mode="normal" in2="BackgroundImageFix" result="effect1_dropShadow"/>
<feBlend mode="normal" in="SourceGraphic" in2="effect1_dropShadow" result="shape"/>
</filter>
<filter id="filter4_d" x="399.091" y="459.003" width="71.8049" height="71.8049" filterUnits="userSpaceOnUse" color-interpolation-filters="sRGB">
<feFlood flood-opacity="0" result="BackgroundImageFix"/>
<feColorMatrix in="SourceAlpha" type="matrix" values="0 0 0 0 0 0 0 0 0 0 0 0 0 0 0 0 0 0 127 0"/>
<feOffset dy="4"/>
<feGaussianBlur stdDeviation="2"/>
<feColorMatrix type="matrix" values="0 0 0 0 0 0 0 0 0 0 0 0 0 0 0 0 0 0 0.25 0"/>
<feBlend mode="normal" in2="BackgroundImageFix" result="effect1_dropShadow"/>
<feBlend mode="normal" in="SourceGraphic" in2="effect1_dropShadow" result="shape"/>
</filter>
<filter id="filter5_d" x="390" y="109" width="58" height="58" filterUnits="userSpaceOnUse" color-interpolation-filters="sRGB">
<feFlood flood-opacity="0" result="BackgroundImageFix"/>
<feColorMatrix in="SourceAlpha" type="matrix" values="0 0 0 0 0 0 0 0 0 0 0 0 0 0 0 0 0 0 127 0"/>
<feOffset dy="4"/>
<feGaussianBlur stdDeviation="2"/>
<feColorMatrix type="matrix" values="0 0 0 0 0 0 0 0 0 0 0 0 0 0 0 0 0 0 0.25 0"/>
<feBlend mode="normal" in2="BackgroundImageFix" result="effect1_dropShadow"/>
<feBlend mode="normal" in="SourceGraphic" in2="effect1_dropShadow" result="shape"/>
</filter>
<filter id="filter6_f" x="357" y="83" width="28" height="28" filterUnits="userSpaceOnUse" color-interpolation-filters="sRGB">
<feFlood flood-opacity="0" result="BackgroundImageFix"/>
<feBlend mode="normal" in="SourceGraphic" in2="BackgroundImageFix" result="shape"/>
<feGaussianBlur stdDeviation="2" result="effect1_foregroundBlur"/>
</filter>
<filter id="filter7_f" x="457" y="204" width="18" height="18" filterUnits="userSpaceOnUse" color-interpolation-filters="sRGB">
<feFlood flood-opacity="0" result="BackgroundImageFix"/>
<feBlend mode="normal" in="SourceGraphic" in2="BackgroundImageFix" result="shape"/>
<feGaussianBlur stdDeviation="2" result="effect1_foregroundBlur"/>
</filter>
<linearGradient id="paint0_linear" x1="275.149" y1="-10.3596" x2="275.149" y2="645.293" gradientUnits="userSpaceOnUse">
<stop offset="0.0001" stop-color="#6E74E0"/>
<stop offset="1" stop-color="#E7FFF3" stop-opacity="0.12"/>
</linearGradient>
<linearGradient id="paint1_linear" x1="406.033" y1="845" x2="406.033" y2="1318" gradientUnits="userSpaceOnUse">
<stop stop-color="#6F9BCE"/>
<stop offset="1" stop-color="#8AC6F1" stop-opacity="0"/>
</linearGradient>
<linearGradient id="paint2_linear" x1="361.626" y1="-10.3849" x2="361.626" y2="646.867" gradientUnits="userSpaceOnUse">
<stop offset="0.0001" stop-color="#8BD3F2"/>
<stop offset="1" stop-color="#AF89FF" stop-opacity="0"/>
</linearGradient>
<radialGradient id="paint3_angular" cx="0" cy="0" r="1" gradientUnits="userSpaceOnUse" gradientTransform="translate(256.949 53.9645) rotate(90) scale(53.9645 256.949)">
<stop offset="0.151042" stop-color="#8CA5FF"/>
<stop offset="0.864583" stop-color="#8C9FFF" stop-opacity="0"/>
</radialGradient>
<linearGradient id="paint4_linear" x1="158.491" y1="806.136" x2="158.491" y2="844.893" gradientUnits="userSpaceOnUse">
<stop offset="0.364583" stop-color="#C4C4C4"/>
<stop offset="1" stop-color="#C4C4C4" stop-opacity="0"/>
</linearGradient>
<linearGradient id="paint5_linear" x1="444.25" y1="810.578" x2="444.25" y2="874.578" gradientUnits="userSpaceOnUse">
<stop stop-color="#C4C4C4"/>
<stop offset="1" stop-color="#C4C4C4" stop-opacity="0"/>
</linearGradient>
<linearGradient id="paint6_linear" x1="330.516" y1="799.922" x2="330.516" y2="875.267" gradientUnits="userSpaceOnUse">
<stop offset="0.458333" stop-color="#C4C4C4"/>
<stop offset="1" stop-color="#C4C4C4" stop-opacity="0"/>
</linearGradient>
<linearGradient id="paint7_linear" x1="171.864" y1="416.5" x2="355.981" y2="415.525" gradientUnits="userSpaceOnUse">
<stop offset="0.348958" stop-color="#2063B2" stop-opacity="0"/>
<stop offset="1" stop-color="#2064B4" stop-opacity="0.55"/>
</linearGradient>
<linearGradient id="paint8_linear" x1="280.952" y1="406.783" x2="280.952" y2="315.048" gradientUnits="userSpaceOnUse">
<stop stop-color="#3F7CC5"/>
<stop offset="1" stop-opacity="0"/>
</linearGradient>
<linearGradient id="paint9_linear" x1="184" y1="530.675" x2="184" y2="474.072" gradientUnits="userSpaceOnUse">
<stop stop-color="#3F7CC5"/>
<stop offset="1" stop-opacity="0"/>
</linearGradient>
<clipPath id="clip0">
<rect width="606.45" height="1317" fill="white"/>
</clipPath>
</defs>
</svg>
