<svg width="956" height="922" viewBox="0 0 956 922" fill="none" xmlns="http://www.w3.org/2000/svg">
<g clip-path="url(#clip0)">
<path d="M176.06 627.175C74.4282 541.418 7.88246 442.533 76.6022 405.816C203.957 337.77 48 295 48 295C48 295 -0.000430338 279 2.89401e-09 244C0.000430349 209 35.258 174.869 35.258 174.869C35.258 174.869 170.717 37.5293 219.97 -1H239.503L628 -0.999987L823 -0.999968C823 -0.999968 726 30 703 132L600 168C479 212 308.879 300.314 342.79 349.002C428.65 472.278 305.856 542.49 305.856 542.49C296.843 549.994 249.528 604.128 305.856 648.614C362.184 693.1 385.798 800.113 403.452 819.999H127.452C134.211 810.565 277.692 712.932 176.06 627.175Z" fill="url(#paint0_linear)"/>
<path d="M77.2484 243.084C91.2171 178.994 232.305 53.2988 301.961 -0.999989H321.493L464.366 -1H956C956 -1 797.316 86 798 138C798.684 190 690 188 690 188C690 188 358.233 285 416.394 365C474.555 445 387.843 540.571 387.843 540.571C378.831 548.048 369.32 604.64 387.843 646.32C406.366 688 398.741 802.184 416.394 822H158.599C165.358 812.6 359.68 710.41 258.053 624.956C156.425 539.503 89.8821 440.966 158.599 404.378C337.15 309.311 59.7876 323.197 77.2484 243.084Z" fill="url(#paint1_linear)"/>
<ellipse rx="256.949" ry="53.9645" transform="matrix(0.999553 0.029904 -0.0431853 0.999067 284.165 860.247)" fill="url(#paint2_angular)"/>
<ellipse rx="212.33" ry="33.7846" transform="matrix(0.999553 0.029904 -0.0431853 0.999067 284.521 849.512)" fill="white"/>
<path d="M473.5 857.077C401.5 889.077 117.788 869.915 102.5 850.077C106.448 848.024 118.589 840.714 122.5 838.818L118.965 821.782C116.563 813.709 114.178 805.686 115.5 805.077C119.184 803.379 127.351 812.641 131 811.077C132.355 810.496 136.403 814.817 140.412 819.082L149.5 826.81C174.642 816.63 198.876 809.607 222 805.14C227.85 804.01 233.629 803.043 239.333 802.23C245.476 801.355 251.533 800.659 257.5 800.128C285.057 797.679 310.691 798.778 334 802.23L351 784.577C351 784.577 358.421 788.116 362.5 789.077L371 810.061C411.493 821.315 455.815 841.908 473.5 857.077Z" fill="#7399D1"/>
<path d="M119 805.577C118.333 807.911 118.6 812.777 125 813.577C129.267 814.111 130.807 814.081 131.163 813.903L131 813.577C131.222 813.689 131.341 813.814 131.163 813.903L138.5 828.577C139 829.744 140.2 831.877 141 831.077C141.8 830.277 139.667 824.411 138.5 821.577L148 832.577C149.833 832.911 153.2 833.077 152 831.077C156.333 832.244 160.8 835.677 144 840.077C123 845.577 113 844.077 116.5 842.077C119.3 840.477 121.667 839.077 122.5 838.577L115 805.577C115.833 805.244 117.8 804.777 119 805.577Z" fill="url(#paint3_linear)"/>
<path d="M362 801.577L359 788.077L363 789.077L370.5 810.577L379.5 823.077L359 810.577L355 796.077L359 800.077L362 801.577Z" fill="#C4C4C4"/>
<path d="M378.952 873.19C403.752 868.547 383.542 826.676 369 809.577C409.8 819.977 460.5 842.577 473.5 857.077C438.848 876.064 401.343 871.168 378.952 873.19C377.886 873.389 376.736 873.52 375.5 873.577C376.606 873.425 377.757 873.298 378.952 873.19Z" fill="url(#paint4_linear)"/>
<path d="M281 873.577C332.6 852.777 287 815.5 259.5 800C290.3 796.4 321.667 800.077 331 802.077C355.8 816.877 352.667 856.577 345 874.077C326 874.077 291.833 874.744 281 873.577Z" fill="url(#paint5_linear)"/>
<circle cx="249.452" cy="32" r="2" fill="white"/>
<circle cx="275.452" cy="104" r="2" fill="white"/>
<circle cx="299.452" cy="117" r="2" fill="white"/>
<circle cx="397.452" cy="44" r="2" fill="white"/>
<circle cx="421.452" cy="57" r="2" fill="white"/>
<circle r="0.5" transform="matrix(-1 0 0 1 239.952 40.5)" fill="white"/>
<circle r="0.5" transform="matrix(-1 0 0 1 263.952 53.5)" fill="white"/>
<circle r="0.5" transform="matrix(-1 0 0 1 256.952 32.5)" fill="white"/>
<circle r="0.5" transform="matrix(-1 0 0 1 280.952 45.5)" fill="white"/>
<circle r="0.5" transform="matrix(-1 0 0 1 254.952 34.5)" fill="white"/>
<circle r="0.5" transform="matrix(-1 0 0 1 278.952 47.5)" fill="white"/>
<circle r="0.5" transform="matrix(-1 0 0 1 239.952 31.5)" fill="white"/>
<circle r="0.5" transform="matrix(-1 0 0 1 263.952 44.5)" fill="white"/>
<circle r="0.5" transform="matrix(-1 0 0 1 227.952 42.5)" fill="white"/>
<circle r="0.5" transform="matrix(-1 0 0 1 251.952 55.5)" fill="white"/>
<circle r="0.5" transform="matrix(-1 0 0 1 276.952 41.5)" fill="white"/>
<circle r="0.5" transform="matrix(-1 0 0 1 276.952 47.5)" fill="white"/>
<circle r="0.5" transform="matrix(-1 0 0 1 272.952 44.5)" fill="white"/>
<circle r="1" transform="matrix(-1 0 0 1 250.452 27)" fill="white"/>
<circle r="1" transform="matrix(-1 0 0 1 258.452 33)" fill="white"/>
<circle r="1" transform="matrix(-1 0 0 1 349.452 33)" fill="white"/>
<circle r="1" transform="matrix(-1 0 0 1 253.452 80)" fill="white"/>
<circle r="1" transform="matrix(-1 0 0 1 352.452 38)" fill="white"/>
<circle r="1" transform="matrix(-1 0 0 1 256.452 85)" fill="white"/>
<circle cx="280.452" cy="45" r="2" fill="white"/>
<circle cx="306.452" cy="117" r="2" fill="white"/>
<circle cx="428.452" cy="57" r="2" fill="white"/>
<circle cx="184.452" cy="92" r="2" fill="white"/>
<circle cx="352.452" cy="32" r="2" fill="white"/>
<circle cx="256.452" cy="79" r="2" fill="white"/>
<circle r="0.5" transform="matrix(-1 0 0 1 340.952 30.5)" fill="white"/>
<circle r="0.5" transform="matrix(-1 0 0 1 403.952 55.5)" fill="white"/>
<circle r="0.5" transform="matrix(-1 0 0 1 244.952 77.5)" fill="white"/>
<circle r="0.5" transform="matrix(-1 0 0 1 307.952 102.5)" fill="white"/>
<circle r="0.5" transform="matrix(-1 0 0 1 377.952 31.5)" fill="white"/>
<circle r="0.5" transform="matrix(-1 0 0 1 440.952 56.5)" fill="white"/>
<circle r="0.5" transform="matrix(-1 0 0 1 281.952 78.5)" fill="white"/>
<circle r="0.5" transform="matrix(-1 0 0 1 252.952 91.5)" fill="white"/>
<circle r="0.5" transform="matrix(-1 0 0 1 247.952 96.5)" fill="white"/>
<circle r="0.5" transform="matrix(-1 0 0 1 218.952 109.5)" fill="white"/>
<circle r="0.5" transform="matrix(-1 0 0 1 344.952 103.5)" fill="white"/>
<circle r="0.5" transform="matrix(-1 0 0 1 315.952 116.5)" fill="white"/>
<circle r="0.5" transform="matrix(-1 0 0 1 310.952 121.5)" fill="white"/>
<circle r="0.5" transform="matrix(-1 0 0 1 281.952 134.5)" fill="white"/>
<circle r="0.5" transform="matrix(-1 0 0 1 373.952 34.5)" fill="white"/>
<circle r="0.5" transform="matrix(-1 0 0 1 344.952 47.5)" fill="white"/>
<circle r="0.5" transform="matrix(-1 0 0 1 339.952 52.5)" fill="white"/>
<circle r="0.5" transform="matrix(-1 0 0 1 310.952 65.5)" fill="white"/>
<circle r="0.5" transform="matrix(-1 0 0 1 436.952 59.5)" fill="white"/>
<circle r="0.5" transform="matrix(-1 0 0 1 407.952 72.5)" fill="white"/>
<circle r="0.5" transform="matrix(-1 0 0 1 402.952 77.5)" fill="white"/>
<circle r="0.5" transform="matrix(-1 0 0 1 373.952 90.5)" fill="white"/>
<circle r="0.5" transform="matrix(-1 0 0 1 277.952 81.5)" fill="white"/>
<circle r="0.5" transform="matrix(-1 0 0 1 248.952 94.5)" fill="white"/>
<circle r="0.5" transform="matrix(-1 0 0 1 243.952 99.5)" fill="white"/>
<circle r="0.5" transform="matrix(-1 0 0 1 214.952 112.5)" fill="white"/>
<path d="M341.452 38L342.35 40.7639H345.256L342.905 42.4721L343.803 45.2361L341.452 43.5279L339.101 45.2361L339.999 42.4721L337.648 40.7639H340.554L341.452 38Z" fill="white"/>
<path d="M425.095 155.753L424.728 157.482L426.259 158.366L424.501 158.55L424.133 160.279L423.414 158.665L421.656 158.849L422.97 157.666L422.251 156.052L423.782 156.935L425.095 155.753Z" fill="white"/>
<path d="M231.795 107.097L232.973 108.415L234.59 107.703L233.7 109.23L234.878 110.548L233.151 110.174L232.261 111.702L232.083 109.943L230.355 109.569L231.973 108.856L231.795 107.097Z" fill="white"/>
<circle r="0.5" transform="matrix(-1 0 0 1 239.952 40.5)" fill="white"/>
<circle r="0.5" transform="matrix(-1 0 0 1 276.952 41.5)" fill="white"/>
<circle r="0.5" transform="matrix(-1 0 0 1 272.952 44.5)" fill="white"/>
<path d="M376.452 583H138.252C118.452 583 101.452 574.261 101.452 563.446V396.5C101.452 385.685 123.152 384 142.952 384L368.452 384C388.252 384 412.952 385.685 412.952 396.5L412.352 563.446C412.252 574.206 396.252 583 376.452 583Z" fill="white" stroke="#549BEF" stroke-miterlimit="10"/>
<path d="M408.471 428.62H105.529C102.742 428.62 100.452 425.899 100.452 422.586V388.035C100.452 384.722 102.742 382 105.529 382H408.372C411.159 382 413.449 384.722 413.449 388.035V422.468C413.549 425.899 411.259 428.62 408.471 428.62Z" fill="#20B47F"/>
<path d="M407.535 428.62H108.465C105.713 428.62 103.452 425.899 103.452 422.586V388.035C103.452 384.722 105.713 382 108.465 382H407.437C410.189 382 412.449 384.722 412.449 388.035V422.468C412.547 425.899 410.287 428.62 407.535 428.62Z" fill="url(#paint6_linear)"/>
<path d="M406.438 429H109.466C105.614 429 102.452 425.376 102.452 420.959V390.041C102.452 385.624 105.614 382 109.466 382H406.438C410.291 382 413.452 385.624 413.452 390.041V420.959C413.452 425.489 410.291 429 406.438 429Z" fill="url(#paint7_linear)" style="mix-blend-mode:lighten"/>
<path d="M358.152 403.417H342.052V417.734H358.152V403.417Z" stroke="white" stroke-width="3" stroke-miterlimit="10"/>
<path d="M365.252 395.134H349.152V409.451H365.252V395.134Z" stroke="white" stroke-width="3" stroke-miterlimit="10"/>
<line x1="305.452" y1="406" x2="329.452" y2="406" stroke="white" stroke-width="2"/>
<line x1="380.871" y1="413.98" x2="398.9" y2="398.851" stroke="white" stroke-width="3"/>
<line x1="381.416" y1="398.851" x2="399.446" y2="413.979" stroke="white" stroke-width="3"/>
<g filter="url(#filter0_d)">
<path d="M238.335 679H87.1628C74.6022 679 64.4521 665.995 64.4521 649.901V548.868C64.4521 532.774 74.6022 522.169 87.1628 522.169H162.749H238.335C250.895 522.169 261.768 516.568 260.323 548.868C260.323 548.868 260.323 633.807 260.323 649.901C260.323 665.995 250.895 679 238.335 679Z" fill="white" stroke="#549BEF" stroke-miterlimit="10"/>
<path d="M256.557 544H68.4431C66.0025 544 64 541.687 64 538.867V519.133C64 516.313 66.0025 514 68.4431 514H256.557C258.997 514 261 516.313 261 519.133V538.867C261 541.759 258.997 544 256.557 544Z" fill="#20B47F"/>
<path d="M254.579 544H67.4206C64.9924 544 63 541.764 63 539.039V519.961C63 517.236 64.9924 515 67.4206 515H254.579C257.008 515 259 517.236 259 519.961V539.039C259 541.834 257.008 544 254.579 544Z" fill="url(#paint8_linear)" style="mix-blend-mode:lighten"/>
<path d="M237.058 522L249 536" stroke="white" stroke-width="2" stroke-miterlimit="10"/>
<path d="M249.001 522L235.731 536" stroke="white" stroke-width="2" stroke-miterlimit="10"/>
<path d="M180 529.637H197.25" stroke="white" stroke-width="2" stroke-miterlimit="10"/>
<path d="M224.446 522H213.904V530.751H224.446V522Z" stroke="white" stroke-width="2" stroke-miterlimit="10"/>
<path d="M219.797 527.062H209.256V535.814H219.797V527.062Z" stroke="white" stroke-width="2" stroke-miterlimit="10"/>
</g>
<path d="M333.352 767L326.952 828.8H330.152L340.452 768.4L333.352 767Z" fill="#939393"/>
<path d="M381.952 769.101L399.552 837.001L402.552 835.901L389.252 768.101L381.952 769.101Z" fill="#939393"/>
<path d="M394.352 695.6C395.052 696.5 395.552 697.6 395.652 698.8C397.052 708.2 403.452 755.6 393.452 766.7C383.652 777.5 338.852 776.1 327.852 775.6C325.452 775.5 323.152 774.1 322.152 771.9C321.452 770.5 321.252 768.7 322.352 766.7C325.152 761.5 364.852 746.3 373.652 736.6C382.052 727.2 383.252 681.6 394.352 695.6Z" fill="#2064B4"/>
<path d="M374.954 765.745C385.593 759.313 369.446 752.642 360.042 750.111C316.84 748.681 316.517 761.427 321.756 767.979C335.056 769.914 364.314 772.178 374.954 765.745Z" fill="#42B0FF"/>
<path d="M381.952 767C388.752 762.2 391.452 716 391.952 693.5C401.452 696 402 752 395.452 764.5C390.452 774.045 367.285 775.333 355.952 775.5C361.785 774.667 375.152 771.8 381.952 767Z" fill="#42B0FF"/>
<path d="M319.652 649.1C323.683 649.1 326.952 645.832 326.952 641.8C326.952 637.768 323.683 634.5 319.652 634.5C315.62 634.5 312.352 637.768 312.352 641.8C312.352 645.832 315.62 649.1 319.652 649.1Z" fill="#6057C0"/>
<path d="M342.652 638.1C342.652 638.1 341.952 633.7 333.952 634.7C325.952 635.7 326.752 637 319.552 639.1C315.652 640.3 312.252 650.4 333.052 647.2C333.052 647.2 336.252 654.7 338.052 654.4C339.852 654.1 339.652 661.6 339.652 661.6L344.052 660.2C344.052 660.2 344.752 654.7 347.652 653C350.552 651.3 349.552 635.4 342.652 638.1Z" fill="#6057C0"/>
<path d="M338.952 651.688C347.452 636.5 331.952 638 331.452 638C340.952 635.313 342.952 636.334 342.952 638.001C349.952 635.501 351.452 651.688 348.952 652.688C346.952 653.488 345.452 658.022 344.952 660.188L342.452 661.188C340.619 660.355 336.108 656.771 338.952 651.688Z" fill="#0B0A54"/>
<path d="M324.452 647.2L318.952 649C319.252 656.3 318.052 661.5 321.352 665.5C324.752 669.5 324.452 669.5 330.952 667.5L334.052 678.5L346.852 668.8C346.852 668.8 342.152 663.3 341.252 661.4C341.252 661.4 340.452 658 341.752 657.7C345.152 657 344.052 644.6 337.752 652L335.152 647.2C333.352 642.6 326.752 646.1 324.452 647.2Z" fill="#FFBC85"/>
<path d="M336.452 663.5L330.952 667.5L331.952 671C331.952 671 333.952 671 334.952 669C335.952 667 336.452 663.5 336.452 663.5Z" fill="#F07B61"/>
<path d="M327.552 648.4C330.645 648.4 333.152 645.893 333.152 642.8C333.152 639.707 330.645 637.2 327.552 637.2C324.459 637.2 321.952 639.707 321.952 642.8C321.952 645.893 324.459 648.4 327.552 648.4Z" fill="#6057C0"/>
<path d="M342.349 651.706C341.031 650.565 340.289 650.755 339.465 652.657C339.465 654.084 340.701 654.084 339.465 656.938C339.281 657.363 341.113 655.511 340.701 654.56C340.372 653.799 341.113 653.926 341.937 654.084C342.761 654.084 342.349 652.023 342.349 651.706Z" fill="#F07B61"/>
<path d="M341.452 655C341.052 655.667 340.092 657 339.452 657" stroke="#F07B61" stroke-width="0.5"/>
<path d="M299.352 700.2L302.652 689.5C302.652 689.5 317.052 693.7 323.352 697.8C329.652 701.9 335.352 707.2 335.352 707.2L321.252 716.4C321.252 716.4 302.652 704.1 299.352 700.2Z" fill="#C4C4C4"/>
<path d="M306.252 694.399C306.452 693.899 305.052 678.599 294.752 679.799C294.752 679.799 288.952 680.999 290.052 683.099C291.152 685.099 292.952 690.699 292.952 690.699L302.252 699.099C302.252 699.099 305.352 696.999 306.252 694.399Z" fill="#FFBC85"/>
<path d="M299.252 677.2H284.952V693.2H299.252V677.2Z" fill="#E2E2E2"/>
<path d="M300.952 717.1C300.552 716.6 289.652 702.5 280.252 708.4C280.252 708.4 275.252 712.2 277.652 713.5C280.052 714.8 285.152 719 285.152 719L299.452 722.3C299.352 722.3 303.152 719.5 300.952 717.1Z" fill="#FFBC85"/>
<path d="M368.751 732.9H345.101H321.451C323.251 731.9 324.151 730.5 326.951 728.3C316.251 727.3 298.051 726.9 298.051 726.9L296.151 710C296.151 710 312.951 707 326.951 706.5C330.251 707.5 332.051 687.8 331.951 685.5C331.951 673.1 339.651 661.1 353.551 670.5C372.451 683.4 368.751 732.9 368.751 732.9Z" fill="#E2E2E2"/>
<path d="M292.152 679C296.129 679 299.352 678.194 299.352 677.2C299.352 676.206 296.129 675.4 292.152 675.4C288.176 675.4 284.952 676.206 284.952 677.2C284.952 678.194 288.176 679 292.152 679Z" fill="#E2E2E2"/>
<path d="M292.152 678.9C295.245 678.9 297.752 678.273 297.752 677.5C297.752 676.726 295.245 676.1 292.152 676.1C289.059 676.1 286.552 676.726 286.552 677.5C286.552 678.273 289.059 678.9 292.152 678.9Z" fill="#939393"/>
<path d="M292.152 695C296.129 695 299.352 694.194 299.352 693.2C299.352 692.206 296.129 691.4 292.152 691.4C288.176 691.4 284.952 692.206 284.952 693.2C284.952 694.194 288.176 695 292.152 695Z" fill="#E2E2E2"/>
<path d="M312.452 809.7L320.352 841.3H270.952L283.852 824.8L286.652 812.3L312.452 809.7Z" fill="#272D33"/>
<path d="M320.952 815.8L321.552 847.4H279.452L293.252 830.9L294.052 818.5L320.952 815.8Z" fill="#3D4B65"/>
<path d="M366.252 752C364.452 770.1 328.252 763.7 315.652 762.8C311.752 762.5 308.552 766.1 309.152 770.1L316.952 823H284.252V748.3C284.252 747.2 284.352 746.1 284.652 745C286.252 738.6 292.052 732.7 298.052 732.7L350.052 732.2L366.152 732.7C366.252 733.1 367.152 742.7 366.252 752Z" fill="#36818E"/>
<path d="M368.652 752.2C366.952 771 348.552 764.6 325.452 764.8C321.752 764.8 319.352 766.2 321.052 770.3V826.2L293.452 826L292.252 748.4C292.252 747.2 292.352 746.1 292.652 744.9C294.152 738.2 299.552 732.2 305.152 732.2L353.452 732H368.952C368.952 732.4 369.552 742.6 368.652 752.2Z" fill="#4DBED8"/>
<path d="M307.105 831.5C311.905 830.7 311.618 827.167 311.452 826H321.452L321.605 847.5H297.105C302.105 847.5 318.952 837.5 313.452 837C309.052 836.6 306.272 832 307.105 831.5Z" fill="#32345A"/>
<path d="M368.852 752.6C367.152 771.4 348.752 765 325.652 765.2C321.952 765.2 319.552 766.6 321.252 770.7L321.452 826H311.452L315.952 802C315.952 780 307.952 752.6 307.952 752.6C307.952 752.6 315.652 762 321.252 762C321.252 762 345.452 766 357.452 759C369.452 752 368.952 732 368.952 732C368.952 732.4 369.752 743 368.852 752.6Z" fill="#36789D"/>
<path d="M356.452 687C356.452 682.6 349.785 672.5 346.452 668C367.452 670.5 370.785 712.833 368.952 732H347.952C348.285 730.333 349.252 726.7 348.452 725.5C347.652 724.3 336.785 726 331.452 727C335.619 725.833 344.452 723.3 346.452 722.5C348.952 721.5 351.452 703.5 352.952 701C354.152 699 351.452 695 347.952 692C351.152 690.8 352.785 693.5 354.452 696L355.452 695C355.452 695.667 355.704 693.504 354.452 691C350.452 683 339.952 680.5 344.452 680C348.052 679.6 354.619 684.5 356.452 687Z" fill="#C4C4C4"/>
<path d="M293.452 680C297.378 679.611 299.236 678 299.236 678C299.236 678 299.628 692.766 299.236 693.543C298.695 694.614 295.147 694.838 293.348 695C291.549 695.162 294.329 692 294.329 692C298.424 683.414 292.471 680 293.452 680Z" fill="#C4C4C4"/>
<path d="M147.952 768.301L141.552 829.001H144.752L155.052 769.701L147.952 768.301Z" fill="#939393"/>
<path d="M196.652 770.4L214.152 837L217.152 835.9L203.852 769.4L196.652 770.4Z" fill="#939393"/>
<path d="M146.052 694.401C144.852 695.601 143.752 697.701 143.452 699.301C141.952 709.601 138.152 757.401 147.852 768.301C157.452 779.101 199.352 775.801 210.152 775.301C212.552 775.201 215.352 773.701 216.352 771.501C217.052 770.101 217.452 764.801 216.352 762.701C213.652 757.501 158.952 761.701 162.652 749.301C182.652 682.601 156.052 684.301 146.052 694.401Z" fill="#2064B4"/>
<path d="M182.952 776.5C153.452 776.5 143.97 769.47 142.561 756.63C141.204 744.265 138.415 713.62 142.901 698.609C144.377 693.668 147.174 692.06 150.703 691C145.452 698 146.632 727.619 146.632 727.619C146.757 740.851 147.004 749.373 149.335 755.56C150.085 757.262 150.983 758.943 152.054 760.568C156.794 766.868 165.784 770.594 182.952 776.5Z" fill="#42B0FF"/>
<path d="M209.052 773.7L172.952 771.5C168.552 771.5 160.452 765.9 160.452 761.5C160.452 757.1 161.852 757.7 166.252 757.7H208.952C213.352 757.7 216.952 761.3 216.952 765.7C217.052 770.1 213.452 773.7 209.052 773.7Z" fill="#2064B4"/>
<path d="M160.552 719.6C159.252 731.3 157.752 766.9 189.252 762.3C189.452 762.3 189.552 762.3 189.752 762.3H205.652C206.852 762.3 200.152 761.7 200.852 760.6L214.152 740.9C215.952 738.2 214.252 734.4 211.152 734.3C209.052 734.2 206.652 734.9 206.652 732.7L199.152 720C199.152 717.7 205.752 716 203.652 716H164.352C162.352 716 160.752 717.5 160.552 719.6Z" fill="#E2E2E2"/>
<path d="M191.79 738.792C184.266 745.087 184.768 758.639 207.639 762.359H221.783C221.783 762.359 225.595 766.073 225.294 771.51C224.993 776.947 227.453 817 227.453 817H242.953L244.453 747.663C244.453 747.663 243.651 736.312 233.319 736.502H198.109C195.702 736.598 193.495 737.361 191.79 738.792Z" fill="#36818E"/>
<path d="M218.452 817L212.152 838.7H251.452L241.452 822.3V817H218.452Z" fill="#272D33"/>
<path d="M212.253 813.3L208.853 844.9H244.753L237.053 828.4L236.553 813L212.253 813.3Z" fill="#3D4B65"/>
<path d="M218.953 825.5C218.153 824.3 222.286 822.667 224.453 822H210.953L208.453 845H233.453C227.286 841.167 216.153 833.4 220.953 833C226.953 832.5 228.953 828.5 227.453 828.5C225.953 828.5 219.953 827 218.953 825.5Z" fill="#32345A"/>
<path d="M183.353 764.4L211.753 766.4C211.753 766.4 215.253 764.1 215.053 770C214.753 775.9 210.953 822.1 210.953 822.1H236.808L240.953 755.1C240.953 755.1 239.053 741.7 229.453 742L208.953 740.993V732.973L159.453 732.8C160.153 736.2 154.053 763.6 183.353 764.4Z" fill="#4DBED8"/>
<path d="M187.486 735.328C187.997 731.546 189.529 732.019 189.529 732.019H209.453V741C209.453 741 199.747 740.527 196.17 740.055C192.594 739.582 186.975 739.109 187.486 735.328Z" fill="#36818E"/>
<path d="M181.452 667.1C182.052 666.8 175.552 668 166.452 672.6C164.74 673.474 162.31 673.64 160.452 676C156.996 680.391 154.209 690.095 152.452 710C151.652 719.1 152.352 725.5 178.252 726C204.152 726.6 215.953 726 215.953 726C215.953 726 219.752 687.7 210.052 674.1C208.252 671.6 202.852 669.6 200.352 669.3C183.952 667.2 181.452 667.1 181.452 667.1Z" fill="#E2E2E2"/>
<path d="M193.952 676.001C193.756 665.001 202.452 670.501 207.452 672.001C215.452 676.001 218.452 705.001 218.952 719.001H205.452C208.252 716.601 194.119 685.334 193.952 676.001Z" fill="#C4C4C4"/>
<path d="M193.952 732.5C193.952 732.5 176.452 732.5 159.452 733V723.5C169.952 723.5 170.452 724.7 172.452 719.5L169.952 711C168.785 707 170.952 703 172.952 695.5C172.668 700.689 173.063 708.164 174.819 715C175.216 716.544 176.225 719.5 176.225 719.5C205.952 717 193.952 732.5 193.952 732.5Z" fill="#C4C4C4"/>
<path d="M202.952 643L204.752 649.4C204.452 656.5 205.252 663.6 201.952 667.5C198.552 671.4 197.052 670.8 196.152 670.8L192.452 679.5L179.552 670.6C179.552 670.6 183.652 664.7 182.452 662.7C182.452 662.7 182.152 662 180.852 661.7C177.452 661 174.152 648.2 185.052 654.3L184.752 644.2L202.952 643Z" fill="#FFBC85"/>
<path d="M190.952 668.5L196.452 670.692L193.452 677C191.697 672.246 189.587 672.337 190.952 668.5Z" fill="#F07B61"/>
<path d="M178.952 655C180.552 653.8 181.452 654 182.452 656C182.452 657.5 180.952 657.5 182.452 660.5C182.676 660.948 180.452 659 180.952 658C181.352 657.2 180.452 657.334 179.452 657.5C178.452 657.5 178.952 655.334 178.952 655Z" fill="#F07B61"/>
<path d="M179.452 658.5C179.952 659.333 181.152 661 181.952 661" stroke="#F07B61" stroke-width="0.5"/>
<path d="M185.952 646.801C185.952 646.801 196.052 649.301 199.752 647.401C199.752 647.401 204.152 649.501 205.452 646.401C205.452 646.401 209.252 639.501 196.652 640.101C196.652 640.101 192.352 638.901 189.052 637.401C185.752 635.801 181.552 638.901 181.952 640.501C181.952 640.501 168.952 639.901 176.752 653.301L177.652 654.501C177.652 654.501 179.152 652.801 180.952 653.001C180.952 653.001 183.152 652.801 183.352 655.601C183.352 655.601 185.652 656.401 185.552 652.701C185.452 649.001 185.952 646.801 185.952 646.801Z" fill="#6057C0"/>
<path d="M184.352 646C187.5 646 190.052 643.628 190.052 640.7C190.052 637.773 187.5 635.4 184.352 635.4C181.204 635.4 178.652 637.773 178.652 640.7C178.652 643.628 181.204 646 184.352 646Z" fill="#6057C0"/>
<path d="M185.952 647C184.752 646.2 184.785 643.5 184.952 642.5C185.952 643.5 188.11 645.329 189.452 646C190.452 646.5 202.155 647.778 202.452 646C202.952 643 205.098 642.646 205.452 643C205.952 643.5 206.452 644 205.452 646.5C204.452 649 201.118 648 199.452 647.5C196.452 649.5 187.452 648 185.952 647Z" fill="#0B0A54"/>
<path d="M164.952 720.001C162.152 713.601 166.119 711.667 168.452 712.001L172.452 719.001C171.452 722.001 167.752 726.401 164.952 720.001Z" fill="#C4C4C4"/>
<path d="M167.553 712.3C168.053 712 181.953 701.6 188.953 710C188.953 710 192.453 715.1 189.953 715.6C187.453 716.2 181.553 718.7 181.553 718.7L167.553 717.7C167.553 717.8 164.853 714 167.553 712.3Z" fill="#FFBC85"/>
<path d="M181.952 637C181.452 638.167 180.652 640.8 181.452 642C182.35 643.346 178.415 643.082 177.598 643.736C177.541 643.831 177.492 643.92 177.452 644C177.452 643.897 177.505 643.811 177.598 643.736C178.02 643.034 178.896 642 179.952 642C181.452 642 178.452 639 181.952 637Z" fill="#0B0A54"/>
<path d="M181.476 651C178.793 651 176.453 646.167 175.453 643C171.953 645 176.976 657 177.476 655.5C177.876 654.3 179.31 653.333 179.976 653C183.953 653.5 182.476 654.5 183.476 655.5C184.476 656.5 185.476 655.5 185.476 654.5C185.476 653.7 185.453 652.5 185.453 650.5C184.953 651.333 183.953 651 181.476 651Z" fill="#0B0A54"/>
<path d="M159.413 693.941C154.978 691.344 159.565 680.231 161.413 675C154.638 678.247 153.638 699.894 151.79 710.176C150.311 718.402 155.399 722.32 157.452 722.5C154.003 720.335 154.843 711.8 155.869 708.553L157.565 699.894C160.029 698.992 163.848 696.539 159.413 693.941Z" fill="#C4C4C4"/>
<path d="M170.952 690.5C169.573 684 165.619 681.667 162.952 680C181.952 686.5 169.452 702 169.952 710.5C170.058 712.3 164.952 707.5 163.452 707.5C162.187 707.5 159.619 708.5 156.452 709.5C156.619 708.667 157.652 706.7 160.452 705.5C163.252 704.3 165.952 707.5 167.952 706.5C170.952 703.5 169.952 697.7 169.952 696.5C169.952 695 161.952 686.5 164.952 687.5C167.352 688.3 169.785 689.333 170.952 690.5Z" fill="#C4C4C4"/>
<path d="M222.952 760C220.152 764 210.119 765.667 206.452 766C211.952 767.5 215.452 769 214.952 770.5C217.452 770.5 226.452 755 222.952 760Z" fill="#36789D"/>
<path d="M217.952 810L214.452 778L210.952 822H224.452L217.952 810Z" fill="#36789D"/>
<path d="M174.753 726.601H330.253V732.201H174.753V726.601Z" fill="#DEDEDE" stroke="white"/>
<path d="M312.353 728.4L337.753 847.4" stroke="white" stroke-width="10" stroke-miterlimit="10"/>
<path d="M184.653 728.2L162.853 847.4" stroke="white" stroke-width="10" stroke-miterlimit="10"/>
<path d="M215.453 693.7H250.253L252.453 696.8L241.553 726.1H176.153L175.253 722.3H198.453L211.353 695.6L215.453 693.7Z" fill="white" stroke="#9B9B9B" stroke-miterlimit="10"/>
<g filter="url(#filter1_d)">
<circle cx="411.993" cy="489.905" r="22.5606" transform="rotate(45.7914 411.993 489.905)" fill="#EDC589"/>
</g>
<mask id="mask0" mask-type="alpha" maskUnits="userSpaceOnUse" x="390" y="466" width="46" height="46">
<ellipse cx="412.992" cy="489.073" rx="22.5606" ry="22.5606" transform="rotate(28.6681 412.992 489.073)" fill="#85C2A9"/>
</mask>
<g mask="url(#mask0)">
<path d="M398.963 463.154C405.273 472.245 429.96 480.794 441.516 483.932L443.98 487.768C423.897 495.996 392.271 469.724 385.641 464.636C385.065 464.487 384.646 464.256 384.441 463.924C384.248 463.609 384.684 463.902 385.641 464.636C388.526 465.38 395.355 464.062 398.963 463.154Z" fill="#AE4EFA"/>
<path d="M392.055 478.828C400.128 485.27 424.931 493.034 436.323 496.11L439.548 498.81C423.183 502.296 387.563 482.461 380.201 478.574C379.635 478.425 379.193 478.238 378.922 478.005C378.665 477.784 379.139 478.013 380.201 478.574C383.036 479.316 388.972 479.086 392.055 478.828Z" fill="#AE4EFA"/>
<path d="M390.552 489.493C399.017 495.004 423.476 503.585 434.647 507.186L438.045 509.476C423.014 509.791 386.771 491.438 379.307 487.792C378.753 487.616 378.31 487.429 378.024 487.232C377.752 487.046 378.23 487.266 379.307 487.792C382.084 488.672 387.669 489.276 390.552 489.493Z" fill="#AE4EFA"/>
</g>
<g filter="url(#filter2_d)">
<circle cx="396" cy="133" r="25" fill="white"/>
</g>
<path d="M527.085 213.863C524.353 222.734 517.564 229.938 507.543 235.354C497.518 240.771 484.289 244.38 468.757 246.059C437.695 249.419 397.521 245.054 355.608 232.146C313.696 219.238 278.026 200.245 254.236 179.993C242.34 169.866 233.434 159.44 228.194 149.322C222.955 139.206 221.395 129.43 224.127 120.56C226.859 111.689 233.649 104.484 243.67 99.0686C253.695 93.6515 266.923 90.0429 282.455 88.363C313.517 85.0035 353.692 89.3685 395.605 102.277C437.517 115.185 473.187 134.177 496.977 154.43C508.873 164.557 517.779 174.982 523.019 185.101C528.258 195.216 529.817 204.992 527.085 213.863Z" stroke="white"/>
<path d="M484.607 190.776C482.779 196.709 478.336 201.569 471.792 205.262C465.245 208.956 456.62 211.467 446.497 212.7C426.254 215.166 400.118 212.511 372.899 204.129C345.681 195.746 322.579 183.237 307.231 169.809C299.556 163.095 293.837 156.167 290.503 149.43C287.17 142.695 286.231 136.178 288.058 130.244C289.886 124.31 294.329 119.451 300.873 115.758C307.42 112.063 316.045 109.553 326.168 108.32C346.411 105.854 372.548 108.508 399.766 116.891C426.985 125.273 450.086 137.783 465.435 151.21C473.109 157.924 478.828 164.852 482.162 171.59C485.495 178.325 486.434 184.842 484.607 190.776Z" stroke="white"/>
<path d="M520.3 207.744C518.013 215.171 512.098 221.147 503.258 225.571C494.417 229.996 482.69 232.845 468.876 234.028C441.25 236.393 405.384 232.084 367.835 220.52C330.286 208.956 298.21 192.34 276.701 174.843C265.946 166.094 257.854 157.141 253.034 148.508C248.214 139.878 246.687 131.609 248.974 124.182C251.261 116.755 257.176 110.779 266.016 106.355C274.857 101.93 286.584 99.0807 300.398 97.898C328.024 95.5327 363.891 99.8417 401.439 111.406C438.988 122.97 471.065 139.585 492.573 157.083C503.328 165.832 511.42 174.785 516.241 183.418C521.06 192.048 522.588 200.317 520.3 207.744Z" stroke="white"/>
<g filter="url(#filter3_f)">
<circle cx="348" cy="96" r="10" fill="#FFDA7B"/>
</g>
<path d="M447.367 171.388C446.243 175.037 443.508 178.038 439.45 180.328C435.389 182.62 430.027 184.183 423.72 184.951C411.108 186.488 394.81 184.835 377.828 179.605C360.846 174.375 346.442 166.573 336.879 158.207C332.097 154.023 328.544 149.715 326.476 145.535C324.409 141.359 323.837 137.339 324.96 133.69C326.084 130.042 328.819 127.04 332.877 124.75C336.938 122.459 342.3 120.896 348.607 120.127C361.219 118.591 377.517 120.244 394.499 125.474C411.481 130.704 425.885 138.506 435.448 146.872C440.23 151.055 443.783 155.364 445.851 159.544C447.918 163.72 448.491 167.74 447.367 171.388Z" stroke="white"/>
<path d="M262.227 284.981L263.404 286.299L265.022 285.587L264.132 287.114L265.31 288.432L263.582 288.058L262.692 289.585L262.514 287.827L260.787 287.452L262.404 286.74L262.227 284.981Z" fill="white"/>
<g filter="url(#filter4_f)">
<circle cx="443" cy="212" r="5" fill="#FF6464"/>
</g>
<circle cx="247.676" cy="119.64" r="2" transform="rotate(-21.0753 247.676 119.64)" fill="white"/>
<circle cx="297.828" cy="177.475" r="2" transform="rotate(-21.0753 297.828 177.475)" fill="white"/>
<circle cx="324.897" cy="180.975" r="2" transform="rotate(-21.0753 324.897 180.975)" fill="white"/>
<circle cx="390.091" cy="77.6177" r="2" transform="rotate(-21.0753 390.091 77.6177)" fill="white"/>
<circle cx="417.161" cy="81.1177" r="2" transform="rotate(-21.0753 417.161 81.1177)" fill="white"/>
<circle r="0.5" transform="matrix(-0.933109 0.359594 0.359594 0.933109 241.868 130.988)" fill="white"/>
<circle r="0.5" transform="matrix(-0.933109 0.359594 0.359594 0.933109 268.937 134.488)" fill="white"/>
<circle r="0.5" transform="matrix(-0.933109 0.359594 0.359594 0.933109 254.854 117.41)" fill="white"/>
<circle r="0.5" transform="matrix(-0.933109 0.359594 0.359594 0.933109 281.923 120.91)" fill="white"/>
<circle r="0.5" transform="matrix(-0.933109 0.359594 0.359594 0.933109 253.707 119.996)" fill="white"/>
<circle r="0.5" transform="matrix(-0.933109 0.359594 0.359594 0.933109 280.777 123.496)" fill="white"/>
<circle r="0.5" transform="matrix(-0.933109 0.359594 0.359594 0.933109 238.631 122.59)" fill="white"/>
<circle r="0.5" transform="matrix(-0.933109 0.359594 0.359594 0.933109 265.701 126.091)" fill="white"/>
<circle r="0.5" transform="matrix(-0.933109 0.359594 0.359594 0.933109 231.39 137.17)" fill="white"/>
<circle r="0.5" transform="matrix(-0.933109 0.359594 0.359594 0.933109 258.459 140.67)" fill="white"/>
<circle r="0.5" transform="matrix(-0.933109 0.359594 0.359594 0.933109 276.752 118.616)" fill="white"/>
<circle r="0.5" transform="matrix(-0.933109 0.359594 0.359594 0.933109 278.911 124.215)" fill="white"/>
<circle r="0.5" transform="matrix(-0.933109 0.359594 0.359594 0.933109 274.099 122.854)" fill="white"/>
<circle r="1" transform="matrix(-0.933109 0.359594 0.359594 0.933109 246.811 114.616)" fill="white"/>
<circle r="1" transform="matrix(-0.933109 0.359594 0.359594 0.933109 256.433 117.338)" fill="white"/>
<circle r="1" transform="matrix(-0.933109 0.359594 0.359594 0.933109 341.346 84.614)" fill="white"/>
<circle r="1" transform="matrix(-0.933109 0.359594 0.359594 0.933109 268.669 162.992)" fill="white"/>
<circle r="1" transform="matrix(-0.933109 0.359594 0.359594 0.933109 345.944 88.2009)" fill="white"/>
<circle r="1" transform="matrix(-0.933109 0.359594 0.359594 0.933109 273.266 166.578)" fill="white"/>
<circle cx="281.277" cy="120.624" r="2" transform="rotate(-21.0753 281.277 120.624)" fill="white"/>
<circle cx="331.428" cy="178.458" r="2" transform="rotate(-21.0753 331.428 178.458)" fill="white"/>
<circle cx="423.692" cy="78.6011" r="2" transform="rotate(-21.0753 423.692 78.6011)" fill="white"/>
<circle cx="208.599" cy="199.001" r="2" transform="rotate(-21.0753 208.599 199.001)" fill="white"/>
<circle cx="343.786" cy="82.6021" r="2" transform="rotate(-21.0753 343.786 82.6021)" fill="white"/>
<circle cx="271.109" cy="160.979" r="2" transform="rotate(-21.0753 271.109 160.979)" fill="white"/>
<circle r="0.5" transform="matrix(-0.933109 0.359594 0.359594 0.933109 332.516 85.3378)" fill="white"/>
<circle r="0.5" transform="matrix(-0.933109 0.359594 0.359594 0.933109 400.291 86.0116)" fill="white"/>
<circle r="0.5" transform="matrix(-0.933109 0.359594 0.359594 0.933109 259.838 163.716)" fill="white"/>
<circle r="0.5" transform="matrix(-0.933109 0.359594 0.359594 0.933109 327.614 164.389)" fill="white"/>
<circle r="0.5" transform="matrix(-0.933109 0.359594 0.359594 0.933109 367.401 72.9657)" fill="white"/>
<circle r="0.5" transform="matrix(-0.933109 0.359594 0.359594 0.933109 435.176 73.6395)" fill="white"/>
<circle r="0.5" transform="matrix(-0.933109 0.359594 0.359594 0.933109 294.723 151.344)" fill="white"/>
<circle r="0.5" transform="matrix(-0.933109 0.359594 0.359594 0.933109 272.337 173.902)" fill="white"/>
<circle r="0.5" transform="matrix(-0.933109 0.359594 0.359594 0.933109 269.47 180.365)" fill="white"/>
<circle r="0.5" transform="matrix(-0.933109 0.359594 0.359594 0.933109 247.084 202.924)" fill="white"/>
<circle r="0.5" transform="matrix(-0.933109 0.359594 0.359594 0.933109 362.498 152.016)" fill="white"/>
<circle r="0.5" transform="matrix(-0.933109 0.359594 0.359594 0.933109 340.114 174.575)" fill="white"/>
<circle r="0.5" transform="matrix(-0.933109 0.359594 0.359594 0.933109 337.245 181.039)" fill="white"/>
<circle r="0.5" transform="matrix(-0.933109 0.359594 0.359594 0.933109 314.861 203.598)" fill="white"/>
<circle r="0.5" transform="matrix(-0.933109 0.359594 0.359594 0.933109 364.746 77.204)" fill="white"/>
<circle r="0.5" transform="matrix(-0.933109 0.359594 0.359594 0.933109 342.362 99.7626)" fill="white"/>
<circle r="0.5" transform="matrix(-0.933109 0.359594 0.359594 0.933109 339.494 106.226)" fill="white"/>
<circle r="0.5" transform="matrix(-0.933109 0.359594 0.359594 0.933109 317.109 128.785)" fill="white"/>
<circle r="0.5" transform="matrix(-0.933109 0.359594 0.359594 0.933109 432.523 77.8768)" fill="white"/>
<circle r="0.5" transform="matrix(-0.933109 0.359594 0.359594 0.933109 410.137 100.435)" fill="white"/>
<circle r="0.5" transform="matrix(-0.933109 0.359594 0.359594 0.933109 407.27 106.899)" fill="white"/>
<circle r="0.5" transform="matrix(-0.933109 0.359594 0.359594 0.933109 384.884 129.458)" fill="white"/>
<circle r="0.5" transform="matrix(-0.933109 0.359594 0.359594 0.933109 292.07 155.581)" fill="white"/>
<circle r="0.5" transform="matrix(-0.933109 0.359594 0.359594 0.933109 269.684 178.14)" fill="white"/>
<circle r="0.5" transform="matrix(-0.933109 0.359594 0.359594 0.933109 266.817 184.603)" fill="white"/>
<circle r="0.5" transform="matrix(-0.933109 0.359594 0.359594 0.933109 244.431 207.162)" fill="white"/>
<path d="M335.68 92.1563L337.512 94.4125L340.223 93.3674L338.644 95.8068L340.476 98.0629L337.667 97.3144L336.088 99.7538L335.932 96.8519L333.124 96.1034L335.836 95.0583L335.68 92.1563Z" fill="white"/>
<path d="M456.071 171.955L456.349 173.7L458.096 173.974L456.522 174.779L456.801 176.525L455.549 175.276L453.975 176.081L454.775 174.505L453.524 173.256L455.27 173.531L456.071 171.955Z" fill="white"/>
<path d="M258.204 196.064L259.777 196.871L261.03 195.624L260.749 197.369L262.322 198.176L260.576 198.448L260.295 200.193L259.496 198.616L257.75 198.888L259.003 197.641L258.204 196.064Z" fill="white"/>
<circle r="0.5" transform="matrix(-0.933109 0.359594 0.359594 0.933109 241.868 130.988)" fill="white"/>
<circle r="0.5" transform="matrix(-0.933109 0.359594 0.359594 0.933109 276.752 118.616)" fill="white"/>
<circle r="0.5" transform="matrix(-0.933109 0.359594 0.359594 0.933109 274.099 122.854)" fill="white"/>
</g>
<defs>
<filter id="filter0_d" x="59" y="514" width="206" height="173.5" filterUnits="userSpaceOnUse" color-interpolation-filters="sRGB">
<feFlood flood-opacity="0" result="BackgroundImageFix"/>
<feColorMatrix in="SourceAlpha" type="matrix" values="0 0 0 0 0 0 0 0 0 0 0 0 0 0 0 0 0 0 127 0"/>
<feOffset dy="4"/>
<feGaussianBlur stdDeviation="2"/>
<feColorMatrix type="matrix" values="0 0 0 0 0 0 0 0 0 0 0 0 0 0 0 0 0 0 0.25 0"/>
<feBlend mode="normal" in2="BackgroundImageFix" result="effect1_dropShadow"/>
<feBlend mode="normal" in="SourceGraphic" in2="effect1_dropShadow" result="shape"/>
</filter>
<filter id="filter1_d" x="376.091" y="458.003" width="71.8049" height="71.8049" filterUnits="userSpaceOnUse" color-interpolation-filters="sRGB">
<feFlood flood-opacity="0" result="BackgroundImageFix"/>
<feColorMatrix in="SourceAlpha" type="matrix" values="0 0 0 0 0 0 0 0 0 0 0 0 0 0 0 0 0 0 127 0"/>
<feOffset dy="4"/>
<feGaussianBlur stdDeviation="2"/>
<feColorMatrix type="matrix" values="0 0 0 0 0 0 0 0 0 0 0 0 0 0 0 0 0 0 0.25 0"/>
<feBlend mode="normal" in2="BackgroundImageFix" result="effect1_dropShadow"/>
<feBlend mode="normal" in="SourceGraphic" in2="effect1_dropShadow" result="shape"/>
</filter>
<filter id="filter2_d" x="367" y="108" width="58" height="58" filterUnits="userSpaceOnUse" color-interpolation-filters="sRGB">
<feFlood flood-opacity="0" result="BackgroundImageFix"/>
<feColorMatrix in="SourceAlpha" type="matrix" values="0 0 0 0 0 0 0 0 0 0 0 0 0 0 0 0 0 0 127 0"/>
<feOffset dy="4"/>
<feGaussianBlur stdDeviation="2"/>
<feColorMatrix type="matrix" values="0 0 0 0 0 0 0 0 0 0 0 0 0 0 0 0 0 0 0.25 0"/>
<feBlend mode="normal" in2="BackgroundImageFix" result="effect1_dropShadow"/>
<feBlend mode="normal" in="SourceGraphic" in2="effect1_dropShadow" result="shape"/>
</filter>
<filter id="filter3_f" x="334" y="82" width="28" height="28" filterUnits="userSpaceOnUse" color-interpolation-filters="sRGB">
<feFlood flood-opacity="0" result="BackgroundImageFix"/>
<feBlend mode="normal" in="SourceGraphic" in2="BackgroundImageFix" result="shape"/>
<feGaussianBlur stdDeviation="2" result="effect1_foregroundBlur"/>
</filter>
<filter id="filter4_f" x="434" y="203" width="18" height="18" filterUnits="userSpaceOnUse" color-interpolation-filters="sRGB">
<feFlood flood-opacity="0" result="BackgroundImageFix"/>
<feBlend mode="normal" in="SourceGraphic" in2="BackgroundImageFix" result="shape"/>
<feGaussianBlur stdDeviation="2" result="effect1_foregroundBlur"/>
</filter>
<linearGradient id="paint0_linear" x1="335.004" y1="-11.3596" x2="335.004" y2="644.293" gradientUnits="userSpaceOnUse">
<stop offset="0.0001" stop-color="#6E74E0"/>
<stop offset="1" stop-color="#E7FFF3" stop-opacity="0.12"/>
</linearGradient>
<linearGradient id="paint1_linear" x1="489.299" y1="-11.3849" x2="489.299" y2="645.867" gradientUnits="userSpaceOnUse">
<stop offset="0.0001" stop-color="#8BD3F2"/>
<stop offset="1" stop-color="#AF89FF" stop-opacity="0"/>
</linearGradient>
<radialGradient id="paint2_angular" cx="0" cy="0" r="1" gradientUnits="userSpaceOnUse" gradientTransform="translate(256.949 53.9645) rotate(90) scale(53.9645 256.949)">
<stop offset="0.151042" stop-color="#8CA5FF"/>
<stop offset="0.864583" stop-color="#8C9FFF" stop-opacity="0"/>
</radialGradient>
<linearGradient id="paint3_linear" x1="135.491" y1="805.136" x2="135.491" y2="843.893" gradientUnits="userSpaceOnUse">
<stop offset="0.364583" stop-color="#C4C4C4"/>
<stop offset="1" stop-color="#C4C4C4" stop-opacity="0"/>
</linearGradient>
<linearGradient id="paint4_linear" x1="421.25" y1="809.577" x2="421.25" y2="873.577" gradientUnits="userSpaceOnUse">
<stop stop-color="#C4C4C4"/>
<stop offset="1" stop-color="#C4C4C4" stop-opacity="0"/>
</linearGradient>
<linearGradient id="paint5_linear" x1="307.516" y1="798.922" x2="307.516" y2="874.267" gradientUnits="userSpaceOnUse">
<stop offset="0.458333" stop-color="#C4C4C4"/>
<stop offset="1" stop-color="#C4C4C4" stop-opacity="0"/>
</linearGradient>
<linearGradient id="paint6_linear" x1="148.864" y1="415.5" x2="332.981" y2="414.525" gradientUnits="userSpaceOnUse">
<stop offset="0.348958" stop-color="#2063B2" stop-opacity="0"/>
<stop offset="1" stop-color="#2064B4" stop-opacity="0.55"/>
</linearGradient>
<linearGradient id="paint7_linear" x1="257.952" y1="405.783" x2="257.952" y2="314.048" gradientUnits="userSpaceOnUse">
<stop stop-color="#3F7CC5"/>
<stop offset="1" stop-opacity="0"/>
</linearGradient>
<linearGradient id="paint8_linear" x1="161" y1="529.675" x2="161" y2="473.072" gradientUnits="userSpaceOnUse">
<stop stop-color="#3F7CC5"/>
<stop offset="1" stop-opacity="0"/>
</linearGradient>
<clipPath id="clip0">
<rect width="956" height="922" fill="white"/>
</clipPath>
</defs>
</svg>
