<svg width="516" height="387" viewBox="0 0 516 387" fill="none" xmlns="http://www.w3.org/2000/svg">
<path fill-rule="evenodd" clip-rule="evenodd" d="M2 386.85H353.32C371.051 345.331 401.531 311.397 432.613 276.793C453.657 253.365 474.977 229.629 492.802 203.025C568.097 90.6436 474.147 -141.492 2 175.968V386.85Z" fill="url(#paint0_linear)"/>
<path fill-rule="evenodd" clip-rule="evenodd" d="M1 386.85H313.523C326.2 297.067 392.171 230.473 452 174.238C542.193 89.4617 437.744 -136.457 1 152.601V386.85Z" fill="#6E75E0"/>
<path fill-rule="evenodd" clip-rule="evenodd" d="M0.87793 146.738V386.85H325.477C341.698 338.129 375.778 300.188 410.614 261.406C431.658 237.977 452.978 214.242 470.802 187.638C544.974 76.9328 454.913 -149.981 0.87793 146.738Z" fill="url(#paint1_linear)"/>
<defs>
<linearGradient id="paint0_linear" x1="262.536" y1="11.3788" x2="262.536" y2="447.388" gradientUnits="userSpaceOnUse">
<stop stop-color="#A3D9F6"/>
<stop offset="1" stop-color="#A3D9F6" stop-opacity="0"/>
</linearGradient>
<linearGradient id="paint1_linear" x1="240.536" y1="-4.0084" x2="240.536" y2="432.001" gradientUnits="userSpaceOnUse">
<stop stop-color="#A3D9F6"/>
<stop offset="1" stop-color="#A3D9F6" stop-opacity="0"/>
</linearGradient>
</defs>
</svg>
