<svg width="40" height="40" viewBox="0 0 40 40" fill="none" xmlns="http://www.w3.org/2000/svg">
<g clip-path="url(#clip0)">
<path d="M31.0933 1.55002L10.7733 21.87C9.99719 22.6419 9.38192 23.5601 8.96309 24.5714C8.54426 25.5827 8.33019 26.6671 8.33328 27.7617V30C8.33328 30.4421 8.50888 30.866 8.82144 31.1785C9.134 31.4911 9.55792 31.6667 9.99995 31.6667H12.2383C13.3329 31.6698 14.4172 31.4557 15.4285 31.0369C16.4399 30.6181 17.358 30.0028 18.13 29.2267L38.45 8.90669C39.4239 7.9303 39.9709 6.60748 39.9709 5.22835C39.9709 3.84923 39.4239 2.5264 38.45 1.55002C37.4594 0.603175 36.1419 0.0747681 34.7716 0.0747681C33.4013 0.0747681 32.0838 0.603175 31.0933 1.55002V1.55002ZM36.0933 6.55002L15.7733 26.87C14.8335 27.8041 13.5633 28.3299 12.2383 28.3334H11.6666V27.7617C11.6701 26.4367 12.1959 25.1665 13.13 24.2267L33.45 3.90669C33.8059 3.56661 34.2793 3.37684 34.7716 3.37684C35.2639 3.37684 35.7373 3.56661 36.0933 3.90669C36.4432 4.25754 36.6397 4.73284 36.6397 5.22835C36.6397 5.72387 36.4432 6.19916 36.0933 6.55002V6.55002Z" fill="#DEDEDE"/>
<path d="M38.3333 14.965C37.8913 14.965 37.4674 15.1406 37.1548 15.4532C36.8423 15.7657 36.6667 16.1896 36.6667 16.6317V25H30C28.6739 25 27.4022 25.5268 26.4645 26.4645C25.5268 27.4021 25 28.6739 25 30V36.6667H8.33333C7.00725 36.6667 5.73548 36.1399 4.7978 35.2022C3.86012 34.2645 3.33333 32.9928 3.33333 31.6667V8.33333C3.33333 7.00725 3.86012 5.73548 4.7978 4.7978C5.73548 3.86012 7.00725 3.33333 8.33333 3.33333H23.4033C23.8454 3.33333 24.2693 3.15774 24.5818 2.84518C24.8944 2.53262 25.07 2.10869 25.07 1.66667C25.07 1.22464 24.8944 0.800716 24.5818 0.488155C24.2693 0.175595 23.8454 0 23.4033 0L8.33333 0C6.12401 0.00264643 4.00593 0.88147 2.4437 2.4437C0.88147 4.00593 0.00264643 6.12401 0 8.33333L0 31.6667C0.00264643 33.876 0.88147 35.9941 2.4437 37.5563C4.00593 39.1185 6.12401 39.9974 8.33333 40H27.2383C28.3332 40.0031 29.4178 39.7891 30.4294 39.3703C31.441 38.9514 32.3595 38.3361 33.1317 37.56L37.5583 33.13C38.3346 32.3581 38.9501 31.44 39.3692 30.4287C39.7883 29.4174 40.0027 28.333 40 27.2383V16.6317C40 16.1896 39.8244 15.7657 39.5119 15.4532C39.1993 15.1406 38.7754 14.965 38.3333 14.965ZM30.775 35.2033C30.105 35.8717 29.2578 36.3343 28.3333 36.5367V30C28.3333 29.558 28.5089 29.134 28.8215 28.8215C29.1341 28.5089 29.558 28.3333 30 28.3333H36.5417C36.3355 29.2559 35.8734 30.1016 35.2083 30.7733L30.775 35.2033Z" fill="#DEDEDE"/>
</g>
<defs>
<clipPath id="clip0">
<rect width="40" height="40" fill="white"/>
</clipPath>
</defs>
</svg>
