<svg width="40" height="40" viewBox="0 0 40 40" fill="none" xmlns="http://www.w3.org/2000/svg">
<g clip-path="url(#clip0)">
<path d="M39.5117 37.155L37.7166 35.36L34.8333 32.4817L39.4816 27.8333C39.6795 27.6352 39.8242 27.3903 39.9025 27.1215C39.9807 26.8526 39.99 26.5683 39.9293 26.2949C39.8687 26.0216 39.7402 25.7679 39.5556 25.5573C39.371 25.3467 39.1364 25.186 38.8733 25.09L23.925 19.6667C23.3295 19.4515 22.6851 19.4103 22.0672 19.548C21.4492 19.6856 20.8832 19.9964 20.4354 20.4441C19.9876 20.8917 19.6766 21.4575 19.5387 22.0755C19.4007 22.6934 19.4417 23.3378 19.6566 23.9333L25.095 38.8817C25.1905 39.145 25.3508 39.38 25.5611 39.565C25.7714 39.7499 26.025 39.8789 26.2983 39.94C26.4171 39.9659 26.5384 39.9787 26.66 39.9783C27.102 39.9782 27.5258 39.8026 27.8383 39.49L32.4816 34.8333L35.36 37.7117L37.155 39.5067C37.4693 39.8103 37.8903 39.9783 38.3273 39.9745C38.7643 39.9707 39.1823 39.7954 39.4913 39.4864C39.8004 39.1774 39.9756 38.7593 39.9794 38.3223C39.9832 37.8853 39.8152 37.4643 39.5117 37.15V37.155ZM27.3333 35.275L22.7933 22.7917L35.2766 27.3317L27.3333 35.275Z" fill="#DEDEDE"/>
<path d="M16.6667 33.3333C13.3703 33.3333 10.148 32.3559 7.40717 30.5245C4.66635 28.6931 2.53014 26.0902 1.26868 23.0447C0.0072214 19.9993 -0.322834 16.6482 0.320253 13.4152C0.96334 10.1822 2.55069 7.21244 4.88156 4.88156C7.21244 2.55069 10.1822 0.96334 13.4152 0.320253C16.6482 -0.322834 19.9993 0.0072214 23.0447 1.26868C26.0902 2.53014 28.6931 4.66635 30.5245 7.40717C32.3559 10.148 33.3333 13.3703 33.3333 16.6667C33.3333 17.1087 33.1577 17.5326 32.8452 17.8452C32.5326 18.1577 32.1087 18.3333 31.6667 18.3333C31.2246 18.3333 30.8007 18.1577 30.4882 17.8452C30.1756 17.5326 30 17.1087 30 16.6667C30 14.0296 29.218 11.4517 27.7529 9.25907C26.2878 7.06641 24.2055 5.35745 21.7691 4.34828C19.3328 3.33911 16.6519 3.07507 14.0655 3.58954C11.4791 4.10401 9.10328 5.37388 7.23858 7.23858C5.37388 9.10328 4.10401 11.4791 3.58954 14.0655C3.07507 16.6519 3.33911 19.3328 4.34828 21.7691C5.35745 24.2055 7.06641 26.2878 9.25907 27.7529C11.4517 29.218 14.0296 30 16.6667 30C17.1087 30 17.5326 30.1756 17.8452 30.4882C18.1577 30.8007 18.3333 31.2246 18.3333 31.6667C18.3333 32.1087 18.1577 32.5326 17.8452 32.8452C17.5326 33.1577 17.1087 33.3333 16.6667 33.3333Z" fill="#DEDEDE"/>
<path d="M13.4734 26.0333C13.2544 26.0334 13.0375 25.9904 12.8351 25.9066C11.3165 25.2759 9.97691 24.2804 8.93491 23.0084C7.8929 21.7364 7.18065 20.227 6.86125 18.614C6.54184 17.0009 6.62513 15.334 7.10374 13.7609C7.58235 12.1877 8.4415 10.7569 9.60512 9.59503C10.7687 8.43319 12.2009 7.57623 13.7748 7.10003C15.3487 6.62383 17.0157 6.54309 18.6282 6.86496C20.2408 7.18684 21.7491 7.90139 23.0195 8.94534C24.29 9.9893 25.2834 11.3304 25.9118 12.85C25.9998 13.053 26.0466 13.2715 26.0493 13.4928C26.0521 13.7141 26.0107 13.9337 25.9276 14.1388C25.8446 14.3439 25.7215 14.5305 25.5656 14.6875C25.4097 14.8446 25.2241 14.969 25.0196 15.0535C24.815 15.1381 24.5957 15.1811 24.3744 15.18C24.1532 15.1788 23.9343 15.1337 23.7306 15.0471C23.527 14.9605 23.3426 14.8342 23.1883 14.6756C23.034 14.517 22.9128 14.3292 22.8318 14.1233C22.4119 13.1112 21.749 12.2182 20.9017 11.5233C20.0545 10.8284 19.049 10.3531 17.9743 10.1394C16.8996 9.92563 15.7888 9.98011 14.7402 10.298C13.6915 10.6158 12.7374 11.1872 11.9622 11.9617C11.187 12.7361 10.6147 13.6897 10.2958 14.738C9.97697 15.7864 9.92144 16.8971 10.1341 17.9721C10.3468 19.047 10.8212 20.0529 11.5153 20.9008C12.2094 21.7487 13.1017 22.4124 14.1134 22.8333C14.47 22.9808 14.7643 23.2475 14.9461 23.5879C15.128 23.9282 15.1861 24.3211 15.1105 24.6995C15.035 25.0779 14.8305 25.4184 14.532 25.6628C14.2334 25.9073 13.8593 26.0406 13.4734 26.04V26.0333Z" fill="#DEDEDE"/>
</g>
<defs>
<clipPath id="clip0">
<rect width="40" height="40" fill="white"/>
</clipPath>
</defs>
</svg>
