<svg width="644" height="922" viewBox="0 0 644 922" fill="none" xmlns="http://www.w3.org/2000/svg">
<g clip-path="url(#clip0)">
<circle cx="307" cy="33" r="2" fill="white"/>
<circle cx="333" cy="105" r="2" fill="white"/>
<circle cx="357" cy="118" r="2" fill="white"/>
<circle cx="455" cy="45" r="2" fill="white"/>
<circle cx="479" cy="58" r="2" fill="white"/>
<circle r="0.5" transform="matrix(-1 0 0 1 297.5 41.5)" fill="white"/>
<circle r="0.5" transform="matrix(-1 0 0 1 321.5 54.5)" fill="white"/>
<circle r="0.5" transform="matrix(-1 0 0 1 314.5 33.5)" fill="white"/>
<circle r="0.5" transform="matrix(-1 0 0 1 338.5 46.5)" fill="white"/>
<circle r="0.5" transform="matrix(-1 0 0 1 312.5 35.5)" fill="white"/>
<circle r="0.5" transform="matrix(-1 0 0 1 336.5 48.5)" fill="white"/>
<circle r="0.5" transform="matrix(-1 0 0 1 297.5 32.5)" fill="white"/>
<circle r="0.5" transform="matrix(-1 0 0 1 321.5 45.5)" fill="white"/>
<circle r="0.5" transform="matrix(-1 0 0 1 285.5 43.5)" fill="white"/>
<circle r="0.5" transform="matrix(-1 0 0 1 309.5 56.5)" fill="white"/>
<circle r="0.5" transform="matrix(-1 0 0 1 334.5 42.5)" fill="white"/>
<circle r="0.5" transform="matrix(-1 0 0 1 334.5 48.5)" fill="white"/>
<circle r="0.5" transform="matrix(-1 0 0 1 330.5 45.5)" fill="white"/>
<circle r="1" transform="matrix(-1 0 0 1 308 28)" fill="white"/>
<circle r="1" transform="matrix(-1 0 0 1 316 34)" fill="white"/>
<circle r="1" transform="matrix(-1 0 0 1 407 34)" fill="white"/>
<circle r="1" transform="matrix(-1 0 0 1 311 81)" fill="white"/>
<circle r="1" transform="matrix(-1 0 0 1 410 39)" fill="white"/>
<circle r="1" transform="matrix(-1 0 0 1 314 86)" fill="white"/>
<circle cx="338" cy="46" r="2" fill="white"/>
<circle cx="364" cy="118" r="2" fill="white"/>
<circle cx="486" cy="58" r="2" fill="white"/>
<circle cx="242" cy="93" r="2" fill="white"/>
<circle cx="410" cy="33" r="2" fill="white"/>
<circle cx="314" cy="80" r="2" fill="white"/>
<circle r="0.5" transform="matrix(-1 0 0 1 398.5 31.5)" fill="white"/>
<circle r="0.5" transform="matrix(-1 0 0 1 461.5 56.5)" fill="white"/>
<circle r="0.5" transform="matrix(-1 0 0 1 302.5 78.5)" fill="white"/>
<circle r="0.5" transform="matrix(-1 0 0 1 365.5 103.5)" fill="white"/>
<circle r="0.5" transform="matrix(-1 0 0 1 435.5 32.5)" fill="white"/>
<circle r="0.5" transform="matrix(-1 0 0 1 498.5 57.5)" fill="white"/>
<circle r="0.5" transform="matrix(-1 0 0 1 339.5 79.5)" fill="white"/>
<circle r="0.5" transform="matrix(-1 0 0 1 310.5 92.5)" fill="white"/>
<circle r="0.5" transform="matrix(-1 0 0 1 305.5 97.5)" fill="white"/>
<circle r="0.5" transform="matrix(-1 0 0 1 276.5 110.5)" fill="white"/>
<circle r="0.5" transform="matrix(-1 0 0 1 402.5 104.5)" fill="white"/>
<circle r="0.5" transform="matrix(-1 0 0 1 373.5 117.5)" fill="white"/>
<circle r="0.5" transform="matrix(-1 0 0 1 368.5 122.5)" fill="white"/>
<circle r="0.5" transform="matrix(-1 0 0 1 339.5 135.5)" fill="white"/>
<circle r="0.5" transform="matrix(-1 0 0 1 431.5 35.5)" fill="white"/>
<circle r="0.5" transform="matrix(-1 0 0 1 402.5 48.5)" fill="white"/>
<circle r="0.5" transform="matrix(-1 0 0 1 397.5 53.5)" fill="white"/>
<circle r="0.5" transform="matrix(-1 0 0 1 368.5 66.5)" fill="white"/>
<circle r="0.5" transform="matrix(-1 0 0 1 494.5 60.5)" fill="white"/>
<circle r="0.5" transform="matrix(-1 0 0 1 465.5 73.5)" fill="white"/>
<circle r="0.5" transform="matrix(-1 0 0 1 460.5 78.5)" fill="white"/>
<circle r="0.5" transform="matrix(-1 0 0 1 431.5 91.5)" fill="white"/>
<circle r="0.5" transform="matrix(-1 0 0 1 335.5 82.5)" fill="white"/>
<circle r="0.5" transform="matrix(-1 0 0 1 306.5 95.5)" fill="white"/>
<circle r="0.5" transform="matrix(-1 0 0 1 301.5 100.5)" fill="white"/>
<circle r="0.5" transform="matrix(-1 0 0 1 272.5 113.5)" fill="white"/>
<path d="M399 39L399.898 41.7639H402.804L400.453 43.4721L401.351 46.2361L399 44.5279L396.649 46.2361L397.547 43.4721L395.196 41.7639H398.102L399 39Z" fill="white"/>
<path d="M482.643 156.752L482.275 158.481L483.806 159.365L482.048 159.55L481.681 161.279L480.962 159.664L479.204 159.849L480.517 158.666L479.798 157.051L481.329 157.935L482.643 156.752Z" fill="white"/>
<path d="M289.343 108.097L290.52 109.415L292.138 108.703L291.248 110.23L292.426 111.548L290.698 111.174L289.808 112.702L289.631 110.943L287.903 110.569L289.521 109.856L289.343 108.097Z" fill="white"/>
<circle r="0.5" transform="matrix(-1 0 0 1 297.5 41.5)" fill="white"/>
<circle r="0.5" transform="matrix(-1 0 0 1 334.5 42.5)" fill="white"/>
<circle r="0.5" transform="matrix(-1 0 0 1 330.5 45.5)" fill="white"/>
<path fill-rule="evenodd" clip-rule="evenodd" d="M691 0L543.081 7.66723e-06H311.051H291.518C221.86 54.4914 80.7656 180.632 66.7963 244.95C59.426 278.884 104.583 296.013 145.811 311.651C202.259 333.063 251.342 351.68 148.15 406.816C79.4305 443.533 145.976 542.419 247.608 628.176C332.696 699.973 167.688 796.343 107.746 831.351C96.0916 838.157 88.4091 842.644 87.3088 844.179L521.039 849C515.688 842.972 505.558 826.365 492.47 804.907C462.381 755.579 416.657 680.616 377.404 649.615C321.076 605.129 368.391 550.995 377.404 543.491C377.404 543.491 500.198 473.278 414.338 350.002C356.377 266.783 566.357 136.419 691 60.4867V0Z" fill="url(#paint0_linear)"/>
<path fill-rule="evenodd" clip-rule="evenodd" d="M691 0L609.739 4.20906e-06H378.362H358.884C289.421 54.2988 148.724 179.994 134.794 244.084C127.445 277.899 172.474 294.967 213.586 310.55C269.876 331.886 318.82 350.438 215.919 405.378C147.393 441.966 213.751 540.502 315.097 625.956C399.946 697.5 235.401 793.529 175.628 828.413C164.007 835.195 156.346 839.666 155.249 841.196L587.759 846C582.423 839.993 572.322 823.445 559.27 802.063C529.266 752.909 483.67 678.211 444.528 647.32C388.359 602.991 435.541 549.048 444.528 541.571C444.528 541.571 566.977 471.605 481.358 348.765C433.009 279.397 571.628 177.155 691 101.288V0Z" fill="url(#paint1_linear)"/>
<circle cx="245.033" cy="79.5948" r="2" transform="rotate(-21.0753 245.033 79.5948)" fill="white"/>
<circle cx="295.184" cy="137.429" r="2" transform="rotate(-21.0753 295.184 137.429)" fill="white"/>
<circle cx="322.254" cy="140.929" r="2" transform="rotate(-21.0753 322.254 140.929)" fill="white"/>
<circle cx="387.448" cy="37.5721" r="2" transform="rotate(-21.0753 387.448 37.5721)" fill="white"/>
<circle cx="414.517" cy="41.0721" r="2" transform="rotate(-21.0753 414.517 41.0721)" fill="white"/>
<circle r="0.5" transform="matrix(-0.933109 0.359594 0.359594 0.933109 239.225 90.9422)" fill="white"/>
<circle r="0.5" transform="matrix(-0.933109 0.359594 0.359594 0.933109 266.294 94.4425)" fill="white"/>
<circle r="0.5" transform="matrix(-0.933109 0.359594 0.359594 0.933109 252.211 77.3644)" fill="white"/>
<circle r="0.5" transform="matrix(-0.933109 0.359594 0.359594 0.933109 279.28 80.8644)" fill="white"/>
<circle r="0.5" transform="matrix(-0.933109 0.359594 0.359594 0.933109 251.064 79.9498)" fill="white"/>
<circle r="0.5" transform="matrix(-0.933109 0.359594 0.359594 0.933109 278.133 83.4498)" fill="white"/>
<circle r="0.5" transform="matrix(-0.933109 0.359594 0.359594 0.933109 235.989 82.5443)" fill="white"/>
<circle r="0.5" transform="matrix(-0.933109 0.359594 0.359594 0.933109 263.058 86.0445)" fill="white"/>
<circle r="0.5" transform="matrix(-0.933109 0.359594 0.359594 0.933109 228.747 97.1236)" fill="white"/>
<circle r="0.5" transform="matrix(-0.933109 0.359594 0.359594 0.933109 255.816 100.624)" fill="white"/>
<circle r="0.5" transform="matrix(-0.933109 0.359594 0.359594 0.933109 274.109 78.5704)" fill="white"/>
<circle r="0.5" transform="matrix(-0.933109 0.359594 0.359594 0.933109 276.267 84.1691)" fill="white"/>
<circle r="0.5" transform="matrix(-0.933109 0.359594 0.359594 0.933109 271.456 82.808)" fill="white"/>
<circle r="1" transform="matrix(-0.933109 0.359594 0.359594 0.933109 244.168 74.5696)" fill="white"/>
<circle r="1" transform="matrix(-0.933109 0.359594 0.359594 0.933109 253.79 77.2915)" fill="white"/>
<circle r="1" transform="matrix(-0.933109 0.359594 0.359594 0.933109 338.703 44.5683)" fill="white"/>
<circle r="1" transform="matrix(-0.933109 0.359594 0.359594 0.933109 266.026 122.946)" fill="white"/>
<circle r="1" transform="matrix(-0.933109 0.359594 0.359594 0.933109 343.301 48.1553)" fill="white"/>
<circle r="1" transform="matrix(-0.933109 0.359594 0.359594 0.933109 270.623 126.532)" fill="white"/>
<circle cx="278.634" cy="80.5777" r="2" transform="rotate(-21.0753 278.634 80.5777)" fill="white"/>
<circle cx="328.785" cy="138.412" r="2" transform="rotate(-21.0753 328.785 138.412)" fill="white"/>
<circle cx="421.049" cy="38.555" r="2" transform="rotate(-21.0753 421.049 38.555)" fill="white"/>
<circle cx="205.956" cy="158.955" r="2" transform="rotate(-21.0753 205.956 158.955)" fill="white"/>
<circle cx="341.143" cy="42.5565" r="2" transform="rotate(-21.0753 341.143 42.5565)" fill="white"/>
<circle cx="268.466" cy="120.934" r="2" transform="rotate(-21.0753 268.466 120.934)" fill="white"/>
<circle r="0.5" transform="matrix(-0.933109 0.359594 0.359594 0.933109 329.873 45.2921)" fill="white"/>
<circle r="0.5" transform="matrix(-0.933109 0.359594 0.359594 0.933109 397.649 45.9654)" fill="white"/>
<circle r="0.5" transform="matrix(-0.933109 0.359594 0.359594 0.933109 257.195 123.669)" fill="white"/>
<circle r="0.5" transform="matrix(-0.933109 0.359594 0.359594 0.933109 324.971 124.343)" fill="white"/>
<circle r="0.5" transform="matrix(-0.933109 0.359594 0.359594 0.933109 364.757 32.9203)" fill="white"/>
<circle r="0.5" transform="matrix(-0.933109 0.359594 0.359594 0.933109 432.533 33.5936)" fill="white"/>
<circle r="0.5" transform="matrix(-0.933109 0.359594 0.359594 0.933109 292.08 111.297)" fill="white"/>
<circle r="0.5" transform="matrix(-0.933109 0.359594 0.359594 0.933109 269.695 133.856)" fill="white"/>
<circle r="0.5" transform="matrix(-0.933109 0.359594 0.359594 0.933109 266.827 140.32)" fill="white"/>
<circle r="0.5" transform="matrix(-0.933109 0.359594 0.359594 0.933109 244.442 162.878)" fill="white"/>
<circle r="0.5" transform="matrix(-0.933109 0.359594 0.359594 0.933109 359.856 111.971)" fill="white"/>
<circle r="0.5" transform="matrix(-0.933109 0.359594 0.359594 0.933109 337.47 134.529)" fill="white"/>
<circle r="0.5" transform="matrix(-0.933109 0.359594 0.359594 0.933109 334.603 140.993)" fill="white"/>
<circle r="0.5" transform="matrix(-0.933109 0.359594 0.359594 0.933109 312.217 163.552)" fill="white"/>
<circle r="0.5" transform="matrix(-0.933109 0.359594 0.359594 0.933109 362.104 37.1581)" fill="white"/>
<circle r="0.5" transform="matrix(-0.933109 0.359594 0.359594 0.933109 339.718 59.7167)" fill="white"/>
<circle r="0.5" transform="matrix(-0.933109 0.359594 0.359594 0.933109 336.851 66.18)" fill="white"/>
<circle r="0.5" transform="matrix(-0.933109 0.359594 0.359594 0.933109 314.465 88.7389)" fill="white"/>
<circle r="0.5" transform="matrix(-0.933109 0.359594 0.359594 0.933109 429.88 37.8312)" fill="white"/>
<circle r="0.5" transform="matrix(-0.933109 0.359594 0.359594 0.933109 407.494 60.39)" fill="white"/>
<circle r="0.5" transform="matrix(-0.933109 0.359594 0.359594 0.933109 404.627 66.8534)" fill="white"/>
<circle r="0.5" transform="matrix(-0.933109 0.359594 0.359594 0.933109 382.241 89.412)" fill="white"/>
<circle r="0.5" transform="matrix(-0.933109 0.359594 0.359594 0.933109 289.426 115.535)" fill="white"/>
<circle r="0.5" transform="matrix(-0.933109 0.359594 0.359594 0.933109 267.041 138.094)" fill="white"/>
<circle r="0.5" transform="matrix(-0.933109 0.359594 0.359594 0.933109 264.173 144.557)" fill="white"/>
<circle r="0.5" transform="matrix(-0.933109 0.359594 0.359594 0.933109 241.788 167.116)" fill="white"/>
<path d="M333.036 52.1107L334.868 54.3668L337.58 53.3218L336 55.7612L337.832 58.0173L335.024 57.2688L333.445 59.7082L333.289 56.8062L330.481 56.0577L333.192 55.0127L333.036 52.1107Z" fill="white"/>
<path d="M453.427 131.909L453.706 133.655L455.452 133.929L453.879 134.733L454.157 136.479L452.906 135.231L451.332 136.035L452.132 134.459L450.881 133.211L452.627 133.485L453.427 131.909Z" fill="white"/>
<path d="M255.561 156.018L257.134 156.824L258.387 155.578L258.106 157.323L259.679 158.13L257.932 158.402L257.651 160.147L256.853 158.57L255.106 158.842L256.359 157.595L255.561 156.018Z" fill="white"/>
<circle r="0.5" transform="matrix(-0.933109 0.359594 0.359594 0.933109 239.225 90.9422)" fill="white"/>
<circle r="0.5" transform="matrix(-0.933109 0.359594 0.359594 0.933109 274.109 78.5704)" fill="white"/>
<circle r="0.5" transform="matrix(-0.933109 0.359594 0.359594 0.933109 271.456 82.808)" fill="white"/>
<path d="M434 584H195.8C176 584 159 575.261 159 564.446V397.5C159 386.685 180.7 385 200.5 385L426 385C445.8 385 470.5 386.685 470.5 397.5L469.9 564.446C469.8 575.206 453.8 584 434 584Z" fill="white" stroke="#2064B4" stroke-miterlimit="10"/>
<path d="M466.019 429.62H163.077C160.29 429.62 158 426.899 158 423.586V389.035C158 385.722 160.29 383 163.077 383H465.92C468.707 383 470.997 385.722 470.997 389.035V423.468C471.096 426.899 468.807 429.62 466.019 429.62Z" fill="#2064B4"/>
<path d="M465.083 429.62H166.012C163.26 429.62 161 426.899 161 423.586V389.035C161 385.722 163.26 383 166.012 383H464.985C467.736 383 469.997 385.722 469.997 389.035V423.468C470.095 426.899 467.835 429.62 465.083 429.62Z" fill="url(#paint2_linear)"/>
<path d="M463.986 430H167.014C163.161 430 160 426.376 160 421.959V391.041C160 386.624 163.161 383 167.014 383H463.986C467.839 383 471 386.624 471 391.041V421.959C471 426.489 467.839 430 463.986 430Z" fill="url(#paint3_linear)" style="mix-blend-mode:lighten"/>
<path d="M415.7 404.417H399.6V418.734H415.7V404.417Z" stroke="white" stroke-width="3" stroke-miterlimit="10"/>
<path d="M422.8 396.134H406.7V410.452H422.8V396.134Z" stroke="white" stroke-width="3" stroke-miterlimit="10"/>
<line x1="363" y1="407" x2="387" y2="407" stroke="white" stroke-width="2"/>
<line x1="438.419" y1="414.979" x2="456.448" y2="399.851" stroke="white" stroke-width="3"/>
<line x1="438.964" y1="399.851" x2="456.994" y2="414.979" stroke="white" stroke-width="3"/>
<g filter="url(#filter0_d)">
<path d="M289.578 734H80.4217C63.0432 734 49 717.747 49 697.634V571.367C49 551.254 63.0432 538 80.4217 538H185H289.578C306.957 538 322 531 320 571.367C320 571.367 320 677.52 320 697.634C320 717.747 306.957 734 289.578 734Z" fill="white" stroke="#2064B4" stroke-miterlimit="10"/>
<path d="M314.843 577H54.1572C50.7751 577 48 573.839 48 569.986V543.014C48 539.161 50.7751 536 54.1572 536H314.843C318.225 536 321 539.161 321 543.014V569.986C321 573.937 318.225 577 314.843 577Z" fill="#2064B4"/>
<path d="M310.91 576H53.0896C49.7446 576 47 572.993 47 569.328V543.672C47 540.007 49.7446 537 53.0896 537H310.91C314.255 537 317 540.007 317 543.672V569.328C317 573.087 314.255 576 310.91 576Z" fill="url(#paint4_linear)" style="mix-blend-mode:lighten"/>
<path d="M296.172 547.4L312.304 566.2" stroke="white" stroke-width="2" stroke-miterlimit="10"/>
<path d="M312.304 547.3L295.47 565.3" stroke="white" stroke-width="2" stroke-miterlimit="10"/>
<path d="M220.508 556.8H244.18" stroke="white" stroke-width="2" stroke-miterlimit="10"/>
<path d="M279.426 546.3H265.31V558.4H279.426V546.3Z" stroke="white" stroke-width="2" stroke-miterlimit="10"/>
<path d="M273.201 553.3H259.085V565.4H273.201V553.3Z" stroke="white" stroke-width="2" stroke-miterlimit="10"/>
</g>
<ellipse rx="256.949" ry="53.9645" transform="matrix(0.999553 0.029904 -0.0431853 0.999067 333.164 861.247)" fill="url(#paint5_angular)"/>
<ellipse rx="212.33" ry="33.7846" transform="matrix(0.999553 0.029904 -0.0431853 0.999067 333.521 850.512)" fill="white"/>
<path d="M522.5 858.078C450.5 890.078 166.788 870.915 151.5 851.078C155.448 849.025 167.59 841.714 171.5 839.819L167.966 822.783C165.563 814.709 163.179 806.687 164.5 806.078C168.185 804.379 176.352 813.641 180 812.078C181.356 811.497 185.403 815.817 189.413 820.083L198.5 827.811C223.643 817.631 247.876 810.607 271 806.14C276.85 805.01 282.629 804.043 288.333 803.231C294.477 802.356 300.533 801.659 306.5 801.129C334.058 798.68 359.691 799.779 383 803.231L400 785.578C400 785.578 407.422 789.117 411.5 790.078L420 811.061C460.493 822.316 504.815 842.908 522.5 858.078Z" fill="#8C9FFF"/>
<path d="M168 806.577C167.333 808.911 167.6 813.777 174 814.577C178.267 815.111 179.807 815.081 180.163 814.903L180 814.577C180.222 814.689 180.341 814.814 180.163 814.903L187.5 829.577C188 830.744 189.2 832.877 190 832.077C190.8 831.277 188.667 825.411 187.5 822.577L197 833.577C198.833 833.911 202.2 834.077 201 832.077C205.333 833.244 209.8 836.677 193 841.077C172 846.577 162 845.077 165.5 843.077C168.3 841.477 170.667 840.077 171.5 839.577L164 806.577C164.833 806.244 166.8 805.777 168 806.577Z" fill="url(#paint6_linear)"/>
<path d="M411 802.578L408 789.078L412 790.078L419.5 811.578L428.5 824.078L408 811.578L404 797.078L408 801.078L411 802.578Z" fill="#C4C4C4"/>
<path d="M427.952 874.19C452.752 869.548 432.542 827.676 418 810.578C458.8 820.978 509.5 843.578 522.5 858.078C487.848 877.065 450.343 872.168 427.952 874.19C426.886 874.39 425.736 874.521 424.5 874.578C425.606 874.426 426.757 874.298 427.952 874.19Z" fill="url(#paint7_linear)"/>
<path d="M330 874.578C381.6 853.778 336 816.5 308.5 801C339.3 797.4 370.667 801.078 380 803.078C404.8 817.878 401.667 857.578 394 875.078C375 875.078 340.833 875.744 330 874.578Z" fill="url(#paint8_linear)"/>
<path d="M390.9 768L384.5 829.8H387.7L398 769.4L390.9 768Z" fill="#939393"/>
<path d="M439.5 770.1L457.1 838L460.1 836.9L446.8 769.1L439.5 770.1Z" fill="#939393"/>
<path d="M451.9 696.6C452.6 697.5 453.1 698.6 453.2 699.8C454.6 709.2 461 756.6 451 767.7C441.2 778.5 396.4 777.1 385.4 776.6C383 776.5 380.7 775.1 379.7 772.9C379 771.5 378.8 769.7 379.9 767.7C382.7 762.5 422.4 747.3 431.2 737.6C439.6 728.2 440.8 682.6 451.9 696.6Z" fill="#2064B4"/>
<path d="M432.502 766.745C443.141 760.313 426.994 753.642 417.59 751.111C374.388 749.681 374.065 762.427 379.304 768.979C392.604 770.914 421.862 773.178 432.502 766.745Z" fill="#42B0FF"/>
<path d="M439.5 768C446.3 763.2 449 717 449.5 694.5C459 697 459.548 753 453 765.5C448 775.045 424.833 776.333 413.5 776.5C419.333 775.667 432.7 772.8 439.5 768Z" fill="#42B0FF"/>
<path d="M377.2 650.1C381.232 650.1 384.5 646.832 384.5 642.8C384.5 638.768 381.232 635.5 377.2 635.5C373.168 635.5 369.9 638.768 369.9 642.8C369.9 646.832 373.168 650.1 377.2 650.1Z" fill="#6057C0"/>
<path d="M400.2 639.1C400.2 639.1 399.5 634.7 391.5 635.7C383.5 636.7 384.3 638 377.1 640.1C373.2 641.3 369.8 651.4 390.6 648.2C390.6 648.2 393.8 655.7 395.6 655.4C397.4 655.1 397.2 662.6 397.2 662.6L401.6 661.2C401.6 661.2 402.3 655.7 405.2 654C408.1 652.3 407.1 636.4 400.2 639.1Z" fill="#6057C0"/>
<path d="M396.5 652.688C405 637.5 389.5 639 389 639C398.5 636.312 400.5 637.333 400.5 639C407.5 636.5 409 652.688 406.5 653.688C404.5 654.488 403 659.021 402.5 661.188L400 662.188C398.167 661.355 393.656 657.77 396.5 652.688Z" fill="#0B0A54"/>
<path d="M382 648.2L376.5 650C376.8 657.3 375.6 662.5 378.9 666.5C382.3 670.5 382 670.5 388.5 668.5L391.6 679.5L404.4 669.8C404.4 669.8 399.7 664.3 398.8 662.4C398.8 662.4 398 659 399.3 658.7C402.7 658 401.6 645.6 395.3 653L392.7 648.2C390.9 643.6 384.3 647.1 382 648.2Z" fill="#FFBC85"/>
<path d="M394 664.5L388.5 668.5L389.5 672C389.5 672 391.5 672 392.5 670C393.5 668 394 664.5 394 664.5Z" fill="#F07B61"/>
<path d="M385.1 649.4C388.193 649.4 390.7 646.893 390.7 643.8C390.7 640.707 388.193 638.2 385.1 638.2C382.007 638.2 379.5 640.707 379.5 643.8C379.5 646.893 382.007 649.4 385.1 649.4Z" fill="#6057C0"/>
<path d="M399.897 652.706C398.579 651.565 397.837 651.755 397.013 653.657C397.013 655.084 398.249 655.084 397.013 657.938C396.829 658.363 398.661 656.511 398.249 655.56C397.919 654.799 398.661 654.926 399.485 655.084C400.309 655.084 399.897 653.023 399.897 652.706Z" fill="#F07B61"/>
<path d="M399 656C398.6 656.667 397.64 658 397 658" stroke="#F07B61" stroke-width="0.5"/>
<path d="M356.9 701.2L360.2 690.5C360.2 690.5 374.6 694.7 380.9 698.8C387.2 702.9 392.9 708.2 392.9 708.2L378.8 717.4C378.8 717.4 360.2 705.1 356.9 701.2Z" fill="#C4C4C4"/>
<path d="M363.8 695.4C364 694.9 362.6 679.6 352.3 680.8C352.3 680.8 346.5 682 347.6 684.1C348.7 686.1 350.5 691.7 350.5 691.7L359.8 700.1C359.8 700.1 362.9 698 363.8 695.4Z" fill="#FFBC85"/>
<path d="M356.8 678.2H342.5V694.2H356.8V678.2Z" fill="#E2E2E2"/>
<path d="M358.5 718.1C358.1 717.6 347.2 703.5 337.8 709.4C337.8 709.4 332.8 713.2 335.2 714.5C337.6 715.8 342.7 720 342.7 720L357 723.3C356.9 723.3 360.7 720.5 358.5 718.1Z" fill="#FFBC85"/>
<path d="M426.3 733.9H402.65H379C380.8 732.9 381.7 731.5 384.5 729.3C373.8 728.3 355.6 727.9 355.6 727.9L353.7 711C353.7 711 370.5 708 384.5 707.5C387.8 708.5 389.6 688.8 389.5 686.5C389.5 674.1 397.2 662.1 411.1 671.5C430 684.4 426.3 733.9 426.3 733.9Z" fill="#E2E2E2"/>
<path d="M349.7 680C353.676 680 356.9 679.194 356.9 678.2C356.9 677.206 353.676 676.4 349.7 676.4C345.724 676.4 342.5 677.206 342.5 678.2C342.5 679.194 345.724 680 349.7 680Z" fill="#E2E2E2"/>
<path d="M349.7 679.9C352.793 679.9 355.3 679.273 355.3 678.5C355.3 677.727 352.793 677.1 349.7 677.1C346.607 677.1 344.1 677.727 344.1 678.5C344.1 679.273 346.607 679.9 349.7 679.9Z" fill="#939393"/>
<path d="M349.7 696C353.676 696 356.9 695.194 356.9 694.2C356.9 693.206 353.676 692.4 349.7 692.4C345.724 692.4 342.5 693.206 342.5 694.2C342.5 695.194 345.724 696 349.7 696Z" fill="#E2E2E2"/>
<path d="M370 810.7L377.9 842.3H328.5L341.4 825.8L344.2 813.3L370 810.7Z" fill="#272D33"/>
<path d="M378.5 816.8L379.1 848.4H337L350.8 831.9L351.6 819.5L378.5 816.8Z" fill="#3D4B65"/>
<path d="M423.8 753C422 771.1 385.8 764.7 373.2 763.8C369.3 763.5 366.1 767.1 366.7 771.1L374.5 824H341.8V749.3C341.8 748.2 341.9 747.1 342.2 746C343.8 739.6 349.6 733.7 355.6 733.7L407.6 733.2L423.7 733.7C423.8 734.1 424.7 743.7 423.8 753Z" fill="#36818E"/>
<path d="M426.2 753.2C424.5 772 406.1 765.6 383 765.8C379.3 765.8 376.9 767.2 378.6 771.3V827.2L351 827L349.8 749.4C349.8 748.2 349.9 747.1 350.2 745.9C351.7 739.2 357.1 733.2 362.7 733.2L411 733H426.5C426.5 733.4 427.1 743.6 426.2 753.2Z" fill="#4DBED8"/>
<path d="M364.654 832.5C369.454 831.7 369.167 828.167 369 827H379L379.154 848.5H354.654C359.654 848.5 376.5 838.5 371 838C366.6 837.6 363.82 833 364.654 832.5Z" fill="#32345A"/>
<path d="M426.4 753.6C424.7 772.4 406.3 766 383.2 766.2C379.5 766.2 377.1 767.6 378.8 771.7L379 827H369L373.5 803C373.5 781 365.5 753.6 365.5 753.6C365.5 753.6 373.2 763 378.8 763C378.8 763 403 767 415 760C427 753 426.5 733 426.5 733C426.5 733.4 427.3 744 426.4 753.6Z" fill="#36789D"/>
<path d="M414 688C414 683.6 407.333 673.5 404 669C425 671.5 428.333 713.833 426.5 733H405.5C405.833 731.333 406.8 727.7 406 726.5C405.2 725.3 394.333 727 389 728C393.167 726.833 402 724.3 404 723.5C406.5 722.5 409 704.5 410.5 702C411.7 700 409 696 405.5 693C408.7 691.8 410.333 694.5 412 697L413 696C413 696.667 413.252 694.504 412 692C408 684 397.5 681.5 402 681C405.6 680.6 412.167 685.5 414 688Z" fill="#C4C4C4"/>
<path d="M351 681C354.925 680.611 356.783 679 356.783 679C356.783 679 357.176 693.766 356.783 694.543C356.242 695.614 352.695 695.838 350.896 696C349.097 696.162 351.877 693 351.877 693C355.972 684.414 350.019 681 351 681Z" fill="#C4C4C4"/>
<path d="M205.5 769.3L199.1 830H202.3L212.6 770.7L205.5 769.3Z" fill="#939393"/>
<path d="M254.2 771.4L271.7 838L274.7 836.9L261.4 770.4L254.2 771.4Z" fill="#939393"/>
<path d="M203.6 695.4C202.4 696.6 201.3 698.7 201 700.3C199.5 710.6 195.7 758.4 205.4 769.3C215 780.1 256.9 776.8 267.7 776.3C270.1 776.2 272.9 774.7 273.9 772.5C274.6 771.1 275 765.8 273.9 763.7C271.2 758.5 216.5 762.7 220.2 750.3C240.2 683.6 213.6 685.3 203.6 695.4Z" fill="#2064B4"/>
<path d="M240.5 777.5C211 777.5 201.518 770.47 200.109 757.63C198.752 745.265 195.963 714.62 200.448 699.609C201.925 694.668 204.722 693.06 208.251 692C203 699 204.18 728.619 204.18 728.619C204.305 741.851 204.551 750.373 206.883 756.56C207.633 758.262 208.531 759.943 209.602 761.568C214.342 767.868 223.332 771.594 240.5 777.5Z" fill="#42B0FF"/>
<path d="M266.6 774.7L230.5 772.5C226.1 772.5 218 766.9 218 762.5C218 758.1 219.4 758.7 223.8 758.7H266.5C270.9 758.7 274.5 762.3 274.5 766.7C274.6 771.1 271 774.7 266.6 774.7Z" fill="#2064B4"/>
<path d="M218.1 720.6C216.8 732.3 215.3 767.9 246.8 763.3C247 763.3 247.1 763.3 247.3 763.3H263.2C264.4 763.3 257.7 762.7 258.4 761.6L271.7 741.9C273.5 739.2 271.8 735.4 268.7 735.3C266.6 735.2 264.2 735.9 264.2 733.7L256.7 721C256.7 718.7 263.3 717 261.2 717H221.9C219.9 717 218.3 718.5 218.1 720.6Z" fill="#E2E2E2"/>
<path d="M249.337 739.792C241.813 746.087 242.315 759.639 265.186 763.359H279.33C279.33 763.359 283.142 767.073 282.841 772.51C282.54 777.947 285 818 285 818H300.5L302 748.663C302 748.663 301.198 737.312 290.866 737.502H255.656C253.249 737.598 251.042 738.361 249.337 739.792Z" fill="#36818E"/>
<path d="M276 818L269.7 839.7H309L299 823.3V818H276Z" fill="#272D33"/>
<path d="M269.8 814.3L266.4 845.9H302.3L294.6 829.4L294.1 814L269.8 814.3Z" fill="#3D4B65"/>
<path d="M276.5 826.5C275.7 825.3 279.833 823.667 282 823H268.5L266 846H291C284.833 842.167 273.7 834.4 278.5 834C284.5 833.5 286.5 829.5 285 829.5C283.5 829.5 277.5 828 276.5 826.5Z" fill="#32345A"/>
<path d="M240.9 765.4L269.3 767.4C269.3 767.4 272.8 765.1 272.6 771C272.3 776.9 268.5 823.1 268.5 823.1H294.355L298.5 756.1C298.5 756.1 296.6 742.7 287 743L266.5 741.993V733.973L217 733.8C217.7 737.2 211.6 764.6 240.9 765.4Z" fill="#4DBED8"/>
<path d="M245.033 736.328C245.544 732.546 247.076 733.019 247.076 733.019H267V742C267 742 257.294 741.527 253.717 741.055C250.141 740.582 244.522 740.109 245.033 736.328Z" fill="#36818E"/>
<path d="M239 668.1C239.6 667.8 233.1 669 224 673.6C222.287 674.474 219.857 674.64 218 677C214.544 681.391 211.756 691.095 210 711C209.2 720.1 209.9 726.5 235.8 727C261.7 727.6 273.5 727 273.5 727C273.5 727 277.3 688.7 267.6 675.1C265.8 672.6 260.4 670.6 257.9 670.3C241.5 668.2 239 668.1 239 668.1Z" fill="#E2E2E2"/>
<path d="M251.5 677C251.304 666 260 671.5 265 673C273 677 276 706 276.5 720H263C265.8 717.6 251.667 686.333 251.5 677Z" fill="#C4C4C4"/>
<path d="M251.5 733.5C251.5 733.5 234 733.5 217 734V724.5C227.5 724.5 228 725.7 230 720.5L227.5 712C226.333 708 228.5 704 230.5 696.5C230.216 701.689 230.61 709.164 232.367 716C232.764 717.544 233.773 720.5 233.773 720.5C263.5 718 251.5 733.5 251.5 733.5Z" fill="#C4C4C4"/>
<path d="M260.5 644L262.3 650.4C262 657.5 262.8 664.6 259.5 668.5C256.1 672.4 254.6 671.8 253.7 671.8L250 680.5L237.1 671.6C237.1 671.6 241.2 665.7 240 663.7C240 663.7 239.7 663 238.4 662.7C235 662 231.7 649.2 242.6 655.3L242.3 645.2L260.5 644Z" fill="#FFBC85"/>
<path d="M248.5 669.5L254 671.692L251 678C249.246 673.246 247.135 673.337 248.5 669.5Z" fill="#F07B61"/>
<path d="M236.5 656C238.1 654.8 239 655 240 657C240 658.5 238.5 658.5 240 661.5C240.224 661.947 238 660 238.5 659C238.9 658.2 238 658.333 237 658.5C236 658.5 236.5 656.333 236.5 656Z" fill="#F07B61"/>
<path d="M237 659.5C237.5 660.333 238.7 662 239.5 662" stroke="#F07B61" stroke-width="0.5"/>
<path d="M243.5 647.8C243.5 647.8 253.6 650.3 257.3 648.4C257.3 648.4 261.7 650.5 263 647.4C263 647.4 266.8 640.5 254.2 641.1C254.2 641.1 249.9 639.9 246.6 638.4C243.3 636.8 239.1 639.9 239.5 641.5C239.5 641.5 226.5 640.9 234.3 654.3L235.2 655.5C235.2 655.5 236.7 653.8 238.5 654C238.5 654 240.7 653.8 240.9 656.6C240.9 656.6 243.2 657.4 243.1 653.7C243 650 243.5 647.8 243.5 647.8Z" fill="#6057C0"/>
<path d="M241.9 647C245.048 647 247.6 644.627 247.6 641.7C247.6 638.773 245.048 636.4 241.9 636.4C238.752 636.4 236.2 638.773 236.2 641.7C236.2 644.627 238.752 647 241.9 647Z" fill="#6057C0"/>
<path d="M243.5 648C242.3 647.2 242.333 644.5 242.5 643.5C243.5 644.5 245.658 646.329 247 647C248 647.5 259.704 648.778 260 647C260.5 644 262.647 643.646 263 644C263.5 644.5 264 645 263 647.5C262 650 258.667 649 257 648.5C254 650.5 245 649 243.5 648Z" fill="#0B0A54"/>
<path d="M222.5 721C219.7 714.6 223.667 712.666 226 713L230 720C229 723 225.3 727.4 222.5 721Z" fill="#C4C4C4"/>
<path d="M225.1 713.3C225.6 713 239.5 702.6 246.5 711C246.5 711 250 716.1 247.5 716.6C245 717.2 239.1 719.7 239.1 719.7L225.1 718.7C225.1 718.8 222.4 715 225.1 713.3Z" fill="#FFBC85"/>
<path d="M239.5 638C239 639.167 238.2 641.8 239 643C239.897 644.346 235.963 644.082 235.146 644.736C235.089 644.831 235.04 644.92 235 645C235 644.897 235.053 644.811 235.146 644.736C235.568 644.034 236.443 643 237.5 643C239 643 236 640 239.5 638Z" fill="#0B0A54"/>
<path d="M239.024 652C236.34 652 234 647.167 233 644C229.5 646 234.524 658 235.024 656.5C235.424 655.3 236.857 654.333 237.524 654C241.5 654.5 240.024 655.5 241.024 656.5C242.024 657.5 243.024 656.5 243.024 655.5C243.024 654.7 243 653.5 243 651.5C242.5 652.333 241.5 652 239.024 652Z" fill="#0B0A54"/>
<path d="M216.961 694.941C212.526 692.344 217.113 681.231 218.961 676C212.185 679.247 211.185 700.894 209.337 711.176C207.859 719.402 212.947 723.32 215 723.5C211.551 721.335 212.391 712.8 213.417 709.553L215.113 700.894C217.577 699.992 221.395 697.539 216.961 694.941Z" fill="#C4C4C4"/>
<path d="M228.5 691.5C227.121 685 223.167 682.667 220.5 681C239.5 687.5 227 703 227.5 711.5C227.606 713.3 222.5 708.5 221 708.5C219.735 708.5 217.167 709.5 214 710.5C214.167 709.667 215.2 707.7 218 706.5C220.8 705.3 223.5 708.5 225.5 707.5C228.5 704.5 227.5 698.7 227.5 697.5C227.5 696 219.5 687.5 222.5 688.5C224.9 689.3 227.333 690.333 228.5 691.5Z" fill="#C4C4C4"/>
<path d="M280.5 761C277.7 765 267.667 766.666 264 767C269.5 768.5 273 770 272.5 771.5C275 771.5 284 756 280.5 761Z" fill="#36789D"/>
<path d="M275.5 811L272 779L268.5 823H282L275.5 811Z" fill="#36789D"/>
<path d="M388.3 727.1H231.8V733.7H388.3V727.1Z" fill="black"/>
<path d="M369.9 729.4L395.3 848.4" stroke="black" stroke-width="10" stroke-miterlimit="10"/>
<path d="M242.2 729.2L220.4 848.4" stroke="black" stroke-width="10" stroke-miterlimit="10"/>
<path d="M277 694.7H311.8L314 697.8L303.1 727.1H237.7L236.8 723.3H260L272.9 696.6L277 694.7Z" fill="white" stroke="#9B9B9B" stroke-miterlimit="10"/>
<g filter="url(#filter1_d)">
<circle cx="469.541" cy="490.906" r="22.5606" transform="rotate(45.7914 469.541 490.906)" fill="#EDC589"/>
</g>
<mask id="mask0" mask-type="alpha" maskUnits="userSpaceOnUse" x="446" y="468" width="47" height="46">
<ellipse cx="469.539" cy="491.073" rx="22.5606" ry="22.5606" transform="rotate(28.6681 469.539 491.073)" fill="#85C2A9"/>
</mask>
<g mask="url(#mask0)">
<path d="M455.509 465.155C461.819 474.245 486.507 482.794 498.062 485.933L500.527 489.769C480.444 497.997 448.818 471.724 442.187 466.636C441.611 466.488 441.192 466.257 440.988 465.924C440.794 465.609 441.23 465.902 442.187 466.636C445.072 467.381 451.901 466.063 455.509 465.155Z" fill="#AE4EFA"/>
<path d="M448.601 480.828C456.674 487.27 481.477 495.034 492.869 498.11L496.094 500.81C479.729 504.296 444.11 484.461 436.748 480.574C436.182 480.425 435.739 480.238 435.468 480.005C435.211 479.784 435.685 480.013 436.748 480.574C439.582 481.316 445.518 481.086 448.601 480.828Z" fill="#AE4EFA"/>
<path d="M447.098 491.493C455.563 497.004 480.022 505.585 491.193 509.186L494.591 511.476C479.56 511.791 443.317 493.438 435.853 489.792C435.299 489.616 434.857 489.429 434.57 489.232C434.299 489.046 434.776 489.266 435.853 489.792C438.63 490.672 444.215 491.276 447.098 491.493Z" fill="#AE4EFA"/>
</g>
</g>
<defs>
<filter id="filter0_d" x="43" y="536" width="282" height="206.5" filterUnits="userSpaceOnUse" color-interpolation-filters="sRGB">
<feFlood flood-opacity="0" result="BackgroundImageFix"/>
<feColorMatrix in="SourceAlpha" type="matrix" values="0 0 0 0 0 0 0 0 0 0 0 0 0 0 0 0 0 0 127 0"/>
<feOffset dy="4"/>
<feGaussianBlur stdDeviation="2"/>
<feColorMatrix type="matrix" values="0 0 0 0 0 0 0 0 0 0 0 0 0 0 0 0 0 0 0.25 0"/>
<feBlend mode="normal" in2="BackgroundImageFix" result="effect1_dropShadow"/>
<feBlend mode="normal" in="SourceGraphic" in2="effect1_dropShadow" result="shape"/>
</filter>
<filter id="filter1_d" x="433.639" y="459.003" width="71.8049" height="71.8049" filterUnits="userSpaceOnUse" color-interpolation-filters="sRGB">
<feFlood flood-opacity="0" result="BackgroundImageFix"/>
<feColorMatrix in="SourceAlpha" type="matrix" values="0 0 0 0 0 0 0 0 0 0 0 0 0 0 0 0 0 0 127 0"/>
<feOffset dy="4"/>
<feGaussianBlur stdDeviation="2"/>
<feColorMatrix type="matrix" values="0 0 0 0 0 0 0 0 0 0 0 0 0 0 0 0 0 0 0.25 0"/>
<feBlend mode="normal" in2="BackgroundImageFix" result="effect1_dropShadow"/>
<feBlend mode="normal" in="SourceGraphic" in2="effect1_dropShadow" result="shape"/>
</filter>
<linearGradient id="paint0_linear" x1="328.185" y1="-10.7129" x2="328.185" y2="667.302" gradientUnits="userSpaceOnUse">
<stop offset="0.0001" stop-color="#494ADA"/>
<stop offset="1" stop-color="#E7FFF3"/>
</linearGradient>
<linearGradient id="paint1_linear" x1="395.448" y1="-10.6751" x2="395.448" y2="664.944" gradientUnits="userSpaceOnUse">
<stop offset="0.0001" stop-color="#8CE0F2"/>
<stop offset="1" stop-color="#AF89FF" stop-opacity="0"/>
</linearGradient>
<linearGradient id="paint2_linear" x1="206.412" y1="416.5" x2="390.529" y2="415.525" gradientUnits="userSpaceOnUse">
<stop offset="0.348958" stop-color="#2063B2" stop-opacity="0"/>
<stop offset="1" stop-color="#2064B4" stop-opacity="0.55"/>
</linearGradient>
<linearGradient id="paint3_linear" x1="315.5" y1="406.783" x2="315.5" y2="315.048" gradientUnits="userSpaceOnUse">
<stop stop-color="#3F7CC5"/>
<stop offset="1" stop-opacity="0"/>
</linearGradient>
<linearGradient id="paint4_linear" x1="182" y1="556.735" x2="182" y2="480.614" gradientUnits="userSpaceOnUse">
<stop stop-color="#3F7CC5"/>
<stop offset="1" stop-opacity="0"/>
</linearGradient>
<radialGradient id="paint5_angular" cx="0" cy="0" r="1" gradientUnits="userSpaceOnUse" gradientTransform="translate(256.949 53.9645) rotate(90) scale(53.9645 256.949)">
<stop offset="0.151042" stop-color="#8C9FFF"/>
<stop offset="0.864583" stop-color="#8C9FFF" stop-opacity="0"/>
</radialGradient>
<linearGradient id="paint6_linear" x1="184.491" y1="806.136" x2="184.491" y2="844.893" gradientUnits="userSpaceOnUse">
<stop offset="0.364583" stop-color="#C4C4C4"/>
<stop offset="1" stop-color="#C4C4C4" stop-opacity="0"/>
</linearGradient>
<linearGradient id="paint7_linear" x1="470.25" y1="810.578" x2="470.25" y2="874.578" gradientUnits="userSpaceOnUse">
<stop stop-color="#C4C4C4"/>
<stop offset="1" stop-color="#C4C4C4" stop-opacity="0"/>
</linearGradient>
<linearGradient id="paint8_linear" x1="356.516" y1="799.922" x2="356.516" y2="875.267" gradientUnits="userSpaceOnUse">
<stop offset="0.458333" stop-color="#C4C4C4"/>
<stop offset="1" stop-color="#C4C4C4" stop-opacity="0"/>
</linearGradient>
<clipPath id="clip0">
<rect width="644" height="922" fill="white"/>
</clipPath>
</defs>
</svg>
