<svg width="115" height="40" viewBox="0 0 115 40" fill="none" xmlns="http://www.w3.org/2000/svg">
<path d="M49.082 15.6162C48.9502 16.7441 48.5327 17.6157 47.8296 18.231C47.1313 18.8413 46.2012 19.1465 45.0391 19.1465C43.7793 19.1465 42.7686 18.6948 42.0068 17.7915C41.25 16.8882 40.8716 15.6797 40.8716 14.166V13.1406C40.8716 12.1494 41.0474 11.2778 41.3989 10.5259C41.7554 9.77393 42.2583 9.19775 42.9077 8.79736C43.5571 8.39209 44.3091 8.18945 45.1636 8.18945C46.2964 8.18945 47.2046 8.50684 47.8882 9.1416C48.5718 9.77148 48.9697 10.6455 49.082 11.7637H47.6685C47.5464 10.9141 47.2803 10.2988 46.8701 9.91797C46.4648 9.53711 45.896 9.34668 45.1636 9.34668C44.2651 9.34668 43.5596 9.67871 43.0469 10.3428C42.5391 11.0068 42.2852 11.9517 42.2852 13.1772V14.21C42.2852 15.3672 42.5269 16.2876 43.0103 16.9712C43.4937 17.6548 44.1699 17.9966 45.0391 17.9966C45.8203 17.9966 46.4185 17.8208 46.8335 17.4692C47.2534 17.1128 47.5317 16.4951 47.6685 15.6162H49.082ZM57.647 16.2168H53.1792L52.1758 19H50.7256L54.7979 8.33594H56.0283L60.1079 19H58.665L57.647 16.2168ZM53.604 15.0596H57.2295L55.4131 10.0718L53.604 15.0596ZM64.1099 8.33594L67.5962 17.0371L71.0825 8.33594H72.9062V19H71.5V14.8472L71.6318 10.3647L68.1309 19H67.0542L63.5605 10.3867L63.6997 14.8472V19H62.2935V8.33594H64.1099ZM82.167 14.0708H77.5454V17.8501H82.9141V19H76.1392V8.33594H82.8408V9.49316H77.5454V12.9209H82.167V14.0708ZM86.8281 17.8501H91.8818V19H85.4146V8.33594H86.8281V17.8501ZM101.956 14.0122C101.956 15.0571 101.78 15.9702 101.428 16.7515C101.077 17.5278 100.579 18.1211 99.9341 18.5312C99.2896 18.9414 98.5376 19.1465 97.6782 19.1465C96.8384 19.1465 96.0938 18.9414 95.4443 18.5312C94.7949 18.1162 94.2896 17.5278 93.9282 16.7661C93.5718 15.9995 93.3887 15.1133 93.3789 14.1074V13.3384C93.3789 12.313 93.5571 11.4072 93.9136 10.6211C94.27 9.83496 94.7729 9.23438 95.4224 8.81934C96.0767 8.39941 96.8237 8.18945 97.6636 8.18945C98.5181 8.18945 99.27 8.39697 99.9194 8.81201C100.574 9.22217 101.077 9.82031 101.428 10.6064C101.78 11.3877 101.956 12.2983 101.956 13.3384V14.0122ZM100.557 13.3237C100.557 12.0591 100.303 11.0898 99.7949 10.416C99.2871 9.7373 98.5767 9.39795 97.6636 9.39795C96.7749 9.39795 96.0742 9.7373 95.5615 10.416C95.0537 11.0898 94.7925 12.0273 94.7778 13.2285V14.0122C94.7778 15.2378 95.0342 16.2021 95.5469 16.9053C96.0645 17.6035 96.7749 17.9526 97.6782 17.9526C98.5864 17.9526 99.2896 17.623 99.7876 16.9639C100.286 16.2998 100.542 15.3501 100.557 14.1147V13.3237ZM111.978 9.49316H108.55V19H107.151V9.49316H103.731V8.33594H111.978V9.49316Z" fill="white"/>
<path d="M12.1411 9.64284L9.14639 11.4486C8.02821 11.7764 7 12.8881 7 13.775V26.5505C7.00975 26.8036 7.0719 27.0519 7.18251 27.2798C7.29313 27.5076 7.4498 27.7101 7.64263 27.8743L10.8558 31.4538" fill="white"/>
<path d="M20.9194 31.0682C18.291 31.4859 13.2078 33.4973 12.4174 29.9179C12.1089 28.5105 12.4174 26.7047 12.4174 25.2395V18.659C12.4174 16.0884 11.357 11.4486 14.2103 10.1698C15.7976 9.46289 18.1882 9.4886 19.9105 9.18656C21.1957 8.96807 22.481 9.01948 23.0594 10.6453C23.2907 11.288 23.0594 12.3997 23.0594 13.1002C23.0594 13.3558 23.1609 13.601 23.3417 13.7818C23.5225 13.9626 23.7677 14.0641 24.0233 14.0641C24.279 14.0641 24.5242 13.9626 24.7049 13.7818C24.8857 13.601 24.9873 13.3558 24.9873 13.1002C24.9937 10.9088 25.2829 8.28045 22.783 7.26509C20.8037 6.48751 17.7769 7.63782 15.8169 7.94628C13.7605 8.29973 11.3185 8.43468 10.6244 10.8317C10.1746 12.3226 10.4895 14.2441 10.4895 15.7478C10.4895 20.6061 9.98824 25.7343 10.4895 30.5669C11.0486 36.0293 18.0083 33.4716 21.4142 32.9254C22.6352 32.7326 22.1147 30.8754 20.9001 31.0682H20.9194Z" fill="white"/>
<path d="M21.1379 17.5601L29.0744 16.0949C29.4379 16.026 29.8121 16.038 30.1704 16.1301C30.5287 16.2221 30.8623 16.392 31.1476 16.6275C31.4328 16.8631 31.6627 17.1586 31.8209 17.493C31.979 17.8275 32.0616 18.1927 32.0626 18.5626V30.2585C32.0626 30.866 31.8437 31.4531 31.4459 31.9123C31.0482 32.3714 30.4982 32.6718 29.897 32.7583L27.5642 33.0925C27.2063 33.1431 26.8417 33.1163 26.4951 33.0138C26.1485 32.9114 25.8278 32.7358 25.5549 32.4988C25.282 32.2618 25.0631 31.969 24.9131 31.6402C24.763 31.3113 24.6853 30.9541 24.6852 30.5927V29.3074C24.6842 28.9494 24.6074 28.5957 24.4597 28.2697C24.312 27.9436 24.0969 27.6525 23.8285 27.4157C23.56 27.1788 23.2445 27.0016 22.9025 26.8957C22.5606 26.7898 22.2001 26.7575 21.8448 26.8011C21.4839 26.8466 21.1174 26.8136 20.7704 26.7043C20.4234 26.595 20.1041 26.4121 19.8344 26.168C19.5647 25.9239 19.3509 25.6244 19.2076 25.29C19.0644 24.9557 18.995 24.5943 19.0043 24.2306L19.0815 19.9507C19.0999 19.3773 19.3139 18.8275 19.688 18.3926C20.0621 17.9578 20.5737 17.664 21.1379 17.5601Z" fill="white"/>
<path d="M45.5039 29.1973C44.5391 28.9199 43.8359 28.5801 43.3945 28.1777C42.957 27.7715 42.7383 27.2715 42.7383 26.6777C42.7383 26.0059 43.0059 25.4512 43.541 25.0137C44.0801 24.5723 44.7793 24.3516 45.6387 24.3516C46.2246 24.3516 46.7461 24.4648 47.2031 24.6914C47.6641 24.918 48.0195 25.2305 48.2695 25.6289C48.5234 26.0273 48.6504 26.4629 48.6504 26.9355H47.5195C47.5195 26.4199 47.3555 26.0156 47.0273 25.7227C46.6992 25.4258 46.2363 25.2773 45.6387 25.2773C45.084 25.2773 44.6504 25.4004 44.3379 25.6465C44.0293 25.8887 43.875 26.2266 43.875 26.6602C43.875 27.0078 44.0215 27.3027 44.3145 27.5449C44.6113 27.7832 45.1133 28.002 45.8203 28.2012C46.5312 28.4004 47.0859 28.6211 47.4844 28.8633C47.8867 29.1016 48.1836 29.3809 48.375 29.7012C48.5703 30.0215 48.668 30.3984 48.668 30.832C48.668 31.5234 48.3984 32.0781 47.8594 32.4961C47.3203 32.9102 46.5996 33.1172 45.6973 33.1172C45.1113 33.1172 44.5645 33.0059 44.0566 32.7832C43.5488 32.5566 43.1562 32.248 42.8789 31.8574C42.6055 31.4668 42.4688 31.0234 42.4688 30.5273H43.5996C43.5996 31.043 43.7891 31.4512 44.168 31.752C44.5508 32.0488 45.0605 32.1973 45.6973 32.1973C46.291 32.1973 46.7461 32.0762 47.0625 31.834C47.3789 31.5918 47.5371 31.2617 47.5371 30.8438C47.5371 30.4258 47.3906 30.1035 47.0977 29.877C46.8047 29.6465 46.2734 29.4199 45.5039 29.1973ZM56.6098 25.3945H53.8676V33H52.7484V25.3945H50.0121V24.4688H56.6098V25.3945ZM64.4812 24.4688V30.2695C64.4773 31.0742 64.2234 31.7324 63.7195 32.2441C63.2195 32.7559 62.5398 33.043 61.6805 33.1055L61.3816 33.1172C60.448 33.1172 59.7039 32.8652 59.1492 32.3613C58.5945 31.8574 58.3133 31.1641 58.3055 30.2812V24.4688H59.4187V30.2461C59.4187 30.8633 59.5887 31.3438 59.9285 31.6875C60.2684 32.0273 60.7527 32.1973 61.3816 32.1973C62.0184 32.1973 62.5047 32.0273 62.8406 31.6875C63.1805 31.3477 63.3504 30.8691 63.3504 30.252V24.4688H64.4812ZM66.8566 33V24.4688H69.2648C70.007 24.4688 70.6633 24.6328 71.2336 24.9609C71.8039 25.2891 72.2434 25.7559 72.552 26.3613C72.8645 26.9668 73.0227 27.6621 73.0266 28.4473V28.9922C73.0266 29.7969 72.8703 30.502 72.5578 31.1074C72.2492 31.7129 71.8059 32.1777 71.2277 32.502C70.6535 32.8262 69.9836 32.9922 69.218 33H66.8566ZM67.9816 25.3945V32.0801H69.1652C70.0324 32.0801 70.7062 31.8105 71.1867 31.2715C71.6711 30.7324 71.9133 29.9648 71.9133 28.9688V28.4707C71.9133 27.502 71.6848 26.75 71.2277 26.2148C70.7746 25.6758 70.1301 25.4023 69.2941 25.3945H67.9816ZM76.5387 33H75.4137V24.4688H76.5387V33ZM85.7637 29.0098C85.7637 29.8457 85.623 30.5762 85.3418 31.2012C85.0605 31.8223 84.6621 32.2969 84.1465 32.625C83.6309 32.9531 83.0293 33.1172 82.3418 33.1172C81.6699 33.1172 81.0742 32.9531 80.5547 32.625C80.0352 32.293 79.6309 31.8223 79.3418 31.2129C79.0566 30.5996 78.9102 29.8906 78.9023 29.0859V28.4707C78.9023 27.6504 79.0449 26.9258 79.3301 26.2969C79.6152 25.668 80.0176 25.1875 80.5371 24.8555C81.0605 24.5195 81.6582 24.3516 82.3301 24.3516C83.0137 24.3516 83.6152 24.5176 84.1348 24.8496C84.6582 25.1777 85.0605 25.6562 85.3418 26.2852C85.623 26.9102 85.7637 27.6387 85.7637 28.4707V29.0098ZM84.6445 28.459C84.6445 27.4473 84.4414 26.6719 84.0352 26.1328C83.6289 25.5898 83.0605 25.3184 82.3301 25.3184C81.6191 25.3184 81.0586 25.5898 80.6484 26.1328C80.2422 26.6719 80.0332 27.4219 80.0215 28.3828V29.0098C80.0215 29.9902 80.2266 30.7617 80.6367 31.3242C81.0508 31.8828 81.6191 32.1621 82.3418 32.1621C83.0684 32.1621 83.6309 31.8984 84.0293 31.3711C84.4277 30.8398 84.6328 30.0801 84.6445 29.0918V28.459Z" fill="white"/>
</svg>
