<svg width="565" height="885" viewBox="0 0 565 885" fill="none" xmlns="http://www.w3.org/2000/svg">
<g clip-path="url(#clip0)">
<mask id="mask0" mask-type="alpha" maskUnits="userSpaceOnUse" x="353" y="262" width="63" height="63">
<circle cx="384.163" cy="293.163" r="31" transform="rotate(-17.1233 384.163 293.163)" fill="#85C2A9"/>
</mask>
<g mask="url(#mask0)">
<path d="M345.193 282.149C360.192 284.643 392.266 268.518 406.428 260.144L412.568 261.391C401.43 289.055 345.252 295.034 333.888 296.69C333.19 297.114 332.561 297.306 332.038 297.188C331.542 297.077 332.248 296.928 333.888 296.69C337.385 294.561 342.63 286.572 345.193 282.149Z" fill="#FA964E"/>
<path d="M354.012 303.969C368.092 302.19 399.502 285.199 413.447 276.926L419.196 276.337C406.951 295.795 353.287 311.874 342.404 315.401C341.716 315.816 341.108 316.072 340.618 316.116C340.154 316.157 340.834 315.909 342.404 315.401C345.851 313.321 351.312 307.253 354.012 303.969Z" fill="#FA964E"/>
<path d="M363.076 315.668C376.614 312.611 408.5 296.741 422.75 289.188L428.261 288.035C414.17 303.141 361.368 321.255 350.626 325.113C349.922 325.491 349.314 325.748 348.846 325.841C348.402 325.93 349.076 325.67 350.626 325.113C354.154 323.222 360.1 318.299 363.076 315.668Z" fill="#FA964E"/>
<path d="M395.133 323.758C418.377 293.159 391.305 271.086 374.864 263.874C380.396 260.509 407.988 259.116 414.085 285.164C418.963 306.002 403.483 319.576 395.133 323.758Z" fill="url(#paint0_linear)"/>
</g>
<rect x="427" y="59" width="31" height="3" rx="1" fill="white"/>
<rect x="427" y="68" width="31" height="3" rx="1" fill="white"/>
<path d="M222.6 647.4L219.1 655.7" stroke="black" stroke-miterlimit="10"/>
<path d="M387.3 777.6H149.1C129.3 777.6 112.3 758.668 112.3 735.239V386.029C112.3 362.6 129.3 348.668 149.1 348.668H387.4C407.2 348.668 423.2 364.6 423.2 388.029V735.239C423.1 758.549 407.1 777.6 387.3 777.6Z" fill="white" stroke="#2064B4" stroke-width="2" stroke-miterlimit="10"/>
<path d="M394.9 359.436L413.3 381.681" stroke="white" stroke-width="4" stroke-miterlimit="10"/>
<path d="M413.3 359.317L394.1 380.734" stroke="white" stroke-width="4" stroke-miterlimit="10"/>
<path d="M308.6 370.558H335.6" stroke="white" stroke-width="4" stroke-miterlimit="10"/>
<path d="M419.019 391.62H116.077C113.29 391.62 111 388.899 111 385.586V351.035C111 347.722 113.29 345 116.077 345H418.92C421.707 345 423.997 347.722 423.997 351.035V385.468C424.096 388.899 421.807 391.62 419.019 391.62Z" fill="#72B979"/>
<path d="M87.4999 252.5C99.8999 192.5 226.667 75.8333 288.5 25V14H523.5C523.5 14 510 207.5 510 252.5C510 297.5 346 290.5 384 350.5C422 410.5 322 536 322 536C314 543 264 575.5 314 617C364 658.5 317.829 788.449 333.5 807H183.5C189.5 798.2 328.5 658 236 610C143.5 562 73.4999 436.252 134.5 402C293 313 71.9999 327.5 87.4999 252.5Z" fill="url(#paint1_linear)"/>
<path d="M87.6727 253.649C99.4728 193.611 218.204 76.8719 277.046 26.0069L290.368 15H514C514 15 501.153 208.621 501.153 253.649C501.153 298.677 308.721 236.638 381.249 351.71C453.776 466.781 350.049 532.322 350.049 532.322C342.436 539.326 302.468 589.858 350.049 631.384C397.631 672.91 456.469 798.937 471.381 817.5L121.66 818C127.37 809.195 326.259 691.421 240.408 611.371C154.558 531.322 98.345 439.016 156.394 404.743C307.226 315.687 72.9225 328.695 87.6727 253.649Z" fill="url(#paint2_linear)"/>
<path d="M102.785 238.5C115.185 178.5 241.952 61.8333 303.785 11V0H538.785C538.785 0 525.285 193.5 525.285 238.5C525.285 283.5 284.785 229 385 341C485.215 453 337.285 522 337.285 522C337.285 522 279.285 561.5 329.285 603C379.285 644.5 333.115 774.449 348.785 793H198.785C204.785 784.2 343.785 644 251.285 596C158.785 548 88.7851 422.252 149.785 388C308.285 299 87.2851 313.5 102.785 238.5Z" stroke="url(#paint3_linear)" stroke-width="2"/>
<g filter="url(#filter0_d)">
<circle cx="414" cy="105" r="25" fill="white"/>
</g>
<path d="M545.086 185.863C542.354 194.734 535.565 201.938 525.543 207.354C515.518 212.771 502.29 216.38 486.758 218.059C455.696 221.419 415.521 217.054 373.609 204.146C331.696 191.238 296.026 172.245 272.236 151.993C260.34 141.866 251.434 131.44 246.194 121.322C240.955 111.206 239.396 101.43 242.128 92.5597C244.86 83.689 251.649 76.4843 261.671 71.0686C271.695 65.6515 284.924 62.0429 300.456 60.363C331.518 57.0035 371.692 61.3685 413.605 74.2765C455.518 87.1845 491.187 106.177 514.977 126.43C526.873 136.557 535.779 146.982 541.019 157.101C546.258 167.216 547.818 176.992 545.086 185.863Z" stroke="white"/>
<path d="M502.607 162.776C500.78 168.709 496.337 173.569 489.793 177.262C483.245 180.956 474.62 183.467 464.498 184.7C444.254 187.166 418.118 184.511 390.899 176.129C363.681 167.746 340.58 155.237 325.231 141.809C317.556 135.095 311.837 128.167 308.503 121.43C305.17 114.695 304.231 108.178 306.059 102.244C307.886 96.3102 312.329 91.4506 318.873 87.7578C325.42 84.0633 334.046 81.5528 344.168 80.3198C364.412 77.8538 390.548 80.5083 417.766 88.8909C444.985 97.2735 468.086 109.783 483.435 123.21C491.11 129.924 496.828 136.852 500.163 143.59C503.495 150.325 504.434 156.842 502.607 162.776Z" stroke="white"/>
<path d="M538.3 179.744C536.013 187.171 530.098 193.147 521.258 197.571C512.417 201.996 500.69 204.845 486.876 206.028C459.25 208.393 423.383 204.084 385.835 192.52C348.286 180.956 316.209 164.34 294.701 146.843C283.946 138.094 275.854 129.141 271.033 120.508C266.214 111.878 264.686 103.609 266.974 96.1822C269.261 88.7553 275.176 82.779 284.016 78.355C292.857 73.9301 304.584 71.0807 318.398 69.898C346.024 67.5327 381.89 71.8417 419.439 83.4057C456.988 94.9697 489.064 111.585 510.573 129.083C521.328 137.832 529.42 146.785 534.24 155.418C539.06 164.048 540.587 172.317 538.3 179.744Z" stroke="white"/>
<g filter="url(#filter1_f)">
<circle cx="366" cy="68" r="10" fill="#FFDA7B"/>
</g>
<path d="M465.367 143.388C464.244 147.037 461.509 150.038 457.45 152.328C453.389 154.62 448.027 156.183 441.721 156.951C429.108 158.488 412.81 156.835 395.828 151.605C378.847 146.375 364.443 138.573 354.88 130.207C350.098 126.023 346.544 121.715 344.476 117.535C342.409 113.359 341.837 109.339 342.96 105.69C344.084 102.042 346.819 99.0405 350.877 96.7504C354.939 94.4586 360.3 92.8957 366.607 92.1274C379.22 90.591 395.518 92.2441 412.499 97.4741C429.481 102.704 443.885 110.506 453.448 118.872C458.23 123.055 461.783 127.364 463.852 131.544C465.918 135.72 466.491 139.74 465.367 143.388Z" stroke="white"/>
<path d="M280.227 256.981L281.404 258.299L283.022 257.587L282.132 259.114L283.31 260.432L281.582 260.058L280.692 261.585L280.514 259.827L278.787 259.452L280.404 258.74L280.227 256.981Z" fill="white"/>
<g filter="url(#filter2_f)">
<circle cx="461" cy="184" r="5" fill="#FF6464"/>
</g>
<path d="M418.083 391.62H119.012C116.26 391.62 114 388.899 114 385.586V351.035C114 347.722 116.26 345 119.012 345H417.985C420.736 345 422.997 347.722 422.997 351.035V385.468C423.095 388.899 420.835 391.62 418.083 391.62Z" fill="url(#paint4_linear)"/>
<path d="M416.986 392H120.014C116.161 392 113 388.376 113 383.959V353.041C113 348.624 116.161 345 120.014 345H416.986C420.839 345 424 348.624 424 353.041V383.959C424 388.489 420.839 392 416.986 392Z" fill="url(#paint5_linear)" style="mix-blend-mode:lighten"/>
<path d="M368.7 366.417H352.6V380.734H368.7V366.417Z" stroke="white" stroke-width="3" stroke-miterlimit="10"/>
<path d="M375.8 358.134H359.7V372.452H375.8V358.134Z" stroke="white" stroke-width="3" stroke-miterlimit="10"/>
<line x1="316" y1="369" x2="340" y2="369" stroke="white" stroke-width="2"/>
<g filter="url(#filter3_d)">
<path d="M242.578 696H33.4217C16.0432 696 2 679.747 2 659.634V533.367C2 513.253 16.0432 500 33.4217 500H138H242.578C259.957 500 275 493 273 533.367C273 533.367 273 639.52 273 659.634C273 679.747 259.957 696 242.578 696Z" fill="white" stroke="#3ABE47" stroke-width="2" stroke-miterlimit="10"/>
<path d="M267.843 539H7.15724C3.77509 539 1 535.839 1 531.986V505.014C1 501.161 3.77509 498 7.15724 498H267.843C271.225 498 274 501.161 274 505.014V531.986C274 535.937 271.225 539 267.843 539Z" fill="#5A9C60"/>
<path d="M263.91 538H6.08958C2.7446 538 0 534.993 0 531.328V505.672C0 502.007 2.7446 499 6.08958 499H263.91C267.255 499 270 502.007 270 505.672V531.328C270 535.087 267.255 538 263.91 538Z" fill="url(#paint6_linear)" style="mix-blend-mode:lighten"/>
<path d="M249.171 509.4L265.304 528.2" stroke="white" stroke-width="2" stroke-miterlimit="10"/>
<path d="M265.304 509.3L248.47 527.3" stroke="white" stroke-width="2" stroke-miterlimit="10"/>
<path d="M173.508 518.8H197.18" stroke="white" stroke-width="2" stroke-miterlimit="10"/>
<path d="M232.426 508.3H218.31V520.4H232.426V508.3Z" stroke="white" stroke-width="2" stroke-miterlimit="10"/>
<path d="M226.201 515.3H212.085V527.4H226.201V515.3Z" stroke="white" stroke-width="2" stroke-miterlimit="10"/>
<path d="M62.512 557.1H225.587" stroke="#3ABE47" stroke-width="5" stroke-miterlimit="10"/>
<path d="M61.9861 584.2H226.289" stroke="#3ABE47" stroke-width="5" stroke-miterlimit="10"/>
<path d="M76.8906 612.5H201.827" stroke="#3ABE47" stroke-width="5" stroke-miterlimit="10"/>
</g>
<ellipse rx="256.949" ry="53.9645" transform="matrix(0.999553 0.029904 -0.0431853 0.999067 284.164 824.169)" fill="#BFFF8C"/>
<ellipse rx="212.33" ry="33.7846" transform="matrix(0.999553 0.029904 -0.0431853 0.999067 284.521 813.434)" fill="white"/>
<path d="M473.5 821C401.5 853 117.788 833.838 102.5 814C106.448 811.947 118.59 804.636 122.5 802.741L118.966 785.705C116.563 777.632 114.179 769.609 115.5 769C119.185 767.302 127.351 776.563 131 775C132.356 774.419 136.403 778.739 140.413 783.005L149.5 790.733C174.643 780.553 198.876 773.529 222 769.062C227.85 767.932 233.629 766.966 239.333 766.153C245.476 765.278 251.533 764.581 257.5 764.051C285.058 761.602 310.691 762.701 334 766.153L351 748.5C351 748.5 358.422 752.039 362.5 753L371 773.983C411.493 785.238 455.815 805.83 473.5 821Z" fill="#EFFF8C"/>
<path d="M119 769.5C118.333 771.833 118.6 776.7 125 777.5C129.267 778.033 130.807 778.004 131.163 777.826L131 777.5C131.222 777.611 131.341 777.737 131.163 777.826L138.5 792.5C139 793.667 140.2 795.8 141 795C141.8 794.2 139.667 788.333 138.5 785.5L148 796.5C149.833 796.833 153.2 797 152 795C156.333 796.167 160.8 799.6 144 804C123 809.5 113 808 116.5 806C119.3 804.4 121.667 803 122.5 802.5L115 769.5C115.833 769.167 117.8 768.7 119 769.5Z" fill="#C4C4C4"/>
<path d="M362 765.5L359 752L363 753L370.5 774.5L379.5 787L359 774.5L355 760L359 764L362 765.5Z" fill="#C4C4C4"/>
<path d="M378.952 837.113C403.752 832.47 383.542 790.598 369 773.5C409.8 783.9 460.5 806.5 473.5 821C438.848 839.987 401.343 835.09 378.952 837.113C377.886 837.312 376.736 837.443 375.5 837.5C376.606 837.348 377.757 837.221 378.952 837.113Z" fill="#C4C4C4"/>
<path d="M281 837.5C332.6 816.7 292 780 264.5 764.5C295.3 760.9 321.667 764 331 766C355.8 780.8 352.667 820.5 345 838C326 838 291.833 838.667 281 837.5Z" fill="#C4C4C4"/>
<path d="M158.5 731.3L152.1 792H155.3L165.6 732.7L158.5 731.3Z" fill="#939393"/>
<path d="M207.2 733.4L224.7 800L227.7 798.9L214.4 732.4L207.2 733.4Z" fill="#939393"/>
<path d="M156.6 657.4C155.4 658.6 154.3 660.7 154 662.3C152.5 672.6 148.7 720.4 158.4 731.3C168 742.1 209.9 738.8 220.7 738.3C223.1 738.2 225.9 736.7 226.9 734.5C227.6 733.1 228 727.8 226.9 725.7C224.2 720.5 169.5 724.7 173.2 712.3C193.2 645.6 166.6 647.3 156.6 657.4Z" fill="#2064B4"/>
<path d="M193.5 739.5C164 739.5 154.518 732.47 153.109 719.63C151.752 707.265 148.963 676.62 153.448 661.609C154.925 656.668 157.722 655.06 161.251 654C156 661 157.18 690.619 157.18 690.619C157.305 703.851 157.551 712.373 159.883 718.56C160.633 720.262 161.531 721.943 162.602 723.568C167.342 729.868 176.332 733.594 193.5 739.5Z" fill="#42B0FF"/>
<path d="M219.6 736.7L183.5 734.5C179.1 734.5 171 728.9 171 724.5C171 720.1 172.4 720.7 176.8 720.7H219.5C223.9 720.7 227.5 724.3 227.5 728.7C227.6 733.1 224 736.7 219.6 736.7Z" fill="#2064B4"/>
<path d="M343.9 730L337.5 791.8H340.7L351 731.4L343.9 730Z" fill="#939393"/>
<path d="M392.5 732.1L410.1 800L413.1 798.9L399.8 731.1L392.5 732.1Z" fill="#939393"/>
<path d="M404.9 658.6C405.6 659.5 406.1 660.6 406.2 661.8C407.6 671.2 414 718.6 404 729.7C394.2 740.5 349.4 739.1 338.4 738.6C336 738.5 333.7 737.1 332.7 734.9C332 733.5 331.8 731.7 332.9 729.7C335.7 724.5 375.4 709.3 384.2 699.6C392.6 690.2 393.8 644.6 404.9 658.6Z" fill="#2064B4"/>
<path d="M385.502 728.745C396.141 722.313 379.994 715.642 370.59 713.111C327.388 711.681 327.065 724.427 332.304 730.979C345.604 732.914 374.862 735.178 385.502 728.745Z" fill="#42B0FF"/>
<path d="M227 659L230.5 657L225.5 659L212.5 685.5H189.5L190.5 689.5H214V687.5L227 659Z" fill="#9B9B9B"/>
<path d="M392.5 730C399.3 725.2 402 679 402.5 656.5C412 659 412.548 715 406 727.5C401 737.045 377.833 738.333 366.5 738.5C372.333 737.667 385.7 734.8 392.5 730Z" fill="#42B0FF"/>
<path d="M330.2 612.1C334.232 612.1 337.5 608.832 337.5 604.8C337.5 600.768 334.232 597.5 330.2 597.5C326.168 597.5 322.9 600.768 322.9 604.8C322.9 608.832 326.168 612.1 330.2 612.1Z" fill="#6057C0"/>
<path d="M353.2 601.1C353.2 601.1 352.5 596.7 344.5 597.7C336.5 598.7 337.3 600 330.1 602.1C326.2 603.3 322.8 613.4 343.6 610.2C343.6 610.2 346.8 617.7 348.6 617.4C350.4 617.1 350.2 624.6 350.2 624.6L354.6 623.2C354.6 623.2 355.3 617.7 358.2 616C361.1 614.3 360.1 598.4 353.2 601.1Z" fill="#6057C0"/>
<path d="M349.5 614.688C358 599.5 342.5 601 342 601C351.5 598.312 353.5 599.333 353.5 601C360.5 598.5 362 614.688 359.5 615.688C357.5 616.488 356 621.021 355.5 623.188L353 624.188C351.167 623.355 346.656 619.77 349.5 614.688Z" fill="#0B0A54"/>
<path d="M335 610.2L329.5 612C329.8 619.3 328.6 624.5 331.9 628.5C335.3 632.5 335 632.5 341.5 630.5L344.6 641.5L357.4 631.8C357.4 631.8 352.7 626.3 351.8 624.4C351.8 624.4 351 621 352.3 620.7C355.7 620 354.6 607.6 348.3 615L345.7 610.2C343.9 605.6 337.3 609.1 335 610.2Z" fill="#FFBC85"/>
<path d="M347 626.5L341.5 630.5L342.5 634C342.5 634 344.5 634 345.5 632C346.5 630 347 626.5 347 626.5Z" fill="#F07B61"/>
<path d="M338.1 611.4C341.193 611.4 343.7 608.893 343.7 605.8C343.7 602.707 341.193 600.2 338.1 600.2C335.007 600.2 332.5 602.707 332.5 605.8C332.5 608.893 335.007 611.4 338.1 611.4Z" fill="#6057C0"/>
<path d="M352.897 614.706C351.579 613.565 350.837 613.755 350.013 615.657C350.013 617.084 351.249 617.084 350.013 619.938C349.829 620.363 351.661 618.511 351.249 617.56C350.919 616.799 351.661 616.926 352.485 617.084C353.309 617.084 352.897 615.023 352.897 614.706Z" fill="#F07B61"/>
<path d="M352 618C351.6 618.667 350.64 620 350 620" stroke="#F07B61" stroke-width="0.5"/>
<path d="M309.9 663.2L313.2 652.5C313.2 652.5 327.6 656.7 333.9 660.8C340.2 664.9 345.9 670.2 345.9 670.2L331.8 679.4C331.8 679.4 313.2 667.1 309.9 663.2Z" fill="#C5CA8D"/>
<path d="M316.8 657.4C317 656.9 315.6 641.6 305.3 642.8C305.3 642.8 299.5 644 300.6 646.1C301.7 648.1 303.5 653.7 303.5 653.7L312.8 662.1C312.8 662.1 315.9 660 316.8 657.4Z" fill="#FFBC85"/>
<path d="M309.8 640.2H295.5V656.2H309.8V640.2Z" fill="#E2E2E2"/>
<path d="M311.5 680.1C311.1 679.6 300.2 665.5 290.8 671.4C290.8 671.4 285.8 675.2 288.2 676.5C290.6 677.8 295.7 682 295.7 682L310 685.3C309.9 685.3 313.7 682.5 311.5 680.1Z" fill="#FFBC85"/>
<path d="M379.3 695.9H355.65H332C333.8 694.9 334.7 693.5 337.5 691.3C326.8 690.3 308.6 689.9 308.6 689.9L306.7 673C306.7 673 323.5 670 337.5 669.5C340.8 670.5 342.6 650.8 342.5 648.5C342.5 636.1 350.2 624.1 364.1 633.5C383 646.4 379.3 695.9 379.3 695.9Z" fill="#E3DDA3"/>
<path d="M302.7 642C306.676 642 309.9 641.194 309.9 640.2C309.9 639.206 306.676 638.4 302.7 638.4C298.724 638.4 295.5 639.206 295.5 640.2C295.5 641.194 298.724 642 302.7 642Z" fill="#E2E2E2"/>
<path d="M302.7 641.9C305.793 641.9 308.3 641.273 308.3 640.5C308.3 639.727 305.793 639.1 302.7 639.1C299.607 639.1 297.1 639.727 297.1 640.5C297.1 641.273 299.607 641.9 302.7 641.9Z" fill="#939393"/>
<path d="M302.7 658C306.676 658 309.9 657.194 309.9 656.2C309.9 655.206 306.676 654.4 302.7 654.4C298.724 654.4 295.5 655.206 295.5 656.2C295.5 657.194 298.724 658 302.7 658Z" fill="#E2E2E2"/>
<path d="M323 772.7L330.9 804.3H281.5L294.4 787.8L297.2 775.3L323 772.7Z" fill="#272D33"/>
<path d="M331.5 778.8L332.1 810.4H290L303.8 793.9L304.6 781.5L331.5 778.8Z" fill="#3D4B65"/>
<path d="M376.8 715C375 733.1 338.8 726.7 326.2 725.8C322.3 725.5 319.1 729.1 319.7 733.1L327.5 786H294.8V711.3C294.8 710.2 294.9 709.1 295.2 708C296.8 701.6 302.6 695.7 308.6 695.7L360.6 695.2L376.7 695.7C376.8 696.1 377.7 705.7 376.8 715Z" fill="#36818E"/>
<path d="M379.2 715.2C377.5 734 359.1 727.6 336 727.8C332.3 727.8 329.9 729.2 331.6 733.3V789.2L304 789L302.8 711.4C302.8 710.2 302.9 709.1 303.2 707.9C304.7 701.2 310.1 695.2 315.7 695.2L364 695H379.5C379.5 695.4 380.1 705.6 379.2 715.2Z" fill="#4DBED8"/>
<path d="M317.654 794.5C322.454 793.7 322.167 790.167 322 789H332L332.154 810.5H307.654C312.654 810.5 329.5 800.5 324 800C319.6 799.6 316.82 795 317.654 794.5Z" fill="#32345A"/>
<path d="M379.4 715.6C377.7 734.4 359.3 728 336.2 728.2C332.5 728.2 330.1 729.6 331.8 733.7L332 789H322L326.5 765C326.5 743 318.5 715.6 318.5 715.6C318.5 715.6 326.2 725 331.8 725C331.8 725 356 729 368 722C380 715 379.5 695 379.5 695C379.5 695.4 380.3 706 379.4 715.6Z" fill="#36789D"/>
<path d="M367 650C367 645.6 360.333 635.5 357 631C378 633.5 381.333 675.833 379.5 695H358.5C358.833 693.333 359.8 689.7 359 688.5C358.2 687.3 347.333 689 342 690C346.167 688.833 355 686.3 357 685.5C359.5 684.5 362 666.5 363.5 664C364.7 662 362 658 358.5 655C361.7 653.8 363.333 656.5 365 659L366 658C366 658.667 366.252 656.504 365 654C361 646 350.5 643.5 355 643C358.6 642.6 365.167 647.5 367 650Z" fill="#C5CA8D"/>
<path d="M304 643C307.925 642.611 309.783 641 309.783 641C309.783 641 310.176 655.766 309.783 656.543C309.242 657.614 305.695 657.838 303.896 658C302.097 658.162 304.877 655 304.877 655C308.972 646.414 303.019 643 304 643Z" fill="#C4C4C4"/>
<path d="M171.1 682.6C169.8 694.3 168.3 729.9 199.8 725.3C200 725.3 200.1 725.3 200.3 725.3H216.2C217.4 725.3 210.7 724.7 211.4 723.6L224.7 703.9C226.5 701.2 224.8 697.4 221.7 697.3C219.6 697.2 217.2 697.9 217.2 695.7L209.7 683C209.7 680.7 216.3 679 214.2 679H174.9C172.9 679 171.3 680.5 171.1 682.6Z" fill="#E2E2E2"/>
<path d="M202.337 701.792C194.814 708.087 195.315 721.639 218.186 725.359H232.33C232.33 725.359 236.142 729.073 235.841 734.51C235.54 739.947 238 780 238 780H253.5L255 710.663C255 710.663 254.198 699.312 243.866 699.502H208.656C206.249 699.598 204.042 700.361 202.337 701.792Z" fill="#36818E"/>
<path d="M229 780L222.7 801.7H262L252 785.3V780H229Z" fill="#272D33"/>
<path d="M222.8 776.3L219.4 807.9H255.3L247.6 791.4L247.1 776L222.8 776.3Z" fill="#3D4B65"/>
<path d="M229.5 788.5C228.7 787.3 232.834 785.667 235 785H221.5L219 808H244C237.834 804.167 226.7 796.4 231.5 796C237.5 795.5 239.5 791.5 238 791.5C236.5 791.5 230.5 790 229.5 788.5Z" fill="#32345A"/>
<path d="M193.9 727.4L222.3 729.4C222.3 729.4 225.8 727.1 225.6 733C225.3 738.9 221.5 785.1 221.5 785.1H247.355L251.5 718.1C251.5 718.1 249.6 704.7 240 705L219.5 703.993V695.973L170 695.8C170.7 699.2 164.6 726.6 193.9 727.4Z" fill="#4DBED8"/>
<path d="M198.033 698.328C198.544 694.546 200.076 695.019 200.076 695.019H220V704C220 704 210.294 703.527 206.718 703.055C203.142 702.582 197.522 702.109 198.033 698.328Z" fill="#36818E"/>
<path d="M192 630.1C192.6 629.8 186.1 631 177 635.6C175.288 636.474 172.857 636.64 171 639C167.544 643.392 164.757 653.095 163 673C162.2 682.1 162.9 688.5 188.8 689C214.7 689.6 226.5 689 226.5 689C226.5 689 230.3 650.7 220.6 637.1C218.8 634.6 213.4 632.6 210.9 632.3C194.5 630.2 192 630.1 192 630.1Z" fill="#E3DDA3"/>
<path d="M204.5 639C204.304 628 213 633.5 218 635C226 639 229 668 229.5 682H216C218.8 679.6 204.667 648.333 204.5 639Z" fill="#C5CA8D"/>
<path d="M204.5 695.5C204.5 695.5 187 695.5 170 696V686.5C180.5 686.5 181 687.7 183 682.5L180.5 674C179.334 670 181.5 666 183.5 658.5C183.216 663.689 183.611 671.164 185.367 678C185.764 679.544 186.774 682.5 186.774 682.5C216.5 680 204.5 695.5 204.5 695.5Z" fill="#C5CA8D"/>
<path d="M213.5 606L215.3 612.4C215 619.5 215.8 626.6 212.5 630.5C209.1 634.4 207.6 633.8 206.7 633.8L203 642.5L190.1 633.6C190.1 633.6 194.2 627.7 193 625.7C193 625.7 192.7 625 191.4 624.7C188 624 184.7 611.2 195.6 617.3L195.3 607.2L213.5 606Z" fill="#FFBC85"/>
<path d="M201.5 631.5L207 633.692L204 640C202.246 635.246 200.135 635.337 201.5 631.5Z" fill="#F07B61"/>
<path d="M189.5 618C191.1 616.8 192 617 193 619C193 620.5 191.5 620.5 193 623.5C193.224 623.947 191 622 191.5 621C191.9 620.2 191 620.333 190 620.5C189 620.5 189.5 618.333 189.5 618Z" fill="#F07B61"/>
<path d="M190 621.5C190.5 622.333 191.7 624 192.5 624" stroke="#F07B61" stroke-width="0.5"/>
<path d="M196.5 609.8C196.5 609.8 206.6 612.3 210.3 610.4C210.3 610.4 214.7 612.5 216 609.4C216 609.4 219.8 602.5 207.2 603.1C207.2 603.1 202.9 601.9 199.6 600.4C196.3 598.8 192.1 601.9 192.5 603.5C192.5 603.5 179.5 602.9 187.3 616.3L188.2 617.5C188.2 617.5 189.7 615.8 191.5 616C191.5 616 193.7 615.8 193.9 618.6C193.9 618.6 196.2 619.4 196.1 615.7C196 612 196.5 609.8 196.5 609.8Z" fill="#6057C0"/>
<path d="M194.9 609C198.048 609 200.6 606.627 200.6 603.7C200.6 600.773 198.048 598.4 194.9 598.4C191.752 598.4 189.2 600.773 189.2 603.7C189.2 606.627 191.752 609 194.9 609Z" fill="#6057C0"/>
<path d="M196.5 610C195.3 609.2 195.334 606.5 195.5 605.5C196.5 606.5 198.659 608.329 200 609C201 609.5 212.704 610.778 213 609C213.5 606 215.647 605.646 216 606C216.5 606.5 217 607 216 609.5C215 612 211.667 611 210 610.5C207 612.5 198 611 196.5 610Z" fill="#0B0A54"/>
<path d="M175.5 683C172.7 676.6 176.667 674.667 179 675L183 682C182 685 178.3 689.4 175.5 683Z" fill="#C5CA8D"/>
<path d="M178.1 675.3C178.6 675 192.5 664.6 199.5 673C199.5 673 203 678.1 200.5 678.6C198 679.2 192.1 681.7 192.1 681.7L178.1 680.7C178.1 680.8 175.4 677 178.1 675.3Z" fill="#FFBC85"/>
<path d="M192.5 600C192 601.167 191.2 603.8 192 605C192.898 606.346 188.963 606.082 188.146 606.736C188.089 606.831 188.04 606.92 188 607C188 606.897 188.053 606.811 188.146 606.736C188.568 606.034 189.444 605 190.5 605C192 605 189 602 192.5 600Z" fill="#0B0A54"/>
<path d="M192.024 614C189.34 614 187 609.167 186 606C182.5 608 187.524 620 188.024 618.5C188.424 617.3 189.857 616.333 190.524 616C194.5 616.5 193.024 617.5 194.024 618.5C195.024 619.5 196.024 618.5 196.024 617.5C196.024 616.7 196 615.5 196 613.5C195.5 614.333 194.5 614 192.024 614Z" fill="#0B0A54"/>
<path d="M169.961 656.941C165.526 654.344 170.113 643.231 171.961 638C165.185 641.247 164.185 662.894 162.338 673.176C160.859 681.402 165.947 685.32 168 685.5C164.551 683.335 165.391 674.8 166.417 671.553L168.113 662.894C170.577 661.992 174.396 659.539 169.961 656.941Z" fill="#C5CA8D"/>
<path d="M181.5 653.5C180.121 647 176.167 644.667 173.5 643C192.5 649.5 180 665 180.5 673.5C180.606 675.3 175.5 670.5 174 670.5C172.735 670.5 170.167 671.5 167 672.5C167.167 671.667 168.2 669.7 171 668.5C173.8 667.3 176.5 670.5 178.5 669.5C181.5 666.5 180.5 660.7 180.5 659.5C180.5 658 172.5 649.5 175.5 650.5C177.9 651.3 180.334 652.333 181.5 653.5Z" fill="#C5CA8D"/>
<path d="M233.5 723C230.7 727 220.667 728.667 217 729C222.5 730.5 226 732 225.5 733.5C228 733.5 237 718 233.5 723Z" fill="#36789D"/>
<path d="M228.5 773L225 741L221.5 785H235L228.5 773Z" fill="#36789D"/>
<path d="M341.3 689.1H184.8V695.7H341.3V689.1Z" fill="black"/>
<path d="M322.9 691.4L348.3 810.4" stroke="black" stroke-width="10" stroke-miterlimit="10"/>
<path d="M195.2 691.2L173.4 810.4" stroke="black" stroke-width="10" stroke-miterlimit="10"/>
<path d="M230 656.7H264.8L267 659.8L256.1 689.1H190.7L189.8 685.3H213L225.9 658.6L230 656.7Z" fill="white" stroke="#9B9B9B" stroke-miterlimit="10"/>
<path d="M381.991 616.552L384.168 611.445C385.148 610.149 386.154 608.792 386.781 607.635C387.126 606.998 387.422 606.308 387.477 605.655C387.505 605.314 387.472 604.933 387.299 604.568C387.121 604.19 386.828 603.904 386.469 603.713C377.552 598.978 372 591.612 372 583.5C372 576.6 376.009 570.249 382.702 565.582C389.391 560.917 398.686 558 409 558C419.314 558 428.609 560.917 435.298 565.582C441.991 570.249 446 576.6 446 583.5C446 590.4 441.991 596.751 435.298 601.418C428.609 606.083 419.314 609 409 609C408.308 609 407.404 609.157 406.403 609.391C405.383 609.629 404.193 609.966 402.899 610.36C400.889 610.973 398.591 611.739 396.253 612.519C395.585 612.741 394.913 612.965 394.244 613.187C391.219 614.189 388.239 615.149 385.769 615.795C384.533 616.118 383.447 616.356 382.56 616.483C382.354 616.513 382.165 616.536 381.991 616.552Z" fill="white" stroke="#20B47F" stroke-width="2"/>
<path d="M413.255 538.861C412.762 538.932 412.333 538.974 411.967 538.991L415.051 531.728C416.35 530.004 417.67 528.219 418.488 526.706C418.937 525.875 419.299 525.011 419.365 524.219C419.399 523.808 419.358 523.366 419.161 522.948C418.959 522.518 418.626 522.189 418.207 521.965C406.412 515.68 399 505.863 399 494.991C399 485.745 404.354 477.271 413.218 471.068C422.079 464.867 434.373 461 448 461C461.627 461 473.921 464.867 482.782 471.068C491.646 477.271 497 485.745 497 494.991C497 504.238 491.646 512.712 482.782 518.915C473.921 525.116 461.627 528.983 448 528.983C447.127 528.983 445.967 529.182 444.654 529.491C443.322 529.803 441.763 530.245 440.064 530.765C437.423 531.573 434.406 532.583 431.329 533.612C430.449 533.906 429.565 534.202 428.683 534.495C424.703 535.819 420.773 537.09 417.512 537.945C415.881 538.373 414.439 538.691 413.255 538.861Z" fill="white" stroke="#20B47F" stroke-width="2"/>
<line x1="391.419" y1="376.979" x2="409.448" y2="361.851" stroke="white" stroke-width="3"/>
<line x1="391.964" y1="361.851" x2="409.994" y2="376.979" stroke="white" stroke-width="3"/>
<circle cx="305" cy="35" r="2" fill="white"/>
<circle cx="331" cy="107" r="2" fill="white"/>
<circle cx="355" cy="120" r="2" fill="white"/>
<circle cx="453" cy="47" r="2" fill="white"/>
<circle cx="477" cy="60" r="2" fill="white"/>
<circle r="0.5" transform="matrix(-1 0 0 1 295.5 43.5)" fill="white"/>
<circle r="0.5" transform="matrix(-1 0 0 1 319.5 56.5)" fill="white"/>
<circle r="0.5" transform="matrix(-1 0 0 1 312.5 35.5)" fill="white"/>
<circle r="0.5" transform="matrix(-1 0 0 1 336.5 48.5)" fill="white"/>
<circle r="0.5" transform="matrix(-1 0 0 1 310.5 37.5)" fill="white"/>
<circle r="0.5" transform="matrix(-1 0 0 1 334.5 50.5)" fill="white"/>
<circle r="0.5" transform="matrix(-1 0 0 1 295.5 34.5)" fill="white"/>
<circle r="0.5" transform="matrix(-1 0 0 1 319.5 47.5)" fill="white"/>
<circle r="0.5" transform="matrix(-1 0 0 1 283.5 45.5)" fill="white"/>
<circle r="0.5" transform="matrix(-1 0 0 1 307.5 58.5)" fill="white"/>
<circle r="0.5" transform="matrix(-1 0 0 1 332.5 44.5)" fill="white"/>
<circle r="0.5" transform="matrix(-1 0 0 1 332.5 50.5)" fill="white"/>
<circle r="0.5" transform="matrix(-1 0 0 1 328.5 47.5)" fill="white"/>
<circle r="1" transform="matrix(-1 0 0 1 306 30)" fill="white"/>
<circle r="1" transform="matrix(-1 0 0 1 314 36)" fill="white"/>
<circle r="1" transform="matrix(-1 0 0 1 405 36)" fill="white"/>
<circle r="1" transform="matrix(-1 0 0 1 309 83)" fill="white"/>
<circle r="1" transform="matrix(-1 0 0 1 408 41)" fill="white"/>
<circle r="1" transform="matrix(-1 0 0 1 312 88)" fill="white"/>
<circle cx="336" cy="48" r="2" fill="white"/>
<circle cx="362" cy="120" r="2" fill="white"/>
<circle cx="484" cy="60" r="2" fill="white"/>
<circle cx="240" cy="95" r="2" fill="white"/>
<circle cx="408" cy="35" r="2" fill="white"/>
<circle cx="312" cy="82" r="2" fill="white"/>
<circle r="0.5" transform="matrix(-1 0 0 1 396.5 33.5)" fill="white"/>
<circle r="0.5" transform="matrix(-1 0 0 1 459.5 58.5)" fill="white"/>
<circle r="0.5" transform="matrix(-1 0 0 1 300.5 80.5)" fill="white"/>
<circle r="0.5" transform="matrix(-1 0 0 1 363.5 105.5)" fill="white"/>
<circle r="0.5" transform="matrix(-1 0 0 1 433.5 34.5)" fill="white"/>
<circle r="0.5" transform="matrix(-1 0 0 1 496.5 59.5)" fill="white"/>
<circle r="0.5" transform="matrix(-1 0 0 1 337.5 81.5)" fill="white"/>
<circle r="0.5" transform="matrix(-1 0 0 1 308.5 94.5)" fill="white"/>
<circle r="0.5" transform="matrix(-1 0 0 1 303.5 99.5)" fill="white"/>
<circle r="0.5" transform="matrix(-1 0 0 1 274.5 112.5)" fill="white"/>
<circle r="0.5" transform="matrix(-1 0 0 1 400.5 106.5)" fill="white"/>
<circle r="0.5" transform="matrix(-1 0 0 1 371.5 119.5)" fill="white"/>
<circle r="0.5" transform="matrix(-1 0 0 1 366.5 124.5)" fill="white"/>
<circle r="0.5" transform="matrix(-1 0 0 1 337.5 137.5)" fill="white"/>
<circle r="0.5" transform="matrix(-1 0 0 1 429.5 37.5)" fill="white"/>
<circle r="0.5" transform="matrix(-1 0 0 1 400.5 50.5)" fill="white"/>
<circle r="0.5" transform="matrix(-1 0 0 1 395.5 55.5)" fill="white"/>
<circle r="0.5" transform="matrix(-1 0 0 1 366.5 68.5)" fill="white"/>
<circle r="0.5" transform="matrix(-1 0 0 1 492.5 62.5)" fill="white"/>
<circle r="0.5" transform="matrix(-1 0 0 1 463.5 75.5)" fill="white"/>
<circle r="0.5" transform="matrix(-1 0 0 1 458.5 80.5)" fill="white"/>
<circle r="0.5" transform="matrix(-1 0 0 1 429.5 93.5)" fill="white"/>
<circle r="0.5" transform="matrix(-1 0 0 1 333.5 84.5)" fill="white"/>
<circle r="0.5" transform="matrix(-1 0 0 1 304.5 97.5)" fill="white"/>
<circle r="0.5" transform="matrix(-1 0 0 1 299.5 102.5)" fill="white"/>
<circle r="0.5" transform="matrix(-1 0 0 1 270.5 115.5)" fill="white"/>
<path d="M397 41L397.898 43.7639H400.804L398.453 45.4721L399.351 48.2361L397 46.5279L394.649 48.2361L395.547 45.4721L393.196 43.7639H396.102L397 41Z" fill="white"/>
<path d="M480.643 158.752L480.275 160.481L481.806 161.365L480.048 161.55L479.681 163.279L478.962 161.664L477.204 161.849L478.517 160.666L477.798 159.051L479.329 159.935L480.643 158.752Z" fill="white"/>
<path d="M287.343 110.097L288.52 111.415L290.138 110.703L289.248 112.23L290.426 113.548L288.698 113.174L287.809 114.701L287.631 112.943L285.903 112.568L287.521 111.856L287.343 110.097Z" fill="white"/>
<g filter="url(#filter4_d)">
<circle cx="431" cy="288" r="31" fill="#EDBF89"/>
</g>
<mask id="mask1" mask-type="alpha" maskUnits="userSpaceOnUse" x="400" y="257" width="63" height="63">
<circle cx="431.163" cy="288.163" r="31" transform="rotate(-17.1233 431.163 288.163)" fill="#85C2A9"/>
</mask>
<g mask="url(#mask1)">
<path d="M392.193 277.149C407.192 279.643 439.266 263.518 453.428 255.144L459.568 256.391C448.43 284.055 392.252 290.034 380.888 291.69C380.19 292.114 379.561 292.306 379.038 292.188C378.542 292.077 379.248 291.928 380.888 291.69C384.385 289.561 389.63 281.572 392.193 277.149Z" fill="#FA4E8C"/>
<path d="M401.012 298.969C415.092 297.19 446.502 280.199 460.447 271.926L466.196 271.337C453.951 290.795 400.287 306.874 389.404 310.401C388.716 310.816 388.108 311.072 387.618 311.116C387.154 311.157 387.834 310.909 389.404 310.401C392.851 308.321 398.312 302.253 401.012 298.969Z" fill="#FA4E8C"/>
<path d="M410.076 310.668C423.614 307.611 455.5 291.741 469.75 284.188L475.261 283.035C461.17 298.141 408.368 316.255 397.626 320.113C396.922 320.491 396.314 320.748 395.846 320.841C395.402 320.93 396.076 320.67 397.626 320.113C401.154 318.222 407.1 313.299 410.076 310.668Z" fill="#FA4E8C"/>
<path d="M442.133 318.758C465.377 288.159 438.305 266.086 421.864 258.874C427.396 255.509 454.988 254.116 461.085 280.164C465.963 301.002 450.483 314.576 442.133 318.758Z" fill="url(#paint7_linear)"/>
</g>
<path d="M182.771 799.518C185.438 803.018 191.671 806.818 195.271 808.018L201.271 819.018C196.771 821.185 182.571 823.518 177.771 815.518C176.104 813.185 173.771 811.418 175.771 805.018L177.771 793.018C179.143 792.675 180.882 792.149 182.771 791.589C183.974 791.233 185.237 790.863 186.507 790.518C188.485 789.981 190.476 789.504 192.271 789.234C195.426 788.759 197.973 788.923 198.771 790.518C192.604 789.518 180.771 792.718 182.771 799.518Z" fill="#C4C4C4"/>
<path d="M189.462 803.039C192.101 805.875 198.27 808.953 201.833 809.925L207.771 818.837C203.317 820.592 189.264 822.482 184.513 816.001C182.864 814.111 180.555 812.68 182.534 807.495L184.513 797.773C185.871 797.495 187.592 797.069 189.462 796.616C190.652 796.327 191.903 796.027 193.159 795.748C195.117 795.313 197.088 794.926 198.864 794.708C201.986 794.323 204.507 794.456 205.297 795.748C199.194 794.938 187.482 797.53 189.462 803.039Z" fill="#C4C4C4"/>
<circle r="0.5" transform="matrix(-1 0 0 1 295.5 43.5)" fill="white"/>
<circle r="0.5" transform="matrix(-1 0 0 1 332.5 44.5)" fill="white"/>
<circle r="0.5" transform="matrix(-1 0 0 1 328.5 47.5)" fill="white"/>
<path d="M277.784 280.5C428.544 180.5 491.463 89.5 489.42 14L498 79.5C493.914 245 241.013 345.355 346.014 303C463.027 255.8 496.093 183 498 152.5L493.914 222.5C475.12 271 360.722 320 399.944 314C431.322 309.2 466.677 272 480.432 254V362H145C147.451 352.833 157.012 333.9 175.642 331.5C194.273 329.1 243.736 291.333 277.784 280.5Z" fill="url(#paint8_linear)"/>
</g>
<defs>
<filter id="filter0_d" x="385" y="80" width="58" height="58" filterUnits="userSpaceOnUse" color-interpolation-filters="sRGB">
<feFlood flood-opacity="0" result="BackgroundImageFix"/>
<feColorMatrix in="SourceAlpha" type="matrix" values="0 0 0 0 0 0 0 0 0 0 0 0 0 0 0 0 0 0 127 0"/>
<feOffset dy="4"/>
<feGaussianBlur stdDeviation="2"/>
<feColorMatrix type="matrix" values="0 0 0 0 0 0 0 0 0 0 0 0 0 0 0 0 0 0 0.25 0"/>
<feBlend mode="normal" in2="BackgroundImageFix" result="effect1_dropShadow"/>
<feBlend mode="normal" in="SourceGraphic" in2="effect1_dropShadow" result="shape"/>
</filter>
<filter id="filter1_f" x="352" y="54" width="28" height="28" filterUnits="userSpaceOnUse" color-interpolation-filters="sRGB">
<feFlood flood-opacity="0" result="BackgroundImageFix"/>
<feBlend mode="normal" in="SourceGraphic" in2="BackgroundImageFix" result="shape"/>
<feGaussianBlur stdDeviation="2" result="effect1_foregroundBlur"/>
</filter>
<filter id="filter2_f" x="452" y="175" width="18" height="18" filterUnits="userSpaceOnUse" color-interpolation-filters="sRGB">
<feFlood flood-opacity="0" result="BackgroundImageFix"/>
<feBlend mode="normal" in="SourceGraphic" in2="BackgroundImageFix" result="shape"/>
<feGaussianBlur stdDeviation="2" result="effect1_foregroundBlur"/>
</filter>
<filter id="filter3_d" x="-4" y="498" width="282.179" height="207" filterUnits="userSpaceOnUse" color-interpolation-filters="sRGB">
<feFlood flood-opacity="0" result="BackgroundImageFix"/>
<feColorMatrix in="SourceAlpha" type="matrix" values="0 0 0 0 0 0 0 0 0 0 0 0 0 0 0 0 0 0 127 0"/>
<feOffset dy="4"/>
<feGaussianBlur stdDeviation="2"/>
<feColorMatrix type="matrix" values="0 0 0 0 0 0 0 0 0 0 0 0 0 0 0 0 0 0 0.25 0"/>
<feBlend mode="normal" in2="BackgroundImageFix" result="effect1_dropShadow"/>
<feBlend mode="normal" in="SourceGraphic" in2="effect1_dropShadow" result="shape"/>
</filter>
<filter id="filter4_d" x="396" y="257" width="70" height="70" filterUnits="userSpaceOnUse" color-interpolation-filters="sRGB">
<feFlood flood-opacity="0" result="BackgroundImageFix"/>
<feColorMatrix in="SourceAlpha" type="matrix" values="0 0 0 0 0 0 0 0 0 0 0 0 0 0 0 0 0 0 127 0"/>
<feOffset dy="4"/>
<feGaussianBlur stdDeviation="2"/>
<feColorMatrix type="matrix" values="0 0 0 0 0 0 0 0 0 0 0 0 0 0 0 0 0 0 0.25 0"/>
<feBlend mode="normal" in2="BackgroundImageFix" result="effect1_dropShadow"/>
<feBlend mode="normal" in="SourceGraphic" in2="effect1_dropShadow" result="shape"/>
</filter>
<linearGradient id="paint0_linear" x1="397.12" y1="263.476" x2="389.032" y2="322.928" gradientUnits="userSpaceOnUse">
<stop stop-color="#FF8C39" stop-opacity="0"/>
<stop offset="0.772702" stop-color="#C039FF"/>
</linearGradient>
<linearGradient id="paint1_linear" x1="307.525" y1="14" x2="307.525" y2="646.5" gradientUnits="userSpaceOnUse">
<stop/>
<stop offset="0.348958" stop-color="#8B8CFD"/>
<stop offset="1" stop-color="#63FFB4"/>
</linearGradient>
<linearGradient id="paint2_linear" x1="308.473" y1="15" x2="308.473" y2="647.894" gradientUnits="userSpaceOnUse">
<stop/>
<stop offset="0.348958" stop-color="#8DCA70"/>
<stop offset="0.635417" stop-color="#A7FCD3"/>
<stop offset="1" stop-color="#E7FFF3"/>
</linearGradient>
<linearGradient id="paint3_linear" x1="320.393" y1="0" x2="320.393" y2="793" gradientUnits="userSpaceOnUse">
<stop stop-color="white"/>
<stop offset="0.760417" stop-color="white" stop-opacity="0"/>
</linearGradient>
<linearGradient id="paint4_linear" x1="159.412" y1="378.5" x2="343.529" y2="377.525" gradientUnits="userSpaceOnUse">
<stop offset="0.348958" stop-color="#2063B2" stop-opacity="0"/>
<stop offset="1" stop-color="#2064B4" stop-opacity="0.55"/>
</linearGradient>
<linearGradient id="paint5_linear" x1="268.5" y1="368.783" x2="268.5" y2="277.048" gradientUnits="userSpaceOnUse">
<stop stop-color="#1EBB40"/>
<stop offset="1" stop-opacity="0"/>
</linearGradient>
<linearGradient id="paint6_linear" x1="135" y1="518.735" x2="135" y2="442.614" gradientUnits="userSpaceOnUse">
<stop stop-color="#6AC53F"/>
<stop offset="1" stop-opacity="0"/>
</linearGradient>
<linearGradient id="paint7_linear" x1="444.12" y1="258.476" x2="436.032" y2="317.928" gradientUnits="userSpaceOnUse">
<stop stop-color="#FF8C39" stop-opacity="0"/>
<stop offset="0.772702" stop-color="#C039FF"/>
</linearGradient>
<linearGradient id="paint8_linear" x1="321.5" y1="14" x2="321.5" y2="362" gradientUnits="userSpaceOnUse">
<stop stop-color="#66F6BA"/>
<stop offset="1" stop-color="#66F6BA" stop-opacity="0"/>
</linearGradient>
<clipPath id="clip0">
<rect width="565" height="885" fill="white"/>
</clipPath>
</defs>
</svg>
