<svg width="344" height="331" viewBox="0 0 344 331" fill="none" xmlns="http://www.w3.org/2000/svg">
<path d="M234.917 137H1V206.095H234.917V137Z" stroke="#20B47F" stroke-width="2" stroke-miterlimit="10"/>
<path d="M215.978 106.04H250.458" stroke="#2064B4" stroke-width="3" stroke-miterlimit="10"/>
<path d="M66.1294 263.075L6.49371 263.147C3.45771 263.147 1 260.693 1 257.66V222.932C1 219.9 3.45771 217.445 6.49371 217.445L66.1294 217.373C69.1654 217.373 71.6231 219.827 71.6231 222.86V257.588C71.5509 260.62 69.0931 263.003 66.1294 263.075Z" stroke="#2064B4" stroke-width="2" stroke-miterlimit="10"/>
<path d="M60.2743 234.051C62.8692 234.051 64.9728 231.95 64.9728 229.358C64.9728 226.766 62.8692 224.665 60.2743 224.665C57.6793 224.665 55.5757 226.766 55.5757 229.358C55.5757 231.95 57.6793 234.051 60.2743 234.051Z" fill="#EBFF6D" stroke="#2064B4" stroke-width="2" stroke-miterlimit="10"/>
<path d="M60.2742 239.466V261.848" stroke="#2064B4" stroke-width="2" stroke-miterlimit="10"/>
<path d="M47.7688 218.383L47.8411 261.848" stroke="#2064B4" stroke-width="2" stroke-miterlimit="10"/>
<path d="M1.9397 229.358H29.6251" stroke="#2064B4" stroke-width="2" stroke-miterlimit="10"/>
<path d="M1.9397 238.022H28.6131" stroke="#2064B4" stroke-width="2" stroke-miterlimit="10"/>
<path d="M1.9397 253.978H20.5894" stroke="#2064B4" stroke-width="2" stroke-miterlimit="10"/>
<path d="M158.077 261.342L98.4412 261.415C95.4052 261.415 92.9475 258.96 92.9475 255.927V221.199C92.9475 218.167 95.4052 215.712 98.4412 215.712L158.077 215.64C161.113 215.64 163.571 218.095 163.571 221.127V255.855C163.571 258.888 161.113 261.342 158.077 261.342Z" stroke="#2064B4" stroke-width="2" stroke-miterlimit="10"/>
<path d="M152.222 232.318C154.817 232.318 156.92 230.217 156.92 227.625C156.92 225.033 154.817 222.932 152.222 222.932C149.627 222.932 147.523 225.033 147.523 227.625C147.523 230.217 149.627 232.318 152.222 232.318Z" fill="#EBFF6D" stroke="#2064B4" stroke-width="2" stroke-miterlimit="10"/>
<path d="M152.222 237.733L152.294 260.187" stroke="#2064B4" stroke-width="2" stroke-miterlimit="10"/>
<path d="M139.789 216.723V260.187" stroke="#2064B4" stroke-width="2" stroke-miterlimit="10"/>
<path d="M93.8872 227.697H121.573" stroke="#2064B4" stroke-width="2" stroke-miterlimit="10"/>
<path d="M93.8872 236.361H120.561" stroke="#2064B4" stroke-width="2" stroke-miterlimit="10"/>
<path d="M93.9595 252.317H112.537" stroke="#2064B4" stroke-width="2" stroke-miterlimit="10"/>
<path d="M48.2192 14.813L48.2915 108.529C48.2915 110.839 46.4121 112.644 44.1712 112.644L6.72724 112.716C4.4141 112.716 2.60696 110.839 2.60696 108.601L2.53467 14.8852C2.53467 12.5748 4.41411 10.7698 6.65496 10.7698L44.099 10.6976C46.4121 10.6976 48.2192 12.5748 48.2192 14.813Z" stroke="white" stroke-width="3" stroke-miterlimit="10"/>
<path d="M3.69116 95.4604L47.2072 95.3882" stroke="white" stroke-width="3" stroke-miterlimit="10"/>
<path d="M9.83545 55.245V43.4764" stroke="white" stroke-width="3" stroke-miterlimit="10"/>
<path d="M23.2083 71.0568V43.4042" stroke="white" stroke-width="3" stroke-miterlimit="10"/>
<path d="M14.5342 73.8726L14.4619 43.4764" stroke="white" stroke-width="3" stroke-miterlimit="10"/>
<path d="M18.8711 61.743V43.1154" stroke="white" stroke-width="3" stroke-miterlimit="10"/>
<path d="M217.64 167.266H207.159V201.777H217.64V167.266Z" fill="#2064B4"/>
<path d="M238.603 156.652H228.122V201.85H238.603V156.652Z" fill="#2064B4"/>
<path d="M70.9492 35.6452C70.9492 35.6452 93.5747 26.8368 98.3455 22.1438C103.189 17.4508 114.827 22.1438 114.827 22.1438C114.827 22.1438 146.632 46.5474 176.559 50.8072" stroke="#2064B4" stroke-width="3" stroke-miterlimit="10"/>
<path d="M77.9609 25.9704C77.9609 25.9704 99.0684 17.162 103.55 12.469C108.032 7.77596 118.947 12.469 118.947 12.469C118.947 12.469 148.656 36.8726 176.559 41.1324" stroke="#2064B4" stroke-width="3" stroke-miterlimit="10"/>
<path d="M245.085 2H176.992V103.008H245.085V2Z" fill="#191A25" stroke="#2064B4" stroke-width="3" stroke-miterlimit="10"/>
<path d="M238.652 6.54858H183.136V75.644H238.652V6.54858Z" fill="#191A25" stroke="white" stroke-width="3" stroke-miterlimit="10"/>
<path d="M219.785 28.7862C224.257 28.7862 227.881 25.1658 227.881 20.6998C227.881 16.2338 224.257 12.6134 219.785 12.6134C215.314 12.6134 211.689 16.2338 211.689 20.6998C211.689 25.1658 215.314 28.7862 219.785 28.7862Z" fill="white" stroke="#2064B4" stroke-width="3" stroke-miterlimit="10"/>
<path d="M183.535 48.3562C183.535 48.3562 195.315 41.7708 197.781 38.2586C200.315 34.7464 206.411 38.2586 206.411 38.2586C206.411 38.2586 222.987 56.5513 238.535 59.6976" stroke="white" stroke-width="3" stroke-miterlimit="10"/>
<path d="M183.136 41.2768C183.136 41.2768 194.991 34.7788 197.521 31.3132C200.051 27.8476 206.195 31.3132 206.195 31.3132C206.195 31.3132 222.893 49.3632 238.579 52.4678" stroke="white" stroke-width="3" stroke-miterlimit="10"/>
<path d="M185.811 84.2358H218.845" stroke="#2064B4" stroke-width="3" stroke-miterlimit="10"/>
<path d="M185.811 88.4235H218.845" stroke="#2064B4" stroke-width="3" stroke-miterlimit="10"/>
<path d="M185.811 93.4774H202.292" stroke="#2064B4" stroke-width="3" stroke-miterlimit="10"/>
<path d="M166.219 76.813L166.292 170.529C166.292 172.839 164.412 174.644 162.171 174.644L124.727 174.716C122.414 174.716 120.607 172.839 120.607 170.601L120.535 76.8852C120.535 74.5748 122.414 72.7698 124.655 72.7698L162.099 72.6976C164.412 72.6976 166.219 74.5748 166.219 76.813Z" fill="#191A25" stroke="white" stroke-width="3" stroke-miterlimit="10"/>
<path d="M121.691 157.46L165.207 157.388" stroke="white" stroke-width="3" stroke-miterlimit="10"/>
<path d="M127.763 117.245V105.476" stroke="white" stroke-width="3" stroke-miterlimit="10"/>
<path d="M141.208 133.057V105.404" stroke="white" stroke-width="3" stroke-miterlimit="10"/>
<path d="M132.534 135.873L132.462 105.404" stroke="white" stroke-width="3" stroke-miterlimit="10"/>
<path d="M136.871 123.743V105.115" stroke="white" stroke-width="3" stroke-miterlimit="10"/>
<path d="M108.561 54.3382L108.633 148.054C108.633 150.364 106.754 152.169 104.513 152.169L67.069 152.241C64.7559 152.241 62.9488 150.364 62.9488 148.126L62.8765 54.4104C62.8765 52.1 64.7559 50.295 66.9968 50.295L104.441 50.2228C106.682 50.2228 108.561 52.0278 108.561 54.3382Z" fill="#191A25" stroke="white" stroke-width="3" stroke-miterlimit="10"/>
<path d="M64.033 134.913H107.549" stroke="white" stroke-width="3" stroke-miterlimit="10"/>
<path d="M70.105 94.698V82.9294" stroke="white" stroke-width="3" stroke-miterlimit="10"/>
<path d="M83.5501 110.51L83.4778 82.8572" stroke="white" stroke-width="3" stroke-miterlimit="10"/>
<path d="M74.8037 113.398V82.9294" stroke="white" stroke-width="3" stroke-miterlimit="10"/>
<path d="M79.2129 101.196L79.1406 82.6406" stroke="white" stroke-width="3" stroke-miterlimit="10"/>
<path d="M102.923 77.2978C96.1279 77.2978 90.7065 71.8106 90.6342 65.096C90.6342 62.3524 91.5739 59.8254 93.0919 57.8038C86.5139 58.0204 81.2371 63.4354 81.2371 70.0056C81.2371 76.7924 86.7308 82.2074 93.5256 82.2074C97.5013 82.2074 101.116 80.258 103.284 77.2978C103.212 77.2978 103.067 77.2978 102.923 77.2978Z" fill="white"/>
<path d="M152.077 85.1676C152.077 83.7958 152.294 82.424 152.728 81.1244C152.511 81.1244 152.294 81.1244 152.077 81.1244C144.849 81.1244 138.993 86.9726 138.993 94.1926C138.993 101.413 144.849 107.261 152.077 107.261C157.932 107.261 162.848 103.434 164.51 98.2358C157.571 97.8748 152.077 92.171 152.077 85.1676Z" fill="white"/>
<path d="M33.9622 38.6776C27.6011 38.6776 22.4688 33.4792 22.4688 27.1256C22.4688 25.6094 22.7579 24.1654 23.2639 22.8658C21.0954 24.9596 19.7219 27.9198 19.7219 31.1688C19.7219 37.5224 24.8542 42.6486 31.2154 42.6486C36.0585 42.6486 40.2511 39.6162 41.9136 35.4286C39.8896 37.4502 37.0705 38.6776 33.9622 38.6776Z" fill="white"/>
<path d="M298.777 253.042L298.849 236.22L225.985 222.357V239.18L298.777 253.042Z" stroke="white" stroke-width="3" stroke-miterlimit="10"/>
<path d="M254.249 272.175V255.353L181.385 241.562V258.313L254.249 272.175Z" stroke="white" stroke-width="3" stroke-miterlimit="10"/>
<path d="M208.925 290.586L208.998 273.836L136.134 259.973V276.796L208.925 290.586Z" stroke="white" stroke-width="3" stroke-miterlimit="10"/>
<path d="M163.675 309.069L163.747 292.247L90.8105 278.384V295.207L163.675 309.069Z" stroke="white" stroke-width="3" stroke-miterlimit="10"/>
<path d="M121.243 328.202L121.315 311.38L48.4512 297.59V312.246L121.243 328.202Z" stroke="white" stroke-width="3" stroke-miterlimit="10"/>
<path d="M120.737 310.658H166.349L93.4851 296.868H47.8005L120.737 310.658Z" fill="#DEDEDE" stroke="#2064B4" stroke-width="2" stroke-miterlimit="10"/>
<path d="M253.237 254.558H298.921L226.057 240.696H180.373L253.237 254.558Z" fill="#DEDEDE" stroke="#2064B4" stroke-width="2" stroke-miterlimit="10"/>
<path d="M208.636 272.969H254.248L181.384 259.179H135.772L208.636 272.969Z" fill="#DEDEDE" stroke="#2064B4" stroke-width="2" stroke-miterlimit="10"/>
<path d="M162.879 291.453H208.492L135.628 277.662H89.9431L162.879 291.453Z" fill="#DEDEDE" stroke="#2064B4" stroke-width="2" stroke-miterlimit="10"/>
<path d="M297.403 234.776H343.088L270.224 220.913H224.539L297.403 234.776Z" fill="#DEDEDE" stroke="#2064B4" stroke-width="2" stroke-miterlimit="10"/>
<path d="M198.155 219.686L184.565 242.429L212.106 256.941L208.13 239.035L212.757 227.772L198.155 219.686Z" fill="#3D4B65"/>
<path d="M224.612 223.224L222.154 245.533L254.971 247.988L244.201 235.498L243.261 226.834L224.612 223.224Z" fill="#272D33"/>
<path d="M229.888 139.688C229.888 139.688 236.105 179.615 235.743 193.261C235.31 206.979 234.081 230.588 234.081 230.588" stroke="#36818E" stroke-width="29" stroke-miterlimit="10"/>
<path d="M224.467 91.0254C224.467 91.0254 218.539 92.3972 213.19 95.3574C209.721 97.3068 205.745 104.96 206.901 122.071C207.335 128.642 211.311 131.313 227.141 130.735C245.863 130.013 249.044 127.27 249.044 127.27C249.044 127.27 250.779 105.393 242.466 96.657C240.948 95.0686 235.599 92.2528 233.792 92.325C227.503 92.5416 224.467 91.0254 224.467 91.0254Z" fill="#E2E2E2"/>
<path d="M244.242 79.8819L244.989 80.3926C243.411 85.2406 244.521 91.5206 241.413 93.5294C238.304 95.5382 235.5 94.5299 234.939 94.3282C234.939 94.3282 231.441 97.3137 231.39 98.5421C231.339 99.7706 223.094 92.1909 223.094 92.1909C223.094 92.1909 224.386 74.3249 230.712 80.7677L232.025 74.9496L244.242 79.8819Z" fill="#FFBC85"/>
<path d="M233.202 77.6807C233.202 77.6807 237.983 81.428 241.342 81.9842C241.342 81.9842 244.477 82.5906 245.974 80.7096C245.974 80.7096 250.465 76.5181 241.67 74.398C241.67 74.398 239.017 73.3323 236.486 71.771C234.308 70.3178 230.927 70.7027 230.876 71.9312C230.876 71.9312 226.784 69.9949 224.635 79.7923C222.485 89.5897 216.5 93.5 216.5 93.5C216.5 93.5 226.098 95.5415 227.632 93.3014C229.323 92.3834 229.144 91.2768 229.09 86.0466C230.742 78.3035 233.202 77.6807 233.202 77.6807Z" fill="#6057C0"/>
<path d="M210.01 119.472C210.01 119.472 214.058 132.035 223.527 132.035C227.214 132.035 228.66 128.208 228.66 128.208" stroke="black" stroke-miterlimit="10"/>
<path d="M223.238 134.779C223.238 134.779 207.841 216.87 200.251 233.62" stroke="#4DBED8" stroke-width="29" stroke-miterlimit="10"/>
<path d="M215.431 152.684C227.575 156.727 234.804 153.623 238.273 151.096C239.864 149.941 240.803 148.063 240.876 146.114L241.237 132.685L207.913 132.035C207.335 137.522 206.395 139.399 206.685 142.648C207.118 147.341 211.094 151.168 215.431 152.684Z" fill="#4DBED8"/>
<path d="M210.66 108.281L205.311 142.143L241.02 145.175L241.454 126.764L210.66 108.281Z" fill="#E2E2E2"/>
<path d="M233.141 73.0475C233.141 73.0475 231.84 78.3181 232.563 80.2675C232.563 80.2675 244.707 84.2385 246.442 80.2675C248.177 76.2965 245.357 71.7479 233.141 73.0475Z" fill="#6057C0"/>
<path d="M263.361 157.955L223.238 145.01V124.744L263.884 136.773L263.361 157.955Z" fill="white" stroke="#2064B4" stroke-miterlimit="10"/>
<path d="M289.887 148.671L264.343 157.563L264.866 136.969L290 128.536L289.887 148.671Z" fill="white" stroke="#2064B4" stroke-miterlimit="10"/>
<path d="M289.084 127.947L263.884 136.315L223.893 124.221L256.488 116.572L289.084 127.947Z" fill="white" stroke="#2064B4" stroke-miterlimit="10"/>
<path d="M245 116.855L234 122V106.205L245 101V116.855Z" fill="#666666" stroke="#2064B4" stroke-width="3" stroke-miterlimit="10"/>
<path d="M284.869 126L252 118.473V102L285 110.267L284.869 126Z" fill="#666666" stroke="#2064B4" stroke-miterlimit="10"/>
<path d="M262.379 119.253L239.732 112.977V96.1751L262.379 102.451V119.253Z" fill="white" stroke="#2064B4" stroke-miterlimit="10"/>
<path d="M266.044 116.572L243.463 110.296V93.4947L266.044 99.7707V116.572Z" fill="white" stroke="#2064B4" stroke-miterlimit="10"/>
<path d="M264.343 118.795L245.165 112.519V95.7175L264.343 100.948V118.795Z" fill="white" stroke="#2064B4" stroke-miterlimit="10"/>
<path d="M280.706 119.841L258.125 113.565V96.7635L280.706 103.039V119.841Z" fill="white" stroke="#2064B4" stroke-miterlimit="10"/>
<path d="M278.938 122.064L259.826 115.788V98.9862L278.938 104.282V122.064Z" fill="white" stroke="#2064B4" stroke-miterlimit="10"/>
<path d="M273.637 115.788L251.055 108.727V89.7684L273.637 95.5867V115.788Z" fill="white" stroke="#2064B4" stroke-miterlimit="10"/>
<path d="M271.935 118.272L252.757 111.211V92.2527L271.935 96.9597V118.272Z" fill="white" stroke="#2064B4" stroke-miterlimit="10"/>
<path d="M270.822 120.952L248.241 114.676V97.8749L270.822 104.151V120.952Z" fill="white" stroke="#2064B4" stroke-miterlimit="10"/>
<path d="M268.728 122.848L249.55 116.572V99.7054L268.728 105.001V122.848Z" fill="white" stroke="#2064B4" stroke-miterlimit="10"/>
<path d="M256.488 120.364L247.39 116.768L256.488 101.732L265.063 104.216L256.488 120.364Z" fill="white" stroke="#2064B4" stroke-miterlimit="10"/>
<path d="M259.499 121.214L236.918 114.938V98.071L259.499 104.347V121.214Z" fill="white" stroke="#2064B4" stroke-miterlimit="10"/>
<path d="M263.819 121.018C265.409 121.018 266.699 119.788 266.699 118.272C266.699 116.756 265.409 115.526 263.819 115.526C262.228 115.526 260.939 116.756 260.939 118.272C260.939 119.788 262.228 121.018 263.819 121.018Z" stroke="#2064B4" stroke-width="2" stroke-miterlimit="10"/>
<path d="M239.012 113.696C239.012 113.696 245.557 110.361 246.932 108.596C248.306 106.831 251.71 108.596 251.71 108.596C251.71 108.596 260.677 127.555 269.317 129.124" stroke="#2064B4" stroke-miterlimit="10"/>
<path d="M241.041 110.035C241.041 110.035 247.128 106.701 248.437 104.935C249.747 103.17 252.888 104.935 252.888 104.935C252.888 104.935 261.201 123.894 269.317 125.463" stroke="#2064B4" stroke-miterlimit="10"/>
<path d="M266.044 132.393L233.056 123.829V106.766L266.044 115.265V132.393Z" fill="white" stroke="#2064B4" stroke-miterlimit="10"/>
<path d="M285.091 125.94L266.895 131.759V115.33L285.222 110.296L285.091 125.94Z" fill="white" stroke="#2064B4" stroke-miterlimit="10"/>
<path d="M224.684 145.031C224.973 145.464 231.623 157.882 242.538 153.623C242.538 153.623 248.466 150.807 246.586 149.579C244.634 148.352 240.803 144.525 240.803 144.525L227.72 140.843C227.792 140.843 223.238 142.865 224.684 145.031Z" fill="#FFBC85"/>
<path d="M218.058 107.559C218.058 107.559 209.817 130.663 234.467 145.175" stroke="#E2E2E2" stroke-width="19" stroke-miterlimit="10"/>
<path d="M33.0544 276.002L15.7781 292.969L42.2346 315.784L41.2227 297.951L43.4635 289.287L33.0544 276.002Z" fill="#272D33"/>
<path d="M79.0281 278.023L77.0764 301.344L110.256 300.911L96.955 288.781L96.0153 279.467L79.0281 278.023Z" fill="#3D4B65"/>
<path d="M51.1139 206.979C51.1139 206.979 55.0896 245.75 34.9941 288.348" stroke="#36818E" stroke-width="29" stroke-miterlimit="10"/>
<path d="M66.3057 199.109L39.4155 198.892C39.4155 198.892 32.6206 211.96 38.7649 220.841C44.62 229.288 67.5346 223.007 67.5346 223.007C67.5346 223.007 69.5586 209.433 66.3057 199.109Z" fill="#4DBED8"/>
<path d="M61.6072 212.105C61.6072 212.105 85.9675 226.834 89.9432 238.458C93.0515 247.627 88.2806 284.377 88.2083 288.348" stroke="#4DBED8" stroke-width="29" stroke-miterlimit="10"/>
<path d="M66.9563 201.708L36.8131 206.329C36.8131 206.329 35.9129 203 33.9999 192C32 180.5 30.8134 179.326 31.6086 168.063C31.7531 165.608 34.6446 158.244 36.524 157.161C41.584 157.738 44.6923 158.316 50.4028 160.049C54.8846 164.597 60.5229 172.395 65.2214 184.958C66.5949 188.64 66.9563 196.004 66.9563 201.708Z" fill="#E2E2E2"/>
<path d="M67.896 176.799C67.896 176.799 86.4734 179.326 92.9791 157.883" stroke="#E2E2E2" stroke-width="19" stroke-miterlimit="10"/>
<path d="M99.9184 130.952C99.9184 130.952 90.6658 150.013 89.5816 159.254C88.5696 168.496 68.0404 202.213 68.0404 202.213C68.0404 202.213 68.3296 206.69 58.7156 206.257C49.1016 205.896 49.1738 200.12 49.1738 200.12C49.1738 200.12 61.0287 179.037 65.7273 169.507C70.4981 159.904 68.9079 123.949 68.9079 123.949C68.9079 123.949 83.5818 137.45 99.9184 130.952Z" fill="white" stroke="#2064B4" stroke-width="2" stroke-miterlimit="10"/>
<path d="M43.7979 126.475C43.7979 126.475 39.9071 121.973 41.3019 122.752C42.6967 123.531 53.1946 121.193 55.8374 120.414C57.9663 119.808 65.1606 119.202 63.8392 123.791C63.4721 125.003 62.6646 126.475 60.9762 128.467C52.8275 138.078 43.3574 129.419 43.3574 129.419C41.4487 128.553 42.7701 127.428 45.2661 126.389C48.4228 125.09 53.4148 123.964 55.5437 123.964C59.2877 123.878 58.7004 125.176 55.3235 127.687C51.9465 130.198 47.9823 127.601 47.9823 127.601L49.5974 132.017" fill="white"/>
<path d="M43.7979 126.475C43.7979 126.475 39.9071 121.973 41.3019 122.752C42.6967 123.531 53.1946 121.193 55.8374 120.414C57.9663 119.808 65.1606 119.202 63.8392 123.791C63.4721 125.003 62.6646 126.475 60.9762 128.467C52.8275 138.078 43.3574 129.419 43.3574 129.419C41.4487 128.553 42.7701 127.428 45.2661 126.389C48.4228 125.09 53.4148 123.964 55.5437 123.964C59.2877 123.878 58.7004 125.176 55.3235 127.687C51.9465 130.198 47.9823 127.601 47.9823 127.601L49.5974 132.017" stroke="#2064B4" stroke-width="2" stroke-miterlimit="10"/>
<path d="M44 131.832C44 131.832 51.8321 145.907 52.5573 154.826C53.2824 163.745 63.6527 199.491 63.6527 199.491C63.6527 199.491 62.9275 201.929 72.2099 201.999C81.5649 202.069 82 198.376 82 198.376C82 198.376 71.1221 177.611 66.771 168.135C62.4199 158.728 63.2901 128 63.2901 128C63.2901 128 59.6641 138.8 44 131.832Z" fill="white" stroke="#2064B4" stroke-width="2" stroke-miterlimit="10"/>
<path d="M62.8359 136.656C62.8359 136.656 65.8719 152.901 63.7756 161.926C61.6793 170.951 60.3781 209.433 60.3781 209.433C60.3781 209.433 58.8601 211.599 67.7513 214.487C76.5701 217.375 78.1604 213.838 78.1604 213.838C78.1604 213.838 74.3293 190.012 73.1004 179.398C71.9438 168.785 82.2807 138.677 82.2807 138.677C82.2807 138.677 75.5581 148.28 62.8359 136.656Z" fill="white" stroke="#2064B4" stroke-width="2" stroke-miterlimit="10"/>
<path d="M81.3171 133.176L80 128L99 130.5L95.3659 136L81.3171 133.176Z" fill="white" stroke="white"/>
<path d="M100.641 130.374C100.641 130.374 96.8101 127.125 87.0515 125.537C77.2929 123.949 78.8832 127.342 78.8832 127.342C78.8832 127.342 89.0032 132.613 92.1115 130.952C95.2198 129.291 87.4129 128.208 87.4129 128.208" fill="white"/>
<path d="M100.641 130.374C100.641 130.374 96.8101 127.125 87.0515 125.537C77.2929 123.949 78.8832 127.342 78.8832 127.342C78.8832 127.342 89.0032 132.613 92.1115 130.952C95.2198 129.291 87.4129 128.208 87.4129 128.208" stroke="#2064B4" stroke-width="2" stroke-miterlimit="10"/>
<path d="M78.9556 129.869V127.27" stroke="#2064B4" stroke-width="2" stroke-miterlimit="10"/>
<path d="M64.0648 132.974C64.0648 132.974 61.5348 128.208 62.6914 129.219C63.848 130.23 74.2571 131.457 76.9317 131.674C79.028 131.818 85.9674 133.407 83.582 136.728C83.0037 137.594 81.7748 138.533 79.7508 139.544C69.7031 144.814 62.9805 135.067 62.9805 135.067C61.3902 133.84 62.9805 133.335 65.5105 133.262C68.8357 133.19 73.7511 133.768 75.7751 134.345C79.3171 135.356 78.3774 136.295 74.6185 137.233C70.7874 138.244 67.7514 134.995 67.7514 134.995L68.1851 138.966" fill="white"/>
<path d="M64.0648 132.974C64.0648 132.974 61.5348 128.208 62.6914 129.219C63.848 130.23 74.2571 131.457 76.9317 131.674C79.028 131.818 85.9674 133.407 83.582 136.728C83.0037 137.594 81.7748 138.533 79.7508 139.544C69.7031 144.814 62.9805 135.067 62.9805 135.067C61.3902 133.84 62.9805 133.335 65.5105 133.262C68.8357 133.19 73.7511 133.768 75.7751 134.345C79.3171 135.356 78.3774 136.295 74.6185 137.233C70.7874 138.244 67.7514 134.995 67.7514 134.995L68.1851 138.966" stroke="#2064B4" stroke-width="2" stroke-miterlimit="10"/>
<path d="M37.9695 136.078C38.331 136.078 38.6924 135.934 38.837 135.573C39.2707 134.634 40.7164 132.901 45.1981 133.19C51.4147 133.551 50.7641 134.49 56.4024 135.717C59.4384 136.367 62.2575 143.515 47.1498 142.504C46.7161 142.504 46.2824 142.721 46.0655 143.154C45.415 144.67 43.897 148.136 42.7404 148.063C41.7284 147.991 41.4393 152.034 41.367 154.273C41.367 154.995 40.6441 155.428 39.9213 155.211C39.9213 155.211 35.4395 155.789 35.3673 155.789C34.4275 155.5 27.3435 158.244 29.8013 153.984C32.259 149.724 32.765 136.15 37.9695 136.078Z" fill="#6057C0"/>
<path d="M52.7159 141.349L55.2459 141.06C55.3182 146.475 58.3542 149.941 55.8965 153.117C53.4388 156.294 50.3305 156.294 49.6076 156.294L49 162C49 162 46.5 164 42 162.5C37.5 161 37 158.5 37 158.5C37 158.5 39.9213 154.922 40.5719 153.478C40.5719 153.478 41.0779 150.879 40.0659 150.735C37.4636 150.374 37.8251 141.132 42.8851 146.258L44.6922 142.504C45.9211 139.111 50.9088 140.627 52.7159 141.349Z" fill="#FFBC85"/>
<path d="M46.1377 139.255C46.2823 141.565 48.234 143.298 50.6195 143.082C53.0049 142.865 54.812 140.916 54.6674 138.605C54.5229 136.295 52.5712 134.562 50.1857 134.779C47.8003 134.995 45.9932 136.945 46.1377 139.255Z" fill="#6057C0"/>
<path d="M73.3894 182.792C73.7508 182.792 84.3768 184.958 87.6297 176.294C87.6297 176.294 89.1477 171.312 87.4128 171.889C85.678 172.467 81.4854 172.828 81.4854 172.828L72.5943 178.893C72.522 178.893 71.3654 182.575 73.3894 182.792Z" fill="#FFBC85"/>
<path d="M91.6055 161.132C91.8946 160.843 99.9906 154.561 96.4486 148.785C96.3764 148.713 96.3041 148.569 96.2318 148.497C95.7258 147.919 93.8463 145.753 93.1958 146.98C92.6175 148.063 91.0995 150.085 90.4489 150.951C90.232 151.24 90.0152 151.601 89.9429 152.034L88.6418 158.821C88.4249 159.904 89.0032 161.059 90.0152 161.42C90.5212 161.637 91.0995 161.637 91.6055 161.132Z" fill="#FFBC85"/>
<path d="M45 169C45 169 55.3732 190.301 75 180.354" stroke="#E2E2E2" stroke-width="16" stroke-miterlimit="10"/>
<path d="M38.4998 161.5C36.4998 160 35.9998 159.5 36.4998 157.5C30.4997 162.5 30.9998 175 31.4998 178.5C31.8998 181.3 34.9998 198.333 36.4998 206.5L50.4998 204.5C45.9998 201.5 49.4998 191.9 47.4998 191.5C45.4998 191.1 49.4998 188.333 49.9998 187.5C51.1664 187.167 47.4998 186 43.9998 178.5C41.7521 173.684 41.4998 171 41.9998 169C42.3998 167.4 41.9998 168 40.9998 166.5C39.9998 165 40.4998 163 38.4998 161.5Z" fill="url(#paint0_linear)"/>
<defs>
<linearGradient id="paint0_linear" x1="40.8611" y1="157.5" x2="40.8611" y2="206.5" gradientUnits="userSpaceOnUse">
<stop offset="0.510417" stop-color="#C4C4C4"/>
<stop offset="1" stop-color="#C4C4C4" stop-opacity="0"/>
</linearGradient>
</defs>
</svg>
