<svg width="523" height="845" viewBox="0 0 523 845" fill="none" xmlns="http://www.w3.org/2000/svg">
<path fill-rule="evenodd" clip-rule="evenodd" d="M523 488H0V845C94.0655 820.926 187.552 757.887 265.003 705.661C294.638 685.678 321.926 667.278 346 653.249C390.408 627.371 457.274 599.325 523 573.157V488Z" fill="url(#paint0_linear)"/>
<path fill-rule="evenodd" clip-rule="evenodd" d="M265.003 222.173C294.638 246.578 321.926 269.05 346 286.183C390.408 317.788 457.274 352.039 523 383.999V488H0V52C94.0655 81.4015 187.552 158.39 265.003 222.173Z" fill="url(#paint1_linear)"/>
<path fill-rule="evenodd" clip-rule="evenodd" d="M274.154 170.173C304.812 194.578 333.042 217.05 357.948 234.183C399.824 262.991 461.005 302.075 523 341.388V489H0V0C97.3136 29.4015 194.028 106.39 274.154 170.173Z" fill="url(#paint2_linear)"/>
<defs>
<linearGradient id="paint0_linear" x1="362" y1="488" x2="362" y2="1604.33" gradientUnits="userSpaceOnUse">
<stop stop-color="#8CA2F2"/>
<stop offset="0.213542" stop-color="#8AC6F1" stop-opacity="0"/>
</linearGradient>
<linearGradient id="paint1_linear" x1="362" y1="488" x2="362" y2="52" gradientUnits="userSpaceOnUse">
<stop stop-color="#8CE0F2"/>
<stop offset="1" stop-color="#8AC6F1" stop-opacity="0"/>
</linearGradient>
<linearGradient id="paint2_linear" x1="374.5" y1="436" x2="374.5" y2="0.000207901" gradientUnits="userSpaceOnUse">
<stop stop-color="#86A1FF"/>
<stop offset="1" stop-color="#005DE9" stop-opacity="0"/>
</linearGradient>
</defs>
</svg>
