<svg width="395" height="301" viewBox="0 0 395 301" fill="none" xmlns="http://www.w3.org/2000/svg">
<path d="M111.316 1.71597C107.842 1.73243 105.086 5.11382 104.651 7.19506C99.6407 7.2188 90.7717 8.37914 91.3123 9.68974C91.853 11.0003 93.4418 13.8587 94.7841 15.1655C106.847 23.2499 113.374 16.3682 114.574 11.1098L118.033 9.5631L116.355 7.9296C116.123 5.85153 114.789 1.69951 111.316 1.71597Z" fill="white" stroke="#4DBED8" stroke-width="2"/>
<path d="M112.072 5.67424L112.081 7.6551" stroke="#4DBED8"/>
<path d="M92.8785 7.62828L106.259 7.62142C105.985 9.11842 104.388 12.7068 100.196 15.0844C96.0032 17.462 93.646 14.8678 92.9914 13.2735C91.9353 12.5996 92.6973 11.5996 93.2103 11.1839C91.8464 10.7594 92.4208 8.63661 92.8785 7.62828Z" fill="#4DBED8" stroke="#4DBED8" stroke-width="2"/>
<path d="M245.586 275.369H107.293C93.8571 275.369 83 264.521 83 251.096V46.2724C83 32.848 93.8571 22 107.293 22H245.586C259.021 22 269.879 32.848 269.879 46.2724V251.096C269.879 264.521 259.021 275.369 245.586 275.369Z" stroke="url(#paint0_linear)" stroke-width="2" stroke-miterlimit="10"/>
<path d="M268.58 51H84.4864C82.5723 51 81 49.1872 81 46.9803V23.0197C81 20.8128 82.5723 19 84.4864 19H268.511C270.426 19 271.998 20.8128 271.998 23.0197V46.9803C272.066 49.1872 270.494 51 268.58 51Z" fill="#20B47F"/>
<path d="M253.454 28.4087L264.582 41.5619" stroke="white" stroke-width="4" stroke-miterlimit="10"/>
<path d="M264.582 28.273L252.979 40.9516" stroke="white" stroke-width="4" stroke-miterlimit="10"/>
<path d="M201.407 34.9852H217.693" stroke="white" stroke-width="4" stroke-miterlimit="10"/>
<path d="M241.986 27.6628H232.214V36.07H241.986V27.6628Z" stroke="white" stroke-width="3" stroke-miterlimit="10"/>
<path d="M237.711 32.5445H227.939V40.9517H237.711V32.5445Z" fill="#20B47F" stroke="white" stroke-width="3" stroke-miterlimit="10"/>
<path d="M194.418 83.869H257.457" stroke="#20B47F" stroke-width="3" stroke-miterlimit="10"/>
<path d="M193.875 95.6661H257.389" stroke="#20B47F" stroke-width="3" stroke-miterlimit="10"/>
<path d="M224.546 116.277H256.914" stroke="#20B47F" stroke-width="3" stroke-miterlimit="10"/>
<path d="M194.689 105.972H257.186" stroke="#20B47F" stroke-width="3" stroke-miterlimit="10"/>
<path d="M156.418 262.59L107.357 262.658C102.607 262.658 98.7393 258.793 98.7393 254.047V228.351C98.7393 223.605 102.607 219.74 107.357 219.74L156.418 219.672C161.168 219.672 165.036 223.537 165.036 228.283V253.979C165.036 258.725 161.168 262.59 156.418 262.59Z" fill="#EBFF6D" stroke="#20B47F" stroke-width="2" stroke-miterlimit="10"/>
<path d="M154.382 235.334C156.818 235.334 158.793 233.361 158.793 230.927C158.793 228.493 156.818 226.52 154.382 226.52C151.946 226.52 149.971 228.493 149.971 230.927C149.971 233.361 151.946 235.334 154.382 235.334Z" fill="white" stroke="#20B47F" stroke-width="2" stroke-miterlimit="10"/>
<path d="M154.382 240.419L154.45 261.437" stroke="#20B47F" stroke-width="2" stroke-miterlimit="10"/>
<path d="M142.711 220.622V261.437" stroke="#20B47F" stroke-width="2" stroke-miterlimit="10"/>
<path d="M99.6213 230.995L125.611 230.927" stroke="#20B47F" stroke-width="2" stroke-miterlimit="10"/>
<path d="M99.6213 239.063H124.661" stroke="#20B47F" stroke-width="2" stroke-miterlimit="10"/>
<path d="M99.6213 254.047H117.128" stroke="#20B47F" stroke-width="2" stroke-miterlimit="10"/>
<path d="M181.797 64.0714H97.1108V128.956H181.797V64.0714Z" fill="#EBFF6D" stroke="#20B47F" stroke-width="2" stroke-miterlimit="10"/>
<path d="M259.018 141.363H95.4822V206.248H259.018V141.363Z" fill="#EBFF6D" stroke="#20B47F" stroke-width="2" stroke-miterlimit="10"/>
<path d="M219.796 76.5466C222.307 76.5466 224.343 74.5128 224.343 72.004C224.343 69.4952 222.307 67.4614 219.796 67.4614C217.286 67.4614 215.25 69.4952 215.25 72.004C215.25 74.5128 217.286 76.5466 219.796 76.5466Z" fill="#FF6161" stroke="#20B47F" stroke-width="3" stroke-miterlimit="10"/>
<path d="M157.232 90.7847C161.055 90.7847 164.153 87.6885 164.153 83.8691C164.153 80.0497 161.055 76.9535 157.232 76.9535C153.409 76.9535 150.311 80.0497 150.311 83.8691C150.311 87.6885 153.409 90.7847 157.232 90.7847Z" stroke="#20B47F" stroke-width="3" stroke-miterlimit="10"/>
<path d="M236.15 76.5466C238.661 76.5466 240.696 74.5128 240.696 72.004C240.696 69.4952 238.661 67.4614 236.15 67.4614C233.639 67.4614 231.604 69.4952 231.604 72.004C231.604 74.5128 233.639 76.5466 236.15 76.5466Z" fill="#FFC90B" stroke="#20B47F" stroke-width="3" stroke-miterlimit="10"/>
<path d="M251.282 76.6144C253.793 76.6144 255.829 74.5806 255.829 72.0718C255.829 69.563 253.793 67.5292 251.282 67.5292C248.771 67.5292 246.736 69.563 246.736 72.0718C246.736 74.5806 248.771 76.6144 251.282 76.6144Z" fill="#00FF94" stroke="#20B47F" stroke-width="3" stroke-miterlimit="10"/>
<path d="M127.714 188.417H117.875V206.18H127.714V188.417Z" fill="#155E6B"/>
<path d="M147.393 181.433H137.554V206.248H147.393V181.433Z" fill="#155E6B"/>
<path d="M167.071 177.297H157.232V206.18H167.071V177.297Z" fill="#155E6B"/>
<path d="M186.75 164.958H176.911V206.18H186.75V164.958Z" fill="#20B47F"/>
<path d="M206.429 154.042H196.589V206.248H206.429V154.042Z" fill="#20B47F"/>
<path d="M226.107 173.772H216.268V206.18H226.107V173.772Z" fill="#20B47F"/>
<path d="M245.786 163.805H235.947V206.248H245.786V163.805Z" fill="#20B47F"/>
<path d="M97.1108 96.5477C97.1108 96.5477 112.854 88.2761 116.179 83.8691C119.504 79.4621 127.647 83.8691 127.647 83.8691C127.647 83.8691 149.768 106.785 170.6 110.786" stroke="#20B47F" stroke-width="3" stroke-miterlimit="10"/>
<path d="M101.997 87.4625C101.997 87.4625 116.722 79.1909 119.843 74.7839C122.964 70.3769 130.564 74.7839 130.564 74.7839C130.564 74.7839 151.261 97.7003 170.668 101.7" stroke="#20B47F" stroke-width="3" stroke-miterlimit="10"/>
<rect x="220" y="282" width="174" height="6" fill="url(#paint1_linear)"/>
<rect x="150" y="295" width="245" height="6" fill="url(#paint2_linear)"/>
<path d="M350.818 247.598L370.768 257.09L360.454 279.803L353.261 267.87L346 262.717L350.818 247.598Z" fill="#272D33"/>
<path d="M303.386 266.175L295.514 286.786L270 276.481L282.689 269.226L286.354 261.293L303.386 266.175Z" fill="#3D4B65"/>
<path d="M327.203 194.714C327.203 194.714 321.707 242.174 356.653 261.293" stroke="#36818E" stroke-width="29" stroke-miterlimit="10"/>
<path d="M309.697 187.188H336.907C336.907 187.188 343.082 199.46 337.518 207.799C332.225 215.732 311.461 209.833 311.461 209.833C311.461 209.833 306.779 196.816 309.697 187.188Z" fill="#4DBED8"/>
<g filter="url(#filter0_d)">
<path d="M318.925 194.714L292.732 271.124" stroke="#4DBED8" stroke-width="29" stroke-miterlimit="10"/>
</g>
<path d="M310.036 187.391H337.246C337.246 187.391 337.178 180.611 336.771 171.323C336.364 161.153 336.071 151.271 332 147C330.439 145.373 326.468 142.771 324.5 142.5C320.429 144.737 318.775 146.61 314.5 150C312.193 155.492 310.103 164.068 310.239 176.679C310.307 180.408 310.036 182.035 310.036 187.391Z" fill="#E2E2E2"/>
<path d="M315.871 123.049C315.532 123.185 315.193 123.117 314.989 122.914C314.311 122.236 312.546 121.219 308.814 122.981C303.725 125.354 304.471 126.032 300.128 129.016C297.821 130.643 297.686 137.83 310.171 131.863C310.578 131.66 310.986 131.728 311.257 132.067C312.275 133.219 314.718 135.728 315.668 135.253C316.482 134.846 318.043 138.304 318.857 140.203C319.129 140.813 319.875 140.948 320.35 140.542C320.35 140.542 323.064 138.101 323.132 138.033C323.879 137.423 325.371 136.338 328.493 136.067C330.732 135.796 320.282 121.354 315.871 123.049Z" fill="#6057C0"/>
<path d="M305.15 132.609L302.911 133.219C304.607 137.965 303.182 142.101 306.236 143.999C309.289 145.966 312.003 144.881 312.546 144.677L316.007 150.44C316.007 150.44 319.332 151 321.5 148C323.668 145 324.625 142.847 324.625 142.847C324.625 142.847 320.282 140.203 319.332 139.118C319.332 139.118 318.111 137.016 318.857 136.541C320.961 135.321 317.636 127.321 314.989 133.558L312.207 130.914C310.103 128.338 306.371 131.389 305.15 132.609Z" fill="#FFBC85"/>
<path d="M307.476 133.377C309.512 132.73 310.637 130.557 309.989 128.523C309.341 126.489 307.166 125.365 305.13 126.012C303.094 126.66 301.97 128.833 302.617 130.867C303.265 132.901 305.441 134.025 307.476 133.377Z" fill="#6057C0"/>
<path d="M370.632 193.426L321.029 220.274C316.889 222.512 311.664 221.02 309.357 216.817L294.836 190.036C292.597 185.9 294.089 180.679 298.297 178.374L347.9 151.525C352.039 149.288 357.264 150.779 359.572 154.983L374.093 181.764C376.332 185.968 374.839 191.188 370.632 193.426Z" fill="#EBFF6D" stroke="#2064B4" stroke-width="2" stroke-miterlimit="10"/>
<path d="M353.347 168.324C355.719 167.039 356.6 164.076 355.314 161.706C354.028 159.336 351.062 158.456 348.69 159.741C346.318 161.026 345.438 163.989 346.724 166.359C348.01 168.729 350.975 169.609 353.347 168.324Z" fill="#EBFF6D" stroke="#2064B4" stroke-width="2" stroke-miterlimit="10"/>
<path d="M356.111 173.289L367.239 193.832" stroke="#2064B4" stroke-width="2" stroke-miterlimit="10"/>
<path d="M334.193 160.136L355.839 200.002" stroke="#2064B4" stroke-width="2" stroke-miterlimit="10"/>
<path d="M297.55 192.951L322.929 179.188" stroke="#2064B4" stroke-width="2" stroke-miterlimit="10"/>
<path d="M301.825 200.884L326.321 187.663" stroke="#2064B4" stroke-width="2" stroke-miterlimit="10"/>
<path d="M309.764 215.528L326.864 206.308" stroke="#2064B4" stroke-width="2" stroke-miterlimit="10"/>
<path d="M372.6 205.494L321.639 229.698C317.364 231.732 312.207 229.902 310.171 225.63L297.075 198.104C295.039 193.832 296.871 188.68 301.146 186.646L352.107 162.441C356.382 160.407 361.539 162.238 363.575 166.509L376.671 194.036C378.707 198.375 376.875 203.46 372.6 205.494Z" fill="#EBFF6D" stroke="#155E6B" stroke-width="2" stroke-miterlimit="10"/>
<path d="M356.677 179.54C359.114 178.383 360.151 175.47 358.992 173.035C357.834 170.6 354.919 169.564 352.482 170.722C350.045 171.879 349.008 174.792 350.167 177.227C351.325 179.662 354.24 180.697 356.677 179.54Z" fill="#EBFF6D" stroke="#155E6B" stroke-width="2" stroke-miterlimit="10"/>
<path d="M359.096 184.612L369.139 205.697" stroke="#155E6B" stroke-width="2" stroke-miterlimit="10"/>
<path d="M337.925 170.306L357.4 211.325" stroke="#155E6B" stroke-width="2" stroke-miterlimit="10"/>
<path d="M299.586 201.223L325.711 188.815" stroke="#155E6B" stroke-width="2" stroke-miterlimit="10"/>
<path d="M303.521 209.358L328.628 197.426" stroke="#155E6B" stroke-width="2" stroke-miterlimit="10"/>
<path d="M310.646 224.41L328.153 216.071" stroke="#155E6B" stroke-width="2" stroke-miterlimit="10"/>
<path d="M334.057 185.154C333.718 185.425 323.132 192.07 326.593 198.985C326.593 198.985 328.9 202.714 329.986 201.155C331.071 199.595 334.329 196.341 334.329 196.341L337.586 186.646C337.586 186.578 335.889 183.73 334.057 185.154Z" fill="#FFBC85"/>
<path d="M326.018 153.491C326.018 153.491 340.811 168.204 332.193 187.324" stroke="#E2E2E2" stroke-width="17" stroke-miterlimit="10"/>
<path d="M321.201 148.352C322.153 147.437 323.222 143.556 324 142C333 142.5 341.5 161 343 168C344.2 173.6 343.5 184.5 340 191L333.5 188C341 184 342 169 338.746 168C337.555 167.634 333.333 170.167 333 169C336 166 338 166 338 164C338 161.5 331 147.5 329.5 147C328.3 146.6 326.833 147.667 326.5 149C326 151 324.5 151.131 324.5 150C324.5 149.5 325 148.5 325.5 147C325.891 145.826 322.3 147.715 321.201 148.352C321.133 148.417 321.066 148.467 321 148.5C320.783 148.609 320.896 148.528 321.201 148.352Z" fill="url(#paint3_linear)"/>
<path d="M14.9964 234.826L0 248.115L22.0536 267.099L22.4607 252.115L28.9071 244.25L14.9964 234.826Z" fill="#3D4B65"/>
<path d="M41.5964 245.877L42.275 267.099H73.15L62.225 256.183L60.8 248.115L41.5964 245.877Z" fill="#272D33"/>
<path d="M45.4023 162.566L54.8906 252.303" stroke="#36818E" stroke-width="29" stroke-miterlimit="10"/>
<path d="M50.9607 116.989C50.9607 116.989 44.9214 117.735 39.5607 119.837C36.1 121.193 28.975 123.769 27.7535 139.838C27.2785 146.008 30.3321 155.161 47.9071 155.5C65.4821 155.907 68.7393 155.161 68.7393 155.161C68.7393 155.161 69.4857 151.906 69.9607 147.432C70.775 140.245 70.9785 129.871 66.975 124.244C65.7535 122.549 61.4786 117.125 59.7821 116.989C53.8107 116.379 50.9607 116.989 50.9607 116.989Z" fill="#E2E2E2"/>
<path d="M29.7893 143.364C29.7893 143.364 33.5893 155.161 42.4786 155.161C45.9393 155.161 47.2964 151.567 47.2964 151.567" stroke="black" stroke-miterlimit="10"/>
<g filter="url(#filter1_d)">
<path d="M40.2535 157.737L36.4536 202.417C35.6393 211.909 36.0464 217.672 31.8393 226.215C29.125 231.707 23.5607 240.453 19.5571 245.267" stroke="#4DBED8" stroke-width="28" stroke-miterlimit="10"/>
</g>
<path d="M33.9286 174.484C45.8036 178.281 52.8607 175.365 56.2536 172.992C57.8143 171.907 59.9857 169.873 60.0536 168.043L61.275 152.72L26.6 152.652C25.9893 157.805 25.175 162.009 25.3786 165.06C25.7178 169.534 29.6536 173.128 33.9286 174.484Z" fill="#4DBED8"/>
<path d="M27.7536 139.838L26.1929 155.568L60.325 163.839L61.5464 147.432L27.7536 139.838Z" fill="#E2E2E2"/>
<path d="M81.0893 150.754C81.0893 150.754 78.1036 164.382 60.5286 161.195L61.2071 141.804H70.3L80.4786 150.211L81.0893 150.754Z" fill="#E2E2E2"/>
<path d="M64.0921 148C64.2858 144.431 63.4682 136.112 62.5 128C62.0159 127.189 60.6846 119.633 62.5 124.5C63.9523 128.394 66.2706 140.699 65.9075 148H64.0921Z" fill="#C4C4C4"/>
<path d="M54.9644 154.618C51.9787 153.601 50.418 150.347 51.4359 147.432L51.7073 146.618C52.7251 143.635 55.9823 142.075 58.9001 143.092C61.8858 144.109 63.4466 147.364 62.4287 150.279L62.1573 151.093C61.1394 154.008 57.9501 155.635 54.9644 154.618Z" stroke="#155E6B" stroke-miterlimit="10"/>
<path d="M71.9286 164.314L52.5215 157.669L63.3108 137.872L79.3929 143.364C79.3929 143.364 74.575 148.991 74.0322 152.042L71.9286 164.314Z" fill="#155E6B"/>
<path d="M96.0179 151.5L60.5 143L63 137.5L96.7643 149.33L96.0179 151.5Z" fill="#155E6B"/>
<path d="M77.9602 146.59C77.9695 146.565 77.9825 146.535 78 146.5C77.9875 146.538 77.9749 146.574 77.9623 146.611C77.9679 146.69 77.9375 146.719 77.9388 146.677C77.6205 147.559 77.2514 148 76.5 148C75.7 148 70 144.667 67.5 143C69 143.333 72.7373 144.434 75 145C77.5263 145.632 77.9252 146.33 77.9602 146.59Z" fill="#273E42"/>
<path d="M26 155.5C26.8 133.9 31 125.167 33.5 123.5C42 117 41 121.5 39 122C37 122.5 30 125 33.5 130.5C36.5 132 28.5882 136 28.5 148C28.4918 149.118 32 153.5 35.5 153.5C38.5463 153.5 39.5 152.167 40 151C50 153.8 58.1667 157.5 61 159L60.5 164C52.9 164.4 34.3333 158.5 26 155.5Z" fill="#C4C4C4"/>
<path d="M39.493 147.16C39.8323 146.957 49.2644 139.906 54.0144 145.601C54.0144 145.601 56.3894 149.059 54.693 149.398C52.9966 149.805 48.993 151.5 48.993 151.5L39.493 150.822C39.493 150.889 37.6609 148.313 39.493 147.16Z" fill="#FFBC85"/>
<path d="M73.6929 153.466C74.0322 153.398 81.4965 153.94 82.0393 148.042C82.0393 147.906 82.0393 147.838 82.0393 147.703C81.9714 147.025 81.7 144.584 80.5465 145.126C79.5965 145.601 77.4929 146.279 76.4072 146.618C75.9322 146.754 75.525 147.025 75.1179 147.364L70.9786 151.161C69.9608 152.178 73.15 153.534 73.6929 153.466Z" fill="#FFBC85"/>
<path d="M72 143C74.4 143.8 75.5 142.667 75.5 142L63 137.5L52 158L72 164C62 159.6 60.5 154.833 61 153L63 147.5C63.6667 147.167 65.5 146.7 67.5 147.5C69.5 148.3 73 147 70.5 145.5C69.469 144.881 65.4 144.2 65 143C64.5 141.5 69 142 72 143Z" fill="#273E42"/>
<path d="M64.1641 105.057L64.9106 105.463C63.8248 110.142 65.4534 115.905 62.7391 118.074C60.0248 120.244 57.3105 119.566 56.7677 119.43L53.307 125.193L45.4355 118.549C45.4355 118.549 49.5748 113.532 48.7606 113.193C46.5891 112.311 45.0284 101.667 51.5427 107.158L52.2213 101.599L64.1641 105.057Z" fill="#FFBC85"/>
<path d="M53.7141 104.107C54.3248 104.582 57.9891 107.294 61.857 105.667H61.9248C62.1963 105.87 64.6391 107.497 65.8606 105.667C65.8606 105.667 69.0498 101.667 60.907 99.6326C60.907 99.6326 58.057 99.0902 56.0891 97.5986C54.1213 96.1748 51.0677 97.5986 50.932 98.6834C50.932 98.7512 50.932 98.7512 50.8641 98.7512C50.0498 98.6156 42.5177 97.3274 45.8427 106.684L48.082 115.023C48.082 115.091 48.1498 115.091 48.1498 115.091C48.6927 114.82 52.1534 112.989 49.982 112.786C47.4034 112.582 48.4891 107.565 49.507 107.023C49.507 107.023 51.2713 106.006 51.4748 108.921C51.5427 109.396 51.8141 109.87 52.357 110.006C52.8998 110.142 53.4427 109.87 53.2391 107.972C53.0356 104.175 53.5 104 53.5 104C53.5679 103.864 53.7141 104.107 53.7141 104.107Z" fill="#6057C0"/>
<path d="M109.977 155.154C109.983 155.139 109.99 155.121 110 155.1C109.993 155.123 109.986 155.145 109.978 155.166C109.982 155.214 109.964 155.231 109.965 155.206C109.783 155.735 109.572 156 109.143 156C108.686 156 107.429 155 106 154C106.857 154.2 106.993 153.861 108.286 154.2C109.729 154.579 109.957 154.998 109.977 155.154Z" fill="#2BD0EE"/>
<path d="M111.977 162.154C111.983 162.139 111.99 162.121 112 162.1C111.993 162.123 111.986 162.145 111.978 162.166C111.982 162.214 111.964 162.231 111.965 162.206C111.783 162.735 111.572 163 111.143 163C110.686 163 108.929 161.5 107.5 160.5C108.357 160.7 108.993 160.861 110.286 161.2C111.729 161.579 111.957 161.998 111.977 162.154Z" fill="#2BD0EE"/>
<path d="M122.351 155.015C122.351 154.999 122.351 154.98 122.353 154.957C122.355 154.98 122.356 155.004 122.357 155.026C122.377 155.07 122.367 155.092 122.359 155.068C122.382 155.627 122.281 155.951 121.881 156.107C121.455 156.273 118.694 154.913 117 154.5C117.871 154.375 119.101 154.894 120.429 154.741C121.912 154.57 122.276 154.877 122.351 155.015Z" fill="#2BD0EE"/>
<path d="M122.772 162.087C122.765 162.064 122.759 162.037 122.752 162.004C122.761 162.038 122.771 162.072 122.78 162.104C122.811 162.172 122.811 162.201 122.796 162.164C123.015 162.967 123.056 163.397 122.807 163.504C122.543 163.617 119.437 161.561 118 160.483C118.618 160.558 120.256 160.975 121.21 161.14C122.276 161.326 122.664 161.868 122.772 162.087Z" fill="#2BD0EE"/>
<path d="M124.923 175C124.933 174.988 124.946 174.973 124.962 174.957C124.948 174.976 124.934 174.994 124.92 175.012C124.907 175.059 124.885 175.069 124.894 175.045C124.548 175.485 124.262 175.666 123.857 175.525C123.425 175.374 122.02 173.414 121 172C121.744 172.471 122.53 172.797 123.639 173.543C124.878 174.376 124.955 174.846 124.923 175Z" fill="#2BD0EE"/>
<path d="M130.923 170C130.933 169.988 130.946 169.973 130.962 169.957C130.948 169.976 130.934 169.994 130.92 170.012C130.907 170.059 130.885 170.069 130.894 170.045C130.548 170.485 130.262 170.666 129.857 170.525C129.425 170.374 127.52 167.414 126.5 166C127.244 166.471 128.53 167.797 129.639 168.543C130.878 169.376 130.955 169.846 130.923 170Z" fill="#2BD0EE"/>
<path d="M135.3 164.074C135.305 164.059 135.313 164.041 135.323 164.02C135.316 164.043 135.308 164.065 135.301 164.087C135.304 164.134 135.287 164.151 135.287 164.126C135.103 164.654 134.89 164.918 134.461 164.915C134.004 164.913 132.423 163.508 131 162.5C131.856 162.705 132.323 162.764 133.614 163.111C135.055 163.498 135.281 163.918 135.3 164.074Z" fill="#2BD0EE"/>
<path d="M133.354 155.037C133.353 155.021 133.354 155.002 133.357 154.979C133.358 155.002 133.358 155.025 133.359 155.048C133.378 155.092 133.367 155.114 133.359 155.09C133.365 155.65 133.255 155.97 132.851 156.114C132.42 156.267 130.681 155.169 129 154.705C129.875 154.606 130.108 154.818 131.44 154.705C132.927 154.578 133.282 154.897 133.354 155.037Z" fill="#2BD0EE"/>
<path d="M146 19H122.5L102 51H124L146 19Z" fill="#4DBED8"/>
<path d="M172 19H157.58L136 51H149.5L172 19Z" fill="#4DBED8"/>
<path d="M324 154C322.791 151.942 324.92 148.838 325.927 147L327.439 147.368C327.439 147.368 326.935 148.103 325.927 150.308C324.92 152.513 325.5 154 325.5 154C325.5 153.632 327.64 151.852 328.446 150.676C329.252 149.499 328.996 148.887 329.5 149.5C330 150.676 325.511 156.573 324 154Z" fill="#C4C4C4"/>
<path d="M322 156.5C322 158.1 321.333 163 321 165L323 164C322.5 160.833 322 154.9 322 156.5Z" fill="#C4C4C4"/>
<path d="M41.5 136.5C42.3 134.5 41.1667 127.667 40.5 124.5C43.3 126.5 43.3333 139 43 145L40.5 146.5L39.5 145C38.5 144 34.5 146 34.5 145C34.5 144 38.5 143.5 40.5 143.5C42.5 143.5 40.5 139 41.5 136.5Z" fill="#C4C4C4"/>
<defs>
<filter id="filter0_d" x="275.016" y="190.012" width="61.6258" height="93.8143" filterUnits="userSpaceOnUse" color-interpolation-filters="sRGB">
<feFlood flood-opacity="0" result="BackgroundImageFix"/>
<feColorMatrix in="SourceAlpha" type="matrix" values="0 0 0 0 0 0 0 0 0 0 0 0 0 0 0 0 0 0 127 0"/>
<feOffset dy="4"/>
<feGaussianBlur stdDeviation="2"/>
<feColorMatrix type="matrix" values="0 0 0 0 0 0 0 0 0 0 0 0 0 0 0 0 0 0 0.25 0"/>
<feBlend mode="normal" in2="BackgroundImageFix" result="effect1_dropShadow"/>
<feBlend mode="normal" in="SourceGraphic" in2="effect1_dropShadow" result="shape"/>
</filter>
<filter id="filter1_d" x="4.79321" y="156.551" width="53.4099" height="105.668" filterUnits="userSpaceOnUse" color-interpolation-filters="sRGB">
<feFlood flood-opacity="0" result="BackgroundImageFix"/>
<feColorMatrix in="SourceAlpha" type="matrix" values="0 0 0 0 0 0 0 0 0 0 0 0 0 0 0 0 0 0 127 0"/>
<feOffset dy="4"/>
<feGaussianBlur stdDeviation="2"/>
<feColorMatrix type="matrix" values="0 0 0 0 0 0 0 0 0 0 0 0 0 0 0 0 0 0 0.25 0"/>
<feBlend mode="normal" in2="BackgroundImageFix" result="effect1_dropShadow"/>
<feBlend mode="normal" in="SourceGraphic" in2="effect1_dropShadow" result="shape"/>
</filter>
<linearGradient id="paint0_linear" x1="176.439" y1="22" x2="176.439" y2="275.369" gradientUnits="userSpaceOnUse">
<stop stop-color="#20B47F"/>
<stop offset="1" stop-color="#20B47F" stop-opacity="0"/>
</linearGradient>
<linearGradient id="paint1_linear" x1="307" y1="282" x2="270" y2="282" gradientUnits="userSpaceOnUse">
<stop stop-color="#C4C4C4"/>
<stop offset="1" stop-color="#C4C4C4" stop-opacity="0"/>
</linearGradient>
<linearGradient id="paint2_linear" x1="272.5" y1="295" x2="220.402" y2="295" gradientUnits="userSpaceOnUse">
<stop stop-color="#C4C4C4"/>
<stop offset="1" stop-color="#C4C4C4" stop-opacity="0"/>
</linearGradient>
<linearGradient id="paint3_linear" x1="332.215" y1="142" x2="332.215" y2="191" gradientUnits="userSpaceOnUse">
<stop stop-color="#C4C4C4"/>
<stop offset="1" stop-color="#C4C4C4" stop-opacity="0"/>
</linearGradient>
</defs>
</svg>
