<svg width="344" height="337" viewBox="0 0 344 337" fill="none" xmlns="http://www.w3.org/2000/svg">
<path d="M234.917 139.7H48V210.177H234.917V139.7Z" fill="#EBFF6D" stroke="#20B47F" stroke-width="2" stroke-miterlimit="10"/>
<path d="M215.978 108.121H250.458" stroke="#2064B4" stroke-width="3" stroke-miterlimit="10"/>
<path d="M66.1294 268.296L6.49371 268.37C3.45771 268.37 1 265.866 1 262.773V227.35C1 224.257 3.45771 221.753 6.49371 221.753L66.1294 221.68C69.1654 221.68 71.6231 224.184 71.6231 227.277V262.699C71.5508 265.792 69.0931 268.223 66.1294 268.296Z" fill="#EBFF6D" stroke="#2064B4" stroke-width="2" stroke-miterlimit="10"/>
<path d="M60.2743 238.692C62.8692 238.692 64.9728 236.549 64.9728 233.905C64.9728 231.261 62.8692 229.118 60.2743 229.118C57.6793 229.118 55.5757 231.261 55.5757 233.905C55.5757 236.549 57.6793 238.692 60.2743 238.692Z" fill="#EBFF6D" stroke="#2064B4" stroke-width="2" stroke-miterlimit="10"/>
<path d="M60.2743 244.215V267.045" stroke="#2064B4" stroke-width="2" stroke-miterlimit="10"/>
<path d="M47.7688 222.71L47.8411 267.044" stroke="#2064B4" stroke-width="2" stroke-miterlimit="10"/>
<path d="M1.9397 233.904H29.6251" stroke="#2064B4" stroke-width="2" stroke-miterlimit="10"/>
<path d="M1.9397 242.742H28.6131" stroke="#2064B4" stroke-width="2" stroke-miterlimit="10"/>
<path d="M1.9397 259.018H20.5894" stroke="#2064B4" stroke-width="2" stroke-miterlimit="10"/>
<path d="M158.077 266.53L98.4411 266.603C95.4051 266.603 92.9474 264.099 92.9474 261.006V225.584C92.9474 222.491 95.4051 219.987 98.4411 219.987L158.077 219.913C161.113 219.913 163.571 222.417 163.571 225.51V260.933C163.571 264.026 161.113 266.53 158.077 266.53Z" fill="#EBFF6D" stroke="#2064B4" stroke-width="2" stroke-miterlimit="10"/>
<path d="M152.222 236.925C154.817 236.925 156.92 234.782 156.92 232.138C156.92 229.494 154.817 227.351 152.222 227.351C149.627 227.351 147.523 229.494 147.523 232.138C147.523 234.782 149.627 236.925 152.222 236.925Z" fill="#EBFF6D" stroke="#2064B4" stroke-width="2" stroke-miterlimit="10"/>
<path d="M152.222 242.448L152.294 265.352" stroke="#2064B4" stroke-width="2" stroke-miterlimit="10"/>
<path d="M139.789 221.017V265.351" stroke="#2064B4" stroke-width="2" stroke-miterlimit="10"/>
<path d="M93.8871 232.211H121.573" stroke="#2064B4" stroke-width="2" stroke-miterlimit="10"/>
<path d="M93.8871 241.049H120.561" stroke="#2064B4" stroke-width="2" stroke-miterlimit="10"/>
<path d="M93.9595 257.324H112.537" stroke="#2064B4" stroke-width="2" stroke-miterlimit="10"/>
<path d="M217.64 170.571H207.159V205.773H217.64V170.571Z" fill="#2064B4"/>
<path d="M238.603 159.745H228.122V205.846H238.603V159.745Z" fill="#2064B4"/>
<path d="M70.9492 36.3178C70.9492 36.3178 93.5747 27.3333 98.3455 22.5464C103.189 17.7596 114.827 22.5464 114.827 22.5464C114.827 22.5464 146.632 47.438 176.559 51.783" stroke="white" stroke-width="3" stroke-miterlimit="10"/>
<path d="M77.9609 26.4496C77.9609 26.4496 99.0684 17.4651 103.55 12.6783C108.032 7.89143 118.947 12.6783 118.947 12.6783C118.947 12.6783 148.656 37.5698 176.559 41.9148" stroke="white" stroke-width="3" stroke-miterlimit="10"/>
<path d="M245.085 2H176.992V105.028H245.085V2Z" fill="#EBFF6D" stroke="#2064B4" stroke-width="3" stroke-miterlimit="10"/>
<path d="M238.652 6.63965H183.136V77.1172H238.652V6.63965Z" fill="#20B47F" stroke="white" stroke-width="3" stroke-miterlimit="10"/>
<path d="M219.785 29.3221C224.257 29.3221 227.881 25.6293 227.881 21.0739C227.881 16.5185 224.257 12.8257 219.785 12.8257C215.314 12.8257 211.689 16.5185 211.689 21.0739C211.689 25.6293 215.314 29.3221 219.785 29.3221Z" fill="white" stroke="#2064B4" stroke-width="3" stroke-miterlimit="10"/>
<path d="M183.535 49.2833C183.535 49.2833 195.315 42.5662 197.781 38.9838C200.315 35.4014 206.411 38.9838 206.411 38.9838C206.411 38.9838 222.987 57.6423 238.535 60.8516" stroke="white" stroke-width="3" stroke-miterlimit="10"/>
<path d="M183.136 42.0619C183.136 42.0619 194.991 35.434 197.521 31.8992C200.051 28.3643 206.195 31.8992 206.195 31.8992C206.195 31.8992 222.893 50.3099 238.579 53.4766" stroke="white" stroke-width="3" stroke-miterlimit="10"/>
<path d="M185.811 85.8804H218.845" stroke="#2064B4" stroke-width="3" stroke-miterlimit="10"/>
<path d="M185.811 90.1523H218.845" stroke="#2064B4" stroke-width="3" stroke-miterlimit="10"/>
<path d="M185.811 95.3066H202.292" stroke="#2064B4" stroke-width="3" stroke-miterlimit="10"/>
<path d="M166.219 78.3095L166.292 173.899C166.292 176.256 164.412 178.097 162.171 178.097L124.727 178.171C122.414 178.171 120.607 176.256 120.607 173.973L120.535 78.3832C120.535 76.0266 122.414 74.1855 124.655 74.1855L162.099 74.1118C164.412 74.1118 166.219 76.0266 166.219 78.3095Z" fill="#20B47F" stroke="white" stroke-width="3" stroke-miterlimit="10"/>
<path d="M121.691 160.568L165.207 160.496" stroke="white" stroke-width="3" stroke-miterlimit="10"/>
<path d="M127.763 119.55V107.546" stroke="white" stroke-width="3" stroke-miterlimit="10"/>
<path d="M141.208 135.678V107.472" stroke="white" stroke-width="3" stroke-miterlimit="10"/>
<path d="M132.534 138.55L132.462 107.472" stroke="white" stroke-width="3" stroke-miterlimit="10"/>
<path d="M136.871 126.178V107.178" stroke="white" stroke-width="3" stroke-miterlimit="10"/>
<path d="M108.561 55.3842L108.633 150.974C108.633 153.331 106.754 155.172 104.513 155.172L67.069 155.246C64.7559 155.246 62.9488 153.331 62.9488 151.048L62.8765 55.4579C62.8765 53.1013 64.7559 51.2602 66.9968 51.2602L104.441 51.1865C106.682 51.1865 108.561 53.0276 108.561 55.3842Z" fill="#20B47F" stroke="white" stroke-width="3" stroke-miterlimit="10"/>
<path d="M64.033 137.57H107.549" stroke="white" stroke-width="3" stroke-miterlimit="10"/>
<path d="M70.105 96.551V84.5469" stroke="white" stroke-width="3" stroke-miterlimit="10"/>
<path d="M83.5502 112.679L83.4779 84.4731" stroke="white" stroke-width="3" stroke-miterlimit="10"/>
<path d="M74.8036 115.625V84.5469" stroke="white" stroke-width="3" stroke-miterlimit="10"/>
<path d="M79.213 103.179L79.1407 84.2524" stroke="white" stroke-width="3" stroke-miterlimit="10"/>
<path d="M102.923 78.8038C96.1279 78.8038 90.7065 73.2069 90.6342 66.358C90.6342 63.5595 91.5739 60.982 93.0919 58.9199C86.5139 59.1409 81.2371 64.6642 81.2371 71.3658C81.2371 78.2883 86.7308 83.8116 93.5256 83.8116C97.5013 83.8116 101.116 81.8233 103.284 78.8038C103.212 78.8038 103.067 78.8038 102.923 78.8038Z" fill="white"/>
<path d="M152.077 86.8311C152.077 85.4318 152.294 84.0326 152.728 82.707C152.511 82.707 152.294 82.707 152.077 82.707C144.849 82.707 138.993 88.6722 138.993 96.0365C138.993 103.401 144.849 109.366 152.077 109.366C157.932 109.366 162.848 105.463 164.51 100.161C157.571 99.7923 152.077 93.9745 152.077 86.8311Z" fill="white"/>
<path d="M298.777 258.063L298.849 240.903L225.985 226.764V243.923L298.777 258.063Z" fill="#20B47F" stroke="white" stroke-width="3" stroke-miterlimit="10"/>
<path d="M254.248 277.579V260.42L181.385 246.354V263.439L254.248 277.579Z" fill="#20B47F" stroke="white" stroke-width="3" stroke-miterlimit="10"/>
<path d="M208.925 296.358L208.998 279.273L136.134 265.133V282.292L208.925 296.358Z" fill="#20B47F" stroke="white" stroke-width="3" stroke-miterlimit="10"/>
<path d="M163.675 315.21L163.747 298.052L90.8105 283.912V301.071L163.675 315.21Z" fill="#20B47F" stroke="white" stroke-width="3" stroke-miterlimit="10"/>
<path d="M121.243 334.726L121.315 317.567L48.4512 303.501V318.451L121.243 334.726Z" fill="#20B47F" stroke="white" stroke-width="3" stroke-miterlimit="10"/>
<path d="M120.737 316.831H166.349L93.4851 302.765H47.8005L120.737 316.831Z" fill="white" stroke="#2064B4" stroke-width="2" stroke-miterlimit="10"/>
<path d="M253.237 259.61H298.921L226.057 245.47H180.373L253.237 259.61Z" fill="white" stroke="#2064B4" stroke-width="2" stroke-miterlimit="10"/>
<path d="M208.636 278.389H254.249L181.385 264.322H135.772L208.636 278.389Z" fill="white" stroke="#2064B4" stroke-width="2" stroke-miterlimit="10"/>
<path d="M162.879 297.242H208.492L135.628 283.176H89.9431L162.879 297.242Z" fill="white" stroke="#2064B4" stroke-width="2" stroke-miterlimit="10"/>
<path d="M297.403 239.431H343.088L270.224 225.292H224.539L297.403 239.431Z" fill="white" stroke="#2064B4" stroke-width="2" stroke-miterlimit="10"/>
<path d="M198.155 224.04L184.565 247.237L212.106 262.04L208.13 243.776L212.757 232.288L198.155 224.04Z" fill="#3D4B65"/>
<path d="M224.612 227.648L222.154 250.405L254.971 252.908L244.201 240.168L243.261 231.331L224.612 227.648Z" fill="#272D33"/>
<path d="M229.888 142.442C229.888 142.442 236.105 183.167 235.743 197.086C235.31 211.078 234.081 235.159 234.081 235.159" stroke="#36818E" stroke-width="29" stroke-miterlimit="10"/>
<path d="M224.467 92.8062C224.467 92.8062 218.539 94.2054 213.19 97.2248C209.721 99.2132 205.745 107.019 206.901 124.473C207.335 131.175 211.311 133.899 227.141 133.31C245.863 132.574 249.044 129.775 249.044 129.775C249.044 129.775 250.779 107.461 242.466 98.5504C240.948 96.9302 235.599 94.0581 233.792 94.1317C227.503 94.3527 224.467 92.8062 224.467 92.8062Z" fill="#E2E2E2"/>
<path d="M244.257 81.5359L245.012 82.0593C243.454 86.9728 244.61 93.3575 241.496 95.378C238.382 97.3986 235.555 96.357 234.99 96.1486C234.99 96.1486 231.49 99.1586 231.446 100.406C231.402 101.653 223.063 93.9038 223.063 93.9038C223.063 93.9038 224.252 75.7678 230.654 82.3506L231.939 76.4502L244.257 81.5359Z" fill="#FFBC85"/>
<path d="M233.164 79.2025C233.164 79.2025 237.982 83.0212 241.358 83.5995C241.358 83.5995 244.511 84.2276 246.007 82.3276C246.007 82.3276 250.501 78.0988 241.657 75.9119C241.657 75.9119 238.987 74.8204 236.438 73.227C234.243 71.7448 230.848 72.1202 230.802 73.3651C230.802 73.3651 226.684 71.3849 224.565 81.3056C222.446 91.2263 216.45 95.1637 216.45 95.1637C216.45 95.1637 226.102 97.2743 227.633 95.0105C229.328 94.0873 229.143 92.9651 229.067 87.6639C230.694 79.8231 233.164 79.2025 233.164 79.2025Z" fill="#6057C0"/>
<path d="M210.01 121.821C210.01 121.821 214.058 134.635 223.527 134.635C227.214 134.635 228.66 130.732 228.66 130.732" stroke="black" stroke-miterlimit="10"/>
<path d="M223.238 137.434C223.238 137.434 207.841 221.167 200.251 238.253" stroke="#4DBED8" stroke-width="29" stroke-miterlimit="10"/>
<path d="M215.431 155.698C227.575 159.822 234.804 156.655 238.273 154.078C239.864 152.899 240.803 150.985 240.876 148.996L241.237 135.299L207.913 134.636C207.335 140.233 206.395 142.147 206.685 145.461C207.118 150.248 211.094 154.151 215.431 155.698Z" fill="#4DBED8"/>
<path d="M210.66 110.406L205.311 144.946L241.02 148.039L241.454 129.259L210.66 110.406Z" fill="#E2E2E2"/>
<path d="M233.141 74.4687C233.141 74.4687 231.84 79.8446 232.563 81.8329C232.563 81.8329 244.707 85.8832 246.442 81.8329C248.177 77.7826 245.357 73.1431 233.141 74.4687Z" fill="#6057C0"/>
<path d="M263.361 161.074L223.238 147.87V127.199L263.884 139.468L263.361 161.074Z" fill="white" stroke="#2064B4" stroke-miterlimit="10"/>
<path d="M289.887 151.604L264.343 160.673L264.866 139.668L290 131.066L289.887 151.604Z" fill="white" stroke="#2064B4" stroke-miterlimit="10"/>
<path d="M289.084 130.466L263.884 139.001L223.893 126.665L256.488 118.863L289.084 130.466Z" fill="white" stroke="#2064B4" stroke-miterlimit="10"/>
<path d="M245 119.151L234 124.4V108.289L245 102.979V119.151Z" fill="#666666" stroke="#2064B4" stroke-width="3" stroke-miterlimit="10"/>
<path d="M284.869 128.48L252 120.802V104L285 112.433L284.869 128.48Z" fill="#666666" stroke="#2064B4" stroke-miterlimit="10"/>
<path d="M262.379 121.598L239.732 115.196V98.0586L262.379 104.46V121.598Z" fill="white" stroke="#2064B4" stroke-miterlimit="10"/>
<path d="M266.044 118.863L243.463 112.462V95.3242L266.044 101.726V118.863Z" fill="white" stroke="#2064B4" stroke-miterlimit="10"/>
<path d="M264.342 121.131L245.165 114.729V97.5918L264.342 102.926V121.131Z" fill="white" stroke="#2064B4" stroke-miterlimit="10"/>
<path d="M280.706 122.198L258.125 115.796V98.6587L280.706 105.06V122.198Z" fill="white" stroke="#2064B4" stroke-miterlimit="10"/>
<path d="M278.938 124.465L259.826 118.064V100.926L278.938 106.328V124.465Z" fill="white" stroke="#2064B4" stroke-miterlimit="10"/>
<path d="M273.637 118.063L251.056 110.862V91.5239L273.637 97.4586V118.063Z" fill="white" stroke="#2064B4" stroke-miterlimit="10"/>
<path d="M271.935 120.596L252.757 113.394V94.0562L271.935 98.8573V120.596Z" fill="white" stroke="#2064B4" stroke-miterlimit="10"/>
<path d="M270.822 123.331L248.241 116.929V99.792L270.822 106.194V123.331Z" fill="white" stroke="#2064B4" stroke-miterlimit="10"/>
<path d="M268.728 125.265L249.55 118.864V101.659L268.728 107.061V125.265Z" fill="white" stroke="#2064B4" stroke-miterlimit="10"/>
<path d="M256.488 122.731L247.39 119.064L256.488 103.727L265.063 106.261L256.488 122.731Z" fill="white" stroke="#2064B4" stroke-miterlimit="10"/>
<path d="M259.499 123.598L236.918 117.196V99.9922L259.499 106.394V123.598Z" fill="white" stroke="#2064B4" stroke-miterlimit="10"/>
<path d="M263.819 123.398C265.409 123.398 266.699 122.144 266.699 120.597C266.699 119.051 265.409 117.797 263.819 117.797C262.228 117.797 260.939 119.051 260.939 120.597C260.939 122.144 262.228 123.398 263.819 123.398Z" stroke="#2064B4" stroke-width="2" stroke-miterlimit="10"/>
<path d="M239.012 115.93C239.012 115.93 245.557 112.529 246.932 110.728C248.307 108.928 251.71 110.728 251.71 110.728C251.71 110.728 260.677 130.066 269.317 131.667" stroke="#2064B4" stroke-miterlimit="10"/>
<path d="M241.041 112.195C241.041 112.195 247.129 108.794 248.438 106.994C249.747 105.194 252.888 106.994 252.888 106.994C252.888 106.994 261.201 126.332 269.317 127.932" stroke="#2064B4" stroke-miterlimit="10"/>
<path d="M266.044 135.001L233.056 126.266V108.861L266.044 117.53V135.001Z" fill="white" stroke="#2064B4" stroke-miterlimit="10"/>
<path d="M285.091 128.419L266.895 134.354V117.597L285.222 112.462L285.091 128.419Z" fill="white" stroke="#2064B4" stroke-miterlimit="10"/>
<path d="M224.684 147.892C224.973 148.334 231.623 161.001 242.538 156.656C242.538 156.656 248.466 153.783 246.586 152.532C244.634 151.28 240.803 147.376 240.803 147.376L227.72 143.621C227.792 143.621 223.238 145.683 224.684 147.892Z" fill="#FFBC85"/>
<path d="M218.058 109.67C218.058 109.67 209.817 133.236 234.467 148.039" stroke="#E2E2E2" stroke-width="19" stroke-miterlimit="10"/>
<path d="M33.0544 281.482L15.7781 298.788L42.2346 322.06L41.2227 303.87L43.4635 295.032L33.0544 281.482Z" fill="#272D33"/>
<path d="M79.028 283.544L77.0763 307.331L110.255 306.889L96.9549 294.517L96.0152 285.017L79.028 283.544Z" fill="#3D4B65"/>
<path d="M51.1139 211.078C51.1139 211.078 55.0896 250.625 34.9941 294.075" stroke="#36818E" stroke-width="29" stroke-miterlimit="10"/>
<path d="M66.3057 203.051L39.4155 202.83C39.4155 202.83 32.6206 216.16 38.7649 225.218C44.62 233.835 67.5346 227.428 67.5346 227.428C67.5346 227.428 69.5586 213.582 66.3057 203.051Z" fill="#4DBED8"/>
<path d="M61.6072 216.307C61.6072 216.307 85.9675 231.33 89.9432 243.187C93.0515 252.54 88.2806 290.025 88.2083 294.075" stroke="#4DBED8" stroke-width="29" stroke-miterlimit="10"/>
<path d="M66.9563 205.702L36.8132 210.416C36.8132 210.416 36.0903 205.629 34.7892 194.95C31.3195 184.493 30.8135 182.873 31.6086 171.384C31.7532 168.88 34.6446 161.369 36.5241 160.264C41.5841 160.853 44.6923 161.442 50.4029 163.21C54.8846 167.849 60.5229 175.803 65.2215 188.617C66.5949 192.373 66.9563 199.884 66.9563 205.702Z" fill="#E2E2E2"/>
<path d="M67.896 180.294C67.896 180.294 86.4734 182.872 92.9791 160.999" stroke="#E2E2E2" stroke-width="19" stroke-miterlimit="10"/>
<path d="M99.9184 133.531C99.9184 133.531 90.6658 152.973 89.5816 162.399C88.5696 171.826 68.0404 206.217 68.0404 206.217C68.0404 206.217 68.3296 210.783 58.7156 210.341C49.1016 209.973 49.1738 204.082 49.1738 204.082C49.1738 204.082 61.0287 182.578 65.7273 172.857C70.4981 163.062 68.9079 126.388 68.9079 126.388C68.9079 126.388 83.5818 140.159 99.9184 133.531Z" fill="white" stroke="#2064B4" stroke-width="2" stroke-miterlimit="10"/>
<path d="M43.7979 128.965C43.7979 128.965 39.9071 124.372 41.3019 125.167C42.6967 125.962 53.1946 123.578 55.8374 122.783C57.9663 122.164 65.1606 121.546 63.8392 126.227C63.4721 127.463 62.6646 128.965 60.9762 130.996C52.8275 140.799 43.3574 131.967 43.3574 131.967C41.4487 131.084 42.7701 129.936 45.2661 128.876C48.4228 127.552 53.4148 126.404 55.5437 126.404C59.2877 126.315 58.7004 127.64 55.3235 130.201C51.9465 132.762 47.9823 130.113 47.9823 130.113L49.5974 134.617" fill="white"/>
<path d="M43.7979 128.965C43.7979 128.965 39.9071 124.372 41.3019 125.167C42.6967 125.962 53.1946 123.578 55.8374 122.783C57.9663 122.164 65.1606 121.546 63.8392 126.227C63.4721 127.463 62.6646 128.965 60.9762 130.996C52.8275 140.799 43.3574 131.967 43.3574 131.967C41.4487 131.084 42.7701 129.936 45.2661 128.876C48.4228 127.552 53.4148 126.404 55.5437 126.404C59.2877 126.315 58.7004 127.64 55.3235 130.201C51.9465 132.762 47.9823 130.113 47.9823 130.113L49.5974 134.617" stroke="#2064B4" stroke-width="2" stroke-miterlimit="10"/>
<path d="M44 134.429C44 134.429 51.8321 148.786 52.5573 157.883C53.2824 166.98 63.6527 203.44 63.6527 203.44C63.6527 203.44 62.9275 205.928 72.2099 205.999C81.5649 206.07 82 202.303 82 202.303C82 202.303 71.1221 181.124 66.771 171.458C62.4199 161.863 63.2901 130.521 63.2901 130.521C63.2901 130.521 59.6641 141.537 44 134.429Z" fill="white" stroke="#2064B4" stroke-width="2" stroke-miterlimit="10"/>
<path d="M62.8359 139.349C62.8359 139.349 65.8719 155.919 63.7756 165.124C61.6793 174.33 60.3781 213.582 60.3781 213.582C60.3781 213.582 58.8601 215.791 67.7513 218.737C76.5701 221.683 78.1604 218.074 78.1604 218.074C78.1604 218.074 74.3293 193.772 73.1004 182.946C71.9438 172.12 82.2807 141.411 82.2807 141.411C82.2807 141.411 75.5581 151.206 62.8359 139.349Z" fill="white" stroke="#2064B4" stroke-width="2" stroke-miterlimit="10"/>
<path d="M81.3171 95.1765L80 90L99 92.5L95.3659 98L81.3171 95.1765Z" fill="white" stroke="white"/>
<path d="M100.641 132.942C100.641 132.942 96.8101 129.628 87.0515 128.008C77.2929 126.388 78.8832 129.849 78.8832 129.849C78.8832 129.849 89.0032 135.225 92.1115 133.531C95.2198 131.837 87.4129 130.733 87.4129 130.733" fill="white"/>
<path d="M100.641 132.942C100.641 132.942 96.8101 129.628 87.0515 128.008C77.2929 126.388 78.8832 129.849 78.8832 129.849C78.8832 129.849 89.0032 135.225 92.1115 133.531C95.2198 131.837 87.4129 130.733 87.4129 130.733" stroke="#2064B4" stroke-width="2" stroke-miterlimit="10"/>
<path d="M78.9556 132.425V129.775" stroke="#2064B4" stroke-width="2" stroke-miterlimit="10"/>
<path d="M64.0648 135.593C64.0648 135.593 61.5348 130.733 62.6914 131.764C63.848 132.795 74.2571 134.047 76.9317 134.268C79.028 134.415 85.9674 136.035 83.582 139.423C83.0037 140.306 81.7748 141.264 79.7508 142.295C69.7031 147.671 62.9805 137.729 62.9805 137.729C61.3902 136.477 62.9805 135.961 65.5105 135.888C68.8357 135.814 73.7511 136.403 75.7751 136.992C79.3171 138.023 78.3774 138.981 74.6185 139.938C70.7874 140.969 67.7514 137.655 67.7514 137.655L68.1851 141.706" fill="white"/>
<path d="M64.0648 135.593C64.0648 135.593 61.5348 130.733 62.6914 131.764C63.848 132.795 74.2571 134.047 76.9317 134.268C79.028 134.415 85.9674 136.035 83.582 139.423C83.0037 140.306 81.7748 141.264 79.7508 142.295C69.7031 147.671 62.9805 137.729 62.9805 137.729C61.3902 136.477 62.9805 135.961 65.5105 135.888C68.8357 135.814 73.7511 136.403 75.7751 136.992C79.3171 138.023 78.3774 138.981 74.6185 139.938C70.7874 140.969 67.7514 137.655 67.7514 137.655L68.1851 141.706" stroke="#2064B4" stroke-width="2" stroke-miterlimit="10"/>
<path d="M37.9698 138.76C38.3312 138.76 38.6926 138.612 38.8372 138.244C39.2709 137.287 40.7166 135.519 45.1984 135.814C51.4149 136.182 50.7644 137.14 56.4026 138.391C59.4386 139.054 62.2578 146.345 47.1501 145.314C46.7164 145.314 46.2826 145.535 46.0658 145.977C45.4152 147.523 43.8972 151.058 42.7406 150.984C41.7286 150.911 41.4395 155.035 41.3672 157.318C41.3672 158.054 40.6444 158.496 39.9215 158.275C39.9215 158.275 35.4398 158.864 35.3675 158.864C34.4278 158.57 27.3438 161.368 29.8015 157.023C32.2592 152.678 32.7652 138.833 37.9698 138.76Z" fill="#6057C0"/>
<path d="M52.716 144.135L55.246 143.841C55.3183 149.364 58.3543 152.899 55.8966 156.139C53.4389 159.38 50.3306 159.38 49.6078 159.38L48.3066 166.597L36.524 162.399C36.524 162.399 39.9215 157.981 40.572 156.508C40.572 156.508 41.078 153.856 40.066 153.709C37.4638 153.341 37.8252 143.914 42.8852 149.143L44.6923 145.314C45.9212 141.852 50.9089 143.399 52.716 144.135Z" fill="#FFBC85"/>
<path d="M46.138 141.999C46.2826 144.355 48.2343 146.123 50.6197 145.902C53.0051 145.681 54.8123 143.693 54.6677 141.336C54.5231 138.98 52.5714 137.212 50.186 137.433C47.8006 137.654 45.9934 139.642 46.138 141.999Z" fill="#6057C0"/>
<path d="M73.3898 186.408C73.7512 186.408 84.3772 188.617 87.6301 179.779C87.6301 179.779 89.1481 174.698 87.4132 175.287C85.6784 175.876 81.4858 176.244 81.4858 176.244L72.5946 182.431C72.5223 182.431 71.3658 186.187 73.3898 186.408Z" fill="#FFBC85"/>
<path d="M91.6057 164.314C91.8949 164.02 99.9909 157.613 96.4489 151.721C96.3766 151.647 96.3043 151.5 96.232 151.426C95.726 150.837 93.8466 148.628 93.196 149.88C92.6177 150.985 91.0997 153.047 90.4491 153.93C90.2323 154.225 90.0154 154.593 89.9431 155.035L88.642 161.958C88.4251 163.062 89.0034 164.241 90.0154 164.609C90.5214 164.83 91.0997 164.83 91.6057 164.314Z" fill="#FFBC85"/>
<path d="M44.7646 175.729C44.7646 175.729 53.8004 192.446 74.9801 184.64" stroke="#E2E2E2" stroke-width="19" stroke-miterlimit="10"/>
<path d="M37.2773 169C35.2773 167.5 34.7773 167 35.2773 165C29.2773 170 29.7774 182.5 30.2774 186C30.6774 188.8 33.7774 205.833 35.2774 214L49.2774 212C44.7773 209 48.2773 199.4 46.2773 199C44.2773 198.6 48.2773 195.833 48.7773 195C49.944 194.667 46.2773 193.5 42.7773 186C40.5297 181.184 40.2774 178.5 40.7774 176.5C41.1774 174.9 40.7773 175.5 39.7773 174C38.7773 172.5 39.2773 170.5 37.2773 169Z" fill="url(#paint0_linear)"/>
<defs>
<linearGradient id="paint0_linear" x1="39.6387" y1="165" x2="39.6387" y2="214" gradientUnits="userSpaceOnUse">
<stop offset="0.510417" stop-color="#C4C4C4"/>
<stop offset="1" stop-color="#C4C4C4" stop-opacity="0"/>
</linearGradient>
</defs>
</svg>
