<svg width="39" height="42" viewBox="0 0 39 42" fill="none" xmlns="http://www.w3.org/2000/svg">
<rect x="0.5" y="0.500008" width="38" height="27" rx="5" fill="url(#paint0_linear)"/>
<rect x="0.5" y="4.50001" width="38" height="31" rx="5" fill="url(#paint1_linear)"/>
<path d="M20.6761 39.1727L20.6761 36.6342L20.6726 32.56L27.2463 32.56C27.5263 32.5598 27.8018 32.489 28.0472 32.3543C28.2927 32.2195 28.5002 32.025 28.6507 31.7888C28.8011 31.5526 28.8896 31.2823 28.908 31.0029C28.9264 30.7235 28.8741 30.4439 28.756 30.1901L22.0208 15.7851C21.7519 15.2119 21.3254 14.7271 20.791 14.3875C20.2567 14.0479 19.6367 13.8674 19.0036 13.8673C18.3704 13.8672 17.7504 14.0474 17.2159 14.3868C16.6815 14.7262 16.2547 15.2108 15.9856 15.7839L9.26104 30.1995C9.14238 30.4532 9.08957 30.7327 9.10749 31.0122C9.12541 31.2918 9.21348 31.5623 9.36357 31.7987C9.42931 31.901 9.50597 31.9959 9.59221 32.0816C9.90481 32.394 10.3287 32.5695 10.7707 32.5695L17.3468 32.56L17.3468 36.6306L17.3468 39.1691C17.3544 39.6061 17.5333 40.0226 17.845 40.3289C18.1567 40.6352 18.5762 40.8068 19.0132 40.8068C19.4502 40.8068 19.8698 40.6352 20.1815 40.3289C20.4931 40.0226 20.672 39.6061 20.6796 39.1691L20.6761 39.1727ZM13.3941 29.2319L19.0109 17.1946L24.6277 29.2319L13.3941 29.2319Z" fill="white"/>
<defs>
<linearGradient id="paint0_linear" x1="19.5" y1="0.500008" x2="19.5" y2="27.5" gradientUnits="userSpaceOnUse">
<stop stop-color="#20B47F"/>
<stop offset="1" stop-color="#20B47F" stop-opacity="0"/>
</linearGradient>
<linearGradient id="paint1_linear" x1="18" y1="43.5" x2="18" y2="20.5" gradientUnits="userSpaceOnUse">
<stop stop-color="#0066FF" stop-opacity="0.82"/>
<stop offset="1" stop-color="#20B47F"/>
</linearGradient>
</defs>
</svg>
