<svg width="461" height="378" viewBox="0 0 461 378" fill="none" xmlns="http://www.w3.org/2000/svg">
<path fill-rule="evenodd" clip-rule="evenodd" d="M377.613 276.793C348.768 308.906 320.441 340.443 302.342 378H0V141.622C426.149 -123.748 510.19 94.982 437.802 203.025C419.977 229.629 398.657 253.365 377.613 276.793Z" fill="url(#paint0_linear)"/>
<path fill-rule="evenodd" clip-rule="evenodd" d="M397 174.238C339.153 228.61 275.566 292.664 259.957 378H0V118.423C391.287 -117.471 483.352 93.072 397 174.238Z" fill="#6E75E0"/>
<path fill-rule="evenodd" clip-rule="evenodd" d="M355.613 261.406C322.916 297.808 290.884 333.469 273.661 378H0V112.78C407.034 -131.535 486.927 81.4802 415.802 187.638C397.977 214.242 376.657 237.977 355.613 261.406Z" fill="url(#paint1_linear)"/>
<defs>
<linearGradient id="paint0_linear" x1="207.536" y1="11.3789" x2="207.536" y2="447.387" gradientUnits="userSpaceOnUse">
<stop stop-color="#A3D9F6"/>
<stop offset="1" stop-color="#A3D9F6" stop-opacity="0"/>
</linearGradient>
<linearGradient id="paint1_linear" x1="185.536" y1="-4.0084" x2="185.536" y2="432" gradientUnits="userSpaceOnUse">
<stop stop-color="#A3D9F6"/>
<stop offset="1" stop-color="#A3D9F6" stop-opacity="0"/>
</linearGradient>
</defs>
</svg>
