<svg width="965" height="934" viewBox="0 0 965 934" fill="none" xmlns="http://www.w3.org/2000/svg">
<path d="M90.4962 258.625C106.191 191.504 264.71 59.8661 342.971 3.00001H364.917H625.602L883.102 3C948.602 2.99999 384.495 239.607 480.959 368.255C577.423 496.903 439.464 570.177 439.464 570.177C429.338 578.008 376.18 634.501 439.464 680.926C502.748 727.351 581.005 868.247 600.838 889L113.542 883.969C121.136 874.125 407.822 748.047 293.638 658.552C179.455 569.058 104.691 465.863 181.897 427.545C382.508 327.983 70.8781 342.526 90.4962 258.625Z" fill="url(#paint0_linear)"/>
<path d="M166.496 255.625C182.191 188.504 340.71 56.8661 418.971 1.23978e-05H440.917H701.602L959.102 0C1024.6 -1.33514e-05 460.495 236.607 556.959 365.255C653.423 493.903 515.464 567.177 515.464 567.177C505.338 575.008 452.18 631.501 515.464 677.926C578.748 724.351 657.005 865.247 676.838 886L189.542 880.969C197.136 871.125 483.822 745.047 369.638 655.552C255.455 566.058 180.691 462.863 257.897 424.545C458.508 324.983 146.878 339.526 166.496 255.625Z" fill="url(#paint1_linear)"/>
<path d="M407.912 640H183.409C164.747 640 148.725 629.247 148.725 615.941V417.601C148.725 404.295 164.747 396.382 183.409 396.382H408.006C426.667 396.382 441.747 405.43 441.747 418.737V615.941C441.653 629.18 426.573 640 407.912 640Z" fill="white" stroke="url(#paint2_linear)" stroke-width="2" stroke-miterlimit="10"/>
<path d="M415.176 408.082L432.518 432.865" stroke="white" stroke-width="4" stroke-miterlimit="10"/>
<path d="M432.518 407.95L414.422 431.81" stroke="white" stroke-width="4" stroke-miterlimit="10"/>
<path d="M333.838 420.474H359.285" stroke="white" stroke-width="4" stroke-miterlimit="10"/>
<path d="M437.907 443.938H152.387C149.76 443.938 147.602 440.906 147.602 437.215V398.723C147.602 395.032 149.76 392 152.387 392H437.813C440.441 392 442.599 395.032 442.599 398.723V437.083C442.692 440.906 440.534 443.938 437.907 443.938Z" fill="#2064B4"/>
<line y1="-1.5" x2="26.892" y2="-1.5" transform="matrix(0.779238 -0.626729 0.658684 0.752419 405.583 427.005)" stroke="white" stroke-width="3"/>
<line y1="-1.5" x2="26.892" y2="-1.5" transform="matrix(0.779238 0.626729 -0.658684 0.752419 403.977 410.151)" stroke="white" stroke-width="3"/>
<path d="M378.328 415.86H359.615V431.81H378.328V415.86Z" stroke="white" stroke-width="3" stroke-miterlimit="10"/>
<path d="M386.581 406.632H367.868V422.583H386.581V406.632Z" stroke="white" stroke-width="3" stroke-miterlimit="10"/>
<line x1="317.076" y1="418.851" x2="344.971" y2="418.851" stroke="white" stroke-width="2"/>
<g filter="url(#filter0_d)">
<path d="M231.293 735H44.6423C29.1337 735 16.6016 717.875 16.6016 696.683V563.645C16.6016 542.453 29.1337 528.489 44.6423 528.489H137.968H231.293C246.802 528.489 260.227 521.114 258.442 563.645C258.442 563.645 258.442 675.491 258.442 696.683C258.442 717.875 246.802 735 231.293 735Z" fill="white" stroke="url(#paint3_linear)" stroke-width="2" stroke-miterlimit="10"/>
<path d="M254.121 570H22.0822C19.0717 570 16.6016 566.684 16.6016 562.643V534.357C16.6016 530.316 19.0717 527 22.0822 527H254.121C257.131 527 259.602 530.316 259.602 534.357V562.643C259.602 566.788 257.131 570 254.121 570Z" fill="#2064B4"/>
<path d="M233.675 538.776L250.642 558.549" stroke="white" stroke-width="2" stroke-miterlimit="10"/>
<path d="M250.643 538.671L232.938 557.603" stroke="white" stroke-width="2" stroke-miterlimit="10"/>
<path d="M154.094 548.663H178.992" stroke="white" stroke-width="2" stroke-miterlimit="10"/>
<path d="M216.062 537.619H201.216V550.345H216.062V537.619Z" stroke="white" stroke-width="2" stroke-miterlimit="10"/>
<path d="M209.514 544.981H194.668V557.708H209.514V544.981Z" stroke="white" stroke-width="2" stroke-miterlimit="10"/>
<g filter="url(#filter1_d)">
<path d="M66.6016 589H208.602" stroke="#2064B4" stroke-width="5" stroke-miterlimit="10"/>
</g>
<path d="M205.602 475H385.602" stroke="#2064B4" stroke-width="5" stroke-miterlimit="10"/>
<g filter="url(#filter2_d)">
<path d="M66.6016 617H209.602" stroke="#2064B4" stroke-width="5" stroke-miterlimit="10"/>
</g>
<path d="M205.602 515H386.602" stroke="#2064B4" stroke-width="5" stroke-miterlimit="10"/>
<g filter="url(#filter3_d)">
<path d="M79.6016 647H188.602" stroke="#2064B4" stroke-width="5" stroke-miterlimit="10"/>
</g>
<path d="M221.602 558H359.602" stroke="#2064B4" stroke-width="5" stroke-miterlimit="10"/>
</g>
<g filter="url(#filter4_d)">
<circle cx="407.037" cy="113.437" r="26.2944" fill="white"/>
</g>
<path d="M544.935 198.494C542.059 207.832 534.912 215.415 524.367 221.113C513.82 226.813 499.903 230.609 483.565 232.376C450.89 235.91 408.632 231.318 364.546 217.741C320.461 204.164 282.941 184.186 257.916 162.882C245.403 152.23 236.032 141.262 230.519 130.616C225.007 119.972 223.365 109.683 226.241 100.345C229.117 91.0063 236.263 83.4239 246.808 77.7256C257.355 72.0259 271.272 68.2298 287.611 66.4628C320.285 62.9288 362.544 67.5206 406.629 81.0977C450.714 94.6748 488.234 114.653 513.259 135.957C525.773 146.609 535.143 157.577 540.656 168.223C546.168 178.866 547.811 189.156 544.935 198.494Z" stroke="white"/>
<path d="M500.256 174.212C498.331 180.461 493.653 185.576 486.766 189.463C479.876 193.351 470.8 195.992 460.152 197.289C438.856 199.883 411.362 197.091 382.732 188.273C354.101 179.456 329.801 166.297 313.654 152.172C305.58 145.108 299.563 137.819 296.054 130.728C292.546 123.641 291.557 116.779 293.481 110.53C295.406 104.281 300.084 99.1654 306.971 95.2792C313.861 91.3911 322.937 88.75 333.585 87.4528C354.881 84.8587 382.375 87.6513 411.005 96.4687C439.636 105.286 463.936 118.445 480.083 132.57C488.157 139.634 494.174 146.923 497.683 154.013C501.191 161.101 502.18 167.962 500.256 174.212Z" stroke="white"/>
<path d="M537.797 192.058C535.389 199.878 529.161 206.169 519.86 210.824C510.557 215.48 498.219 218.477 483.688 219.721C454.628 222.209 416.9 217.677 377.405 205.513C337.91 193.35 304.169 175.872 281.544 157.467C270.23 148.263 261.717 138.844 256.645 129.761C251.574 120.679 249.964 111.975 252.373 104.155C254.781 96.3344 261.009 90.044 270.31 85.3889C279.613 80.733 291.951 77.7355 306.482 76.4914C335.542 74.0033 373.27 78.5361 412.765 90.6996C452.26 102.863 486.001 120.341 508.626 138.746C519.94 147.95 528.453 157.369 533.525 166.452C538.596 175.534 540.206 184.238 537.797 192.058Z" stroke="white"/>
<g filter="url(#filter5_f)">
<circle cx="356.552" cy="74.5209" r="10.5178" fill="#FFDA7B"/>
</g>
<path d="M461.089 153.82C459.905 157.666 457.022 160.827 452.75 163.238C448.474 165.651 442.832 167.295 436.196 168.104C422.926 169.72 405.781 167.981 387.917 162.479C370.053 156.978 354.9 148.77 344.839 139.968C339.807 135.567 336.067 131.033 333.89 126.633C331.714 122.236 331.11 118 332.294 114.155C333.479 110.31 336.361 107.148 340.633 104.737C344.909 102.325 350.551 100.68 357.187 99.8719C370.457 98.2554 387.603 99.9948 405.466 105.496C423.33 110.998 438.483 119.206 448.545 128.008C453.576 132.409 457.316 136.943 459.493 141.343C461.669 145.74 462.273 149.975 461.089 153.82Z" stroke="white"/>
<path d="M266.337 273.287L267.576 274.673L269.277 273.924L268.341 275.53L269.58 276.917L267.763 276.523L266.827 278.13L266.64 276.28L264.823 275.886L266.524 275.137L266.337 273.287Z" fill="white"/>
<g filter="url(#filter6_f)">
<circle cx="456.471" cy="196.527" r="5.25889" fill="#FF6464"/>
</g>
<ellipse rx="270.253" ry="56.7586" transform="matrix(0.999553 0.029904 -0.0431853 0.999067 272.584 868.873)" fill="url(#paint4_angular)"/>
<ellipse rx="223.324" ry="35.5339" transform="matrix(0.999553 0.029904 -0.0431853 0.999067 272.958 857.582)" fill="white"/>
<path d="M471.722 865.539C395.994 899.196 97.5924 879.042 81.5124 858.177C85.6651 856.018 98.4351 848.328 102.548 846.335L98.8307 828.417C96.3034 819.926 93.7959 811.488 95.1855 810.847C99.061 809.061 107.651 818.802 111.488 817.158C112.914 816.547 117.171 821.091 121.388 825.577L130.946 833.705C157.391 822.998 182.879 815.611 207.2 810.913C213.353 809.724 219.431 808.707 225.431 807.853C231.892 806.932 238.262 806.2 244.538 805.642C273.523 803.066 300.483 804.222 324.999 807.853L342.879 789.285C342.879 789.285 350.685 793.008 354.975 794.019L363.915 816.088C406.504 827.926 453.121 849.584 471.722 865.539Z" fill="#8C9FFF"/>
<path d="M98.8673 811.373C98.1661 813.827 98.4466 818.946 105.178 819.787C109.666 820.348 111.286 820.317 111.66 820.13L111.489 819.787C111.722 819.904 111.847 820.037 111.66 820.13L119.377 835.564C119.903 836.791 121.165 839.035 122.006 838.193C122.848 837.352 120.604 831.181 119.377 828.201L129.369 839.771C131.297 840.122 134.838 840.297 133.576 838.193C138.134 839.42 142.832 843.031 125.162 847.659C103.074 853.444 92.5566 851.866 96.2378 849.763C99.1828 848.08 101.672 846.608 102.548 846.082L94.6602 811.373C95.5366 811.022 97.6051 810.532 98.8673 811.373Z" fill="url(#paint5_linear)"/>
<path d="M354.449 807.166L351.294 792.967L355.501 794.019L363.389 816.632L372.855 829.779L351.294 816.632L347.087 801.381L351.294 805.588L354.449 807.166Z" fill="#C4C4C4"/>
<path d="M372.278 882.486C398.363 877.604 377.106 833.564 361.812 815.58C404.724 826.519 458.049 850.289 471.722 865.539C435.277 885.51 395.829 880.359 372.278 882.486C371.157 882.696 369.948 882.834 368.648 882.894C369.811 882.734 371.022 882.6 372.278 882.486Z" fill="url(#paint6_linear)"/>
<path d="M269.255 882.894C323.527 861.017 275.565 821.809 246.642 805.507C279.036 801.72 312.027 805.588 321.844 807.692C347.928 823.258 344.632 865.014 336.569 883.42C316.585 883.42 280.649 884.121 269.255 882.894Z" fill="url(#paint7_linear)"/>
<path d="M333.309 770.798L326.577 835.798H329.943L340.776 772.27L333.309 770.798Z" fill="#939393"/>
<path d="M384.425 773.007L402.936 844.422L406.091 843.265L392.103 771.955L384.425 773.007Z" fill="#939393"/>
<path d="M397.467 695.701C398.203 696.648 398.729 697.804 398.834 699.067C400.307 708.953 407.038 758.808 396.52 770.482C386.213 781.842 339.093 780.369 327.524 779.843C324.999 779.738 322.58 778.266 321.529 775.952C320.792 774.479 320.582 772.586 321.739 770.482C324.684 765.013 366.44 749.026 375.695 738.824C384.53 728.937 385.792 680.976 397.467 695.701Z" fill="#2064B4"/>
<path d="M377.064 769.478C388.254 762.713 371.271 755.697 361.38 753.034C315.941 751.531 315.602 764.936 321.112 771.827C335.1 773.863 365.873 776.244 377.064 769.478Z" fill="#42B0FF"/>
<path d="M384.424 770.798C391.576 765.749 394.416 717.157 394.942 693.492C404.934 696.122 405.51 755.021 398.623 768.168C393.364 778.208 368.998 779.563 357.078 779.738C363.213 778.861 377.272 775.846 384.424 770.798Z" fill="#42B0FF"/>
<path d="M318.899 646.793C323.139 646.793 326.577 643.356 326.577 639.115C326.577 634.875 323.139 631.437 318.899 631.437C314.658 631.437 311.221 634.875 311.221 639.115C311.221 643.356 314.658 646.793 318.899 646.793Z" fill="#6057C0"/>
<path d="M343.089 635.224C343.089 635.224 342.353 630.596 333.939 631.648C325.525 632.699 326.366 634.067 318.793 636.275C314.691 637.538 311.115 648.16 332.992 644.795C332.992 644.795 336.358 652.683 338.251 652.368C340.144 652.052 339.934 659.94 339.934 659.94L344.562 658.468C344.562 658.468 345.298 652.683 348.348 650.895C351.398 649.107 350.347 632.384 343.089 635.224Z" fill="#6057C0"/>
<path d="M339.198 649.515C348.138 633.541 331.835 635.118 331.31 635.118C341.301 632.291 343.405 633.366 343.405 635.119C350.767 632.489 352.345 649.515 349.716 650.567C347.612 651.408 346.034 656.176 345.509 658.455L342.879 659.507C340.951 658.631 336.206 654.861 339.198 649.515Z" fill="#0B0A54"/>
<path d="M323.947 644.795L318.162 646.688C318.478 654.366 317.216 659.835 320.686 664.042C324.262 668.249 323.947 668.249 330.783 666.146L334.044 677.715L347.507 667.513C347.507 667.513 342.563 661.728 341.617 659.73C341.617 659.73 340.775 656.154 342.143 655.838C345.719 655.102 344.562 642.06 337.936 649.843L335.201 644.795C333.308 639.957 326.366 643.638 323.947 644.795Z" fill="#FFBC85"/>
<path d="M336.568 661.939L330.783 666.146L331.835 669.827C331.835 669.827 333.939 669.827 334.99 667.724C336.042 665.62 336.568 661.939 336.568 661.939Z" fill="#F07B61"/>
<path d="M327.207 646.057C330.46 646.057 333.097 643.42 333.097 640.167C333.097 636.914 330.46 634.277 327.207 634.277C323.954 634.277 321.317 636.914 321.317 640.167C321.317 643.42 323.954 646.057 327.207 646.057Z" fill="#6057C0"/>
<path d="M342.771 649.534C341.384 648.334 340.604 648.534 339.737 650.535C339.737 652.035 341.037 652.035 339.737 655.037C339.544 655.484 341.471 653.536 341.037 652.536C340.691 651.735 341.471 651.869 342.337 652.035C343.204 652.035 342.771 649.868 342.771 649.534Z" fill="#F07B61"/>
<path d="M341.827 652.999C341.406 653.7 340.397 655.102 339.724 655.102" stroke="#F07B61" stroke-width="0.5"/>
<path d="M297.548 700.539L301.019 689.285C301.019 689.285 316.164 693.702 322.791 698.015C329.417 702.327 335.412 707.901 335.412 707.901L320.582 717.578C320.582 717.578 301.019 704.641 297.548 700.539Z" fill="#C4C4C4"/>
<path d="M304.805 694.439C305.015 693.913 303.543 677.821 292.709 679.083C292.709 679.083 286.609 680.345 287.766 682.554C288.923 684.657 290.816 690.547 290.816 690.547L300.598 699.382C300.598 699.382 303.858 697.173 304.805 694.439Z" fill="#FFBC85"/>
<path d="M297.442 676.348H282.401V693.177H297.442V676.348Z" fill="#E2E2E2"/>
<path d="M299.23 718.314C298.809 717.788 287.345 702.958 277.458 709.164C277.458 709.164 272.199 713.16 274.724 714.528C277.248 715.895 282.612 720.313 282.612 720.313L297.652 723.783C297.547 723.783 301.544 720.838 299.23 718.314Z" fill="#FFBC85"/>
<path d="M370.541 734.932H345.666H320.792C322.685 733.88 323.631 732.408 326.576 730.094C315.322 729.042 296.18 728.622 296.18 728.622L294.182 710.847C294.182 710.847 311.852 707.691 326.576 707.165C330.047 708.217 331.94 687.497 331.835 685.078C331.835 672.036 339.934 659.415 354.554 669.301C374.432 682.869 370.541 734.932 370.541 734.932Z" fill="#E2E2E2"/>
<path d="M289.974 678.241C294.156 678.241 297.547 677.394 297.547 676.348C297.547 675.303 294.156 674.455 289.974 674.455C285.792 674.455 282.401 675.303 282.401 676.348C282.401 677.394 285.792 678.241 289.974 678.241Z" fill="#E2E2E2"/>
<path d="M289.974 678.136C293.227 678.136 295.864 677.477 295.864 676.664C295.864 675.85 293.227 675.191 289.974 675.191C286.721 675.191 284.084 675.85 284.084 676.664C284.084 677.477 286.721 678.136 289.974 678.136Z" fill="#939393"/>
<path d="M289.974 695.07C294.156 695.07 297.547 694.222 297.547 693.177C297.547 692.131 294.156 691.283 289.974 691.283C285.792 691.283 282.401 692.131 282.401 693.177C282.401 694.222 285.792 695.07 289.974 695.07Z" fill="#E2E2E2"/>
<path d="M311.326 815.709L319.635 848.945H267.677L281.245 831.591L284.19 818.443L311.326 815.709Z" fill="#272D33"/>
<path d="M320.266 822.125L320.897 855.361H276.617L291.132 838.006L291.973 824.964L320.266 822.125Z" fill="#3D4B65"/>
<path d="M367.911 755.021C366.018 774.058 327.943 767.327 314.691 766.38C310.589 766.065 307.223 769.851 307.854 774.058L316.058 829.697H281.665V751.13C281.665 749.973 281.77 748.816 282.086 747.659C283.769 740.927 289.869 734.722 296.18 734.722L350.872 734.196L367.806 734.722C367.911 735.143 368.857 745.24 367.911 755.021Z" fill="#36818E"/>
<path d="M370.435 755.231C368.647 775.005 349.294 768.274 324.998 768.484C321.107 768.484 318.582 769.956 320.37 774.269V833.063L291.341 832.853L290.079 751.235C290.079 749.973 290.184 748.816 290.5 747.553C292.077 740.507 297.757 734.196 303.647 734.196L354.448 733.986H370.75C370.75 734.406 371.382 745.134 370.435 755.231Z" fill="#4DBED8"/>
<path d="M305.703 838.638C310.751 837.796 310.449 834.08 310.274 832.853H320.792L320.953 855.466H295.185C300.444 855.466 318.162 844.948 312.378 844.422C307.75 844.002 304.826 839.163 305.703 838.638Z" fill="#32345A"/>
<path d="M370.646 755.652C368.858 775.426 349.505 768.694 325.209 768.905C321.318 768.905 318.793 770.377 320.581 774.689L320.792 832.853H310.274L315.007 807.61C315.007 784.471 306.593 755.652 306.593 755.652C306.593 755.652 314.691 765.539 320.581 765.539C320.581 765.539 346.034 769.746 358.656 762.384C371.277 755.021 370.751 733.986 370.751 733.986C370.751 734.406 371.593 745.555 370.646 755.652Z" fill="#36789D"/>
<path d="M357.604 686.656C357.604 682.028 350.592 671.405 347.086 666.672C369.174 669.301 372.68 713.827 370.751 733.986H348.664C349.014 732.233 350.031 728.411 349.19 727.149C348.348 725.887 336.919 727.675 331.31 728.727C335.692 727.5 344.983 724.835 347.086 723.994C349.716 722.942 352.345 704.01 353.923 701.38C355.185 699.277 352.345 695.07 348.664 691.914C352.03 690.652 353.748 693.492 355.5 696.122L356.552 695.07C356.552 695.771 356.818 693.497 355.5 690.863C351.293 682.448 340.25 679.819 344.983 679.293C348.769 678.872 355.676 684.026 357.604 686.656Z" fill="#C4C4C4"/>
<path d="M291.342 679.293C295.47 678.884 297.424 677.19 297.424 677.19C297.424 677.19 297.837 692.72 297.424 693.537C296.855 694.664 293.124 694.9 291.232 695.07C289.34 695.24 292.264 691.914 292.264 691.914C296.571 682.884 290.31 679.293 291.342 679.293Z" fill="#C4C4C4"/>
<path d="M138.309 772.165L131.577 836.008H134.943L145.776 773.638L138.309 772.165Z" fill="#939393"/>
<path d="M189.53 774.374L207.936 844.422L211.092 843.265L197.103 773.322L189.53 774.374Z" fill="#939393"/>
<path d="M136.31 694.439C135.048 695.701 133.891 697.91 133.576 699.593C131.998 710.426 128.001 760.701 138.203 772.165C148.3 783.524 192.37 780.054 203.729 779.528C206.253 779.422 209.198 777.845 210.25 775.531C210.986 774.058 211.407 768.484 210.25 766.275C207.41 760.806 149.878 765.223 153.77 752.181C174.805 682.028 146.828 683.816 136.31 694.439Z" fill="#2064B4"/>
<path d="M175.12 780.79C144.093 780.79 134.12 773.396 132.638 759.89C131.211 746.885 128.278 714.654 132.995 698.866C134.548 693.669 137.49 691.978 141.201 690.863C135.679 698.225 136.92 729.378 136.92 729.378C137.051 743.295 137.311 752.258 139.763 758.765C140.552 760.556 141.496 762.323 142.622 764.032C147.608 770.659 157.063 774.578 175.12 780.79Z" fill="#42B0FF"/>
<path d="M202.571 777.845L164.602 775.531C159.974 775.531 151.455 769.641 151.455 765.013C151.455 760.385 152.928 761.016 157.555 761.016H202.466C207.094 761.016 210.881 764.803 210.881 769.43C210.986 774.058 207.199 777.845 202.571 777.845Z" fill="#2064B4"/>
<path d="M151.561 720.944C150.193 733.249 148.616 770.693 181.747 765.854C181.957 765.854 182.062 765.854 182.273 765.854H198.996C200.258 765.854 193.211 765.223 193.947 764.066L207.936 743.346C209.829 740.507 208.041 736.51 204.781 736.405C202.572 736.3 200.048 737.036 200.048 734.722L192.159 721.364C192.159 718.945 199.101 717.157 196.892 717.157H155.558C153.454 717.157 151.771 718.735 151.561 720.944Z" fill="#E2E2E2"/>
<path d="M184.415 741.129C176.502 747.751 177.029 762.004 201.084 765.917H215.961C215.961 765.917 219.97 769.823 219.653 775.541C219.337 781.26 221.925 823.387 221.925 823.387H238.227L239.805 750.459C239.805 750.459 238.961 738.52 228.094 738.721H191.062C188.529 738.821 186.208 739.624 184.415 741.129Z" fill="#36818E"/>
<path d="M212.459 823.387L205.833 846.21H247.168L236.65 828.961V823.387H212.459Z" fill="#272D33"/>
<path d="M205.937 819.495L202.361 852.731H240.12L232.021 835.377L231.496 819.18L205.937 819.495Z" fill="#3D4B65"/>
<path d="M212.984 832.327C212.143 831.065 216.49 829.347 218.769 828.646H204.57L201.94 852.837H228.235C221.749 848.805 210.039 840.636 215.088 840.215C221.398 839.689 223.502 835.482 221.924 835.482C220.347 835.482 214.036 833.905 212.984 832.327Z" fill="#32345A"/>
<path d="M175.541 768.063L205.412 770.167C205.412 770.167 209.093 767.748 208.883 773.953C208.567 780.159 204.57 828.751 204.57 828.751H231.764L236.124 758.282C236.124 758.282 234.125 744.188 224.028 744.503L202.467 743.444V735.009L150.404 734.827C151.14 738.403 144.724 767.222 175.541 768.063Z" fill="#4DBED8"/>
<path d="M179.888 737.486C180.425 733.508 182.037 734.005 182.037 734.005H202.993V743.452C202.993 743.452 192.783 742.954 189.022 742.457C185.261 741.96 179.35 741.463 179.888 737.486Z" fill="#36818E"/>
<path d="M173.544 665.725C174.175 665.41 167.338 666.672 157.767 671.51C155.966 672.429 153.41 672.604 151.456 675.086C147.821 679.705 144.889 689.911 143.042 710.846C142.201 720.418 142.937 727.149 170.178 727.675C197.419 728.306 209.83 727.675 209.83 727.675C209.83 727.675 213.827 687.392 203.624 673.088C201.731 670.458 196.052 668.355 193.422 668.039C176.173 665.83 173.544 665.725 173.544 665.725Z" fill="#E2E2E2"/>
<path d="M186.691 675.086C186.484 663.517 195.631 669.301 200.89 670.879C209.304 675.086 212.459 705.588 212.985 720.312H198.786C201.731 717.788 186.866 684.903 186.691 675.086Z" fill="#C4C4C4"/>
<path d="M186.691 734.511C186.691 734.511 168.285 734.511 150.404 735.037V725.045C161.448 725.045 161.974 726.308 164.077 720.838L161.448 711.898C160.221 707.691 162.5 703.484 164.603 695.596C164.304 701.053 164.719 708.915 166.567 716.105C166.984 717.729 168.046 720.838 168.046 720.838C199.312 718.209 186.691 734.511 186.691 734.511Z" fill="#C4C4C4"/>
<path d="M196.157 640.377L198.05 647.109C197.735 654.576 198.576 662.044 195.105 666.146C191.529 670.248 189.951 669.617 189.005 669.617L185.113 678.767L171.545 669.407C171.545 669.407 175.858 663.201 174.596 661.097C174.596 661.097 174.28 660.361 172.913 660.046C169.337 659.309 165.866 645.847 177.33 652.263L177.015 641.64L196.157 640.377Z" fill="#FFBC85"/>
<path d="M183.536 667.198L189.321 669.504L186.165 676.138C184.32 671.137 182.1 671.233 183.536 667.198Z" fill="#F07B61"/>
<path d="M170.915 652.999C172.598 651.737 173.544 651.947 174.596 654.05C174.596 655.628 173.018 655.628 174.596 658.784C174.831 659.254 172.492 657.206 173.018 656.154C173.439 655.313 172.492 655.453 171.441 655.628C170.389 655.628 170.915 653.349 170.915 652.999Z" fill="#F07B61"/>
<path d="M171.44 656.68C171.966 657.556 173.228 659.309 174.07 659.309" stroke="#F07B61" stroke-width="0.5"/>
<path d="M178.277 644.374C178.277 644.374 188.9 647.004 192.792 645.005C192.792 645.005 197.42 647.214 198.787 643.953C198.787 643.953 202.784 636.696 189.531 637.327C189.531 637.327 185.009 636.065 181.538 634.487C178.067 632.805 173.649 636.065 174.07 637.748C174.07 637.748 160.397 637.117 168.601 651.211L169.547 652.473C169.547 652.473 171.125 650.685 173.018 650.895C173.018 650.895 175.332 650.685 175.543 653.63C175.543 653.63 177.962 654.471 177.856 650.58C177.751 646.688 178.277 644.374 178.277 644.374Z" fill="#6057C0"/>
<path d="M176.594 643.533C179.905 643.533 182.589 641.037 182.589 637.958C182.589 634.88 179.905 632.384 176.594 632.384C173.283 632.384 170.599 634.88 170.599 637.958C170.599 641.037 173.283 643.533 176.594 643.533Z" fill="#6057C0"/>
<path d="M178.277 644.585C177.015 643.743 177.05 640.903 177.226 639.852C178.277 640.903 180.548 642.827 181.959 643.533C183.01 644.059 195.32 645.403 195.632 643.533C196.158 640.377 198.415 640.006 198.787 640.377C199.313 640.903 199.839 641.429 198.787 644.059C197.735 646.688 194.229 645.636 192.476 645.11C189.321 647.214 179.855 645.636 178.277 644.585Z" fill="#0B0A54"/>
<path d="M156.189 721.364C153.244 714.633 157.416 712.599 159.87 712.95L164.077 720.312C163.025 723.468 159.134 728.096 156.189 721.364Z" fill="#C4C4C4"/>
<path d="M158.924 713.266C159.45 712.95 174.07 702.012 181.432 710.846C181.432 710.846 185.114 716.211 182.484 716.736C179.855 717.368 173.649 719.997 173.649 719.997L158.924 718.945C158.924 719.05 156.084 715.054 158.924 713.266Z" fill="#FFBC85"/>
<path d="M174.069 634.067C173.543 635.294 172.702 638.063 173.543 639.326C174.487 640.741 170.348 640.463 169.489 641.151C169.429 641.252 169.378 641.345 169.336 641.429C169.336 641.321 169.391 641.23 169.489 641.151C169.933 640.413 170.854 639.326 171.965 639.326C173.543 639.326 170.388 636.17 174.069 634.067Z" fill="#0B0A54"/>
<path d="M173.568 648.792C170.746 648.792 168.284 643.708 167.232 640.377C163.551 642.481 168.835 655.102 169.361 653.525C169.781 652.262 171.289 651.246 171.99 650.895C176.172 651.421 174.62 652.473 175.671 653.525C176.723 654.576 177.775 653.525 177.775 652.473C177.775 651.631 177.75 650.369 177.75 648.266C177.224 649.142 176.172 648.792 173.568 648.792Z" fill="#0B0A54"/>
<path d="M150.362 693.956C145.698 691.224 150.522 679.537 152.466 674.034C145.34 677.449 144.288 700.217 142.345 711.032C140.79 719.684 146.141 723.804 148.3 723.994C144.672 721.717 145.556 712.74 146.635 709.325L148.419 700.217C151.01 699.269 155.027 696.688 150.362 693.956Z" fill="#C4C4C4"/>
<path d="M162.499 690.337C161.048 683.5 156.889 681.046 154.085 679.293C174.068 686.13 160.921 702.432 161.447 711.372C161.558 713.265 156.188 708.217 154.61 708.217C153.28 708.217 150.579 709.269 147.248 710.321C147.423 709.444 148.51 707.376 151.455 706.114C154.4 704.851 157.24 708.217 159.343 707.165C162.499 704.01 161.447 697.91 161.447 696.648C161.447 695.07 153.033 686.13 156.188 687.182C158.712 688.023 161.272 689.11 162.499 690.337Z" fill="#C4C4C4"/>
<path d="M217.191 763.435C214.246 767.643 203.693 769.395 199.837 769.746C205.622 771.324 209.303 772.901 208.777 774.479C211.406 774.479 220.872 758.177 217.191 763.435Z" fill="#36789D"/>
<path d="M211.933 816.024L208.252 782.367L204.57 828.646H218.769L211.933 816.024Z" fill="#36789D"/>
<path d="M330.573 727.78H165.97V734.722H330.573V727.78Z" fill="black"/>
<path d="M311.221 730.199L337.936 855.361" stroke="black" stroke-width="10" stroke-miterlimit="10"/>
<path d="M176.908 729.989L153.979 855.361" stroke="black" stroke-width="10" stroke-miterlimit="10"/>
<path d="M213.51 693.702H250.112L252.426 696.963L240.961 727.78H172.175L171.229 723.783H195.63L209.198 695.701L213.51 693.702Z" fill="white" stroke="#9B9B9B" stroke-miterlimit="10"/>
<path d="M209.931 696.092L213.602 694L208.358 696.092L194.724 723.815H170.602L171.65 728H196.297V725.908L209.931 696.092Z" fill="#9B9B9B"/>
<circle cx="538.074" cy="9.31065" r="2.10356" fill="white"/>
<circle cx="565.42" cy="85.0387" r="2.10356" fill="white"/>
<circle cx="590.662" cy="98.7118" r="2.10356" fill="white"/>
<circle cx="693.736" cy="21.932" r="2.10356" fill="white"/>
<circle cx="718.98" cy="35.6051" r="2.10356" fill="white"/>
<circle r="0.525889" transform="matrix(-1 0 0 1 528.082 18.2508)" fill="white"/>
<circle r="0.525889" transform="matrix(-1 0 0 1 553.324 31.9239)" fill="white"/>
<circle r="0.525889" transform="matrix(-1 0 0 1 545.962 9.83656)" fill="white"/>
<circle r="0.525889" transform="matrix(-1 0 0 1 571.205 23.5097)" fill="white"/>
<circle r="0.525889" transform="matrix(-1 0 0 1 543.859 11.9401)" fill="white"/>
<circle r="0.525889" transform="matrix(-1 0 0 1 569.101 25.6132)" fill="white"/>
<circle r="0.525889" transform="matrix(-1 0 0 1 528.082 8.78474)" fill="white"/>
<circle r="0.525889" transform="matrix(-1 0 0 1 553.324 22.4579)" fill="white"/>
<circle r="0.525889" transform="matrix(-1 0 0 1 515.46 20.3543)" fill="white"/>
<circle r="0.525889" transform="matrix(-1 0 0 1 540.703 34.0274)" fill="white"/>
<circle r="0.525889" transform="matrix(-1 0 0 1 566.998 19.3026)" fill="white"/>
<circle r="0.525889" transform="matrix(-1 0 0 1 566.998 25.6132)" fill="white"/>
<circle r="0.525889" transform="matrix(-1 0 0 1 562.791 22.4579)" fill="white"/>
<circle r="1.05178" transform="matrix(-1 0 0 1 539.126 4.05178)" fill="white"/>
<circle r="1.05178" transform="matrix(-1 0 0 1 547.54 10.3624)" fill="white"/>
<circle r="1.05178" transform="matrix(-1 0 0 1 643.251 10.3624)" fill="white"/>
<circle r="1.05178" transform="matrix(-1 0 0 1 542.28 59.796)" fill="white"/>
<circle r="1.05178" transform="matrix(-1 0 0 1 646.407 15.6213)" fill="white"/>
<circle r="1.05178" transform="matrix(-1 0 0 1 545.437 65.0549)" fill="white"/>
<circle cx="570.679" cy="22.9837" r="2.10356" fill="white"/>
<circle cx="598.025" cy="98.7118" r="2.10356" fill="white"/>
<circle cx="726.342" cy="35.6051" r="2.10356" fill="white"/>
<circle cx="469.708" cy="72.4173" r="2.10356" fill="white"/>
<circle cx="646.406" cy="9.31065" r="2.10356" fill="white"/>
<circle cx="545.436" cy="58.7442" r="2.10356" fill="white"/>
<circle r="0.525889" transform="matrix(-1 0 0 1 634.311 7.73298)" fill="white"/>
<circle r="0.525889" transform="matrix(-1 0 0 1 700.574 34.0274)" fill="white"/>
<circle r="0.525889" transform="matrix(-1 0 0 1 533.341 57.1666)" fill="white"/>
<circle r="0.525889" transform="matrix(-1 0 0 1 599.603 83.461)" fill="white"/>
<circle r="0.525889" transform="matrix(-1 0 0 1 673.227 8.78474)" fill="white"/>
<circle r="0.525889" transform="matrix(-1 0 0 1 739.49 35.0792)" fill="white"/>
<circle r="0.525889" transform="matrix(-1 0 0 1 572.256 58.2183)" fill="white"/>
<circle r="0.525889" transform="matrix(-1 0 0 1 541.755 71.8914)" fill="white"/>
<circle r="0.525889" transform="matrix(-1 0 0 1 536.496 77.1503)" fill="white"/>
<circle r="0.525889" transform="matrix(-1 0 0 1 505.995 90.8234)" fill="white"/>
<circle r="0.525889" transform="matrix(-1 0 0 1 638.519 84.5128)" fill="white"/>
<circle r="0.525889" transform="matrix(-1 0 0 1 608.017 98.1859)" fill="white"/>
<circle r="0.525889" transform="matrix(-1 0 0 1 602.757 103.445)" fill="white"/>
<circle r="0.525889" transform="matrix(-1 0 0 1 572.256 117.118)" fill="white"/>
<circle r="0.525889" transform="matrix(-1 0 0 1 669.02 11.9401)" fill="white"/>
<circle r="0.525889" transform="matrix(-1 0 0 1 638.519 25.6132)" fill="white"/>
<circle r="0.525889" transform="matrix(-1 0 0 1 633.259 30.8721)" fill="white"/>
<circle r="0.525889" transform="matrix(-1 0 0 1 602.757 44.5452)" fill="white"/>
<circle r="0.525889" transform="matrix(-1 0 0 1 735.282 38.2346)" fill="white"/>
<circle r="0.525889" transform="matrix(-1 0 0 1 704.781 51.9077)" fill="white"/>
<circle r="0.525889" transform="matrix(-1 0 0 1 699.521 57.1666)" fill="white"/>
<circle r="0.525889" transform="matrix(-1 0 0 1 669.02 70.8397)" fill="white"/>
<circle r="0.525889" transform="matrix(-1 0 0 1 568.049 61.3737)" fill="white"/>
<circle r="0.525889" transform="matrix(-1 0 0 1 537.548 75.0468)" fill="white"/>
<circle r="0.525889" transform="matrix(-1 0 0 1 532.289 80.3057)" fill="white"/>
<circle r="0.525889" transform="matrix(-1 0 0 1 501.787 93.9788)" fill="white"/>
<path d="M634.837 15.6213L635.782 18.5284H638.838L636.365 20.325L637.31 23.2321L634.837 21.4354L632.364 23.2321L633.309 20.325L630.836 18.5284H633.892L634.837 15.6213Z" fill="white"/>
<path d="M722.812 139.471L722.425 141.289L724.035 142.219L722.186 142.413L721.8 144.232L721.044 142.533L719.195 142.728L720.576 141.484L719.82 139.785L721.43 140.715L722.812 139.471Z" fill="white"/>
<path d="M519.502 88.2961L520.741 89.6826L522.442 88.933L521.506 90.5395L522.745 91.926L520.928 91.5324L519.992 93.1389L519.805 91.2891L517.988 90.8955L519.689 90.1459L519.502 88.2961Z" fill="white"/>
<g filter="url(#filter7_d)">
<circle cx="670.597" cy="275.41" r="32.6051" fill="#EDBF89"/>
</g>
<mask id="mask0" mask-type="alpha" maskUnits="userSpaceOnUse" x="633" y="236" width="78" height="78">
<circle cx="671.764" cy="275.163" r="31" transform="rotate(-17.1233 671.764 275.163)" fill="#85C2A9"/>
</mask>
<g mask="url(#mask0)">
<path d="M632.794 264.149C647.793 266.643 679.867 250.518 694.029 242.144L700.169 243.391C689.031 271.056 632.853 277.034 621.489 278.69C620.791 279.114 620.162 279.306 619.639 279.188C619.143 279.077 619.849 278.928 621.489 278.69C624.987 276.561 630.231 268.572 632.794 264.149Z" fill="#FA964E"/>
<path d="M641.613 285.969C655.693 284.19 687.103 267.199 701.048 258.926L706.797 258.337C694.552 277.795 640.888 293.874 630.005 297.401C629.317 297.816 628.709 298.072 628.219 298.116C627.755 298.157 628.435 297.91 630.005 297.401C633.452 295.321 638.913 289.253 641.613 285.969Z" fill="#FA964E"/>
<path d="M650.677 297.668C664.216 294.611 696.101 278.741 710.351 271.188L715.862 270.036C701.771 285.141 648.97 303.255 638.228 307.113C637.523 307.491 636.916 307.748 636.447 307.841C636.003 307.93 636.678 307.67 638.228 307.113C641.755 305.222 647.701 300.299 650.677 297.668Z" fill="#FA964E"/>
<path d="M682.734 305.758C705.977 275.159 678.905 253.086 662.464 245.874C667.997 242.509 695.588 241.116 701.686 267.164C706.564 288.002 691.084 301.576 682.734 305.758Z" fill="url(#paint8_linear)"/>
</g>
<circle r="0.525889" transform="matrix(-1 0 0 1 528.082 18.2508)" fill="white"/>
<circle r="0.525889" transform="matrix(-1 0 0 1 566.998 19.3026)" fill="white"/>
<circle r="0.525889" transform="matrix(-1 0 0 1 562.791 22.4579)" fill="white"/>
<defs>
<filter id="filter0_d" x="11.6016" y="472.5" width="379" height="271.5" filterUnits="userSpaceOnUse" color-interpolation-filters="sRGB">
<feFlood flood-opacity="0" result="BackgroundImageFix"/>
<feColorMatrix in="SourceAlpha" type="matrix" values="0 0 0 0 0 0 0 0 0 0 0 0 0 0 0 0 0 0 127 0"/>
<feOffset dy="4"/>
<feGaussianBlur stdDeviation="2"/>
<feColorMatrix type="matrix" values="0 0 0 0 0 0 0 0 0 0 0 0 0 0 0 0 0 0 0.25 0"/>
<feBlend mode="normal" in2="BackgroundImageFix" result="effect1_dropShadow"/>
<feBlend mode="normal" in="SourceGraphic" in2="effect1_dropShadow" result="shape"/>
</filter>
<filter id="filter1_d" x="62.6016" y="586.5" width="150" height="13" filterUnits="userSpaceOnUse" color-interpolation-filters="sRGB">
<feFlood flood-opacity="0" result="BackgroundImageFix"/>
<feColorMatrix in="SourceAlpha" type="matrix" values="0 0 0 0 0 0 0 0 0 0 0 0 0 0 0 0 0 0 127 0"/>
<feOffset dy="4"/>
<feGaussianBlur stdDeviation="2"/>
<feColorMatrix type="matrix" values="0 0 0 0 0 0 0 0 0 0 0 0 0 0 0 0 0 0 0.25 0"/>
<feBlend mode="normal" in2="BackgroundImageFix" result="effect1_dropShadow"/>
<feBlend mode="normal" in="SourceGraphic" in2="effect1_dropShadow" result="shape"/>
</filter>
<filter id="filter2_d" x="62.6016" y="614.5" width="151" height="13" filterUnits="userSpaceOnUse" color-interpolation-filters="sRGB">
<feFlood flood-opacity="0" result="BackgroundImageFix"/>
<feColorMatrix in="SourceAlpha" type="matrix" values="0 0 0 0 0 0 0 0 0 0 0 0 0 0 0 0 0 0 127 0"/>
<feOffset dy="4"/>
<feGaussianBlur stdDeviation="2"/>
<feColorMatrix type="matrix" values="0 0 0 0 0 0 0 0 0 0 0 0 0 0 0 0 0 0 0.25 0"/>
<feBlend mode="normal" in2="BackgroundImageFix" result="effect1_dropShadow"/>
<feBlend mode="normal" in="SourceGraphic" in2="effect1_dropShadow" result="shape"/>
</filter>
<filter id="filter3_d" x="75.6016" y="644.5" width="117" height="13" filterUnits="userSpaceOnUse" color-interpolation-filters="sRGB">
<feFlood flood-opacity="0" result="BackgroundImageFix"/>
<feColorMatrix in="SourceAlpha" type="matrix" values="0 0 0 0 0 0 0 0 0 0 0 0 0 0 0 0 0 0 127 0"/>
<feOffset dy="4"/>
<feGaussianBlur stdDeviation="2"/>
<feColorMatrix type="matrix" values="0 0 0 0 0 0 0 0 0 0 0 0 0 0 0 0 0 0 0.25 0"/>
<feBlend mode="normal" in2="BackgroundImageFix" result="effect1_dropShadow"/>
<feBlend mode="normal" in="SourceGraphic" in2="effect1_dropShadow" result="shape"/>
</filter>
<filter id="filter4_d" x="376.742" y="87.1422" width="60.5889" height="60.5889" filterUnits="userSpaceOnUse" color-interpolation-filters="sRGB">
<feFlood flood-opacity="0" result="BackgroundImageFix"/>
<feColorMatrix in="SourceAlpha" type="matrix" values="0 0 0 0 0 0 0 0 0 0 0 0 0 0 0 0 0 0 127 0"/>
<feOffset dy="4"/>
<feGaussianBlur stdDeviation="2"/>
<feColorMatrix type="matrix" values="0 0 0 0 0 0 0 0 0 0 0 0 0 0 0 0 0 0 0.25 0"/>
<feBlend mode="normal" in2="BackgroundImageFix" result="effect1_dropShadow"/>
<feBlend mode="normal" in="SourceGraphic" in2="effect1_dropShadow" result="shape"/>
</filter>
<filter id="filter5_f" x="342.034" y="60.0031" width="29.0356" height="29.0356" filterUnits="userSpaceOnUse" color-interpolation-filters="sRGB">
<feFlood flood-opacity="0" result="BackgroundImageFix"/>
<feBlend mode="normal" in="SourceGraphic" in2="BackgroundImageFix" result="shape"/>
<feGaussianBlur stdDeviation="2" result="effect1_foregroundBlur"/>
</filter>
<filter id="filter6_f" x="447.212" y="187.268" width="18.5178" height="18.5178" filterUnits="userSpaceOnUse" color-interpolation-filters="sRGB">
<feFlood flood-opacity="0" result="BackgroundImageFix"/>
<feBlend mode="normal" in="SourceGraphic" in2="BackgroundImageFix" result="shape"/>
<feGaussianBlur stdDeviation="2" result="effect1_foregroundBlur"/>
</filter>
<filter id="filter7_d" x="633.992" y="242.805" width="73.2102" height="73.2102" filterUnits="userSpaceOnUse" color-interpolation-filters="sRGB">
<feFlood flood-opacity="0" result="BackgroundImageFix"/>
<feColorMatrix in="SourceAlpha" type="matrix" values="0 0 0 0 0 0 0 0 0 0 0 0 0 0 0 0 0 0 127 0"/>
<feOffset dy="4"/>
<feGaussianBlur stdDeviation="2"/>
<feColorMatrix type="matrix" values="0 0 0 0 0 0 0 0 0 0 0 0 0 0 0 0 0 0 0.25 0"/>
<feBlend mode="normal" in2="BackgroundImageFix" result="effect1_dropShadow"/>
<feBlend mode="normal" in="SourceGraphic" in2="effect1_dropShadow" result="shape"/>
</filter>
<linearGradient id="paint0_linear" x1="384.166" y1="-8.17981" x2="384.166" y2="699.384" gradientUnits="userSpaceOnUse">
<stop offset="0.0001" stop-color="#494ADA"/>
<stop offset="1" stop-color="#E7FFF3"/>
</linearGradient>
<linearGradient id="paint1_linear" x1="460.166" y1="-11.1798" x2="460.166" y2="696.384" gradientUnits="userSpaceOnUse">
<stop offset="0.0001" stop-color="#8CE0F2"/>
<stop offset="1" stop-color="#AF89FF" stop-opacity="0"/>
</linearGradient>
<linearGradient id="paint2_linear" x1="295.236" y1="396.382" x2="295.236" y2="640" gradientUnits="userSpaceOnUse">
<stop stop-color="#2064B4"/>
<stop offset="1" stop-color="#2064B4" stop-opacity="0"/>
</linearGradient>
<linearGradient id="paint3_linear" x1="137.602" y1="528" x2="137.602" y2="735" gradientUnits="userSpaceOnUse">
<stop stop-color="#2064B4"/>
<stop offset="1" stop-color="#2064B4" stop-opacity="0"/>
</linearGradient>
<radialGradient id="paint4_angular" cx="0" cy="0" r="1" gradientUnits="userSpaceOnUse" gradientTransform="translate(270.253 56.7586) rotate(90) scale(56.7586 270.253)">
<stop offset="0.453125" stop-color="#8C9FFF"/>
<stop offset="1" stop-color="#8C9FFF" stop-opacity="0"/>
</radialGradient>
<linearGradient id="paint5_linear" x1="116.212" y1="810.908" x2="116.212" y2="851.673" gradientUnits="userSpaceOnUse">
<stop offset="0.364583" stop-color="#C4C4C4"/>
<stop offset="1" stop-color="#C4C4C4" stop-opacity="0"/>
</linearGradient>
<linearGradient id="paint6_linear" x1="416.767" y1="815.58" x2="416.767" y2="882.894" gradientUnits="userSpaceOnUse">
<stop stop-color="#C4C4C4"/>
<stop offset="1" stop-color="#C4C4C4" stop-opacity="0"/>
</linearGradient>
<linearGradient id="paint7_linear" x1="297.143" y1="804.373" x2="297.143" y2="883.619" gradientUnits="userSpaceOnUse">
<stop offset="0.458333" stop-color="#C4C4C4"/>
<stop offset="1" stop-color="#C4C4C4" stop-opacity="0"/>
</linearGradient>
<linearGradient id="paint8_linear" x1="684.721" y1="245.476" x2="676.633" y2="304.928" gradientUnits="userSpaceOnUse">
<stop stop-color="#FF8C39" stop-opacity="0"/>
<stop offset="0.772702" stop-color="#C039FF"/>
</linearGradient>
</defs>
</svg>
