<svg width="565" height="885" viewBox="0 0 565 885" fill="none" xmlns="http://www.w3.org/2000/svg">
<g clip-path="url(#clip0)">
<path d="M387.3 776.6H149.1C129.3 776.6 112.3 757.668 112.3 734.239V385.029C112.3 361.6 129.3 347.668 149.1 347.668H387.4C407.2 347.668 423.2 363.6 423.2 387.029V734.239C423.1 757.549 407.1 776.6 387.3 776.6Z" fill="white" stroke="#2064B4" stroke-width="2" stroke-miterlimit="10"/>
<path d="M394.9 358.436L413.3 380.681" stroke="white" stroke-width="4" stroke-miterlimit="10"/>
<path d="M413.3 358.317L394.1 379.734" stroke="white" stroke-width="4" stroke-miterlimit="10"/>
<path d="M308.6 369.558H335.6" stroke="white" stroke-width="4" stroke-miterlimit="10"/>
<path d="M419.019 390.62H116.077C113.29 390.62 111 387.899 111 384.586V350.035C111 346.722 113.29 344 116.077 344H418.92C421.707 344 423.997 346.722 423.997 350.035V384.468C424.096 387.899 421.807 390.62 419.019 390.62Z" fill="#2064B4"/>
<path d="M87.4999 251.5C99.8999 191.5 226.667 74.8333 288.5 24V13H523.5C523.5 13 510 206.5 510 251.5C510 296.5 346 289.5 384 349.5C422 409.5 322 535 322 535C314 542 264 574.5 314 616C364 657.5 317.829 787.449 333.5 806H183.5C189.5 797.2 328.5 657 236 609C143.5 561 73.4999 435.252 134.5 401C293 312 71.9999 326.5 87.4999 251.5Z" fill="url(#paint0_linear)"/>
<path d="M87.6727 252.649C99.4728 192.611 218.204 75.8719 277.046 25.0069L290.368 14H514C514 14 501.153 207.621 501.153 252.649C501.153 297.677 308.721 235.638 381.249 350.71C453.776 465.781 350.049 531.322 350.049 531.322C342.436 538.326 302.468 588.858 350.049 630.384C397.631 671.91 456.469 797.937 471.381 816.5L121.66 817C127.37 808.195 326.259 690.421 240.408 610.371C154.558 530.322 98.345 438.016 156.394 403.743C307.226 314.687 72.9225 327.695 87.6727 252.649Z" fill="url(#paint1_linear)"/>
<path d="M102.785 237.5C115.185 177.5 241.952 60.8333 303.785 10V-1H538.785C538.785 -1 525.285 192.5 525.285 237.5C525.285 282.5 284.785 228 385 340C485.215 452 337.285 521 337.285 521C337.285 521 279.285 560.5 329.285 602C379.285 643.5 333.115 773.449 348.785 792H198.785C204.785 783.2 343.785 643 251.285 595C158.785 547 88.7851 421.252 149.785 387C308.285 298 87.2851 312.5 102.785 237.5Z" stroke="url(#paint2_linear)" stroke-width="2"/>
<g filter="url(#filter0_d)">
<circle cx="414" cy="104" r="25" fill="white"/>
</g>
<path d="M545.086 184.863C542.354 193.734 535.565 200.938 525.543 206.354C515.518 211.771 502.29 215.38 486.758 217.059C455.696 220.419 415.521 216.054 373.609 203.146C331.696 190.238 296.026 171.245 272.236 150.993C260.34 140.866 251.434 130.44 246.194 120.322C240.955 110.206 239.396 100.43 242.128 91.5597C244.86 82.689 251.649 75.4843 261.671 70.0686C271.695 64.6515 284.924 61.0429 300.456 59.363C331.518 56.0035 371.692 60.3685 413.605 73.2765C455.518 86.1845 491.187 105.177 514.977 125.43C526.873 135.557 535.779 145.982 541.019 156.101C546.258 166.216 547.818 175.992 545.086 184.863Z" stroke="white"/>
<path d="M502.607 161.776C500.78 167.709 496.337 172.569 489.793 176.262C483.245 179.956 474.62 182.467 464.498 183.7C444.254 186.166 418.118 183.511 390.899 175.129C363.681 166.746 340.58 154.237 325.231 140.809C317.556 134.095 311.837 127.167 308.503 120.43C305.17 113.695 304.231 107.178 306.059 101.244C307.886 95.3102 312.329 90.4506 318.873 86.7578C325.42 83.0633 334.046 80.5528 344.168 79.3198C364.412 76.8538 390.548 79.5083 417.766 87.8909C444.985 96.2735 468.086 108.783 483.435 122.21C491.11 128.924 496.828 135.852 500.163 142.59C503.495 149.325 504.434 155.842 502.607 161.776Z" stroke="white"/>
<path d="M538.3 178.744C536.013 186.171 530.098 192.147 521.258 196.571C512.417 200.996 500.69 203.845 486.876 205.028C459.25 207.393 423.383 203.084 385.835 191.52C348.286 179.956 316.209 163.34 294.701 145.843C283.946 137.094 275.854 128.141 271.033 119.508C266.214 110.878 264.686 102.609 266.974 95.1822C269.261 87.7553 275.176 81.779 284.016 77.355C292.857 72.9301 304.584 70.0807 318.398 68.898C346.024 66.5327 381.89 70.8417 419.439 82.4057C456.988 93.9697 489.064 110.585 510.573 128.083C521.328 136.832 529.42 145.785 534.24 154.418C539.06 163.048 540.587 171.317 538.3 178.744Z" stroke="white"/>
<g filter="url(#filter1_f)">
<circle cx="366" cy="67" r="10" fill="#FFDA7B"/>
</g>
<path d="M465.367 142.388C464.244 146.037 461.509 149.038 457.45 151.328C453.389 153.62 448.027 155.183 441.721 155.951C429.108 157.488 412.81 155.835 395.828 150.605C378.847 145.375 364.443 137.573 354.88 129.207C350.098 125.023 346.544 120.715 344.476 116.535C342.409 112.359 341.837 108.339 342.96 104.69C344.084 101.042 346.819 98.0405 350.877 95.7504C354.939 93.4586 360.3 91.8957 366.607 91.1274C379.22 89.591 395.518 91.2441 412.499 96.4741C429.481 101.704 443.885 109.506 453.448 117.872C458.23 122.055 461.783 126.364 463.852 130.544C465.918 134.72 466.491 138.74 465.367 142.388Z" stroke="white"/>
<path d="M280.227 255.981L281.404 257.299L283.022 256.587L282.132 258.114L283.31 259.432L281.582 259.058L280.692 260.585L280.514 258.827L278.787 258.452L280.404 257.74L280.227 255.981Z" fill="white"/>
<g filter="url(#filter2_f)">
<circle cx="461" cy="183" r="5" fill="#FF6464"/>
</g>
<path d="M418.083 390.62H119.012C116.26 390.62 114 387.899 114 384.586V350.035C114 346.722 116.26 344 119.012 344H417.985C420.736 344 422.997 346.722 422.997 350.035V384.468C423.095 387.899 420.835 390.62 418.083 390.62Z" fill="url(#paint3_linear)"/>
<path d="M416.986 391H120.014C116.161 391 113 387.376 113 382.959V352.041C113 347.624 116.161 344 120.014 344H416.986C420.839 344 424 347.624 424 352.041V382.959C424 387.489 420.839 391 416.986 391Z" fill="url(#paint4_linear)" style="mix-blend-mode:lighten"/>
<path d="M368.7 365.417H352.6V379.734H368.7V365.417Z" stroke="white" stroke-width="3" stroke-miterlimit="10"/>
<path d="M375.8 357.134H359.7V371.452H375.8V357.134Z" stroke="white" stroke-width="3" stroke-miterlimit="10"/>
<line x1="316" y1="368" x2="340" y2="368" stroke="white" stroke-width="2"/>
<g filter="url(#filter3_d)">
<path d="M242.578 695H33.4217C16.0432 695 2 678.747 2 658.634V532.367C2 512.253 16.0432 499 33.4217 499H138H242.578C259.957 499 275 492 273 532.367C273 532.367 273 638.52 273 658.634C273 678.747 259.957 695 242.578 695Z" fill="white" stroke="#2064B4" stroke-width="2" stroke-miterlimit="10"/>
<path d="M267.843 538H7.15724C3.77509 538 1 534.839 1 530.986V504.014C1 500.161 3.77509 497 7.15724 497H267.843C271.225 497 274 500.161 274 504.014V530.986C274 534.937 271.225 538 267.843 538Z" fill="#2064B4"/>
<path d="M263.91 537H6.08958C2.7446 537 0 533.993 0 530.328V504.672C0 501.007 2.7446 498 6.08958 498H263.91C267.255 498 270 501.007 270 504.672V530.328C270 534.087 267.255 537 263.91 537Z" fill="url(#paint5_linear)" style="mix-blend-mode:lighten"/>
<path d="M249.171 508.4L265.304 527.2" stroke="white" stroke-width="2" stroke-miterlimit="10"/>
<path d="M265.304 508.3L248.47 526.3" stroke="white" stroke-width="2" stroke-miterlimit="10"/>
<path d="M173.508 517.8H197.18" stroke="white" stroke-width="2" stroke-miterlimit="10"/>
<path d="M232.426 507.3H218.31V519.4H232.426V507.3Z" stroke="white" stroke-width="2" stroke-miterlimit="10"/>
<path d="M226.201 514.3H212.085V526.4H226.201V514.3Z" stroke="white" stroke-width="2" stroke-miterlimit="10"/>
<path d="M62.512 556.1H225.587" stroke="#2064B4" stroke-width="5" stroke-miterlimit="10"/>
<path d="M61.9861 583.2H226.289" stroke="#2064B4" stroke-width="5" stroke-miterlimit="10"/>
<path d="M76.8906 611.5H201.827" stroke="#2064B4" stroke-width="5" stroke-miterlimit="10"/>
</g>
<ellipse rx="256.949" ry="53.9645" transform="matrix(0.999553 0.029904 -0.0431853 0.999067 284.164 823.169)" fill="#8C9FFF"/>
<ellipse rx="212.33" ry="33.7846" transform="matrix(0.999553 0.029904 -0.0431853 0.999067 284.521 812.434)" fill="white"/>
<path d="M473.5 820C401.5 852 117.788 832.838 102.5 813C106.448 810.947 118.59 803.636 122.5 801.741L118.966 784.705C116.563 776.632 114.179 768.609 115.5 768C119.185 766.302 127.351 775.563 131 774C132.356 773.419 136.403 777.739 140.413 782.005L149.5 789.733C174.643 779.553 198.876 772.529 222 768.062C227.85 766.932 233.629 765.966 239.333 765.153C245.476 764.278 251.533 763.581 257.5 763.051C285.058 760.602 310.691 761.701 334 765.153L351 747.5C351 747.5 358.422 751.039 362.5 752L371 772.983C411.493 784.238 455.815 804.83 473.5 820Z" fill="#8C9FFF"/>
<path d="M119 768.5C118.333 770.833 118.6 775.7 125 776.5C129.267 777.033 130.807 777.004 131.163 776.826L131 776.5C131.222 776.611 131.341 776.737 131.163 776.826L138.5 791.5C139 792.667 140.2 794.8 141 794C141.8 793.2 139.667 787.333 138.5 784.5L148 795.5C149.833 795.833 153.2 796 152 794C156.333 795.167 160.8 798.6 144 803C123 808.5 113 807 116.5 805C119.3 803.4 121.667 802 122.5 801.5L115 768.5C115.833 768.167 117.8 767.7 119 768.5Z" fill="#C4C4C4"/>
<path d="M362 764.5L359 751L363 752L370.5 773.5L379.5 786L359 773.5L355 759L359 763L362 764.5Z" fill="#C4C4C4"/>
<path d="M378.952 836.113C403.752 831.47 383.542 789.598 369 772.5C409.8 782.9 460.5 805.5 473.5 820C438.848 838.987 401.343 834.09 378.952 836.113C377.886 836.312 376.736 836.443 375.5 836.5C376.606 836.348 377.757 836.221 378.952 836.113Z" fill="#C4C4C4"/>
<path d="M281 836.5C332.6 815.7 292 779 264.5 763.5C295.3 759.9 321.667 763 331 765C355.8 779.8 352.667 819.5 345 837C326 837 291.833 837.667 281 836.5Z" fill="#C4C4C4"/>
<path d="M158.5 730.3L152.1 791H155.3L165.6 731.7L158.5 730.3Z" fill="#939393"/>
<path d="M207.2 732.4L224.7 799L227.7 797.9L214.4 731.4L207.2 732.4Z" fill="#939393"/>
<path d="M156.6 656.4C155.4 657.6 154.3 659.7 154 661.3C152.5 671.6 148.7 719.4 158.4 730.3C168 741.1 209.9 737.8 220.7 737.3C223.1 737.2 225.9 735.7 226.9 733.5C227.6 732.1 228 726.8 226.9 724.7C224.2 719.5 169.5 723.7 173.2 711.3C193.2 644.6 166.6 646.3 156.6 656.4Z" fill="#2064B4"/>
<path d="M193.5 738.5C164 738.5 154.518 731.47 153.109 718.63C151.752 706.265 148.963 675.62 153.448 660.609C154.925 655.668 157.722 654.06 161.251 653C156 660 157.18 689.619 157.18 689.619C157.305 702.851 157.551 711.373 159.883 717.56C160.633 719.262 161.531 720.943 162.602 722.568C167.342 728.868 176.332 732.594 193.5 738.5Z" fill="#42B0FF"/>
<path d="M219.6 735.7L183.5 733.5C179.1 733.5 171 727.9 171 723.5C171 719.1 172.4 719.7 176.8 719.7H219.5C223.9 719.7 227.5 723.3 227.5 727.7C227.6 732.1 224 735.7 219.6 735.7Z" fill="#2064B4"/>
<path d="M343.9 729L337.5 790.8H340.7L351 730.4L343.9 729Z" fill="#939393"/>
<path d="M392.5 731.1L410.1 799L413.1 797.9L399.8 730.1L392.5 731.1Z" fill="#939393"/>
<path d="M404.9 657.6C405.6 658.5 406.1 659.6 406.2 660.8C407.6 670.2 414 717.6 404 728.7C394.2 739.5 349.4 738.1 338.4 737.6C336 737.5 333.7 736.1 332.7 733.9C332 732.5 331.8 730.7 332.9 728.7C335.7 723.5 375.4 708.3 384.2 698.6C392.6 689.2 393.8 643.6 404.9 657.6Z" fill="#2064B4"/>
<path d="M385.502 727.745C396.141 721.313 379.994 714.642 370.59 712.111C327.388 710.681 327.065 723.427 332.304 729.979C345.604 731.914 374.862 734.178 385.502 727.745Z" fill="#42B0FF"/>
<path d="M227 658L230.5 656L225.5 658L212.5 684.5H189.5L190.5 688.5H214V686.5L227 658Z" fill="#9B9B9B"/>
<path d="M392.5 729C399.3 724.2 402 678 402.5 655.5C412 658 412.548 714 406 726.5C401 736.045 377.833 737.333 366.5 737.5C372.333 736.667 385.7 733.8 392.5 729Z" fill="#42B0FF"/>
<path d="M330.2 611.1C334.232 611.1 337.5 607.832 337.5 603.8C337.5 599.768 334.232 596.5 330.2 596.5C326.168 596.5 322.9 599.768 322.9 603.8C322.9 607.832 326.168 611.1 330.2 611.1Z" fill="#6057C0"/>
<path d="M353.2 600.1C353.2 600.1 352.5 595.7 344.5 596.7C336.5 597.7 337.3 599 330.1 601.1C326.2 602.3 322.8 612.4 343.6 609.2C343.6 609.2 346.8 616.7 348.6 616.4C350.4 616.1 350.2 623.6 350.2 623.6L354.6 622.2C354.6 622.2 355.3 616.7 358.2 615C361.1 613.3 360.1 597.4 353.2 600.1Z" fill="#6057C0"/>
<path d="M349.5 613.688C358 598.5 342.5 600 342 600C351.5 597.312 353.5 598.333 353.5 600C360.5 597.5 362 613.688 359.5 614.688C357.5 615.488 356 620.021 355.5 622.188L353 623.188C351.167 622.355 346.656 618.77 349.5 613.688Z" fill="#0B0A54"/>
<path d="M335 609.2L329.5 611C329.8 618.3 328.6 623.5 331.9 627.5C335.3 631.5 335 631.5 341.5 629.5L344.6 640.5L357.4 630.8C357.4 630.8 352.7 625.3 351.8 623.4C351.8 623.4 351 620 352.3 619.7C355.7 619 354.6 606.6 348.3 614L345.7 609.2C343.9 604.6 337.3 608.1 335 609.2Z" fill="#FFBC85"/>
<path d="M347 625.5L341.5 629.5L342.5 633C342.5 633 344.5 633 345.5 631C346.5 629 347 625.5 347 625.5Z" fill="#F07B61"/>
<path d="M338.1 610.4C341.193 610.4 343.7 607.893 343.7 604.8C343.7 601.707 341.193 599.2 338.1 599.2C335.007 599.2 332.5 601.707 332.5 604.8C332.5 607.893 335.007 610.4 338.1 610.4Z" fill="#6057C0"/>
<path d="M352.897 613.706C351.579 612.565 350.837 612.755 350.013 614.657C350.013 616.084 351.249 616.084 350.013 618.938C349.829 619.363 351.661 617.511 351.249 616.56C350.919 615.799 351.661 615.926 352.485 616.084C353.309 616.084 352.897 614.023 352.897 613.706Z" fill="#F07B61"/>
<path d="M352 617C351.6 617.667 350.64 619 350 619" stroke="#F07B61" stroke-width="0.5"/>
<path d="M309.9 662.2L313.2 651.5C313.2 651.5 327.6 655.7 333.9 659.8C340.2 663.9 345.9 669.2 345.9 669.2L331.8 678.4C331.8 678.4 313.2 666.1 309.9 662.2Z" fill="#C4C4C4"/>
<path d="M316.8 656.4C317 655.9 315.6 640.6 305.3 641.8C305.3 641.8 299.5 643 300.6 645.1C301.7 647.1 303.5 652.7 303.5 652.7L312.8 661.1C312.8 661.1 315.9 659 316.8 656.4Z" fill="#FFBC85"/>
<path d="M309.8 639.2H295.5V655.2H309.8V639.2Z" fill="#E2E2E2"/>
<path d="M311.5 679.1C311.1 678.6 300.2 664.5 290.8 670.4C290.8 670.4 285.8 674.2 288.2 675.5C290.6 676.8 295.7 681 295.7 681L310 684.3C309.9 684.3 313.7 681.5 311.5 679.1Z" fill="#FFBC85"/>
<path d="M379.3 694.9H355.65H332C333.8 693.9 334.7 692.5 337.5 690.3C326.8 689.3 308.6 688.9 308.6 688.9L306.7 672C306.7 672 323.5 669 337.5 668.5C340.8 669.5 342.6 649.8 342.5 647.5C342.5 635.1 350.2 623.1 364.1 632.5C383 645.4 379.3 694.9 379.3 694.9Z" fill="#E2E2E2"/>
<path d="M302.7 641C306.676 641 309.9 640.194 309.9 639.2C309.9 638.206 306.676 637.4 302.7 637.4C298.724 637.4 295.5 638.206 295.5 639.2C295.5 640.194 298.724 641 302.7 641Z" fill="#E2E2E2"/>
<path d="M302.7 640.9C305.793 640.9 308.3 640.273 308.3 639.5C308.3 638.727 305.793 638.1 302.7 638.1C299.607 638.1 297.1 638.727 297.1 639.5C297.1 640.273 299.607 640.9 302.7 640.9Z" fill="#939393"/>
<path d="M302.7 657C306.676 657 309.9 656.194 309.9 655.2C309.9 654.206 306.676 653.4 302.7 653.4C298.724 653.4 295.5 654.206 295.5 655.2C295.5 656.194 298.724 657 302.7 657Z" fill="#E2E2E2"/>
<path d="M323 771.7L330.9 803.3H281.5L294.4 786.8L297.2 774.3L323 771.7Z" fill="#272D33"/>
<path d="M331.5 777.8L332.1 809.4H290L303.8 792.9L304.6 780.5L331.5 777.8Z" fill="#3D4B65"/>
<path d="M376.8 714C375 732.1 338.8 725.7 326.2 724.8C322.3 724.5 319.1 728.1 319.7 732.1L327.5 785H294.8V710.3C294.8 709.2 294.9 708.1 295.2 707C296.8 700.6 302.6 694.7 308.6 694.7L360.6 694.2L376.7 694.7C376.8 695.1 377.7 704.7 376.8 714Z" fill="#36818E"/>
<path d="M379.2 714.2C377.5 733 359.1 726.6 336 726.8C332.3 726.8 329.9 728.2 331.6 732.3V788.2L304 788L302.8 710.4C302.8 709.2 302.9 708.1 303.2 706.9C304.7 700.2 310.1 694.2 315.7 694.2L364 694H379.5C379.5 694.4 380.1 704.6 379.2 714.2Z" fill="#4DBED8"/>
<path d="M317.654 793.5C322.454 792.7 322.167 789.167 322 788H332L332.154 809.5H307.654C312.654 809.5 329.5 799.5 324 799C319.6 798.6 316.82 794 317.654 793.5Z" fill="#32345A"/>
<path d="M379.4 714.6C377.7 733.4 359.3 727 336.2 727.2C332.5 727.2 330.1 728.6 331.8 732.7L332 788H322L326.5 764C326.5 742 318.5 714.6 318.5 714.6C318.5 714.6 326.2 724 331.8 724C331.8 724 356 728 368 721C380 714 379.5 694 379.5 694C379.5 694.4 380.3 705 379.4 714.6Z" fill="#36789D"/>
<path d="M367 649C367 644.6 360.333 634.5 357 630C378 632.5 381.333 674.833 379.5 694H358.5C358.833 692.333 359.8 688.7 359 687.5C358.2 686.3 347.333 688 342 689C346.167 687.833 355 685.3 357 684.5C359.5 683.5 362 665.5 363.5 663C364.7 661 362 657 358.5 654C361.7 652.8 363.333 655.5 365 658L366 657C366 657.667 366.252 655.504 365 653C361 645 350.5 642.5 355 642C358.6 641.6 365.167 646.5 367 649Z" fill="#C4C4C4"/>
<path d="M304 642C307.925 641.611 309.783 640 309.783 640C309.783 640 310.176 654.766 309.783 655.543C309.242 656.614 305.695 656.838 303.896 657C302.097 657.162 304.877 654 304.877 654C308.972 645.414 303.019 642 304 642Z" fill="#C4C4C4"/>
<path d="M171.1 681.6C169.8 693.3 168.3 728.9 199.8 724.3C200 724.3 200.1 724.3 200.3 724.3H216.2C217.4 724.3 210.7 723.7 211.4 722.6L224.7 702.9C226.5 700.2 224.8 696.4 221.7 696.3C219.6 696.2 217.2 696.9 217.2 694.7L209.7 682C209.7 679.7 216.3 678 214.2 678H174.9C172.9 678 171.3 679.5 171.1 681.6Z" fill="#E2E2E2"/>
<path d="M202.337 700.792C194.813 707.087 195.315 720.639 218.186 724.359H232.33C232.33 724.359 236.142 728.073 235.841 733.51C235.54 738.947 238 779 238 779H253.5L255 709.663C255 709.663 254.198 698.312 243.865 698.502H208.656C206.249 698.598 204.042 699.361 202.337 700.792Z" fill="#36818E"/>
<path d="M229 779L222.7 800.7H262L252 784.3V779H229Z" fill="#272D33"/>
<path d="M222.8 775.3L219.4 806.9H255.3L247.6 790.4L247.1 775L222.8 775.3Z" fill="#3D4B65"/>
<path d="M229.5 787.5C228.7 786.3 232.833 784.667 235 784H221.5L219 807H244C237.833 803.167 226.7 795.4 231.5 795C237.5 794.5 239.5 790.5 238 790.5C236.5 790.5 230.5 789 229.5 787.5Z" fill="#32345A"/>
<path d="M193.9 726.4L222.3 728.4C222.3 728.4 225.8 726.1 225.6 732C225.3 737.9 221.5 784.1 221.5 784.1H247.355L251.5 717.1C251.5 717.1 249.6 703.7 240 704L219.5 702.993V694.973L170 694.8C170.7 698.2 164.6 725.6 193.9 726.4Z" fill="#4DBED8"/>
<path d="M198.033 697.328C198.543 693.546 200.076 694.019 200.076 694.019H220V703C220 703 210.293 702.527 206.717 702.055C203.141 701.582 197.522 701.109 198.033 697.328Z" fill="#36818E"/>
<path d="M192 629.1C192.6 628.8 186.1 630 177 634.6C175.287 635.474 172.857 635.64 171 638C167.544 642.392 164.756 652.095 163 672C162.2 681.1 162.9 687.5 188.8 688C214.7 688.6 226.5 688 226.5 688C226.5 688 230.3 649.7 220.6 636.1C218.8 633.6 213.4 631.6 210.9 631.3C194.5 629.2 192 629.1 192 629.1Z" fill="#E2E2E2"/>
<path d="M204.5 638C204.304 627 213 632.5 218 634C226 638 229 667 229.5 681H216C218.8 678.6 204.667 647.333 204.5 638Z" fill="#C4C4C4"/>
<path d="M204.5 694.5C204.5 694.5 187 694.5 170 695V685.5C180.5 685.5 181 686.7 183 681.5L180.5 673C179.333 669 181.5 665 183.5 657.5C183.216 662.689 183.61 670.164 185.367 677C185.764 678.544 186.773 681.5 186.773 681.5C216.5 679 204.5 694.5 204.5 694.5Z" fill="#C4C4C4"/>
<path d="M213.5 605L215.3 611.4C215 618.5 215.8 625.6 212.5 629.5C209.1 633.4 207.6 632.8 206.7 632.8L203 641.5L190.1 632.6C190.1 632.6 194.2 626.7 193 624.7C193 624.7 192.7 624 191.4 623.7C188 623 184.7 610.2 195.6 616.3L195.3 606.2L213.5 605Z" fill="#FFBC85"/>
<path d="M201.5 630.5L207 632.692L204 639C202.246 634.246 200.135 634.337 201.5 630.5Z" fill="#F07B61"/>
<path d="M189.5 617C191.1 615.8 192 616 193 618C193 619.5 191.5 619.5 193 622.5C193.224 622.947 191 621 191.5 620C191.9 619.2 191 619.333 190 619.5C189 619.5 189.5 617.333 189.5 617Z" fill="#F07B61"/>
<path d="M190 620.5C190.5 621.333 191.7 623 192.5 623" stroke="#F07B61" stroke-width="0.5"/>
<path d="M196.5 608.8C196.5 608.8 206.6 611.3 210.3 609.4C210.3 609.4 214.7 611.5 216 608.4C216 608.4 219.8 601.5 207.2 602.1C207.2 602.1 202.9 600.9 199.6 599.4C196.3 597.8 192.1 600.9 192.5 602.5C192.5 602.5 179.5 601.9 187.3 615.3L188.2 616.5C188.2 616.5 189.7 614.8 191.5 615C191.5 615 193.7 614.8 193.9 617.6C193.9 617.6 196.2 618.4 196.1 614.7C196 611 196.5 608.8 196.5 608.8Z" fill="#6057C0"/>
<path d="M194.9 608C198.048 608 200.6 605.627 200.6 602.7C200.6 599.773 198.048 597.4 194.9 597.4C191.752 597.4 189.2 599.773 189.2 602.7C189.2 605.627 191.752 608 194.9 608Z" fill="#6057C0"/>
<path d="M196.5 609C195.3 608.2 195.333 605.5 195.5 604.5C196.5 605.5 198.658 607.329 200 608C201 608.5 212.704 609.778 213 608C213.5 605 215.647 604.646 216 605C216.5 605.5 217 606 216 608.5C215 611 211.667 610 210 609.5C207 611.5 198 610 196.5 609Z" fill="#0B0A54"/>
<path d="M175.5 682C172.7 675.6 176.667 673.667 179 674L183 681C182 684 178.3 688.4 175.5 682Z" fill="#C4C4C4"/>
<path d="M178.1 674.3C178.6 674 192.5 663.6 199.5 672C199.5 672 203 677.1 200.5 677.6C198 678.2 192.1 680.7 192.1 680.7L178.1 679.7C178.1 679.8 175.4 676 178.1 674.3Z" fill="#FFBC85"/>
<path d="M192.5 599C192 600.167 191.2 602.8 192 604C192.897 605.346 188.963 605.082 188.146 605.736C188.089 605.831 188.04 605.92 188 606C188 605.897 188.053 605.811 188.146 605.736C188.568 605.034 189.443 604 190.5 604C192 604 189 601 192.5 599Z" fill="#0B0A54"/>
<path d="M192.024 613C189.34 613 187 608.167 186 605C182.5 607 187.524 619 188.024 617.5C188.424 616.3 189.857 615.333 190.524 615C194.5 615.5 193.024 616.5 194.024 617.5C195.024 618.5 196.024 617.5 196.024 616.5C196.024 615.7 196 614.5 196 612.5C195.5 613.333 194.5 613 192.024 613Z" fill="#0B0A54"/>
<path d="M169.961 655.941C165.526 653.344 170.113 642.231 171.961 637C165.185 640.247 164.185 661.894 162.337 672.176C160.859 680.402 165.947 684.32 168 684.5C164.551 682.335 165.391 673.8 166.417 670.553L168.113 661.894C170.577 660.992 174.395 658.539 169.961 655.941Z" fill="#C4C4C4"/>
<path d="M181.5 652.5C180.121 646 176.167 643.667 173.5 642C192.5 648.5 180 664 180.5 672.5C180.606 674.3 175.5 669.5 174 669.5C172.735 669.5 170.167 670.5 167 671.5C167.167 670.667 168.2 668.7 171 667.5C173.8 666.3 176.5 669.5 178.5 668.5C181.5 665.5 180.5 659.7 180.5 658.5C180.5 657 172.5 648.5 175.5 649.5C177.9 650.3 180.333 651.333 181.5 652.5Z" fill="#C4C4C4"/>
<path d="M233.5 722C230.7 726 220.667 727.667 217 728C222.5 729.5 226 731 225.5 732.5C228 732.5 237 717 233.5 722Z" fill="#36789D"/>
<path d="M228.5 772L225 740L221.5 784H235L228.5 772Z" fill="#36789D"/>
<path d="M341.3 688.1H184.8V694.7H341.3V688.1Z" fill="black"/>
<path d="M322.9 690.4L348.3 809.4" stroke="black" stroke-width="10" stroke-miterlimit="10"/>
<path d="M195.2 690.2L173.4 809.4" stroke="black" stroke-width="10" stroke-miterlimit="10"/>
<path d="M230 655.7H264.8L267 658.8L256.1 688.1H190.7L189.8 684.3H213L225.9 657.6L230 655.7Z" fill="white" stroke="#9B9B9B" stroke-miterlimit="10"/>
<path d="M381.991 615.552L384.168 610.445C385.148 609.149 386.154 607.792 386.781 606.635C387.126 605.998 387.422 605.308 387.477 604.655C387.505 604.314 387.472 603.933 387.299 603.568C387.121 603.19 386.828 602.904 386.469 602.713C377.552 597.978 372 590.612 372 582.5C372 575.6 376.009 569.249 382.702 564.582C389.391 559.917 398.686 557 409 557C419.314 557 428.609 559.917 435.298 564.582C441.991 569.249 446 575.6 446 582.5C446 589.4 441.991 595.751 435.298 600.418C428.609 605.083 419.314 608 409 608C408.308 608 407.404 608.157 406.403 608.391C405.383 608.629 404.193 608.966 402.899 609.36C400.889 609.973 398.591 610.739 396.253 611.519C395.585 611.741 394.913 611.965 394.244 612.187C391.219 613.189 388.239 614.149 385.769 614.795C384.533 615.118 383.447 615.356 382.56 615.483C382.354 615.513 382.165 615.536 381.991 615.552Z" fill="white" stroke="#20B47F" stroke-width="2"/>
<path d="M413.255 537.861C412.762 537.932 412.333 537.974 411.967 537.991L415.051 530.728C416.35 529.004 417.67 527.219 418.488 525.706C418.937 524.875 419.299 524.011 419.365 523.219C419.399 522.808 419.358 522.366 419.161 521.948C418.959 521.518 418.626 521.189 418.207 520.965C406.412 514.68 399 504.863 399 493.991C399 484.745 404.354 476.271 413.218 470.068C422.079 463.867 434.373 460 448 460C461.627 460 473.921 463.867 482.782 470.068C491.646 476.271 497 484.745 497 493.991C497 503.238 491.646 511.712 482.782 517.915C473.921 524.116 461.627 527.983 448 527.983C447.127 527.983 445.967 528.182 444.654 528.491C443.322 528.803 441.763 529.245 440.064 529.765C437.423 530.573 434.406 531.583 431.329 532.612C430.449 532.906 429.565 533.202 428.683 533.495C424.703 534.819 420.773 536.09 417.512 536.945C415.881 537.373 414.439 537.691 413.255 537.861Z" fill="white" stroke="#20B47F" stroke-width="2"/>
<line x1="391.419" y1="375.979" x2="409.448" y2="360.851" stroke="white" stroke-width="3"/>
<line x1="391.964" y1="360.851" x2="409.994" y2="375.979" stroke="white" stroke-width="3"/>
<circle cx="305" cy="34" r="2" fill="white"/>
<circle cx="331" cy="106" r="2" fill="white"/>
<circle cx="355" cy="119" r="2" fill="white"/>
<circle cx="453" cy="46" r="2" fill="white"/>
<circle cx="477" cy="59" r="2" fill="white"/>
<circle r="0.5" transform="matrix(-1 0 0 1 295.5 42.5)" fill="white"/>
<circle r="0.5" transform="matrix(-1 0 0 1 319.5 55.5)" fill="white"/>
<circle r="0.5" transform="matrix(-1 0 0 1 312.5 34.5)" fill="white"/>
<circle r="0.5" transform="matrix(-1 0 0 1 336.5 47.5)" fill="white"/>
<circle r="0.5" transform="matrix(-1 0 0 1 310.5 36.5)" fill="white"/>
<circle r="0.5" transform="matrix(-1 0 0 1 334.5 49.5)" fill="white"/>
<circle r="0.5" transform="matrix(-1 0 0 1 295.5 33.5)" fill="white"/>
<circle r="0.5" transform="matrix(-1 0 0 1 319.5 46.5)" fill="white"/>
<circle r="0.5" transform="matrix(-1 0 0 1 283.5 44.5)" fill="white"/>
<circle r="0.5" transform="matrix(-1 0 0 1 307.5 57.5)" fill="white"/>
<circle r="0.5" transform="matrix(-1 0 0 1 332.5 43.5)" fill="white"/>
<circle r="0.5" transform="matrix(-1 0 0 1 332.5 49.5)" fill="white"/>
<circle r="0.5" transform="matrix(-1 0 0 1 328.5 46.5)" fill="white"/>
<circle r="1" transform="matrix(-1 0 0 1 306 29)" fill="white"/>
<circle r="1" transform="matrix(-1 0 0 1 314 35)" fill="white"/>
<circle r="1" transform="matrix(-1 0 0 1 405 35)" fill="white"/>
<circle r="1" transform="matrix(-1 0 0 1 309 82)" fill="white"/>
<circle r="1" transform="matrix(-1 0 0 1 408 40)" fill="white"/>
<circle r="1" transform="matrix(-1 0 0 1 312 87)" fill="white"/>
<circle cx="336" cy="47" r="2" fill="white"/>
<circle cx="362" cy="119" r="2" fill="white"/>
<circle cx="484" cy="59" r="2" fill="white"/>
<circle cx="240" cy="94" r="2" fill="white"/>
<circle cx="408" cy="34" r="2" fill="white"/>
<circle cx="312" cy="81" r="2" fill="white"/>
<circle r="0.5" transform="matrix(-1 0 0 1 396.5 32.5)" fill="white"/>
<circle r="0.5" transform="matrix(-1 0 0 1 459.5 57.5)" fill="white"/>
<circle r="0.5" transform="matrix(-1 0 0 1 300.5 79.5)" fill="white"/>
<circle r="0.5" transform="matrix(-1 0 0 1 363.5 104.5)" fill="white"/>
<circle r="0.5" transform="matrix(-1 0 0 1 433.5 33.5)" fill="white"/>
<circle r="0.5" transform="matrix(-1 0 0 1 496.5 58.5)" fill="white"/>
<circle r="0.5" transform="matrix(-1 0 0 1 337.5 80.5)" fill="white"/>
<circle r="0.5" transform="matrix(-1 0 0 1 308.5 93.5)" fill="white"/>
<circle r="0.5" transform="matrix(-1 0 0 1 303.5 98.5)" fill="white"/>
<circle r="0.5" transform="matrix(-1 0 0 1 274.5 111.5)" fill="white"/>
<circle r="0.5" transform="matrix(-1 0 0 1 400.5 105.5)" fill="white"/>
<circle r="0.5" transform="matrix(-1 0 0 1 371.5 118.5)" fill="white"/>
<circle r="0.5" transform="matrix(-1 0 0 1 366.5 123.5)" fill="white"/>
<circle r="0.5" transform="matrix(-1 0 0 1 337.5 136.5)" fill="white"/>
<circle r="0.5" transform="matrix(-1 0 0 1 429.5 36.5)" fill="white"/>
<circle r="0.5" transform="matrix(-1 0 0 1 400.5 49.5)" fill="white"/>
<circle r="0.5" transform="matrix(-1 0 0 1 395.5 54.5)" fill="white"/>
<circle r="0.5" transform="matrix(-1 0 0 1 366.5 67.5)" fill="white"/>
<circle r="0.5" transform="matrix(-1 0 0 1 492.5 61.5)" fill="white"/>
<circle r="0.5" transform="matrix(-1 0 0 1 463.5 74.5)" fill="white"/>
<circle r="0.5" transform="matrix(-1 0 0 1 458.5 79.5)" fill="white"/>
<circle r="0.5" transform="matrix(-1 0 0 1 429.5 92.5)" fill="white"/>
<circle r="0.5" transform="matrix(-1 0 0 1 333.5 83.5)" fill="white"/>
<circle r="0.5" transform="matrix(-1 0 0 1 304.5 96.5)" fill="white"/>
<circle r="0.5" transform="matrix(-1 0 0 1 299.5 101.5)" fill="white"/>
<circle r="0.5" transform="matrix(-1 0 0 1 270.5 114.5)" fill="white"/>
<path d="M397 40L397.898 42.7639H400.804L398.453 44.4721L399.351 47.2361L397 45.5279L394.649 47.2361L395.547 44.4721L393.196 42.7639H396.102L397 40Z" fill="white"/>
<path d="M480.643 157.752L480.275 159.481L481.806 160.365L480.048 160.55L479.681 162.279L478.962 160.664L477.204 160.849L478.517 159.666L477.798 158.051L479.329 158.935L480.643 157.752Z" fill="white"/>
<path d="M287.343 109.097L288.52 110.415L290.138 109.703L289.248 111.23L290.426 112.548L288.698 112.174L287.809 113.701L287.631 111.943L285.903 111.568L287.521 110.856L287.343 109.097Z" fill="white"/>
<g filter="url(#filter4_d)">
<circle cx="431" cy="287" r="31" fill="#EDBF89"/>
</g>
<mask id="mask0" mask-type="alpha" maskUnits="userSpaceOnUse" x="392" y="248" width="78" height="78">
<circle cx="431.163" cy="287.163" r="31" transform="rotate(-17.1233 431.163 287.163)" fill="#85C2A9"/>
</mask>
<g mask="url(#mask0)">
<path d="M392.193 276.149C407.192 278.643 439.266 262.518 453.428 254.144L459.568 255.391C448.43 283.055 392.252 289.034 380.888 290.69C380.19 291.114 379.561 291.306 379.038 291.188C378.542 291.077 379.248 290.928 380.888 290.69C384.385 288.561 389.63 280.572 392.193 276.149Z" fill="#FA964E"/>
<path d="M401.012 297.969C415.092 296.19 446.502 279.199 460.447 270.926L466.196 270.337C453.951 289.795 400.287 305.874 389.404 309.401C388.716 309.816 388.108 310.072 387.618 310.116C387.154 310.157 387.834 309.909 389.404 309.401C392.851 307.321 398.312 301.253 401.012 297.969Z" fill="#FA964E"/>
<path d="M410.076 309.668C423.614 306.611 455.5 290.741 469.75 283.188L475.261 282.035C461.17 297.141 408.368 315.255 397.626 319.113C396.922 319.491 396.314 319.748 395.846 319.841C395.402 319.93 396.076 319.67 397.626 319.113C401.154 317.222 407.1 312.299 410.076 309.668Z" fill="#FA964E"/>
<path d="M442.133 317.758C465.377 287.159 438.305 265.086 421.864 257.874C427.396 254.509 454.988 253.116 461.085 279.164C465.963 300.002 450.483 313.576 442.133 317.758Z" fill="url(#paint6_linear)"/>
</g>
<path d="M182.771 798.518C185.438 802.018 191.671 805.818 195.271 807.018L201.271 818.018C196.771 820.185 182.571 822.518 177.771 814.518C176.104 812.185 173.771 810.418 175.771 804.018L177.771 792.018C179.143 791.675 180.882 791.149 182.771 790.589C183.974 790.233 185.237 789.863 186.507 789.518C188.485 788.981 190.476 788.504 192.271 788.234C195.426 787.759 197.973 787.923 198.771 789.518C192.604 788.518 180.771 791.718 182.771 798.518Z" fill="#C4C4C4"/>
<path d="M189.462 802.039C192.101 804.875 198.27 807.953 201.833 808.925L207.771 817.837C203.317 819.592 189.264 821.482 184.513 815.001C182.864 813.111 180.555 811.68 182.534 806.495L184.513 796.773C185.871 796.495 187.592 796.069 189.462 795.616C190.652 795.327 191.903 795.027 193.159 794.748C195.117 794.313 197.088 793.926 198.864 793.708C201.986 793.323 204.507 793.456 205.297 794.748C199.194 793.938 187.482 796.53 189.462 802.039Z" fill="#C4C4C4"/>
<circle r="0.5" transform="matrix(-1 0 0 1 295.5 42.5)" fill="white"/>
<circle r="0.5" transform="matrix(-1 0 0 1 332.5 43.5)" fill="white"/>
<circle r="0.5" transform="matrix(-1 0 0 1 328.5 46.5)" fill="white"/>
<path d="M277.784 279.5C428.544 179.5 491.463 88.5 489.42 13L498 78.5C493.914 244 241.013 344.355 346.014 302C463.027 254.8 496.093 182 498 151.5L493.914 221.5C475.12 270 360.722 319 399.944 313C431.322 308.2 466.677 271 480.432 253V361H145C147.451 351.833 157.012 332.9 175.642 330.5C194.273 328.1 243.736 290.333 277.784 279.5Z" fill="url(#paint7_linear)"/>
</g>
<defs>
<filter id="filter0_d" x="385" y="79" width="58" height="58" filterUnits="userSpaceOnUse" color-interpolation-filters="sRGB">
<feFlood flood-opacity="0" result="BackgroundImageFix"/>
<feColorMatrix in="SourceAlpha" type="matrix" values="0 0 0 0 0 0 0 0 0 0 0 0 0 0 0 0 0 0 127 0"/>
<feOffset dy="4"/>
<feGaussianBlur stdDeviation="2"/>
<feColorMatrix type="matrix" values="0 0 0 0 0 0 0 0 0 0 0 0 0 0 0 0 0 0 0.25 0"/>
<feBlend mode="normal" in2="BackgroundImageFix" result="effect1_dropShadow"/>
<feBlend mode="normal" in="SourceGraphic" in2="effect1_dropShadow" result="shape"/>
</filter>
<filter id="filter1_f" x="352" y="53" width="28" height="28" filterUnits="userSpaceOnUse" color-interpolation-filters="sRGB">
<feFlood flood-opacity="0" result="BackgroundImageFix"/>
<feBlend mode="normal" in="SourceGraphic" in2="BackgroundImageFix" result="shape"/>
<feGaussianBlur stdDeviation="2" result="effect1_foregroundBlur"/>
</filter>
<filter id="filter2_f" x="452" y="174" width="18" height="18" filterUnits="userSpaceOnUse" color-interpolation-filters="sRGB">
<feFlood flood-opacity="0" result="BackgroundImageFix"/>
<feBlend mode="normal" in="SourceGraphic" in2="BackgroundImageFix" result="shape"/>
<feGaussianBlur stdDeviation="2" result="effect1_foregroundBlur"/>
</filter>
<filter id="filter3_d" x="-4" y="497" width="282.179" height="207" filterUnits="userSpaceOnUse" color-interpolation-filters="sRGB">
<feFlood flood-opacity="0" result="BackgroundImageFix"/>
<feColorMatrix in="SourceAlpha" type="matrix" values="0 0 0 0 0 0 0 0 0 0 0 0 0 0 0 0 0 0 127 0"/>
<feOffset dy="4"/>
<feGaussianBlur stdDeviation="2"/>
<feColorMatrix type="matrix" values="0 0 0 0 0 0 0 0 0 0 0 0 0 0 0 0 0 0 0.25 0"/>
<feBlend mode="normal" in2="BackgroundImageFix" result="effect1_dropShadow"/>
<feBlend mode="normal" in="SourceGraphic" in2="effect1_dropShadow" result="shape"/>
</filter>
<filter id="filter4_d" x="396" y="256" width="70" height="70" filterUnits="userSpaceOnUse" color-interpolation-filters="sRGB">
<feFlood flood-opacity="0" result="BackgroundImageFix"/>
<feColorMatrix in="SourceAlpha" type="matrix" values="0 0 0 0 0 0 0 0 0 0 0 0 0 0 0 0 0 0 127 0"/>
<feOffset dy="4"/>
<feGaussianBlur stdDeviation="2"/>
<feColorMatrix type="matrix" values="0 0 0 0 0 0 0 0 0 0 0 0 0 0 0 0 0 0 0.25 0"/>
<feBlend mode="normal" in2="BackgroundImageFix" result="effect1_dropShadow"/>
<feBlend mode="normal" in="SourceGraphic" in2="effect1_dropShadow" result="shape"/>
</filter>
<linearGradient id="paint0_linear" x1="307.525" y1="13" x2="307.525" y2="645.5" gradientUnits="userSpaceOnUse">
<stop/>
<stop offset="0.348958" stop-color="#95EEA3"/>
<stop offset="1" stop-color="#63FFB4"/>
</linearGradient>
<linearGradient id="paint1_linear" x1="308.473" y1="14" x2="308.473" y2="646.894" gradientUnits="userSpaceOnUse">
<stop stop-color="white"/>
<stop offset="0.348958" stop-color="#6869FF"/>
<stop offset="0.635417" stop-color="#A7FCD3"/>
<stop offset="1" stop-color="#E7FFF3"/>
</linearGradient>
<linearGradient id="paint2_linear" x1="320.393" y1="-1" x2="320.393" y2="792" gradientUnits="userSpaceOnUse">
<stop stop-color="white"/>
<stop offset="0.760417" stop-color="white" stop-opacity="0"/>
</linearGradient>
<linearGradient id="paint3_linear" x1="159.412" y1="377.5" x2="343.529" y2="376.525" gradientUnits="userSpaceOnUse">
<stop offset="0.348958" stop-color="#2063B2" stop-opacity="0"/>
<stop offset="1" stop-color="#2064B4" stop-opacity="0.55"/>
</linearGradient>
<linearGradient id="paint4_linear" x1="268.5" y1="367.783" x2="268.5" y2="276.048" gradientUnits="userSpaceOnUse">
<stop stop-color="#3F7CC5"/>
<stop offset="1" stop-opacity="0"/>
</linearGradient>
<linearGradient id="paint5_linear" x1="135" y1="517.735" x2="135" y2="441.614" gradientUnits="userSpaceOnUse">
<stop stop-color="#3F7CC5"/>
<stop offset="1" stop-opacity="0"/>
</linearGradient>
<linearGradient id="paint6_linear" x1="444.12" y1="257.476" x2="436.032" y2="316.928" gradientUnits="userSpaceOnUse">
<stop stop-color="#FF8C39" stop-opacity="0"/>
<stop offset="0.772702" stop-color="#C039FF"/>
</linearGradient>
<linearGradient id="paint7_linear" x1="321.5" y1="13" x2="321.5" y2="361" gradientUnits="userSpaceOnUse">
<stop stop-color="#66F6BA"/>
<stop offset="1" stop-color="#66F6BA" stop-opacity="0"/>
</linearGradient>
<clipPath id="clip0">
<rect width="565" height="885" fill="white"/>
</clipPath>
</defs>
</svg>
