<svg width="644" height="922" viewBox="0 0 644 922" fill="none" xmlns="http://www.w3.org/2000/svg">
<g clip-path="url(#clip0)">
<path d="M196.902 459.682H198.42V458.509H202.1V459.682H203.664V458.509H207.712V457.175H203.664V455.772H202.1V457.175H198.42V455.772H196.902V457.175H193.176V458.509H196.902V459.682ZM196.373 464.742V463.408H199.524V464.742H196.373ZM196.373 461.108H199.524V462.396H196.373V461.108ZM204.308 462.396H200.973V461.108H204.308V462.396ZM204.308 464.742H200.973V463.408H204.308V464.742ZM206.953 466.95H200.973V465.777H205.941V460.05H194.786V465.777H199.524V466.95H193.705V473.689H195.223V468.1H199.524V469.963C198.213 470.032 197.017 470.101 196.028 470.147L196.166 471.481C198.167 471.32 200.812 471.136 203.434 470.906C203.572 471.274 203.664 471.596 203.733 471.895L204.768 471.619C204.561 470.745 203.917 469.434 203.25 468.491L202.307 468.698C202.537 469.043 202.744 469.411 202.928 469.802L200.973 469.894V468.1H205.481V472.286C205.481 472.516 205.412 472.562 205.182 472.585C204.952 472.585 204.308 472.585 203.503 472.562C203.664 472.907 203.848 473.344 203.894 473.689C205.067 473.689 205.849 473.689 206.309 473.482C206.838 473.275 206.953 472.976 206.953 472.286V466.95ZM192.739 458.739C192.026 457.865 190.439 456.738 189.105 456.048L187.978 457.083C189.312 457.819 190.853 458.992 191.543 459.866L192.739 458.739ZM192.095 463.27C191.313 462.419 189.657 461.315 188.277 460.671L187.196 461.729C188.576 462.465 190.186 463.615 190.945 464.466L192.095 463.27ZM191.566 466.375H187.081V467.962H189.956V472.332C188.921 473.275 187.817 474.241 186.851 474.931L187.748 476.564C188.852 475.575 189.887 474.609 190.876 473.62C192.348 475.414 194.464 476.219 197.5 476.334C200.076 476.426 204.975 476.38 207.528 476.288C207.62 475.782 207.873 475.023 208.103 474.632C205.343 474.816 200.03 474.862 197.477 474.77C194.763 474.655 192.693 473.896 191.566 472.194V466.375ZM220.132 458.049V459.912H215.095V458.049H220.132ZM215.095 463.109V461.131H220.132V463.109H215.095ZM221.742 464.42V456.738H213.416V476.771H215.095V464.42H221.742ZM221.098 469.756V467.272H224.318V469.756H221.098ZM228.964 471.205V469.756H225.836V467.272H228.458V465.869H217.119V467.272H219.603V469.756H216.682V471.205H219.557C219.419 472.539 218.775 474.448 216.843 475.621C217.211 475.851 217.717 476.334 217.97 476.633C220.178 475.138 220.914 472.746 221.052 471.205H224.318V476.334H225.836V471.205H228.964ZM225.399 463.132V461.131H230.62V463.132H225.399ZM230.62 458.049V459.912H225.399V458.049H230.62ZM232.299 456.738H223.766V464.443H230.62V474.517C230.62 474.885 230.505 475.023 230.137 475.023C229.792 475.046 228.55 475.046 227.285 475C227.538 475.46 227.791 476.265 227.837 476.702C229.562 476.725 230.712 476.679 231.402 476.403C232.069 476.104 232.299 475.552 232.299 474.54V456.738ZM238.716 468.79C238.463 470.791 238.026 472.861 237.313 474.264C237.635 474.379 238.325 474.678 238.578 474.885C239.314 473.413 239.843 471.205 240.165 469.043L238.716 468.79ZM243.431 469.112C244.006 470.423 244.466 472.171 244.581 473.275L245.915 472.884C245.777 471.757 245.271 470.055 244.696 468.744L243.431 469.112ZM251.297 471.849C250.883 471.849 250.791 471.665 250.791 471.067V467.801H255.667V466.444H252.654V464.098H255.529V462.741H253.781C254.241 461.867 254.793 460.625 255.299 459.521L253.919 459.061C253.666 460.05 253.137 461.499 252.7 462.419L253.551 462.741H249.94L250.998 462.35C250.86 461.522 250.423 460.211 249.894 459.222L248.79 459.613C249.273 460.579 249.687 461.867 249.825 462.741H248.537V464.098H251.182V466.444H248.353V467.801H249.319V471.044C249.319 472.677 249.71 473.206 251.297 473.206H253.988C254.517 473.206 255.046 473.206 255.368 473.137C255.322 472.769 255.253 472.125 255.23 471.757C254.908 471.826 254.287 471.849 253.965 471.849H251.297ZM257.99 456.853H246.145V467.272C245.731 466.03 244.926 464.374 244.075 463.086L242.833 463.592C243.201 464.19 243.546 464.857 243.868 465.524L240.556 465.685C242.12 463.73 243.845 461.131 245.156 459.038L243.73 458.371C243.086 459.613 242.212 461.108 241.269 462.534C240.924 462.074 240.51 461.568 240.027 461.062C240.901 459.774 241.89 457.911 242.672 456.324L241.177 455.772C240.694 457.037 239.889 458.785 239.13 460.096C238.9 459.866 238.67 459.659 238.44 459.452L237.52 460.533C238.555 461.522 239.705 462.833 240.372 463.868C239.889 464.558 239.406 465.202 238.946 465.777L237.359 465.846L237.52 467.387L241.131 467.157V476.748H242.649V467.065L244.466 466.95C244.696 467.479 244.857 467.985 244.949 468.422L246.145 467.87V476.794H247.663V458.371H256.426V474.839C256.426 475.161 256.334 475.253 256.035 475.276C255.713 475.276 254.701 475.299 253.643 475.253C253.873 475.667 254.103 476.357 254.149 476.748C255.621 476.771 256.587 476.725 257.208 476.495C257.783 476.219 257.99 475.759 257.99 474.839V456.853ZM274.458 468.468C275.677 467.732 276.85 466.812 277.908 465.754C278.897 466.743 280.024 467.709 281.312 468.468H274.458ZM275.01 474.379V469.963H280.76V474.379H275.01ZM271.629 467.042H268.8V463.73H271.445V463.04C271.859 463.316 272.388 463.799 272.641 464.052C273.377 463.293 274.09 462.419 274.734 461.407C275.309 462.442 275.999 463.523 276.85 464.558C275.286 466.145 273.469 467.364 271.629 468.146V467.042ZM265.534 458.21H269.858V462.235H265.534V458.21ZM280.208 459.59C279.633 461.016 278.805 462.304 277.839 463.477C276.896 462.35 276.137 461.154 275.562 460.027L275.792 459.59H280.208ZM281.243 458.026L280.944 458.095H276.505C276.758 457.474 277.011 456.807 277.241 456.14L275.608 455.749C274.757 458.509 273.262 461.085 271.445 462.81V456.715H264.016V463.73H267.236V473.022L265.465 473.436V465.892H264.016V473.735L262.843 473.988L263.165 475.644C265.58 475.046 268.846 474.264 271.974 473.505L271.813 471.964C270.801 472.217 269.789 472.447 268.8 472.677V468.56H271.215C271.537 468.882 271.882 469.365 272.043 469.71C272.503 469.503 272.963 469.296 273.423 469.043V476.725H275.01V475.897H280.76V476.656H282.393V469.066C282.646 469.181 282.899 469.296 283.129 469.411C283.359 468.974 283.842 468.33 284.187 468.008C282.117 467.226 280.369 466.007 278.943 464.627C280.369 462.925 281.565 460.901 282.301 458.509L281.243 458.026ZM299.505 467.916V463.109H303.829V467.916H299.505ZM305.531 470.538V463.109H309.096V461.476H305.531V456.163H303.829V461.476H299.505V455.887H297.826V461.476H293.548V456.37H291.8V461.476H288.373V463.109H291.8V476.748H293.548V475.069H308.314V473.413H293.548V463.109H297.826V470.653H299.505V469.526H303.829V470.538H305.531ZM319.699 470.101C319.699 471.826 319.285 474.057 315.283 475.529C315.651 475.874 316.203 476.472 316.456 476.909C320.895 475.115 321.424 472.355 321.424 470.17V468.767H319.699V470.101ZM317.859 461.752H323.126V464.236H317.859V461.752ZM317.859 457.957H323.126V460.395H317.859V457.957ZM330.118 460.395H324.805V457.957H330.118V460.395ZM330.118 464.236H324.805V461.752H330.118V464.236ZM331.866 465.685V456.508H316.18V465.685H320.757C319.009 467.479 316.249 469.02 313.604 469.779C313.995 470.124 314.478 470.745 314.754 471.182C317.767 470.124 320.941 468.1 322.827 465.685H325.357C326.231 466.835 327.404 467.87 328.669 468.767H326.967V476.725H328.715V468.79C330.164 469.779 331.774 470.584 333.407 471.09C333.637 470.653 334.143 469.986 334.534 469.641C331.797 468.928 329.083 467.456 327.358 465.685H331.866ZM346.264 465.777H341.434V460.97H346.264V465.777ZM341.434 472.815V467.295H346.264V472.815H341.434ZM343.366 455.703C343.205 456.784 342.791 458.325 342.446 459.429H339.87V476.173H341.434V474.356H347.828V459.429H344.01C344.401 458.44 344.815 457.175 345.206 456.048L343.366 455.703ZM359.075 459.36H352.198C352.589 458.279 352.911 457.175 353.187 456.048L351.554 455.657C350.818 458.808 349.576 461.982 348.035 464.006C348.403 464.236 349.139 464.696 349.438 464.972C350.243 463.891 350.956 462.488 351.6 460.947H357.442C357.143 470.101 356.798 473.597 356.039 474.402C355.809 474.701 355.556 474.747 355.096 474.747C354.567 474.747 353.187 474.747 351.692 474.609C352.014 475.092 352.221 475.782 352.267 476.288C353.555 476.357 354.866 476.403 355.671 476.311C356.453 476.242 356.982 476.035 357.488 475.391C358.408 474.264 358.707 470.722 359.075 460.234V459.36ZM355.441 469.71C354.705 468.353 353.118 466.145 351.83 464.512L350.496 465.294C351.761 466.95 353.302 469.227 353.992 470.607L355.441 469.71ZM368.39 459.13C368.827 460.027 369.264 461.108 369.425 461.821L370.897 461.223C370.759 460.671 370.437 459.866 370.069 459.13H374.278V457.75H368.252C368.528 457.198 368.781 456.646 368.988 456.071L367.378 455.657C366.642 457.681 365.377 459.705 363.928 461.039C364.342 461.246 365.032 461.729 365.331 461.959C366.067 461.2 366.826 460.211 367.493 459.13H368.39ZM373.772 467.226V469.342H368.114C368.275 468.652 368.459 467.939 368.62 467.226H373.772ZM375.405 463.454H381.155V465.777H375.405V463.454ZM375.405 469.342V467.226H382.834V462.005H366.136V463.454H373.772V465.777H367.263C366.895 467.571 366.297 469.871 365.837 471.343L367.493 471.596C367.562 471.366 367.631 471.09 367.723 470.814H372.254C370.161 472.631 367.01 474.241 364.181 475.023C364.549 475.368 365.009 475.966 365.262 476.38C368.229 475.414 371.564 473.551 373.772 471.343V476.748H375.405V470.814H382.328C382.098 472.861 381.845 473.781 381.523 474.103C381.339 474.264 381.109 474.264 380.718 474.264C380.304 474.264 379.223 474.264 378.096 474.172C378.372 474.586 378.533 475.253 378.556 475.736C379.752 475.782 380.856 475.782 381.454 475.736C382.098 475.713 382.512 475.575 382.903 475.184C383.478 474.609 383.8 473.206 384.122 470.032C384.145 469.779 384.168 469.342 384.168 469.342H375.405ZM377.222 457.75C377.521 457.198 377.774 456.646 378.004 456.071L376.371 455.657C375.635 457.704 374.232 459.613 372.645 460.878C373.036 461.085 373.726 461.591 374.025 461.867C374.853 461.131 375.681 460.188 376.394 459.13H378.027C378.717 460.027 379.384 461.108 379.66 461.867L381.155 461.269C380.902 460.671 380.396 459.866 379.844 459.13H384.95V457.75H377.222ZM389.504 465.11V466.973H410.388V465.11H389.504ZM419.818 465.11C418.668 466.789 416.805 468.491 414.988 469.595C415.425 469.848 416.138 470.4 416.46 470.722C418.208 469.503 420.232 467.571 421.543 465.662L419.818 465.11ZM431.318 465.731C429.34 471.481 424.901 474.195 416.69 475.207C417.035 475.598 417.38 476.288 417.564 476.794C426.12 475.552 430.812 472.562 433.02 466.306L431.318 465.731ZM426.097 462.695V460.073H433.089V458.463H426.097V455.772H424.372V462.695H420.14V457.543H418.438V462.695H415.011V464.282H424.372V469.595C424.372 469.825 424.303 469.894 423.958 469.917C423.613 469.94 422.486 469.94 421.29 469.894C421.497 470.354 421.75 470.975 421.842 471.435C423.475 471.435 424.533 471.435 425.2 471.182C425.867 470.929 426.074 470.492 426.074 469.618V464.282H435.412V462.695H426.097ZM442.897 470.384H441.021L440.875 458.648H443.054L442.897 470.384ZM440.797 473.956C440.797 473.619 440.898 473.338 441.1 473.113C441.31 472.881 441.617 472.765 442.021 472.765C442.425 472.765 442.732 472.881 442.942 473.113C443.152 473.338 443.256 473.619 443.256 473.956C443.256 474.292 443.152 474.573 442.942 474.798C442.732 475.015 442.425 475.124 442.021 475.124C441.617 475.124 441.31 475.015 441.1 474.798C440.898 474.573 440.797 474.292 440.797 473.956Z" fill="black"/>
<path d="M400.392 530.36C400.392 529.945 400.234 529.624 399.918 529.397C399.609 529.165 399.063 528.965 398.283 528.799C397.508 528.633 396.891 528.434 396.432 528.202C395.978 527.969 395.641 527.693 395.419 527.372C395.204 527.051 395.096 526.669 395.096 526.226C395.096 525.49 395.406 524.868 396.025 524.358C396.651 523.849 397.448 523.595 398.416 523.595C399.434 523.595 400.259 523.858 400.89 524.383C401.526 524.909 401.844 525.581 401.844 526.4H400.3C400.3 525.98 400.12 525.617 399.761 525.313C399.407 525.009 398.958 524.856 398.416 524.856C397.857 524.856 397.42 524.978 397.104 525.222C396.789 525.465 396.631 525.783 396.631 526.176C396.631 526.547 396.778 526.826 397.071 527.015C397.365 527.203 397.893 527.383 398.657 527.554C399.426 527.726 400.049 527.931 400.524 528.168C401 528.406 401.352 528.694 401.579 529.032C401.811 529.364 401.927 529.771 401.927 530.252C401.927 531.054 401.606 531.699 400.964 532.186C400.322 532.667 399.49 532.908 398.466 532.908C397.746 532.908 397.11 532.781 396.557 532.526C396.003 532.272 395.569 531.918 395.253 531.464C394.944 531.005 394.789 530.509 394.789 529.978H396.324C396.352 530.493 396.557 530.902 396.938 531.207C397.326 531.505 397.835 531.655 398.466 531.655C399.047 531.655 399.512 531.539 399.86 531.306C400.215 531.068 400.392 530.753 400.392 530.36ZM411.88 530.625L413.606 523.761H415.142L412.527 532.742H411.282L409.099 525.936L406.974 532.742H405.729L403.123 523.761H404.65L406.418 530.484L408.51 523.761H409.747L411.88 530.625ZM418.379 532.742H416.844V523.761H418.379V532.742ZM416.719 521.378C416.719 521.129 416.794 520.919 416.943 520.748C417.098 520.576 417.325 520.49 417.624 520.49C417.923 520.49 418.15 520.576 418.305 520.748C418.46 520.919 418.537 521.129 418.537 521.378C418.537 521.627 418.46 521.835 418.305 522.001C418.15 522.167 417.923 522.25 417.624 522.25C417.325 522.25 417.098 522.167 416.943 522.001C416.794 521.835 416.719 521.627 416.719 521.378ZM428.432 528.351C428.432 529.718 428.119 530.819 427.494 531.655C426.868 532.49 426.022 532.908 424.954 532.908C423.863 532.908 423.006 532.562 422.38 531.871V536.195H420.845V523.761H422.248L422.322 524.757C422.948 523.982 423.816 523.595 424.929 523.595C426.008 523.595 426.86 524.001 427.485 524.815C428.116 525.628 428.432 526.76 428.432 528.21V528.351ZM426.896 528.177C426.896 527.164 426.68 526.364 426.249 525.778C425.817 525.191 425.225 524.898 424.472 524.898C423.542 524.898 422.845 525.31 422.38 526.135V530.426C422.84 531.245 423.542 531.655 424.489 531.655C425.225 531.655 425.809 531.364 426.24 530.783C426.677 530.197 426.896 529.328 426.896 528.177ZM434.118 532.908C432.9 532.908 431.91 532.51 431.146 531.713C430.382 530.91 430 529.84 430 528.5V528.218C430 527.327 430.169 526.533 430.507 525.836C430.85 525.133 431.326 524.585 431.935 524.192C432.549 523.794 433.213 523.595 433.927 523.595C435.094 523.595 436.002 523.979 436.649 524.749C437.297 525.518 437.621 526.619 437.621 528.052V528.691H431.536C431.558 529.577 431.816 530.293 432.308 530.841C432.806 531.384 433.437 531.655 434.201 531.655C434.743 531.655 435.202 531.544 435.579 531.323C435.955 531.101 436.284 530.808 436.566 530.443L437.504 531.173C436.752 532.33 435.623 532.908 434.118 532.908ZM433.927 524.856C433.307 524.856 432.787 525.083 432.366 525.537C431.946 525.985 431.686 526.616 431.586 527.43H436.085V527.313C436.041 526.533 435.83 525.93 435.454 525.504C435.078 525.072 434.569 524.856 433.927 524.856ZM426.008 551.854C425.41 552.557 424.533 552.908 423.376 552.908C422.419 552.908 421.689 552.632 421.185 552.078C420.687 551.519 420.435 550.695 420.43 549.604V543.761H421.965V549.563C421.965 550.924 422.519 551.605 423.625 551.605C424.799 551.605 425.579 551.168 425.966 550.293V543.761H427.502V552.742H426.041L426.008 551.854ZM437.43 548.351C437.43 549.718 437.117 550.819 436.492 551.655C435.866 552.49 435.02 552.908 433.952 552.908C432.861 552.908 432.004 552.562 431.378 551.871V556.195H429.843V543.761H431.246L431.32 544.757C431.946 543.982 432.814 543.595 433.927 543.595C435.006 543.595 435.858 544.001 436.483 544.815C437.114 545.628 437.43 546.76 437.43 548.21V548.351ZM435.894 548.177C435.894 547.164 435.678 546.364 435.247 545.778C434.815 545.191 434.223 544.898 433.47 544.898C432.541 544.898 431.843 545.31 431.378 546.135V550.426C431.838 551.245 432.541 551.655 433.487 551.655C434.223 551.655 434.807 551.364 435.238 550.783C435.675 550.197 435.894 549.328 435.894 548.177Z" fill="#2064B4"/>
<line y1="-0.5" x2="10.4204" y2="-0.5" transform="matrix(-0.698071 -0.716029 0.698071 -0.716029 436.516 513.461)" stroke="#2064B4"/>
<line y1="-0.5" x2="10.4204" y2="-0.5" transform="matrix(-0.698071 0.716029 -0.698071 -0.716029 429.242 506)" stroke="#2064B4"/>
</g>
<defs>
<clipPath id="clip0">
<rect width="644" height="922" fill="white"/>
</clipPath>
</defs>
</svg>
