<svg width="607" height="1317" viewBox="0 0 607 1317" fill="none" xmlns="http://www.w3.org/2000/svg">
<g clip-path="url(#clip0)">
<g filter="url(#filter0_d)">
<path d="M211.335 680H60.1628C47.6022 680 37.4521 666.995 37.4521 650.901V549.868C37.4521 533.774 47.6022 523.17 60.1628 523.17H135.749H211.335C223.895 523.17 234.768 517.568 233.323 549.868C233.323 549.868 233.323 634.807 233.323 650.901C233.323 666.995 223.895 680 211.335 680Z" fill="white" stroke="#2064B4" stroke-miterlimit="10"/>
<path d="M229.557 545H41.4431C39.0025 545 37 542.687 37 539.867V520.133C37 517.313 39.0025 515 41.4431 515H229.557C231.997 515 234 517.313 234 520.133V539.867C234 542.759 231.997 545 229.557 545Z" fill="#20B47F"/>
<path d="M227.579 545H40.4206C37.9924 545 36 542.764 36 540.039V520.961C36 518.236 37.9924 516 40.4206 516H227.579C230.008 516 232 518.236 232 520.961V540.039C232 542.834 230.008 545 227.579 545Z" fill="url(#paint0_linear)" style="mix-blend-mode:lighten"/>
<path d="M210.058 523L222 537" stroke="white" stroke-width="2" stroke-miterlimit="10"/>
<path d="M222.001 523L208.731 537" stroke="white" stroke-width="2" stroke-miterlimit="10"/>
<path d="M153 530.636H170.25" stroke="white" stroke-width="2" stroke-miterlimit="10"/>
<path d="M197.446 523H186.904V531.751H197.446V523Z" stroke="white" stroke-width="2" stroke-miterlimit="10"/>
<path d="M192.797 528.063H182.256V536.814H192.797V528.063Z" stroke="white" stroke-width="2" stroke-miterlimit="10"/>
</g>
</g>
<defs>
<filter id="filter0_d" x="32" y="515" width="206" height="173.5" filterUnits="userSpaceOnUse" color-interpolation-filters="sRGB">
<feFlood flood-opacity="0" result="BackgroundImageFix"/>
<feColorMatrix in="SourceAlpha" type="matrix" values="0 0 0 0 0 0 0 0 0 0 0 0 0 0 0 0 0 0 127 0"/>
<feOffset dy="4"/>
<feGaussianBlur stdDeviation="2"/>
<feColorMatrix type="matrix" values="0 0 0 0 0 0 0 0 0 0 0 0 0 0 0 0 0 0 0.25 0"/>
<feBlend mode="normal" in2="BackgroundImageFix" result="effect1_dropShadow"/>
<feBlend mode="normal" in="SourceGraphic" in2="effect1_dropShadow" result="shape"/>
</filter>
<linearGradient id="paint0_linear" x1="134" y1="530.675" x2="134" y2="474.072" gradientUnits="userSpaceOnUse">
<stop stop-color="#3F7CC5"/>
<stop offset="1" stop-opacity="0"/>
</linearGradient>
<clipPath id="clip0">
<rect width="606.45" height="1317" fill="white"/>
</clipPath>
</defs>
</svg>
