<svg width="38" height="38" viewBox="0 0 38 38" fill="none" xmlns="http://www.w3.org/2000/svg">
<rect x="38" width="38" height="27" rx="5" transform="rotate(90 38 0)" fill="url(#paint0_linear)"/>
<rect x="34" width="38" height="31" rx="5" transform="rotate(90 34 0)" fill="url(#paint1_linear)"/>
<path d="M2.32721 21.176L4.86573 21.176L8.93984 21.1725V27.7462C8.94006 28.0263 9.01084 28.3017 9.14563 28.5472C9.28043 28.7926 9.4749 29.0002 9.71108 29.1506C9.94726 29.3011 10.2175 29.3896 10.497 29.408C10.7764 29.4264 11.056 29.3741 11.3098 29.2559L25.7148 22.5207C26.288 22.2519 26.7728 21.8253 27.1124 21.291C27.452 20.7567 27.6325 20.1367 27.6326 19.5035C27.6327 18.8704 27.4525 18.2503 27.1131 17.7159C26.7737 17.1814 26.2891 16.7547 25.7159 16.4856L11.3004 9.76098C11.0467 9.64231 10.7672 9.5895 10.4876 9.60742C10.2081 9.62534 9.93763 9.71342 9.70115 9.86351C9.59887 9.92925 9.50403 10.0059 9.41831 10.0921C9.10584 10.4047 8.93034 10.8287 8.93041 11.2707L8.93984 17.8467L4.86926 17.8467H2.33075C1.8938 17.8543 1.47732 18.0332 1.171 18.3449C0.864686 18.6566 0.693043 19.0762 0.693044 19.5132C0.693044 19.9502 0.864686 20.3697 1.171 20.6814C1.47732 20.9931 1.8938 21.172 2.33074 21.1796L2.32721 21.176ZM12.268 13.894L24.3053 19.5108L12.268 25.1276L12.268 13.894Z" fill="white"/>
<defs>
<linearGradient id="paint0_linear" x1="57" y1="0" x2="57" y2="27" gradientUnits="userSpaceOnUse">
<stop stop-color="#20B47F"/>
<stop offset="1" stop-color="#20B47F" stop-opacity="0"/>
</linearGradient>
<linearGradient id="paint1_linear" x1="51.5" y1="39" x2="51.5" y2="16" gradientUnits="userSpaceOnUse">
<stop stop-color="#0066FF" stop-opacity="0.82"/>
<stop offset="1" stop-color="#20B47F"/>
</linearGradient>
</defs>
</svg>
