<svg width="607" height="1317" viewBox="0 0 607 1317" fill="none" xmlns="http://www.w3.org/2000/svg">
<g clip-path="url(#clip0)">
<g filter="url(#filter0_d)">
<circle cx="369" cy="134" r="25" fill="white"/>
</g>
<path d="M500.085 214.863C497.353 223.734 490.564 230.938 480.543 236.354C470.518 241.771 457.289 245.38 441.757 247.059C410.695 250.419 370.521 246.054 328.608 233.146C286.696 220.238 251.026 201.245 227.236 180.993C215.34 170.866 206.434 160.44 201.194 150.322C195.955 140.206 194.395 130.43 197.127 121.56C199.859 112.689 206.649 105.484 216.67 100.069C226.695 94.6515 239.923 91.0429 255.455 89.363C286.517 86.0035 326.692 90.3685 368.605 103.277C410.517 116.185 446.187 135.177 469.977 155.43C481.873 165.557 490.779 175.982 496.019 186.101C501.258 196.216 502.817 205.992 500.085 214.863Z" stroke="white"/>
<path d="M457.607 191.776C455.779 197.709 451.336 202.569 444.792 206.262C438.245 209.956 429.62 212.467 419.497 213.7C399.254 216.166 373.118 213.511 345.899 205.129C318.681 196.746 295.579 184.237 280.231 170.809C272.556 164.095 266.837 157.167 263.503 150.43C260.17 143.695 259.231 137.178 261.058 131.244C262.886 125.31 267.329 120.451 273.873 116.758C280.42 113.063 289.045 110.553 299.168 109.32C319.411 106.854 345.548 109.508 372.766 117.891C399.985 126.273 423.086 138.783 438.435 152.21C446.109 158.924 451.828 165.852 455.162 172.59C458.495 179.325 459.434 185.842 457.607 191.776Z" stroke="white"/>
<path d="M493.3 208.744C491.013 216.171 485.098 222.147 476.258 226.571C467.417 230.996 455.69 233.845 441.876 235.028C414.25 237.393 378.384 233.084 340.835 221.52C303.286 209.956 271.21 193.34 249.701 175.843C238.946 167.094 230.854 158.141 226.034 149.508C221.214 140.878 219.687 132.609 221.974 125.182C224.261 117.755 230.176 111.779 239.016 107.355C247.857 102.93 259.584 100.081 273.398 98.898C301.024 96.5327 336.891 100.842 374.439 112.406C411.988 123.97 444.065 140.585 465.573 158.083C476.328 166.832 484.42 175.785 489.241 184.418C494.06 193.048 495.588 201.317 493.3 208.744Z" stroke="white"/>
<g filter="url(#filter1_f)">
<circle cx="321" cy="97" r="10" fill="#FFDA7B"/>
</g>
<path d="M420.367 172.388C419.243 176.037 416.508 179.038 412.45 181.328C408.389 183.62 403.027 185.183 396.72 185.951C384.108 187.488 367.81 185.835 350.828 180.605C333.846 175.375 319.442 167.573 309.879 159.207C305.097 155.023 301.544 150.715 299.476 146.535C297.409 142.359 296.837 138.339 297.96 134.69C299.084 131.042 301.819 128.04 305.877 125.75C309.938 123.459 315.3 121.896 321.607 121.127C334.219 119.591 350.517 121.244 367.499 126.474C384.481 131.704 398.885 139.506 408.448 147.872C413.23 152.055 416.783 156.364 418.851 160.544C420.918 164.72 421.491 168.74 420.367 172.388Z" stroke="white"/>
<path d="M235.227 285.981L236.404 287.299L238.022 286.587L237.132 288.114L238.31 289.432L236.582 289.058L235.692 290.585L235.514 288.827L233.787 288.452L235.404 287.74L235.227 285.981Z" fill="white"/>
<g filter="url(#filter2_f)">
<circle cx="416" cy="213" r="5" fill="#FF6464"/>
</g>
</g>
<defs>
<filter id="filter0_d" x="340" y="109" width="58" height="58" filterUnits="userSpaceOnUse" color-interpolation-filters="sRGB">
<feFlood flood-opacity="0" result="BackgroundImageFix"/>
<feColorMatrix in="SourceAlpha" type="matrix" values="0 0 0 0 0 0 0 0 0 0 0 0 0 0 0 0 0 0 127 0"/>
<feOffset dy="4"/>
<feGaussianBlur stdDeviation="2"/>
<feColorMatrix type="matrix" values="0 0 0 0 0 0 0 0 0 0 0 0 0 0 0 0 0 0 0.25 0"/>
<feBlend mode="normal" in2="BackgroundImageFix" result="effect1_dropShadow"/>
<feBlend mode="normal" in="SourceGraphic" in2="effect1_dropShadow" result="shape"/>
</filter>
<filter id="filter1_f" x="307" y="83" width="28" height="28" filterUnits="userSpaceOnUse" color-interpolation-filters="sRGB">
<feFlood flood-opacity="0" result="BackgroundImageFix"/>
<feBlend mode="normal" in="SourceGraphic" in2="BackgroundImageFix" result="shape"/>
<feGaussianBlur stdDeviation="2" result="effect1_foregroundBlur"/>
</filter>
<filter id="filter2_f" x="407" y="204" width="18" height="18" filterUnits="userSpaceOnUse" color-interpolation-filters="sRGB">
<feFlood flood-opacity="0" result="BackgroundImageFix"/>
<feBlend mode="normal" in="SourceGraphic" in2="BackgroundImageFix" result="shape"/>
<feGaussianBlur stdDeviation="2" result="effect1_foregroundBlur"/>
</filter>
<clipPath id="clip0">
<rect width="606.45" height="1317" fill="white"/>
</clipPath>
</defs>
</svg>
