<svg width="644" height="922" viewBox="0 0 644 922" fill="none" xmlns="http://www.w3.org/2000/svg">
<g clip-path="url(#clip0)">
<g filter="url(#filter0_d)">
<circle cx="443" cy="161" r="25" fill="white"/>
</g>
<path d="M574.086 241.863C571.354 250.734 564.564 257.938 554.543 263.354C544.518 268.771 531.29 272.38 515.758 274.059C484.696 277.419 444.521 273.054 402.608 260.146C360.696 247.238 325.026 228.245 301.236 207.993C289.34 197.866 280.434 187.44 275.194 177.322C269.955 167.206 268.396 157.43 271.128 148.56C273.86 139.689 280.649 132.484 290.67 127.069C300.695 121.651 313.924 118.043 329.456 116.363C360.518 113.003 400.692 117.369 442.605 130.277C484.517 143.185 520.187 162.177 543.977 182.43C555.873 192.557 564.779 202.982 570.019 213.101C575.258 223.216 576.818 232.992 574.086 241.863Z" stroke="white"/>
<path d="M531.607 218.776C529.78 224.709 525.337 229.569 518.793 233.262C512.245 236.956 503.62 239.467 493.498 240.7C473.254 243.166 447.118 240.511 419.899 232.129C392.681 223.746 369.58 211.237 354.231 197.809C346.556 191.095 340.837 184.167 337.503 177.43C334.17 170.695 333.231 164.178 335.059 158.244C336.886 152.31 341.329 147.451 347.873 143.758C354.42 140.063 363.046 137.553 373.168 136.32C393.412 133.854 419.548 136.508 446.766 144.891C473.985 153.273 497.086 165.783 512.435 179.21C520.11 185.924 525.828 192.852 529.163 199.59C532.495 206.325 533.434 212.842 531.607 218.776Z" stroke="white"/>
<path d="M567.3 235.744C565.013 243.171 559.098 249.147 550.258 253.571C541.417 257.996 529.69 260.845 515.876 262.028C488.25 264.393 452.383 260.084 414.835 248.52C377.286 236.956 345.209 220.34 323.701 202.843C312.946 194.094 304.854 185.141 300.033 176.508C295.214 167.878 293.686 159.609 295.974 152.182C298.261 144.755 304.176 138.779 313.016 134.355C321.857 129.93 333.584 127.081 347.398 125.898C375.024 123.533 410.89 127.842 448.439 139.406C485.988 150.97 518.064 167.585 539.573 185.083C550.328 193.832 558.42 202.785 563.24 211.418C568.06 220.048 569.587 228.317 567.3 235.744Z" stroke="white"/>
<g filter="url(#filter1_f)">
<circle cx="395" cy="124" r="10" fill="#FFDA7B"/>
</g>
<path d="M494.367 199.388C493.244 203.037 490.509 206.038 486.451 208.328C482.389 210.62 477.028 212.183 470.721 212.951C458.108 214.488 441.81 212.835 424.829 207.605C407.847 202.375 393.443 194.573 383.88 186.207C379.098 182.023 375.545 177.715 373.476 173.535C371.409 169.359 370.837 165.339 371.96 161.69C373.084 158.042 375.819 155.04 379.877 152.75C383.939 150.459 389.3 148.896 395.607 148.127C408.22 146.591 424.518 148.244 441.499 153.474C458.481 158.704 472.885 166.506 482.448 174.872C487.23 179.055 490.783 183.364 492.852 187.544C494.918 191.72 495.491 195.74 494.367 199.388Z" stroke="white"/>
<path d="M309.227 312.981L310.404 314.299L312.022 313.587L311.132 315.114L312.31 316.432L310.582 316.058L309.692 317.585L309.514 315.827L307.787 315.452L309.404 314.74L309.227 312.981Z" fill="white"/>
<g filter="url(#filter2_f)">
<circle cx="490" cy="240" r="5" fill="#FF6464"/>
</g>
</g>
<defs>
<filter id="filter0_d" x="414" y="136" width="58" height="58" filterUnits="userSpaceOnUse" color-interpolation-filters="sRGB">
<feFlood flood-opacity="0" result="BackgroundImageFix"/>
<feColorMatrix in="SourceAlpha" type="matrix" values="0 0 0 0 0 0 0 0 0 0 0 0 0 0 0 0 0 0 127 0"/>
<feOffset dy="4"/>
<feGaussianBlur stdDeviation="2"/>
<feColorMatrix type="matrix" values="0 0 0 0 0 0 0 0 0 0 0 0 0 0 0 0 0 0 0.25 0"/>
<feBlend mode="normal" in2="BackgroundImageFix" result="effect1_dropShadow"/>
<feBlend mode="normal" in="SourceGraphic" in2="effect1_dropShadow" result="shape"/>
</filter>
<filter id="filter1_f" x="381" y="110" width="28" height="28" filterUnits="userSpaceOnUse" color-interpolation-filters="sRGB">
<feFlood flood-opacity="0" result="BackgroundImageFix"/>
<feBlend mode="normal" in="SourceGraphic" in2="BackgroundImageFix" result="shape"/>
<feGaussianBlur stdDeviation="2" result="effect1_foregroundBlur"/>
</filter>
<filter id="filter2_f" x="481" y="231" width="18" height="18" filterUnits="userSpaceOnUse" color-interpolation-filters="sRGB">
<feFlood flood-opacity="0" result="BackgroundImageFix"/>
<feBlend mode="normal" in="SourceGraphic" in2="BackgroundImageFix" result="shape"/>
<feGaussianBlur stdDeviation="2" result="effect1_foregroundBlur"/>
</filter>
<clipPath id="clip0">
<rect width="644" height="922" fill="white"/>
</clipPath>
</defs>
</svg>
