<svg width="527" height="614" viewBox="0 0 527 614" fill="none" xmlns="http://www.w3.org/2000/svg">
<path fill-rule="evenodd" clip-rule="evenodd" d="M345.708 55.7417L3.37048 166.974L140.355 613.648H506.415L345.708 55.7417Z" fill="white"/>
<rect x="0.230225" y="157.219" width="63.0285" height="19" rx="9.5" transform="rotate(-18 0.230225 157.219)" fill="white"/>
<g filter="url(#filter0_d)">
<path fill-rule="evenodd" clip-rule="evenodd" d="M26.7999 106.589C16.2948 110.003 10.5048 121.299 13.918 131.804L156.98 572.104C164.025 593.787 216.901 590.784 230.321 572.355C252.761 541.539 289.98 522.181 351.711 542.568C490.522 588.41 517.686 490.398 521.968 468.409C522.52 465.573 522.21 462.733 521.312 459.987L375.59 14.2518C372.162 3.76642 360.85 -1.95038 350.358 1.4588L26.7999 106.589Z" fill="#155E6B"/>
</g>
<g filter="url(#filter1_d)">
<path d="M115.968 214.026L111.888 215.352L111.35 213.697L115.43 212.371L115.968 214.026ZM117.939 209.316L107.696 212.645L109.55 218.351L119.793 215.023L117.939 209.316ZM103.984 217.92L99.99 219.218L99.4523 217.563L103.447 216.265L103.984 217.92ZM105.956 213.21L95.7697 216.52L97.6238 222.226L107.81 218.916L105.956 213.21ZM104.955 230.033L104.454 228.492L109.276 226.925L109.777 228.466L104.955 230.033ZM103.175 224.554L107.997 222.988L108.488 224.5L103.666 226.067L103.175 224.554ZM117.105 221.7L111.969 223.369L111.478 221.857L116.614 220.188L117.105 221.7ZM118.393 225.666L113.258 227.335L112.757 225.794L117.893 224.125L118.393 225.666ZM125.682 227.809L114.583 231.415L114.101 229.931L122.718 227.132L119.242 216.432L99.0125 223.005L102.489 233.704L110.621 231.062L111.103 232.546L100.261 236.069L101.206 238.979L112.048 235.456L113.226 239.08L116.706 237.949L115.529 234.325L126.628 230.719L125.682 227.809ZM137.219 220.307L149.345 216.367L149.854 217.936L137.728 221.876L137.219 220.307ZM135.911 216.284L148.037 212.344L148.547 213.913L136.421 217.853L135.911 216.284ZM134.614 212.289L146.74 208.349L147.249 209.918L135.123 213.858L134.614 212.289ZM154.436 219.318L149.634 204.538L141.16 207.292C141.183 206.685 141.198 206.049 141.174 205.394L151.075 202.178L150.073 199.096L126.221 206.846L127.222 209.928L137.237 206.674C137.337 207.272 137.417 207.908 137.479 208.488L130.232 210.842L135.034 225.622L139.713 224.101C138.001 225.919 135.023 228.306 132.535 229.872C133.518 230.373 134.916 231.18 135.728 231.737C138.417 229.917 141.787 227.181 143.862 224.93L140.741 223.768L148.33 221.302L146.658 224.116C150.129 224.218 153.902 224.664 156.137 225.137L158.772 221.789C156.364 221.467 152.391 221.181 148.929 221.107L154.436 219.318ZM162.26 212.139C162.811 214.609 163.236 217.278 162.956 219.231C163.724 219.265 165.127 219.408 165.827 219.622C166.033 217.537 165.743 214.508 165.119 211.714L162.26 212.139ZM180.78 209.528C180.409 209.648 180.278 209.439 180.046 208.725L179.23 206.215L183.367 204.87L182.533 202.302L179.994 203.128L179.27 200.902L181.724 200.105L180.89 197.537L179.52 197.982C179.662 196.864 179.777 195.375 179.978 193.953L177.169 194.046C177.331 195.224 177.393 197.065 177.308 198.259L178.579 198.288L175.041 199.437L176.253 198.507C175.823 197.574 174.866 196.182 173.934 195.255L172.169 196.617C172.93 197.505 173.756 198.783 174.213 199.706L173.186 200.04L174.021 202.608L176.417 201.829L177.14 204.055L174.658 204.861L175.492 207.429L176.406 207.132L177.212 209.615C178.083 212.297 178.96 213.053 181.642 212.181L183.554 211.56C184.21 211.347 184.8 211.124 185.172 210.813C184.873 210.185 184.371 208.929 184.091 208.263C183.729 208.507 183.091 208.777 182.691 208.907L180.78 209.528ZM182.229 188.553L166.908 193.532L170.709 205.23C169.816 204.132 168.724 203.004 167.697 202.076L165.625 203.853C166.124 204.322 166.642 204.848 167.131 205.383L164.695 206.332C165.751 203.465 166.773 200.01 167.564 197.104L164.379 196.719C164.177 198.33 163.792 200.253 163.313 202.176C162.945 201.917 162.501 201.619 162.038 201.359C162.575 199.419 163.012 196.785 163.371 194.491L160.099 194.419C160.115 196.023 159.937 198.194 159.648 200.023C159.355 199.897 159.062 199.772 158.797 199.637L157.884 202.457C159.406 203.256 161.219 204.37 162.435 205.395C162.201 206.133 161.959 206.842 161.698 207.495L159.681 208.277L160.978 211.104L164.842 209.502L168.606 221.086L171.516 220.14L167.678 208.328L169.067 207.75C169.442 208.322 169.799 208.837 170.042 209.295L171.571 207.883L172.859 211.849C172.25 210.943 171.555 209.97 170.868 209.215L168.732 210.698C169.888 212.121 171.116 214.056 171.713 215.407L173.573 214.046L175.186 219.01L178.211 218.028L170.887 195.488L180.103 192.493L186.314 211.61C186.444 212.009 186.347 212.198 185.957 212.356C185.558 212.486 184.274 212.903 183.114 213.217C183.764 213.858 184.581 215.012 184.926 215.783C186.932 215.162 188.245 214.641 189.058 213.841C189.842 213.05 189.905 212.178 189.395 210.608L182.229 188.553ZM200.636 187.052L196.813 188.294L195.228 183.415L192.089 184.435L193.674 189.314L189.623 190.63L190.652 193.797L201.665 190.219L200.636 187.052ZM198.677 202.672C197.786 200.028 196.05 196.333 194.335 193.484L191.801 194.907C193.421 197.755 195.166 201.573 195.943 204.159L198.677 202.672ZM202.909 201.328C202.608 198.556 202.019 194.804 201.39 191.507L197.904 192.04C198.79 195.349 199.684 199.947 200.004 202.872L200.279 202.845C197.935 204.175 195.744 205.391 194.048 206.289L195.808 209.471C198.743 207.729 202.66 205.415 206.206 203.222L204.872 200.186L202.909 201.328ZM216.605 200.474L209.843 202.671L208.036 197.107L214.798 194.91L216.605 200.474ZM216.597 185.399L215.549 182.175L209.129 184.261L207.424 179.011L203.943 180.142L208.291 193.523L203.697 195.016L207.999 208.254L211.308 207.179L210.873 205.838L217.635 203.641L218.033 204.868L221.514 203.737L217.25 190.612L211.771 192.392L210.177 187.485L216.597 185.399ZM228.996 172.98L220.379 175.779L221.213 178.347L229.83 175.547L228.996 172.98ZM231.322 176.451L220.166 180.075L221.038 182.757L232.194 179.132L231.322 176.451ZM232.854 184.659L224.066 187.514L224.891 190.054L233.679 187.198L232.854 184.659ZM244.633 183.828C244.421 185.506 243.954 187.077 243.203 188.551C241.691 187.781 240.332 186.803 239.184 185.599L244.633 183.828ZM233.103 195.524L230.079 196.506L229.013 193.225L232.037 192.242L233.103 195.524ZM245.735 179.937L245.211 180.265L235.168 183.529C237.477 180.539 236.99 177.101 236.119 174.419L235.961 173.934L239.157 172.895L240.279 176.348C241.196 179.172 242.14 179.844 244.423 179.102L246.077 178.564C247.989 177.943 248.406 176.704 247.542 173.073C246.641 173.113 245.171 173.055 244.385 172.774C245.163 175.265 245.17 175.673 244.799 175.794L244.085 176.026C243.772 176.128 243.687 176.061 243.427 175.262L241.351 168.871L231.792 171.976L232.896 175.371C233.517 177.283 233.935 179.639 232.029 182.12L231.584 180.75L222.796 183.605L223.639 186.202L232.427 183.347L232.075 182.262C232.908 182.496 234.44 183.134 235.111 183.547L234.14 183.862L235.132 186.915L239.098 185.627L236.494 187.514C237.981 189.081 239.603 190.384 241.379 191.384C240.057 193.043 238.377 194.473 236.413 195.71L234.104 188.606L225.26 191.48L228.421 201.209L231.303 200.272L230.941 199.16L236.904 197.222L236.431 195.767C237.309 196.334 238.544 197.415 239.155 198.131C241.339 196.601 243.203 194.86 244.678 192.898C246.912 193.655 249.337 194.034 251.966 193.969C252.164 192.927 252.698 191.27 253.208 190.316C250.835 190.488 248.569 190.309 246.533 189.772C247.807 186.993 248.438 183.791 248.229 180.042L245.735 179.937ZM260.894 162.615L251.85 165.554L252.684 168.122L261.728 165.183L260.894 162.615ZM263.221 166.086L251.551 169.878L252.423 172.56L264.092 168.768L263.221 166.086ZM263.736 181.943L264.802 185.224L261.549 186.281L260.483 183L263.736 181.943ZM265.832 178.297L256.673 181.273L259.834 191.002L262.773 190.047L262.411 188.934L268.631 186.913L265.832 178.297ZM256.304 179.847L265.463 176.871L264.638 174.332L255.479 177.307L256.304 179.847ZM255.053 175.995L264.211 173.019L263.368 170.423L254.209 173.399L255.053 175.995ZM280.023 165.957L274.06 167.895L271.001 158.48L267.577 159.592L270.636 169.007L264.673 170.945L265.767 174.312L271.73 172.374L276.199 186.127L279.622 185.014L275.154 171.262L281.117 169.324L280.023 165.957Z" fill="white"/>
</g>
<g filter="url(#filter2_d)">
<path d="M116.682 260.314L121.595 275.436C121.719 275.817 121.61 275.999 121.211 276.129C120.856 276.265 119.492 276.729 118.085 277.124C118.443 277.449 118.926 278.028 119.151 278.397C120.926 277.841 122.093 277.42 122.703 276.969C123.289 276.505 123.438 275.994 123.098 274.948L118.185 259.826L116.682 260.314ZM122.786 263.631C125.286 265.825 127.957 268.869 129.143 270.965L130.423 269.855C129.212 267.746 126.489 264.803 123.95 262.684L122.786 263.631ZM113.151 266.34C113.523 269.038 113.54 272.649 112.496 275.196C112.926 275.225 113.646 275.37 114.069 275.506C115.094 272.838 115.091 269.075 114.804 266.119L113.151 266.34ZM147.466 252.667L147.008 251.26L130.08 256.76L130.537 258.168L137.898 255.776C138.017 256.726 138.104 257.833 138.129 258.751L132.403 260.611L136.371 272.822L137.798 272.359L134.262 261.479L137.268 260.502L140.599 270.755L141.987 270.304L138.656 260.051L141.795 259.031L145.126 269.284L146.514 268.833L143.183 258.58L146.417 257.53L149.365 266.603C149.458 266.888 149.387 266.995 149.108 267.107C148.829 267.218 147.884 267.546 146.788 267.861C147.114 268.154 147.509 268.657 147.708 269.012C149.078 268.567 150.023 268.239 150.519 267.826C150.997 267.418 151.044 266.982 150.779 266.164L147.392 255.741L139.612 258.268C139.632 257.358 139.634 256.264 139.591 255.226L147.466 252.667ZM168.515 245.997L168.063 244.608L157.754 247.958L158.199 249.327L151.37 251.546L151.828 252.954L154.586 252.057L157.027 259.571C155.972 260.208 155.019 260.77 154.244 261.232L155.031 262.554C156.918 261.372 159.53 259.767 161.99 258.211L161.405 256.929C160.388 257.553 159.352 258.184 158.348 258.784L156.012 251.594L158.732 250.71L158.281 249.322L160.849 248.487C161.152 251.038 161.426 254.083 161.481 256.063L163.013 255.796C162.998 255.296 162.958 254.72 162.9 254.088L168.435 252.289C169.618 257.288 169.854 259.504 169.387 260.265C169.245 260.543 169.01 260.661 168.592 260.797C168.116 260.952 166.855 261.34 165.537 261.621C165.933 261.934 166.327 262.5 166.501 262.906C167.743 262.587 168.929 262.223 169.525 261.987C170.23 261.695 170.643 261.413 170.92 260.777C171.453 259.699 171.174 257.224 169.702 251.141C169.653 250.926 169.518 250.444 169.518 250.444L162.785 252.632C162.657 251.138 162.498 249.486 162.314 248.011L168.515 245.997ZM179.335 259.493C181.103 258.141 181.89 256.161 181.223 254.106C180.79 252.775 179.941 252.104 178.895 252.444C178.115 252.698 177.604 253.39 177.894 254.284C178.185 255.178 178.98 255.424 179.76 255.171C179.874 255.133 179.969 255.103 180.077 255.046C180.402 256.371 179.856 257.537 178.589 258.621L179.335 259.493ZM200.967 241.803L199.041 243.123L197.811 239.338L199.751 238.707L199.324 237.395L197.384 238.025L196.142 234.202L194.753 234.653L195.996 238.476L193.713 239.218L194.14 240.53L196.422 239.789L197.776 243.954C196.898 244.555 196.085 245.093 195.443 245.512L196.262 246.738L198.239 245.381L199.865 250.384C199.945 250.631 199.875 250.738 199.646 250.812C199.462 250.893 198.777 251.115 198.048 251.331C198.356 251.631 198.713 252.146 198.887 252.489C199.997 252.149 200.682 251.863 201.045 251.493C201.428 251.116 201.5 250.693 201.253 249.932L199.486 244.492L201.584 243.054L200.967 241.803ZM204.041 234.243L205.994 240.254L203.312 241.125L201.359 235.114L204.041 234.243ZM210.027 238.943L207.307 239.827L205.354 233.816L208.074 232.933L210.027 238.943ZM207.196 247.77C205.883 248.197 205.556 248.03 205.21 246.964L203.751 242.476L210.466 240.294L210.867 241.53L212.313 241.061L209.068 231.074L199.482 234.189L203.777 247.409C204.475 249.558 205.333 249.868 207.559 249.145L212.485 247.545C214.596 246.859 214.769 245.772 214.151 243.029C213.689 243.095 213.019 243.039 212.596 242.903C213.179 245.216 213.149 245.836 212.008 246.207L207.196 247.77ZM224.882 228.291L226.891 234.473C226.959 234.683 226.92 234.758 226.66 234.864C226.432 234.938 225.633 235.197 224.752 235.463C225.053 235.743 225.436 236.208 225.61 236.551C226.789 236.168 227.563 235.895 228.015 235.538C228.46 235.162 228.47 234.738 228.241 234.034L226.233 227.853L229.523 226.783C229.505 227.568 229.423 228.351 229.33 228.97L228.946 228.695L227.946 229.567C229.229 230.538 230.698 231.953 231.456 232.927L232.507 231.954C231.843 231.14 230.707 230.037 229.562 229.168L230.594 229.043C230.76 228.064 230.885 226.509 230.997 225.169L229.927 225.243L229.711 225.355L222.521 227.692C222.608 227.117 222.663 226.51 222.686 225.935L221.288 226.031C221.228 228.049 220.681 230.119 219.759 231.681C220.144 231.766 220.8 232.036 221.108 232.209C221.564 231.346 221.951 230.274 222.238 229.15L224.882 228.291ZM228.105 237.759C227.154 237.227 225.413 236.72 224.01 236.545L223.331 237.691C224.765 237.898 226.481 238.455 227.4 239.018L228.105 237.759ZM222.757 230.811C222.67 232.291 222.246 233.9 221.548 235.116C221.952 235.195 222.615 235.358 222.949 235.481C223.585 234.202 224.073 232.403 224.174 230.708L222.757 230.811ZM219.784 245.026C220.946 243.555 221.157 241.615 221.063 239.773L219.691 239.757C219.805 241.465 219.468 243.278 218.364 244.604L219.784 245.026ZM217.611 227.205C217.206 229.65 216.124 232.273 214.768 234.185C215.121 234.365 215.782 234.781 216.04 234.992C216.514 234.249 216.975 233.405 217.374 232.497L219.352 238.584L220.722 238.139L218.194 230.359C218.531 229.325 218.817 228.264 218.983 227.222L217.611 227.205ZM225.778 241.985C224.769 242.313 224.586 242.267 224.426 241.772L223.307 238.329L221.899 238.787L223.018 242.23C223.494 243.694 224.137 243.927 226.096 243.29L229.768 242.097C231.384 241.572 231.617 240.866 231.066 238.521C230.636 238.556 229.997 238.532 229.619 238.403C230.142 240.272 230.095 240.582 229.258 240.854L225.778 241.985ZM229.928 236.83C231.725 237.571 233.732 238.896 234.667 239.959L235.687 238.828C234.664 237.752 232.669 236.528 230.847 235.775L229.928 236.83ZM242.978 228.132L238.984 229.429L237.692 225.454L241.687 224.156L242.978 228.132ZM240.875 235.25L239.392 230.685L243.386 229.387L244.87 233.952L240.875 235.25ZM237.875 220.579C238.032 221.516 238.104 222.902 238.115 223.908L235.985 224.6L240.484 238.447L241.778 238.027L241.289 236.524L246.577 234.806L242.566 222.461L239.409 223.487C239.466 222.564 239.469 221.407 239.489 220.37L237.875 220.579ZM251.849 219.382L246.162 221.23C246.194 220.231 246.164 219.232 246.09 218.225L244.634 218.341C244.872 221.144 244.698 224.103 243.967 226.191C244.333 226.282 245.066 226.465 245.387 226.613C245.762 225.503 245.975 224.151 246.093 222.703L250.925 221.133C253.137 228.784 253.791 231.768 253.38 232.638C253.27 232.947 253.073 233.053 252.693 233.177C252.255 233.319 251.114 233.689 249.841 233.977C250.237 234.29 250.593 234.805 250.767 235.211C251.851 234.922 252.948 234.608 253.589 234.315C254.217 234.048 254.599 233.735 254.844 233.066C255.302 231.887 254.598 228.878 252.084 220.105L251.849 219.382ZM251.625 228.918C250.651 227.994 248.746 226.594 247.242 225.59L246.349 226.595C247.84 227.625 249.726 229.094 250.667 230.049L251.625 228.918ZM272.565 214.018L265.984 216.156C265.473 215.166 264.994 214.081 264.548 212.901L259.925 214.403L260.333 215.658L263.757 214.546C264.036 215.275 264.341 215.954 264.652 216.589L257.729 218.839L261.999 231.982L263.407 231.525L259.587 219.77L264.533 218.163C264.857 221.359 263.964 223.92 261.817 225.985C262.208 226.152 262.819 226.543 263.133 226.798C265.242 224.683 266.116 222.065 265.969 218.895C267.714 221.482 269.871 223.137 272.765 223.563C272.869 223.109 273.147 222.409 273.352 222.006C270.514 221.75 268.408 220.121 266.739 217.446L271.59 215.87L274.81 225.78C274.909 226.084 274.863 226.204 274.527 226.334C274.153 226.477 272.974 226.86 271.725 227.224C272.058 227.536 272.477 228.115 272.664 228.496C274.281 227.971 275.365 227.618 275.938 227.18C276.485 226.729 276.527 226.21 276.236 225.317L272.565 214.018ZM279.125 210.583L292.078 206.374L292.77 208.504L294.216 208.035L293.103 204.611L285.875 206.959L285.307 205.209L283.88 205.673L284.449 207.423L277.335 209.734L278.447 213.158L279.817 212.713L279.125 210.583ZM287.822 209.65C289.918 210.146 292.574 211.071 293.953 211.821L294.671 210.536C293.254 209.798 290.566 208.968 288.52 208.497L287.822 209.65ZM282.744 210.395C282.13 212.13 280.775 214.042 279.341 215.455C279.751 215.616 280.405 216.013 280.707 216.23C282.111 214.66 283.519 212.457 284.237 210.394L282.744 210.395ZM284.269 217.744C285.535 216.008 286.535 214.232 287.046 212.762C288.475 213.664 290.461 214.47 292.505 215.067L284.269 217.744ZM285.823 222.138L284.798 218.981L292.463 216.49L293.489 219.648L285.823 222.138ZM285.839 211.703C285.035 214.34 282.738 217.884 280.012 220.368C280.402 220.598 280.93 220.994 281.194 221.287C281.927 220.566 282.641 219.787 283.305 218.982L285.097 224.498L286.448 224.06L286.238 223.413L293.903 220.922L294.088 221.493L295.496 221.035L293.66 215.386C294.759 215.66 295.839 215.877 296.831 216.017C296.929 215.544 297.105 214.919 297.311 214.452C294.017 214.219 290.054 213.025 287.247 211.245L285.839 211.703ZM299.482 209.163L299.983 210.703L317.254 205.091L316.753 203.551L299.482 209.163ZM324.177 197.08C323.163 196.484 321.246 195.824 319.788 195.415L319.107 196.751C320.603 197.211 322.507 197.959 323.477 198.548L324.177 197.08ZM325.124 202.261C324.052 204.46 322.908 206.766 322.139 208.152L323.429 209.015C324.327 207.378 325.368 205.21 326.281 203.231L325.124 202.261ZM330.866 195.727L334.785 194.454C334.812 195.833 334.661 197.438 334.47 198.467C334.855 198.489 335.487 198.621 335.834 198.655C336.13 197.171 336.375 194.946 336.295 192.953L335.082 192.716L334.822 192.885L327.156 195.376C327.177 194.276 327.129 193.156 327.049 192.004L325.479 192.22C325.815 195.454 325.606 198.761 324.614 201.144C325.05 201.191 325.865 201.368 326.224 201.504C326.664 200.204 326.955 198.638 327.081 196.957L329.402 196.203L330.18 198.599C330.755 200.368 331.379 205.654 326.357 209.809C326.704 209.97 327.333 210.418 327.603 210.666C331.525 207.268 332.02 202.901 331.762 201.008C332.603 202.691 335.512 206.078 340.062 206.618C340.179 206.202 340.425 205.47 340.567 205.066C334.708 204.509 332.164 199.784 331.645 198.123L330.866 195.727ZM343.859 190.538L343.618 189.796L347.726 188.461L347.967 189.203L343.859 190.538ZM353.471 186.595L353.712 187.336L349.337 188.758L349.096 188.016L353.471 186.595ZM342.408 193.386L356.35 188.855L356.826 190.32L358.101 189.906L357.371 187.661L349.782 190.127L349.572 189.481L355.297 187.62L354.574 185.395L348.849 187.255L348.651 186.647L355.86 184.304L355.576 183.429L348.367 185.772L348.058 184.821L346.688 185.265L346.997 186.217L339.864 188.534L340.148 189.409L347.281 187.092L347.479 187.7L342.096 189.449L342.819 191.675L348.202 189.926L348.412 190.572L340.899 193.014L341.628 195.258L342.884 194.85L342.408 193.386ZM349.131 197.573L353.353 196.201L353.582 196.905L349.359 198.277L349.131 197.573ZM348.667 196.146L352.89 194.774L353.094 195.402L348.871 196.774L348.667 196.146ZM344.965 194.006L348.008 193.017L348.274 193.835L345.23 194.824L344.965 194.006ZM351.47 191.892L354.589 190.879L354.855 191.697L351.736 192.71L351.47 191.892ZM358.127 196.395C357.445 197.08 356.286 198.108 355.288 198.853C354.435 198.688 353.653 198.417 352.985 198.045L360.194 195.703L359.916 194.847L354.952 196.46L354.723 195.756L358.166 194.637L357.906 193.838L354.463 194.957L354.259 194.329L358.159 193.062L357.899 192.264L354 193.531L353.771 192.827L356.263 192.017L355.54 189.792L350.119 191.553L350.842 193.779L352.402 193.272L352.63 193.975L348.408 195.348L348.179 194.644L349.701 194.149L348.978 191.924L343.614 193.667L344.337 195.892L346.81 195.089L347.038 195.793L343.272 197.016L343.532 197.815L347.298 196.591L347.502 197.219L344.116 198.319L344.376 199.118L347.761 198.018L347.99 198.722L343.083 200.316L343.361 201.172L349.504 199.176C347.87 200.422 345.526 201.688 343.489 202.603C343.785 202.738 344.2 203.044 344.439 203.261C345.664 202.695 346.985 201.971 348.205 201.196L348.619 202.471C347.921 202.782 347.261 203.08 346.703 203.304L347.202 204.256C349.131 203.398 351.778 202.16 354.336 200.971L354.014 200.045C352.624 200.686 351.215 201.333 349.907 201.905L349.413 200.383C350.303 199.758 351.099 199.1 351.692 198.465C354.013 200.172 357.356 200.494 361.08 199.852C361.133 199.498 361.27 198.949 361.456 198.615C359.701 198.975 358.024 199.121 356.52 199.021C357.455 198.338 358.467 197.505 359.25 196.745L358.127 196.395ZM368.398 187.359C367.724 187.81 367.037 188.285 366.382 188.729L365.159 184.963L367.346 184.252L366.913 182.921L364.726 183.632L363.49 179.827L362.139 180.266L363.375 184.07L360.998 184.843L361.43 186.174L363.808 185.402L365.155 189.548C364.272 190.13 363.439 190.674 362.772 191.08L363.604 192.345L365.619 190.975L367.22 195.901C367.312 196.187 367.242 196.294 366.982 196.399C366.754 196.473 365.936 196.739 365.054 197.004C365.349 197.329 365.744 197.832 365.918 198.175C367.193 197.761 367.947 197.494 368.349 197.112C368.769 196.723 368.836 196.281 368.57 195.463L366.833 190.118C367.552 189.611 368.271 189.104 368.989 188.597L368.398 187.359ZM379.592 191.524L373.106 193.631L371.901 189.922L378.387 187.815L379.592 191.524ZM379.326 182.484L378.887 181.133L373.903 182.752L372.766 179.253C374.239 178.479 375.561 177.693 376.604 176.954L375.282 176.122C373.456 177.493 369.958 179.282 366.95 180.638C367.22 180.887 367.558 181.344 367.72 181.649C368.938 181.127 370.214 180.523 371.446 179.913L372.515 183.204L367.988 184.675L368.427 186.025L372.954 184.554L374.011 187.807L370.111 189.074L372.404 196.131L373.774 195.686L373.526 194.925L380.013 192.817L380.235 193.502L381.624 193.051L379.356 186.07L375.399 187.356L374.342 184.103L379.326 182.484Z" fill="white"/>
</g>
<g filter="url(#filter3_d)">
<rect x="328.355" y="272.329" width="92.5096" height="224.226" rx="10" transform="rotate(-18 328.355 272.329)" fill="url(#paint0_linear)"/>
</g>
<g filter="url(#filter4_d)">
<path d="M356.497 36.9692C356.622 36.7231 356.525 36.422 356.279 36.2967L352.269 34.2537C352.023 34.1283 351.722 34.2262 351.597 34.4722C351.471 34.7183 351.569 35.0193 351.815 35.1447L355.379 36.9607L353.563 40.5247C353.438 40.7707 353.536 41.0718 353.782 41.1972C354.028 41.3226 354.329 41.2247 354.454 40.9787L356.497 36.9692ZM342.51 41.6679L356.206 37.2177L355.897 36.2666L342.201 40.7169L342.51 41.6679Z" fill="white"/>
</g>
<g filter="url(#filter5_d)">
<line y1="-0.5" x2="32.0254" y2="-0.5" transform="matrix(0.951057 -0.309017 0.432293 0.901733 51.3552 132.639)" stroke="white"/>
</g>
<g filter="url(#filter6_d)">
<line y1="-0.5" x2="32.0254" y2="-0.5" transform="matrix(0.951057 -0.309017 0.432293 0.901733 54.3552 142.639)" stroke="white"/>
</g>
<g filter="url(#filter7_d)">
<line y1="-0.5" x2="32.0254" y2="-0.5" transform="matrix(0.951057 -0.309017 0.432293 0.901733 57.3552 152.639)" stroke="white"/>
</g>
<g filter="url(#filter8_d)">
<rect x="126.355" y="337.479" width="91.9071" height="224.226" rx="10" transform="rotate(-18 126.355 337.479)" fill="url(#paint1_linear)"/>
</g>
<g filter="url(#filter9_d)">
<rect x="227.355" y="305.329" width="92.5096" height="224.226" rx="10" transform="rotate(-18 227.355 305.329)" fill="url(#paint2_linear)"/>
</g>
<circle cx="199.855" cy="487.242" r="4" stroke="white"/>
<circle cx="259.855" cy="491.242" r="4" stroke="white"/>
<circle cx="285.855" cy="416.242" r="4" stroke="white"/>
<circle cx="337.855" cy="358.242" r="4" stroke="white"/>
<circle cx="388.855" cy="323.242" r="4" stroke="white"/>
<line x1="203.394" y1="487.244" x2="255.394" y2="491.244" stroke="white"/>
<line x1="262.877" y1="488.597" x2="283.877" y2="419.597" stroke="white"/>
<line x1="287.984" y1="412.407" x2="334.984" y2="360.407" stroke="white"/>
<line x1="340.082" y1="355.323" x2="386.082" y2="325.323" stroke="white"/>
<defs>
<filter id="filter0_d" x="8.93787" y="0.473145" width="517.305" height="600.816" filterUnits="userSpaceOnUse" color-interpolation-filters="sRGB">
<feFlood flood-opacity="0" result="BackgroundImageFix"/>
<feColorMatrix in="SourceAlpha" type="matrix" values="0 0 0 0 0 0 0 0 0 0 0 0 0 0 0 0 0 0 127 0"/>
<feOffset dy="10"/>
<feGaussianBlur stdDeviation="2"/>
<feColorMatrix type="matrix" values="0 0 0 0 0 0 0 0 0 0 0 0 0 0 0 0 0 0 0.25 0"/>
<feBlend mode="normal" in2="BackgroundImageFix" result="effect1_dropShadow"/>
<feBlend mode="normal" in="SourceGraphic" in2="effect1_dropShadow" result="shape"/>
</filter>
<filter id="filter1_d" x="91.7698" y="158.479" width="193.347" height="94.6001" filterUnits="userSpaceOnUse" color-interpolation-filters="sRGB">
<feFlood flood-opacity="0" result="BackgroundImageFix"/>
<feColorMatrix in="SourceAlpha" type="matrix" values="0 0 0 0 0 0 0 0 0 0 0 0 0 0 0 0 0 0 127 0"/>
<feOffset dy="10"/>
<feGaussianBlur stdDeviation="2"/>
<feColorMatrix type="matrix" values="0 0 0 0 0 0 0 0 0 0 0 0 0 0 0 0 0 0 0.25 0"/>
<feBlend mode="normal" in2="BackgroundImageFix" result="effect1_dropShadow"/>
<feBlend mode="normal" in="SourceGraphic" in2="effect1_dropShadow" result="shape"/>
</filter>
<filter id="filter2_d" x="108.496" y="176.122" width="277.128" height="116.275" filterUnits="userSpaceOnUse" color-interpolation-filters="sRGB">
<feFlood flood-opacity="0" result="BackgroundImageFix"/>
<feColorMatrix in="SourceAlpha" type="matrix" values="0 0 0 0 0 0 0 0 0 0 0 0 0 0 0 0 0 0 127 0"/>
<feOffset dy="10"/>
<feGaussianBlur stdDeviation="2"/>
<feColorMatrix type="matrix" values="0 0 0 0 0 0 0 0 0 0 0 0 0 0 0 0 0 0 0.25 0"/>
<feBlend mode="normal" in2="BackgroundImageFix" result="effect1_dropShadow"/>
<feBlend mode="normal" in="SourceGraphic" in2="effect1_dropShadow" result="shape"/>
</filter>
<filter id="filter3_d" x="324.355" y="243.742" width="165.272" height="249.839" filterUnits="userSpaceOnUse" color-interpolation-filters="sRGB">
<feFlood flood-opacity="0" result="BackgroundImageFix"/>
<feColorMatrix in="SourceAlpha" type="matrix" values="0 0 0 0 0 0 0 0 0 0 0 0 0 0 0 0 0 0 127 0"/>
<feOffset dy="4"/>
<feGaussianBlur stdDeviation="2"/>
<feColorMatrix type="matrix" values="0 0 0 0 0 0 0 0 0 0 0 0 0 0 0 0 0 0 0.25 0"/>
<feBlend mode="normal" in2="BackgroundImageFix" result="effect1_dropShadow"/>
<feBlend mode="normal" in="SourceGraphic" in2="effect1_dropShadow" result="shape"/>
</filter>
<filter id="filter4_d" x="337.217" y="33.0859" width="24.4475" height="19.6083" filterUnits="userSpaceOnUse" color-interpolation-filters="sRGB">
<feFlood flood-opacity="0" result="BackgroundImageFix"/>
<feColorMatrix in="SourceAlpha" type="matrix" values="0 0 0 0 0 0 0 0 0 0 0 0 0 0 0 0 0 0 127 0"/>
<feOffset dy="4"/>
<feGaussianBlur stdDeviation="2"/>
<feColorMatrix type="matrix" values="0 0 0 0 0 0 0 0 0 0 0 0 0 0 0 0 0 0 0.25 0"/>
<feBlend mode="normal" in2="BackgroundImageFix" result="effect1_dropShadow"/>
<feBlend mode="normal" in="SourceGraphic" in2="effect1_dropShadow" result="shape"/>
</filter>
<filter id="filter5_d" x="46.923" y="121.84" width="38.8903" height="18.7981" filterUnits="userSpaceOnUse" color-interpolation-filters="sRGB">
<feFlood flood-opacity="0" result="BackgroundImageFix"/>
<feColorMatrix in="SourceAlpha" type="matrix" values="0 0 0 0 0 0 0 0 0 0 0 0 0 0 0 0 0 0 127 0"/>
<feOffset dy="4"/>
<feGaussianBlur stdDeviation="2"/>
<feColorMatrix type="matrix" values="0 0 0 0 0 0 0 0 0 0 0 0 0 0 0 0 0 0 0.25 0"/>
<feBlend mode="normal" in2="BackgroundImageFix" result="effect1_dropShadow"/>
<feBlend mode="normal" in="SourceGraphic" in2="effect1_dropShadow" result="shape"/>
</filter>
<filter id="filter6_d" x="49.923" y="131.84" width="38.8903" height="18.7981" filterUnits="userSpaceOnUse" color-interpolation-filters="sRGB">
<feFlood flood-opacity="0" result="BackgroundImageFix"/>
<feColorMatrix in="SourceAlpha" type="matrix" values="0 0 0 0 0 0 0 0 0 0 0 0 0 0 0 0 0 0 127 0"/>
<feOffset dy="4"/>
<feGaussianBlur stdDeviation="2"/>
<feColorMatrix type="matrix" values="0 0 0 0 0 0 0 0 0 0 0 0 0 0 0 0 0 0 0.25 0"/>
<feBlend mode="normal" in2="BackgroundImageFix" result="effect1_dropShadow"/>
<feBlend mode="normal" in="SourceGraphic" in2="effect1_dropShadow" result="shape"/>
</filter>
<filter id="filter7_d" x="52.923" y="141.84" width="38.8903" height="18.7981" filterUnits="userSpaceOnUse" color-interpolation-filters="sRGB">
<feFlood flood-opacity="0" result="BackgroundImageFix"/>
<feColorMatrix in="SourceAlpha" type="matrix" values="0 0 0 0 0 0 0 0 0 0 0 0 0 0 0 0 0 0 127 0"/>
<feOffset dy="4"/>
<feGaussianBlur stdDeviation="2"/>
<feColorMatrix type="matrix" values="0 0 0 0 0 0 0 0 0 0 0 0 0 0 0 0 0 0 0.25 0"/>
<feBlend mode="normal" in2="BackgroundImageFix" result="effect1_dropShadow"/>
<feBlend mode="normal" in="SourceGraphic" in2="effect1_dropShadow" result="shape"/>
</filter>
<filter id="filter8_d" x="122.355" y="309.078" width="164.699" height="249.653" filterUnits="userSpaceOnUse" color-interpolation-filters="sRGB">
<feFlood flood-opacity="0" result="BackgroundImageFix"/>
<feColorMatrix in="SourceAlpha" type="matrix" values="0 0 0 0 0 0 0 0 0 0 0 0 0 0 0 0 0 0 127 0"/>
<feOffset dy="4"/>
<feGaussianBlur stdDeviation="2"/>
<feColorMatrix type="matrix" values="0 0 0 0 0 0 0 0 0 0 0 0 0 0 0 0 0 0 0.25 0"/>
<feBlend mode="normal" in2="BackgroundImageFix" result="effect1_dropShadow"/>
<feBlend mode="normal" in="SourceGraphic" in2="effect1_dropShadow" result="shape"/>
</filter>
<filter id="filter9_d" x="223.355" y="276.742" width="165.272" height="249.839" filterUnits="userSpaceOnUse" color-interpolation-filters="sRGB">
<feFlood flood-opacity="0" result="BackgroundImageFix"/>
<feColorMatrix in="SourceAlpha" type="matrix" values="0 0 0 0 0 0 0 0 0 0 0 0 0 0 0 0 0 0 127 0"/>
<feOffset dy="4"/>
<feGaussianBlur stdDeviation="2"/>
<feColorMatrix type="matrix" values="0 0 0 0 0 0 0 0 0 0 0 0 0 0 0 0 0 0 0.25 0"/>
<feBlend mode="normal" in2="BackgroundImageFix" result="effect1_dropShadow"/>
<feBlend mode="normal" in="SourceGraphic" in2="effect1_dropShadow" result="shape"/>
</filter>
<linearGradient id="paint0_linear" x1="374.61" y1="272.329" x2="374.61" y2="496.555" gradientUnits="userSpaceOnUse">
<stop stop-color="#20B47F"/>
<stop offset="1" stop-color="#20B47F" stop-opacity="0"/>
</linearGradient>
<linearGradient id="paint1_linear" x1="172.309" y1="337.479" x2="172.309" y2="561.705" gradientUnits="userSpaceOnUse">
<stop stop-color="#20B47F"/>
<stop offset="1" stop-color="#20B47F" stop-opacity="0"/>
</linearGradient>
<linearGradient id="paint2_linear" x1="273.61" y1="305.329" x2="273.61" y2="529.555" gradientUnits="userSpaceOnUse">
<stop stop-color="#20B47F"/>
<stop offset="1" stop-color="#20B47F" stop-opacity="0"/>
</linearGradient>
</defs>
</svg>
