<svg width="40" height="40" viewBox="0 0 40 40" fill="none" xmlns="http://www.w3.org/2000/svg">
<g clip-path="url(#clip0)">
<path d="M28.3334 40H11.6751C10.7112 39.9995 9.75893 39.7907 8.88329 39.388C8.00765 38.9853 7.22937 38.3981 6.60172 37.6667C5.98291 36.9512 5.52597 36.1105 5.26219 35.2021C4.99841 34.2936 4.934 33.339 5.07339 32.4033C5.96824 27.5292 8.56833 23.1325 12.4084 20C8.56828 16.8664 5.96873 12.4685 5.07505 7.59333C4.93594 6.65836 5.00033 5.70437 5.26381 4.79657C5.52729 3.88876 5.98366 3.04855 6.60172 2.33333C7.22937 1.60191 8.00765 1.01474 8.88329 0.612016C9.75893 0.209292 10.7112 0.000523069 11.6751 0L28.3334 0C29.2971 0.000853572 30.2494 0.20977 31.1249 0.612472C32.0005 1.01517 32.7789 1.60217 33.4067 2.33333C34.0249 3.04825 34.4815 3.88808 34.7456 4.79553C35.0096 5.70299 35.0748 6.65672 34.9367 7.59167C34.0339 12.4682 31.4285 16.8657 27.5851 20C31.4263 23.137 34.0287 27.5362 34.9284 32.4133C35.0666 33.3485 35.0015 34.3026 34.7374 35.2103C34.4734 36.1181 34.0167 36.9582 33.3984 37.6733C32.7708 38.4022 31.9936 38.9873 31.1195 39.3888C30.2455 39.7903 29.2952 39.9988 28.3334 40ZM28.3334 3.33333H11.6751C11.1916 3.33304 10.7138 3.43712 10.2743 3.63847C9.83475 3.83982 9.44389 4.13369 9.12839 4.5C8.82031 4.85072 8.59265 5.26457 8.46136 5.71255C8.33008 6.16053 8.29835 6.6318 8.36839 7.09333C8.99505 11.26 11.5751 15.16 16.0351 18.6883C16.2321 18.8444 16.3913 19.043 16.5008 19.2692C16.6103 19.4955 16.6671 19.7436 16.6671 19.995C16.6671 20.2464 16.6103 20.4945 16.5008 20.7208C16.3913 20.947 16.2321 21.1456 16.0351 21.3017C11.5751 24.8333 9.00005 28.7367 8.36839 32.9017C8.29759 33.364 8.32894 33.8362 8.46025 34.2851C8.59155 34.734 8.81961 35.1487 9.12839 35.5C9.44389 35.8663 9.83475 36.1602 10.2743 36.3615C10.7138 36.5629 11.1916 36.667 11.6751 36.6667H28.3334C28.8169 36.6671 29.2947 36.563 29.7342 36.3617C30.1738 36.1603 30.5646 35.8664 30.8801 35.5C31.1881 35.1499 31.4157 34.7366 31.547 34.2892C31.6783 33.8418 31.71 33.371 31.6401 32.91C31.0184 28.765 28.4401 24.8617 23.9734 21.3067C23.7775 21.1506 23.6194 20.9523 23.5107 20.7267C23.402 20.501 23.3455 20.2538 23.3455 20.0033C23.3455 19.7529 23.402 19.5056 23.5107 19.28C23.6194 19.0543 23.7775 18.8561 23.9734 18.7C28.4417 15.145 31.0201 11.2417 31.6401 7.095C31.7098 6.63258 31.6772 6.16049 31.5444 5.71208C31.4116 5.26367 31.182 4.8499 30.8717 4.5C30.5572 4.13467 30.1677 3.84137 29.7297 3.64005C29.2917 3.43874 28.8154 3.33412 28.3334 3.33333ZM26.1351 33.3333H13.8634C13.5907 33.3332 13.3222 33.2662 13.0814 33.1381C12.8407 33.0101 12.635 32.8249 12.4825 32.5988C12.33 32.3727 12.2352 32.1127 12.2066 31.8415C12.178 31.5703 12.2164 31.2962 12.3184 31.0433C13.6235 28.2252 15.6121 25.7777 18.1034 23.9233L18.9667 23.2367C19.2616 23.0021 19.6274 22.8744 20.0042 22.8744C20.3811 22.8744 20.7468 23.0021 21.0417 23.2367L21.8901 23.9133C24.3779 25.775 26.3664 28.2233 27.6784 31.04C27.781 31.2929 27.82 31.5672 27.7918 31.8388C27.7636 32.1103 27.6691 32.3707 27.5167 32.5972C27.3643 32.8237 27.1586 33.0092 26.9177 33.1376C26.6768 33.2659 26.408 33.3332 26.1351 33.3333ZM16.7234 30H23.2701C22.3191 28.7605 21.2211 27.6412 20.0001 26.6667C18.7737 27.6374 17.673 28.7571 16.7234 30Z" fill="#3D3D3D"/>
</g>
<defs>
<clipPath id="clip0">
<rect width="40" height="40" fill="white"/>
</clipPath>
</defs>
</svg>
