<svg width="40" height="40" viewBox="0 0 40 40" fill="none" xmlns="http://www.w3.org/2000/svg">
<g clip-path="url(#clip0)">
<path d="M33.2499 9.22622L27.4399 3.41622C26.3592 2.32968 25.0738 1.46826 23.6579 0.881792C22.2421 0.295324 20.7241 -0.00453922 19.1916 -0.000446954H11.6666C9.45726 0.00219948 7.33918 0.881023 5.77695 2.44325C4.21472 4.00548 3.3359 6.12356 3.33325 8.33289V31.6662C3.3359 33.8755 4.21472 35.9936 5.77695 37.5559C7.33918 39.1181 9.45726 39.9969 11.6666 39.9996H28.3333C30.5426 39.9969 32.6607 39.1181 34.2229 37.5559C35.7851 35.9936 36.6639 33.8755 36.6666 31.6662V17.4746C36.6707 15.9421 36.3708 14.424 35.7843 13.0082C35.1979 11.5924 34.3365 10.3069 33.2499 9.22622ZM30.8932 11.5829C31.4017 12.1069 31.8393 12.6952 32.1949 13.3329H24.9999C24.5579 13.3329 24.134 13.1573 23.8214 12.8447C23.5088 12.5322 23.3333 12.1082 23.3333 11.6662V4.47122C23.9709 4.82686 24.5592 5.26447 25.0833 5.77289L30.8932 11.5829ZM33.3333 31.6662C33.3333 32.9923 32.8065 34.2641 31.8688 35.2018C30.9311 36.1394 29.6593 36.6662 28.3333 36.6662H11.6666C10.3405 36.6662 9.06873 36.1394 8.13105 35.2018C7.19337 34.2641 6.66659 32.9923 6.66659 31.6662V8.33289C6.66659 7.0068 7.19337 5.73503 8.13105 4.79735C9.06873 3.85967 10.3405 3.33289 11.6666 3.33289H19.1916C19.4666 3.33289 19.7299 3.38622 19.9999 3.41122V11.6662C19.9999 12.9923 20.5267 14.2641 21.4644 15.2018C22.4021 16.1394 23.6738 16.6662 24.9999 16.6662H33.2549C33.2799 16.9362 33.3333 17.1996 33.3333 17.4746V31.6662ZM27.8733 22.1846C28.1776 22.5047 28.3424 22.9326 28.3314 23.3741C28.3205 23.8157 28.1347 24.2349 27.8149 24.5396L21.8333 30.2296C20.893 31.155 19.6251 31.6714 18.3057 31.6661C16.9864 31.6607 15.7227 31.1342 14.7899 30.2012L12.2233 27.9112C11.8931 27.6168 11.6933 27.2033 11.668 26.7617C11.6555 26.543 11.6861 26.324 11.7582 26.1172C11.8303 25.9103 11.9425 25.7197 12.0883 25.5562C12.234 25.3927 12.4106 25.2595 12.6078 25.1643C12.805 25.069 13.0191 25.0135 13.2378 25.001C13.6794 24.9757 14.1131 25.1268 14.4433 25.4212L17.0849 27.7779C17.2361 27.9477 17.4205 28.0848 17.6267 28.1807C17.8329 28.2766 18.0565 28.3293 18.2838 28.3355C18.5112 28.3418 18.7373 28.3015 18.9485 28.217C19.1596 28.1326 19.3513 28.0058 19.5116 27.8446L25.5116 22.1262C25.6702 21.9745 25.8573 21.8557 26.062 21.7765C26.2667 21.6973 26.4851 21.6593 26.7045 21.6647C26.924 21.6701 27.1402 21.7188 27.3408 21.808C27.5413 21.8973 27.7223 22.0252 27.8733 22.1846Z" fill="#3D3D3D"/>
</g>
<defs>
<clipPath id="clip0">
<rect width="40" height="40" fill="white"/>
</clipPath>
</defs>
</svg>
