<svg width="956" height="922" viewBox="0 0 956 922" fill="none" xmlns="http://www.w3.org/2000/svg">
<g clip-path="url(#clip0)">
<ellipse rx="256.949" ry="53.9645" transform="matrix(0.999553 0.029904 -0.0431853 0.999067 284.165 860.247)" fill="url(#paint0_angular)"/>
<ellipse rx="212.33" ry="33.7846" transform="matrix(0.999553 0.029904 -0.0431853 0.999067 284.521 849.512)" fill="black"/>
<path d="M473.5 857.077C401.5 889.077 117.788 869.915 102.5 850.077C106.448 848.024 118.589 840.714 122.5 838.818L118.965 821.782C116.563 813.709 114.178 805.686 115.5 805.077C119.184 803.379 127.351 812.641 131 811.077C132.355 810.496 136.403 814.817 140.412 819.082L149.5 826.81C174.642 816.63 198.876 809.607 222 805.14C227.85 804.01 233.629 803.043 239.333 802.23C245.476 801.355 251.533 800.659 257.5 800.128C285.057 797.679 310.691 798.778 334 802.23L351 784.577C351 784.577 358.421 788.116 362.5 789.077L371 810.061C411.493 821.315 455.815 841.908 473.5 857.077Z" fill="#73D1A4"/>
<path d="M119 805.577C118.333 807.911 118.6 812.777 125 813.577C129.267 814.111 130.807 814.081 131.163 813.903L131 813.577C131.222 813.689 131.341 813.814 131.163 813.903L138.5 828.577C139 829.744 140.2 831.877 141 831.077C141.8 830.277 139.667 824.411 138.5 821.577L148 832.577C149.833 832.911 153.2 833.077 152 831.077C156.333 832.244 160.8 835.677 144 840.077C123 845.577 113 844.077 116.5 842.077C119.3 840.477 121.667 839.077 122.5 838.577L115 805.577C115.833 805.244 117.8 804.777 119 805.577Z" fill="url(#paint1_linear)"/>
<path d="M362 801.577L359 788.077L363 789.077L370.5 810.577L379.5 823.077L359 810.577L355 796.077L359 800.077L362 801.577Z" fill="#C4C4C4"/>
<path d="M378.952 873.19C403.752 868.547 383.542 826.676 369 809.577C409.8 819.977 460.5 842.577 473.5 857.077C438.848 876.064 401.343 871.168 378.952 873.19C377.886 873.389 376.736 873.52 375.5 873.577C376.606 873.425 377.757 873.298 378.952 873.19Z" fill="url(#paint2_linear)"/>
<path d="M281 873.577C332.6 852.777 287 815.5 259.5 800C290.3 796.4 321.667 800.077 331 802.077C355.8 816.877 352.667 856.577 345 874.077C326 874.077 291.833 874.744 281 873.577Z" fill="url(#paint3_linear)"/>
<path d="M333.352 767L326.952 828.8H330.152L340.452 768.4L333.352 767Z" fill="#939393"/>
<path d="M381.952 769.101L399.552 837.001L402.552 835.901L389.252 768.101L381.952 769.101Z" fill="#939393"/>
<path d="M394.352 695.6C395.052 696.5 395.552 697.6 395.652 698.8C397.052 708.2 403.452 755.6 393.452 766.7C383.652 777.5 338.852 776.1 327.852 775.6C325.452 775.5 323.152 774.1 322.152 771.9C321.452 770.5 321.252 768.7 322.352 766.7C325.152 761.5 364.852 746.3 373.652 736.6C382.052 727.2 383.252 681.6 394.352 695.6Z" fill="#2064B4"/>
<path d="M374.954 765.745C385.593 759.313 369.446 752.642 360.042 750.111C316.84 748.681 316.517 761.427 321.756 767.979C335.056 769.914 364.314 772.178 374.954 765.745Z" fill="#42B0FF"/>
<path d="M381.952 767C388.752 762.2 391.452 716 391.952 693.5C401.452 696 402 752 395.452 764.5C390.452 774.045 367.285 775.333 355.952 775.5C361.785 774.667 375.152 771.8 381.952 767Z" fill="#42B0FF"/>
<path d="M319.652 649.1C323.683 649.1 326.952 645.832 326.952 641.8C326.952 637.768 323.683 634.5 319.652 634.5C315.62 634.5 312.352 637.768 312.352 641.8C312.352 645.832 315.62 649.1 319.652 649.1Z" fill="#6057C0"/>
<path d="M342.652 638.1C342.652 638.1 341.952 633.7 333.952 634.7C325.952 635.7 326.752 637 319.552 639.1C315.652 640.3 312.252 650.4 333.052 647.2C333.052 647.2 336.252 654.7 338.052 654.4C339.852 654.1 339.652 661.6 339.652 661.6L344.052 660.2C344.052 660.2 344.752 654.7 347.652 653C350.552 651.3 349.552 635.4 342.652 638.1Z" fill="#6057C0"/>
<path d="M338.952 651.688C347.452 636.5 331.952 638 331.452 638C340.952 635.313 342.952 636.334 342.952 638.001C349.952 635.501 351.452 651.688 348.952 652.688C346.952 653.488 345.452 658.022 344.952 660.188L342.452 661.188C340.619 660.355 336.108 656.771 338.952 651.688Z" fill="#0B0A54"/>
<path d="M324.452 647.2L318.952 649C319.252 656.3 318.052 661.5 321.352 665.5C324.752 669.5 324.452 669.5 330.952 667.5L334.052 678.5L346.852 668.8C346.852 668.8 342.152 663.3 341.252 661.4C341.252 661.4 340.452 658 341.752 657.7C345.152 657 344.052 644.6 337.752 652L335.152 647.2C333.352 642.6 326.752 646.1 324.452 647.2Z" fill="#FFBC85"/>
<path d="M336.452 663.5L330.952 667.5L331.952 671C331.952 671 333.952 671 334.952 669C335.952 667 336.452 663.5 336.452 663.5Z" fill="#F07B61"/>
<path d="M327.552 648.4C330.645 648.4 333.152 645.893 333.152 642.8C333.152 639.707 330.645 637.2 327.552 637.2C324.459 637.2 321.952 639.707 321.952 642.8C321.952 645.893 324.459 648.4 327.552 648.4Z" fill="#6057C0"/>
<path d="M342.349 651.706C341.031 650.565 340.289 650.755 339.465 652.657C339.465 654.084 340.701 654.084 339.465 656.938C339.281 657.363 341.113 655.511 340.701 654.56C340.372 653.799 341.113 653.926 341.937 654.084C342.761 654.084 342.349 652.023 342.349 651.706Z" fill="#F07B61"/>
<path d="M341.452 655C341.052 655.667 340.092 657 339.452 657" stroke="#F07B61" stroke-width="0.5"/>
<path d="M299.352 700.2L302.652 689.5C302.652 689.5 317.052 693.7 323.352 697.8C329.652 701.9 335.352 707.2 335.352 707.2L321.252 716.4C321.252 716.4 302.652 704.1 299.352 700.2Z" fill="#C4C4C4"/>
<path d="M306.252 694.399C306.452 693.899 305.052 678.599 294.752 679.799C294.752 679.799 288.952 680.999 290.052 683.099C291.152 685.099 292.952 690.699 292.952 690.699L302.252 699.099C302.252 699.099 305.352 696.999 306.252 694.399Z" fill="#FFBC85"/>
<path d="M299.252 677.2H284.952V693.2H299.252V677.2Z" fill="#E2E2E2"/>
<path d="M300.952 717.1C300.552 716.6 289.652 702.5 280.252 708.4C280.252 708.4 275.252 712.2 277.652 713.5C280.052 714.8 285.152 719 285.152 719L299.452 722.3C299.352 722.3 303.152 719.5 300.952 717.1Z" fill="#FFBC85"/>
<path d="M368.751 732.9H345.101H321.451C323.251 731.9 324.151 730.5 326.951 728.3C316.251 727.3 298.051 726.9 298.051 726.9L296.151 710C296.151 710 312.951 707 326.951 706.5C330.251 707.5 332.051 687.8 331.951 685.5C331.951 673.1 339.651 661.1 353.551 670.5C372.451 683.4 368.751 732.9 368.751 732.9Z" fill="#E2E2E2"/>
<path d="M292.152 679C296.129 679 299.352 678.194 299.352 677.2C299.352 676.206 296.129 675.4 292.152 675.4C288.176 675.4 284.952 676.206 284.952 677.2C284.952 678.194 288.176 679 292.152 679Z" fill="#E2E2E2"/>
<path d="M292.152 678.9C295.245 678.9 297.752 678.273 297.752 677.5C297.752 676.726 295.245 676.1 292.152 676.1C289.059 676.1 286.552 676.726 286.552 677.5C286.552 678.273 289.059 678.9 292.152 678.9Z" fill="#939393"/>
<path d="M292.152 695C296.129 695 299.352 694.194 299.352 693.2C299.352 692.206 296.129 691.4 292.152 691.4C288.176 691.4 284.952 692.206 284.952 693.2C284.952 694.194 288.176 695 292.152 695Z" fill="#E2E2E2"/>
<path d="M312.452 809.7L320.352 841.3H270.952L283.852 824.8L286.652 812.3L312.452 809.7Z" fill="#272D33"/>
<path d="M320.952 815.8L321.552 847.4H279.452L293.252 830.9L294.052 818.5L320.952 815.8Z" fill="#3D4B65"/>
<path d="M366.252 752C364.452 770.1 328.252 763.7 315.652 762.8C311.752 762.5 308.552 766.1 309.152 770.1L316.952 823H284.252V748.3C284.252 747.2 284.352 746.1 284.652 745C286.252 738.6 292.052 732.7 298.052 732.7L350.052 732.2L366.152 732.7C366.252 733.1 367.152 742.7 366.252 752Z" fill="#36818E"/>
<path d="M368.652 752.2C366.952 771 348.552 764.6 325.452 764.8C321.752 764.8 319.352 766.2 321.052 770.3V826.2L293.452 826L292.252 748.4C292.252 747.2 292.352 746.1 292.652 744.9C294.152 738.2 299.552 732.2 305.152 732.2L353.452 732H368.952C368.952 732.4 369.552 742.6 368.652 752.2Z" fill="#4DBED8"/>
<path d="M307.105 831.5C311.905 830.7 311.618 827.167 311.452 826H321.452L321.605 847.5H297.105C302.105 847.5 318.952 837.5 313.452 837C309.052 836.6 306.272 832 307.105 831.5Z" fill="#32345A"/>
<path d="M368.852 752.6C367.152 771.4 348.752 765 325.652 765.2C321.952 765.2 319.552 766.6 321.252 770.7L321.452 826H311.452L315.952 802C315.952 780 307.952 752.6 307.952 752.6C307.952 752.6 315.652 762 321.252 762C321.252 762 345.452 766 357.452 759C369.452 752 368.952 732 368.952 732C368.952 732.4 369.752 743 368.852 752.6Z" fill="#36789D"/>
<path d="M356.452 687C356.452 682.6 349.785 672.5 346.452 668C367.452 670.5 370.785 712.833 368.952 732H347.952C348.285 730.333 349.252 726.7 348.452 725.5C347.652 724.3 336.785 726 331.452 727C335.619 725.833 344.452 723.3 346.452 722.5C348.952 721.5 351.452 703.5 352.952 701C354.152 699 351.452 695 347.952 692C351.152 690.8 352.785 693.5 354.452 696L355.452 695C355.452 695.667 355.704 693.504 354.452 691C350.452 683 339.952 680.5 344.452 680C348.052 679.6 354.619 684.5 356.452 687Z" fill="#C4C4C4"/>
<path d="M293.452 680C297.378 679.611 299.236 678 299.236 678C299.236 678 299.628 692.766 299.236 693.543C298.695 694.614 295.147 694.838 293.348 695C291.549 695.162 294.329 692 294.329 692C298.424 683.414 292.471 680 293.452 680Z" fill="#C4C4C4"/>
<path d="M147.952 768.301L141.552 829.001H144.752L155.052 769.701L147.952 768.301Z" fill="#939393"/>
<path d="M196.652 770.4L214.152 837L217.152 835.9L203.852 769.4L196.652 770.4Z" fill="#939393"/>
<path d="M146.052 694.401C144.852 695.601 143.752 697.701 143.452 699.301C141.952 709.601 138.152 757.401 147.852 768.301C157.452 779.101 199.352 775.801 210.152 775.301C212.552 775.201 215.352 773.701 216.352 771.501C217.052 770.101 217.452 764.801 216.352 762.701C213.652 757.501 158.952 761.701 162.652 749.301C182.652 682.601 156.052 684.301 146.052 694.401Z" fill="#2064B4"/>
<path d="M182.952 776.5C153.452 776.5 143.97 769.47 142.561 756.63C141.204 744.265 138.415 713.62 142.901 698.609C144.377 693.668 147.174 692.06 150.703 691C145.452 698 146.632 727.619 146.632 727.619C146.757 740.851 147.004 749.373 149.335 755.56C150.085 757.262 150.983 758.943 152.054 760.568C156.794 766.868 165.784 770.594 182.952 776.5Z" fill="#42B0FF"/>
<path d="M209.052 773.7L172.952 771.5C168.552 771.5 160.452 765.9 160.452 761.5C160.452 757.1 161.852 757.7 166.252 757.7H208.952C213.352 757.7 216.952 761.3 216.952 765.7C217.052 770.1 213.452 773.7 209.052 773.7Z" fill="#2064B4"/>
<path d="M160.552 719.6C159.252 731.3 157.752 766.9 189.252 762.3C189.452 762.3 189.552 762.3 189.752 762.3H205.652C206.852 762.3 200.152 761.7 200.852 760.6L214.152 740.9C215.952 738.2 214.252 734.4 211.152 734.3C209.052 734.2 206.652 734.9 206.652 732.7L199.152 720C199.152 717.7 205.752 716 203.652 716H164.352C162.352 716 160.752 717.5 160.552 719.6Z" fill="#E2E2E2"/>
<path d="M191.79 738.792C184.266 745.087 184.768 758.639 207.639 762.359H221.783C221.783 762.359 225.595 766.073 225.294 771.51C224.993 776.947 227.453 817 227.453 817H242.953L244.453 747.663C244.453 747.663 243.651 736.312 233.319 736.502H198.109C195.702 736.598 193.495 737.361 191.79 738.792Z" fill="#36818E"/>
<path d="M218.452 817L212.152 838.7H251.452L241.452 822.3V817H218.452Z" fill="#272D33"/>
<path d="M212.253 813.3L208.853 844.9H244.753L237.053 828.4L236.553 813L212.253 813.3Z" fill="#3D4B65"/>
<path d="M218.953 825.5C218.153 824.3 222.286 822.667 224.453 822H210.953L208.453 845H233.453C227.286 841.167 216.153 833.4 220.953 833C226.953 832.5 228.953 828.5 227.453 828.5C225.953 828.5 219.953 827 218.953 825.5Z" fill="#32345A"/>
<path d="M183.353 764.4L211.753 766.4C211.753 766.4 215.253 764.1 215.053 770C214.753 775.9 210.953 822.1 210.953 822.1H236.808L240.953 755.1C240.953 755.1 239.053 741.7 229.453 742L208.953 740.993V732.973L159.453 732.8C160.153 736.2 154.053 763.6 183.353 764.4Z" fill="#4DBED8"/>
<path d="M187.486 735.328C187.997 731.546 189.529 732.019 189.529 732.019H209.453V741C209.453 741 199.747 740.527 196.17 740.055C192.594 739.582 186.975 739.109 187.486 735.328Z" fill="#36818E"/>
<path d="M181.452 667.1C182.052 666.8 175.552 668 166.452 672.6C164.74 673.474 162.31 673.64 160.452 676C156.996 680.391 154.209 690.095 152.452 710C151.652 719.1 152.352 725.5 178.252 726C204.152 726.6 215.953 726 215.953 726C215.953 726 219.752 687.7 210.052 674.1C208.252 671.6 202.852 669.6 200.352 669.3C183.952 667.2 181.452 667.1 181.452 667.1Z" fill="#E2E2E2"/>
<path d="M193.952 676.001C193.756 665.001 202.452 670.501 207.452 672.001C215.452 676.001 218.452 705.001 218.952 719.001H205.452C208.252 716.601 194.119 685.334 193.952 676.001Z" fill="#C4C4C4"/>
<path d="M193.952 732.5C193.952 732.5 176.452 732.5 159.452 733V723.5C169.952 723.5 170.452 724.7 172.452 719.5L169.952 711C168.785 707 170.952 703 172.952 695.5C172.668 700.689 173.063 708.164 174.819 715C175.216 716.544 176.225 719.5 176.225 719.5C205.952 717 193.952 732.5 193.952 732.5Z" fill="#C4C4C4"/>
<path d="M202.952 643L204.752 649.4C204.452 656.5 205.252 663.6 201.952 667.5C198.552 671.4 197.052 670.8 196.152 670.8L192.452 679.5L179.552 670.6C179.552 670.6 183.652 664.7 182.452 662.7C182.452 662.7 182.152 662 180.852 661.7C177.452 661 174.152 648.2 185.052 654.3L184.752 644.2L202.952 643Z" fill="#FFBC85"/>
<path d="M190.952 668.5L196.452 670.692L193.452 677C191.697 672.246 189.587 672.337 190.952 668.5Z" fill="#F07B61"/>
<path d="M178.952 655C180.552 653.8 181.452 654 182.452 656C182.452 657.5 180.952 657.5 182.452 660.5C182.676 660.948 180.452 659 180.952 658C181.352 657.2 180.452 657.334 179.452 657.5C178.452 657.5 178.952 655.334 178.952 655Z" fill="#F07B61"/>
<path d="M179.452 658.5C179.952 659.333 181.152 661 181.952 661" stroke="#F07B61" stroke-width="0.5"/>
<path d="M185.952 646.801C185.952 646.801 196.052 649.301 199.752 647.401C199.752 647.401 204.152 649.501 205.452 646.401C205.452 646.401 209.252 639.501 196.652 640.101C196.652 640.101 192.352 638.901 189.052 637.401C185.752 635.801 181.552 638.901 181.952 640.501C181.952 640.501 168.952 639.901 176.752 653.301L177.652 654.501C177.652 654.501 179.152 652.801 180.952 653.001C180.952 653.001 183.152 652.801 183.352 655.601C183.352 655.601 185.652 656.401 185.552 652.701C185.452 649.001 185.952 646.801 185.952 646.801Z" fill="#6057C0"/>
<path d="M184.352 646C187.5 646 190.052 643.628 190.052 640.7C190.052 637.773 187.5 635.4 184.352 635.4C181.204 635.4 178.652 637.773 178.652 640.7C178.652 643.628 181.204 646 184.352 646Z" fill="#6057C0"/>
<path d="M185.952 647C184.752 646.2 184.785 643.5 184.952 642.5C185.952 643.5 188.11 645.329 189.452 646C190.452 646.5 202.155 647.778 202.452 646C202.952 643 205.098 642.646 205.452 643C205.952 643.5 206.452 644 205.452 646.5C204.452 649 201.118 648 199.452 647.5C196.452 649.5 187.452 648 185.952 647Z" fill="#0B0A54"/>
<path d="M164.952 720.001C162.152 713.601 166.119 711.667 168.452 712.001L172.452 719.001C171.452 722.001 167.752 726.401 164.952 720.001Z" fill="#C4C4C4"/>
<path d="M167.553 712.3C168.053 712 181.953 701.6 188.953 710C188.953 710 192.453 715.1 189.953 715.6C187.453 716.2 181.553 718.7 181.553 718.7L167.553 717.7C167.553 717.8 164.853 714 167.553 712.3Z" fill="#FFBC85"/>
<path d="M181.952 637C181.452 638.167 180.652 640.8 181.452 642C182.35 643.346 178.415 643.082 177.598 643.736C177.541 643.831 177.492 643.92 177.452 644C177.452 643.897 177.505 643.811 177.598 643.736C178.02 643.034 178.896 642 179.952 642C181.452 642 178.452 639 181.952 637Z" fill="#0B0A54"/>
<path d="M181.476 651C178.793 651 176.453 646.167 175.453 643C171.953 645 176.976 657 177.476 655.5C177.876 654.3 179.31 653.333 179.976 653C183.953 653.5 182.476 654.5 183.476 655.5C184.476 656.5 185.476 655.5 185.476 654.5C185.476 653.7 185.453 652.5 185.453 650.5C184.953 651.333 183.953 651 181.476 651Z" fill="#0B0A54"/>
<path d="M159.413 693.941C154.978 691.344 159.565 680.231 161.413 675C154.638 678.247 153.638 699.894 151.79 710.176C150.311 718.402 155.399 722.32 157.452 722.5C154.003 720.335 154.843 711.8 155.869 708.553L157.565 699.894C160.029 698.992 163.848 696.539 159.413 693.941Z" fill="#C4C4C4"/>
<path d="M170.952 690.5C169.573 684 165.619 681.667 162.952 680C181.952 686.5 169.452 702 169.952 710.5C170.058 712.3 164.952 707.5 163.452 707.5C162.187 707.5 159.619 708.5 156.452 709.5C156.619 708.667 157.652 706.7 160.452 705.5C163.252 704.3 165.952 707.5 167.952 706.5C170.952 703.5 169.952 697.7 169.952 696.5C169.952 695 161.952 686.5 164.952 687.5C167.352 688.3 169.785 689.333 170.952 690.5Z" fill="#C4C4C4"/>
<path d="M222.952 760C220.152 764 210.119 765.667 206.452 766C211.952 767.5 215.452 769 214.952 770.5C217.452 770.5 226.452 755 222.952 760Z" fill="#36789D"/>
<path d="M217.952 810L214.452 778L210.952 822H224.452L217.952 810Z" fill="#36789D"/>
<path d="M174.753 732.201V726.601H330.253V732.201H174.753Z" fill="#DEDEDE" stroke="white"/>
<path d="M312.353 728.4L337.753 847.4" stroke="white" stroke-width="10" stroke-miterlimit="10"/>
<path d="M184.653 728.2L162.853 847.4" stroke="white" stroke-width="10" stroke-miterlimit="10"/>
<path d="M215.453 693.7H250.253L252.453 696.8L241.553 726.1H176.153L175.253 722.3H198.453L211.353 695.6L215.453 693.7Z" fill="white" stroke="#9B9B9B" stroke-miterlimit="10"/>
</g>
<defs>
<radialGradient id="paint0_angular" cx="0" cy="0" r="1" gradientUnits="userSpaceOnUse" gradientTransform="translate(256.949 53.9645) rotate(90) scale(53.9645 256.949)">
<stop offset="0.151042" stop-color="#9FD7A7"/>
<stop offset="0.864583" stop-color="#8C9FFF" stop-opacity="0"/>
</radialGradient>
<linearGradient id="paint1_linear" x1="135.491" y1="805.136" x2="135.491" y2="843.893" gradientUnits="userSpaceOnUse">
<stop offset="0.364583" stop-color="#C4C4C4"/>
<stop offset="1" stop-color="#C4C4C4" stop-opacity="0"/>
</linearGradient>
<linearGradient id="paint2_linear" x1="421.25" y1="809.577" x2="421.25" y2="873.577" gradientUnits="userSpaceOnUse">
<stop stop-color="#C4C4C4"/>
<stop offset="1" stop-color="#C4C4C4" stop-opacity="0"/>
</linearGradient>
<linearGradient id="paint3_linear" x1="307.516" y1="798.922" x2="307.516" y2="874.267" gradientUnits="userSpaceOnUse">
<stop offset="0.458333" stop-color="#C4C4C4"/>
<stop offset="1" stop-color="#C4C4C4" stop-opacity="0"/>
</linearGradient>
<clipPath id="clip0">
<rect width="956" height="922" fill="white"/>
</clipPath>
</defs>
</svg>
