<svg width="515" height="396" viewBox="0 0 515 396" fill="none" xmlns="http://www.w3.org/2000/svg">
<path fill-rule="evenodd" clip-rule="evenodd" d="M1 395.85H347.639C364.286 348.748 397.589 311.672 431.613 273.793C452.657 250.365 473.977 226.629 491.802 200.025C567.097 87.6436 473.147 -144.492 1 172.968V395.85Z" fill="url(#paint0_linear)"/>
<path fill-rule="evenodd" clip-rule="evenodd" d="M0.87793 150.021V395.85H311.251C319.858 300.466 388.753 230.746 451 172.238C541.133 87.5185 436.884 -138.154 0.87793 150.021Z" fill="#7FE4A8"/>
<path fill-rule="evenodd" clip-rule="evenodd" d="M0.87793 145.433V395.85H320.723C335.561 342.735 371.662 302.544 408.614 261.406C429.658 237.977 450.978 214.242 468.802 187.638C542.865 77.0956 453.177 -149.314 0.87793 145.433Z" fill="url(#paint1_linear)"/>
<defs>
<linearGradient id="paint0_linear" x1="261.536" y1="8.37881" x2="261.536" y2="444.387" gradientUnits="userSpaceOnUse">
<stop stop-color="#ACE19F"/>
<stop offset="1" stop-color="#A3D9F6" stop-opacity="0"/>
</linearGradient>
<linearGradient id="paint1_linear" x1="238.536" y1="-4.0084" x2="238.536" y2="432" gradientUnits="userSpaceOnUse">
<stop stop-color="#ABDCA7"/>
<stop offset="1" stop-color="#A3D9F6" stop-opacity="0"/>
</linearGradient>
</defs>
</svg>
