<svg width="40" height="40" viewBox="0 0 40 40" fill="none" xmlns="http://www.w3.org/2000/svg">
<g clip-path="url(#clip0)">
<path d="M39.5118 37.1549L37.7168 35.3599L34.8334 32.4816L39.4818 27.8333C39.6796 27.6351 39.8244 27.3903 39.9026 27.1214C39.9809 26.8525 39.9901 26.5683 39.9295 26.2949C39.8688 26.0215 39.7403 25.7678 39.5557 25.5572C39.3712 25.3466 39.1365 25.1859 38.8734 25.0899L23.9251 19.6666C23.3297 19.4514 22.6853 19.4102 22.0673 19.5479C21.4493 19.6856 20.8833 19.9964 20.4355 20.444C19.9877 20.8916 19.6767 21.4575 19.5388 22.0754C19.4009 22.6933 19.4418 23.3378 19.6568 23.9333L25.0951 38.8816C25.1906 39.1449 25.3509 39.3799 25.5612 39.5649C25.7715 39.7499 26.0251 39.8789 26.2984 39.9399C26.4172 39.9658 26.5385 39.9786 26.6601 39.9783C27.1021 39.9782 27.5259 39.8025 27.8384 39.4899L32.4818 34.8333L35.3601 37.7116L37.1551 39.5066C37.4694 39.8102 37.8904 39.9782 38.3274 39.9744C38.7644 39.9706 39.1825 39.7953 39.4915 39.4863C39.8005 39.1773 39.9758 38.7593 39.9796 38.3223C39.9834 37.8853 39.8154 37.4643 39.5118 37.1499V37.1549ZM27.3334 35.2749L22.7934 22.7916L35.2768 27.3316L27.3334 35.2749Z" fill="#3D3D3D"/>
<path d="M16.6667 33.3333C13.3703 33.3333 10.148 32.3559 7.40717 30.5245C4.66635 28.6931 2.53014 26.0902 1.26868 23.0447C0.0072214 19.9993 -0.322834 16.6482 0.320253 13.4152C0.96334 10.1822 2.55069 7.21244 4.88156 4.88156C7.21244 2.55069 10.1822 0.96334 13.4152 0.320253C16.6482 -0.322834 19.9993 0.0072214 23.0447 1.26868C26.0902 2.53014 28.6931 4.66635 30.5245 7.40717C32.3559 10.148 33.3333 13.3703 33.3333 16.6667C33.3333 17.1087 33.1577 17.5326 32.8452 17.8452C32.5326 18.1577 32.1087 18.3333 31.6667 18.3333C31.2246 18.3333 30.8007 18.1577 30.4882 17.8452C30.1756 17.5326 30 17.1087 30 16.6667C30 14.0296 29.218 11.4517 27.7529 9.25907C26.2878 7.06641 24.2055 5.35745 21.7691 4.34828C19.3328 3.33911 16.6519 3.07507 14.0655 3.58954C11.4791 4.10401 9.10328 5.37388 7.23858 7.23858C5.37388 9.10328 4.10401 11.4791 3.58954 14.0655C3.07507 16.6519 3.33911 19.3328 4.34828 21.7691C5.35745 24.2055 7.06641 26.2878 9.25907 27.7529C11.4517 29.218 14.0296 30 16.6667 30C17.1087 30 17.5326 30.1756 17.8452 30.4882C18.1577 30.8007 18.3333 31.2246 18.3333 31.6667C18.3333 32.1087 18.1577 32.5326 17.8452 32.8452C17.5326 33.1577 17.1087 33.3333 16.6667 33.3333Z" fill="#3D3D3D"/>
<path d="M13.4733 26.0333C13.2543 26.0334 13.0374 25.9904 12.835 25.9066C11.3164 25.2759 9.97679 24.2804 8.93478 23.0084C7.89278 21.7364 7.18053 20.227 6.86113 18.614C6.54172 17.0009 6.62501 15.334 7.10362 13.7609C7.58222 12.1877 8.44138 10.7569 9.605 9.59503C10.7686 8.43319 12.2008 7.57623 13.7747 7.10003C15.3486 6.62383 17.0156 6.54309 18.6281 6.86496C20.2407 7.18684 21.7489 7.90139 23.0194 8.94534C24.2898 9.9893 25.2832 11.3304 25.9116 12.85C25.9997 13.053 26.0465 13.2715 26.0492 13.4928C26.0519 13.7141 26.0106 13.9337 25.9275 14.1388C25.8445 14.3439 25.7214 14.5305 25.5655 14.6875C25.4096 14.8446 25.2239 14.969 25.0194 15.0535C24.8149 15.1381 24.5956 15.1811 24.3743 15.18C24.153 15.1788 23.9342 15.1337 23.7305 15.0471C23.5269 14.9605 23.3425 14.8342 23.1882 14.6756C23.0338 14.517 22.9126 14.3292 22.8316 14.1233C22.4117 13.1112 21.7489 12.2182 20.9016 11.5233C20.0544 10.8284 19.0489 10.3531 17.9742 10.1394C16.8995 9.92563 15.7887 9.98011 14.74 10.298C13.6914 10.6158 12.7373 11.1872 11.9621 11.9617C11.1869 12.7361 10.6146 13.6897 10.2957 14.738C9.97685 15.7864 9.92132 16.8971 10.134 17.9721C10.3467 19.047 10.8211 20.0529 11.5152 20.9008C12.2092 21.7487 13.1016 22.4124 14.1133 22.8333C14.4699 22.9808 14.7641 23.2475 14.946 23.5879C15.1278 23.9282 15.1859 24.3211 15.1104 24.6995C15.0349 25.0779 14.8304 25.4184 14.5319 25.6628C14.2333 25.9073 13.8592 26.0406 13.4733 26.04V26.0333Z" fill="#3D3D3D"/>
</g>
<defs>
<clipPath id="clip0">
<rect width="40" height="40" fill="white"/>
</clipPath>
</defs>
</svg>
