<svg width="392" height="422" viewBox="0 0 392 422" fill="none" xmlns="http://www.w3.org/2000/svg">
<path d="M245.586 276.274H107.293C93.8571 276.274 83 265.209 83 251.516V42.5959C83 28.903 93.8571 17.838 107.293 17.838H245.586C259.021 17.838 269.879 28.903 269.879 42.5959V251.516C269.879 265.209 259.021 276.274 245.586 276.274Z" fill="white" stroke="url(#paint0_linear)" stroke-width="2" stroke-miterlimit="10"/>
<path d="M268.58 47.4199H84.4864C82.5723 47.4199 81 45.5709 81 43.3198V18.8801C81 16.6291 82.5723 14.78 84.4864 14.78H268.511C270.426 14.78 271.998 16.6291 271.998 18.8801V43.3198C272.066 45.5709 270.494 47.4199 268.58 47.4199Z" fill="#20B47F"/>
<path d="M253.453 24.3768L264.582 37.7932" stroke="white" stroke-width="4" stroke-miterlimit="10"/>
<path d="M264.582 24.2383L252.979 37.1707" stroke="white" stroke-width="4" stroke-miterlimit="10"/>
<path d="M201.407 31.085H217.693" stroke="white" stroke-width="4" stroke-miterlimit="10"/>
<path d="M241.986 23.616H232.215V32.1914H241.986V23.616Z" stroke="white" stroke-width="3" stroke-miterlimit="10"/>
<path d="M237.711 28.5955H227.939V37.1707H237.711V28.5955Z" fill="#20B47F" stroke="white" stroke-width="3" stroke-miterlimit="10"/>
<path d="M194.418 80.9463H257.457" stroke="#20B47F" stroke-width="3" stroke-miterlimit="10"/>
<path d="M193.875 92.9795H257.389" stroke="#20B47F" stroke-width="3" stroke-miterlimit="10"/>
<path d="M224.547 114.003H256.915" stroke="#20B47F" stroke-width="3" stroke-miterlimit="10"/>
<path d="M194.689 103.491H257.186" stroke="#20B47F" stroke-width="3" stroke-miterlimit="10"/>
<path d="M156.418 263.242L107.357 263.311C102.607 263.311 98.7393 259.369 98.7393 254.528V228.318C98.7393 223.477 102.607 219.535 107.357 219.535L156.418 219.466C161.168 219.466 165.036 223.408 165.036 228.249V254.459C165.036 259.3 161.168 263.242 156.418 263.242Z" fill="#EBFF6D" stroke="#20B47F" stroke-width="2" stroke-miterlimit="10"/>
<path d="M154.382 235.441C156.818 235.441 158.793 233.428 158.793 230.946C158.793 228.463 156.818 226.451 154.382 226.451C151.946 226.451 149.972 228.463 149.972 230.946C149.972 233.428 151.946 235.441 154.382 235.441Z" stroke="#20B47F" stroke-width="2" stroke-miterlimit="10"/>
<path d="M154.382 240.628L154.45 262.066" stroke="#20B47F" stroke-width="2" stroke-miterlimit="10"/>
<path d="M142.711 220.433V262.065" stroke="#20B47F" stroke-width="2" stroke-miterlimit="10"/>
<path d="M99.6211 231.013L125.61 230.946" stroke="#20B47F" stroke-width="2" stroke-miterlimit="10"/>
<path d="M99.6211 239.244H124.66" stroke="#20B47F" stroke-width="2" stroke-miterlimit="10"/>
<path d="M99.6211 254.528H117.128" stroke="#20B47F" stroke-width="2" stroke-miterlimit="10"/>
<path d="M181.796 60.7529H97.1104V126.935H181.796V60.7529Z" fill="#EBFF6D" stroke="#20B47F" stroke-width="2" stroke-miterlimit="10"/>
<path d="M259.018 139.591H95.4824V205.773H259.018V139.591Z" fill="#EBFF6D" stroke="#20B47F" stroke-width="2" stroke-miterlimit="10"/>
<path d="M219.796 73.4776C222.307 73.4776 224.343 71.4031 224.343 68.8441C224.343 66.2852 222.307 64.2107 219.796 64.2107C217.286 64.2107 215.25 66.2852 215.25 68.8441C215.25 71.4031 217.286 73.4776 219.796 73.4776Z" fill="#FF6161" stroke="#20B47F" stroke-width="3" stroke-miterlimit="10"/>
<path d="M157.232 88.0003C161.055 88.0003 164.153 84.8422 164.153 80.9464C164.153 77.0507 161.055 73.8926 157.232 73.8926C153.409 73.8926 150.311 77.0507 150.311 80.9464C150.311 84.8422 153.409 88.0003 157.232 88.0003Z" stroke="#20B47F" stroke-width="3" stroke-miterlimit="10"/>
<path d="M236.15 73.4776C238.661 73.4776 240.696 71.4031 240.696 68.8441C240.696 66.2852 238.661 64.2107 236.15 64.2107C233.639 64.2107 231.604 66.2852 231.604 68.8441C231.604 71.4031 233.639 73.4776 236.15 73.4776Z" fill="#FFC90B" stroke="#20B47F" stroke-width="3" stroke-miterlimit="10"/>
<path d="M251.282 73.5468C253.793 73.5468 255.828 71.4723 255.828 68.9133C255.828 66.3543 253.793 64.2798 251.282 64.2798C248.771 64.2798 246.735 66.3543 246.735 68.9133C246.735 71.4723 248.771 73.5468 251.282 73.5468Z" fill="#00FF94" stroke="#20B47F" stroke-width="3" stroke-miterlimit="10"/>
<path d="M127.714 187.585H117.875V205.704H127.714V187.585Z" fill="#155E6B"/>
<path d="M147.393 180.462H137.554V205.773H147.393V180.462Z" fill="#155E6B"/>
<path d="M167.072 176.243H157.232V205.704H167.072V176.243Z" fill="#155E6B"/>
<path d="M186.75 163.657H176.911V205.704H186.75V163.657Z" fill="#20B47F"/>
<path d="M206.428 152.523H196.589V205.773H206.428V152.523Z" fill="#20B47F"/>
<path d="M226.107 172.647H216.268V205.704H226.107V172.647Z" fill="#20B47F"/>
<path d="M245.786 162.481H235.946V205.773H245.786V162.481Z" fill="#20B47F"/>
<path d="M97.1104 93.8786C97.1104 93.8786 112.853 85.4416 116.178 80.9464C119.503 76.4513 127.646 80.9464 127.646 80.9464C127.646 80.9464 149.768 104.321 170.6 108.401" stroke="#20B47F" stroke-width="3" stroke-miterlimit="10"/>
<path d="M101.996 84.6117C101.996 84.6117 116.721 76.1746 119.843 71.6795C122.964 67.1843 130.564 71.6795 130.564 71.6795C130.564 71.6795 151.26 95.0543 170.667 99.1345" stroke="#20B47F" stroke-width="3" stroke-miterlimit="10"/>
<rect x="217" y="403" width="174" height="6" fill="url(#paint1_linear)"/>
<rect x="147" y="416" width="245" height="6" fill="url(#paint2_linear)"/>
<path d="M14.9964 234.922L0 248.477L22.0536 267.841L22.4607 252.557L28.9071 244.535L14.9964 234.922Z" fill="#3D4B65"/>
<path d="M41.5967 246.195L42.2753 267.841H73.1502L62.2252 256.707L60.8002 248.477L41.5967 246.195Z" fill="#3D4B65"/>
<path d="M45.4023 161.217L54.8906 252.75" stroke="#168960" stroke-width="29" stroke-miterlimit="10"/>
<path d="M50.9612 114.729C50.9612 114.729 44.9219 115.49 39.5612 117.634C36.1005 119.017 28.9755 121.645 27.754 138.035C27.279 144.328 30.3326 153.664 47.9076 154.01C65.4826 154.425 68.7398 153.664 68.7398 153.664C68.7398 153.664 69.4862 150.345 69.9612 145.78C70.7755 138.45 70.979 127.869 66.9755 122.129C65.754 120.4 61.479 114.867 59.7826 114.729C53.8112 114.107 50.9612 114.729 50.9612 114.729Z" fill="#E2E2E2"/>
<path d="M29.7891 141.631C29.7891 141.631 33.5891 153.664 42.4784 153.664C45.9391 153.664 47.2962 149.999 47.2962 149.999" stroke="black" stroke-miterlimit="10"/>
<g filter="url(#filter0_d)">
<path d="M40.2531 156.292L36.4531 201.866C35.6388 211.548 36.0459 217.426 31.8388 226.14C29.1245 231.741 23.5602 240.662 19.5566 245.572" stroke="#20B47F" stroke-width="28" stroke-miterlimit="10"/>
</g>
<path d="M33.9286 173.374C45.8036 177.246 52.8607 174.273 56.2536 171.852C57.8143 170.746 59.9857 168.671 60.0536 166.804L61.275 151.174L26.6 151.105C25.9893 156.361 25.175 160.649 25.3786 163.761C25.7178 168.325 29.6536 171.99 33.9286 173.374Z" fill="#20B47F"/>
<path d="M27.7541 138.035L26.1934 154.079L60.3255 162.516L61.5469 145.78L27.7541 138.035Z" fill="#E2E2E2"/>
<path d="M81.0891 149.169C81.0891 149.169 78.1033 163.069 60.5283 159.819L61.2069 140.04H70.2998L80.4784 148.616L81.0891 149.169Z" fill="#E2E2E2"/>
<path d="M63.5176 150.123C63.7113 146.553 62.8937 138.235 61.9255 130.123C61.4414 129.312 60.1102 121.755 61.9256 126.623C63.3779 130.517 65.6961 142.822 65.333 150.123H63.5176Z" fill="#C4C4C4"/>
<path d="M55.9644 161.461C52.9787 160.423 51.418 157.104 52.4359 154.13L52.7073 153.3C53.7251 150.257 56.9823 148.667 59.9001 149.704C62.8858 150.742 64.4466 154.061 63.4287 157.035L63.1573 157.865C62.1394 160.838 58.9501 162.498 55.9644 161.461Z" stroke="#155E6B" stroke-miterlimit="10"/>
<path d="M72.9286 171.349L53.5215 164.572L64.3108 144.378L80.3929 149.98C80.3929 149.98 75.575 155.72 75.0322 158.832L72.9286 171.349Z" fill="#155E6B"/>
<path d="M97.0179 158.28L61.5 149.61L64 144L97.7643 156.067L97.0179 158.28Z" fill="#155E6B"/>
<path d="M25 153.482C25.8 131.882 30 123.148 32.5 121.482C41 114.982 40 119.482 38 119.982C36 120.481 29 122.982 32.5 128.482C35.5 129.982 27.5882 133.981 27.5 145.981C27.4918 147.099 31 151.482 34.5 151.482C37.5463 151.482 38.5 150.148 39 148.982C49 151.782 57.1667 155.482 60 156.982L59.5 161.982C51.9 162.382 33.3333 156.482 25 153.482Z" fill="#C4C4C4"/>
<path d="M41.4625 153.307C41.8025 153.101 51.2606 145.942 55.9896 151.769C55.9896 151.769 58.3518 155.304 56.6541 155.644C54.9562 156.053 50.9464 157.767 50.9464 157.767L41.4489 157.041C41.4487 157.11 39.6261 154.476 41.4625 153.307Z" fill="#FFBC85"/>
<path d="M72.6927 168.917C73.0319 168.848 80.4962 169.401 81.0391 163.384C81.0391 163.246 81.0391 163.177 81.0391 163.039C80.9712 162.347 80.6998 159.857 79.5462 160.411C78.5962 160.895 76.4927 161.586 75.4069 161.932C74.9319 162.07 74.5248 162.347 74.1176 162.693L69.9784 166.565C68.9605 167.603 72.1498 168.986 72.6927 168.917Z" fill="#FFBC85"/>
<path d="M72 149.868C74.4 150.668 75.5 149.535 75.5 148.868L63 144.368L52 164.868L72 170.868C62 166.468 60.5 161.702 61 159.868L63 154.368C63.6667 154.035 65.5 153.568 67.5 154.368C69.5 155.168 73 153.868 70.5 152.368C69.469 151.75 65.4 151.068 65 149.868C64.5 148.368 69 148.868 72 149.868Z" fill="#273E42"/>
<path d="M64.1641 102.558L64.9106 102.973C63.8248 107.744 65.4534 113.623 62.7391 115.836C60.0248 118.049 57.3105 117.357 56.7677 117.219L53.307 123.097L45.4355 116.32C45.4355 116.32 49.5748 111.202 48.7606 110.856C46.5891 109.957 45.0284 99.0999 51.5427 104.702L52.2213 99.0308L64.1641 102.558Z" fill="#FFBC85"/>
<path d="M53.7141 101.589C54.3248 102.074 57.9891 104.84 61.857 103.18H61.9248C62.1963 103.387 64.6391 105.047 65.8606 103.18C65.8606 103.18 69.0498 99.0998 60.907 97.0251C60.907 97.0251 58.057 96.4719 56.0891 94.9504C54.1213 93.4981 51.0677 94.9504 50.932 96.0569C50.932 96.1261 50.932 96.1261 50.8641 96.1261C50.0498 95.9878 42.5177 94.6738 45.8427 104.217L48.082 112.724C48.082 112.793 48.1498 112.793 48.1498 112.793C48.6927 112.516 52.1534 110.649 49.982 110.441C47.4034 110.234 48.4891 105.116 49.507 104.563C49.507 104.563 51.2713 103.526 51.4748 106.5C51.5427 106.984 51.8141 107.468 52.357 107.606C52.8998 107.744 53.4427 107.468 53.2391 105.531C53.0356 101.659 53.5 101.48 53.5 101.48C53.5679 101.342 53.7141 101.589 53.7141 101.589Z" fill="#6057C0"/>
<path d="M103.977 159.405C103.983 159.39 103.99 159.372 104 159.351C103.993 159.374 103.986 159.396 103.978 159.417C103.982 159.465 103.964 159.482 103.965 159.457C103.783 159.986 103.572 160.251 103.143 160.251C102.686 160.251 101.429 159.251 100 158.251C100.857 158.451 100.993 158.112 102.286 158.451C103.729 158.83 103.957 159.249 103.977 159.405Z" fill="#2BD0EE"/>
<path d="M105.977 166.405C105.983 166.39 105.99 166.372 106 166.351C105.993 166.374 105.986 166.396 105.978 166.417C105.982 166.465 105.964 166.482 105.965 166.457C105.783 166.986 105.572 167.251 105.143 167.251C104.686 167.251 102.929 165.751 101.5 164.751C102.357 164.951 102.993 165.112 104.286 165.451C105.729 165.83 105.957 166.249 105.977 166.405Z" fill="#2BD0EE"/>
<path d="M116.351 159.266C116.351 159.25 116.351 159.231 116.353 159.208C116.355 159.231 116.356 159.255 116.357 159.277C116.377 159.321 116.367 159.343 116.359 159.319C116.382 159.878 116.281 160.202 115.881 160.358C115.455 160.524 112.694 159.164 111 158.751C111.871 158.626 113.101 159.145 114.429 158.992C115.912 158.821 116.276 159.128 116.351 159.266Z" fill="#2BD0EE"/>
<path d="M116.772 166.338C116.765 166.315 116.759 166.288 116.752 166.255C116.761 166.289 116.771 166.323 116.78 166.355C116.811 166.423 116.811 166.452 116.796 166.415C117.015 167.218 117.056 167.648 116.808 167.755C116.543 167.868 113.437 165.812 112 164.734C112.618 164.809 114.256 165.226 115.21 165.392C116.276 165.577 116.664 166.12 116.772 166.338Z" fill="#2BD0EE"/>
<path d="M118.923 179.251C118.933 179.239 118.946 179.224 118.962 179.208C118.948 179.227 118.934 179.245 118.92 179.263C118.907 179.31 118.885 179.32 118.894 179.296C118.548 179.736 118.262 179.917 117.857 179.776C117.425 179.625 116.02 177.665 115 176.251C115.744 176.722 116.53 177.048 117.639 177.794C118.878 178.627 118.955 179.097 118.923 179.251Z" fill="#2BD0EE"/>
<path d="M124.923 174.251C124.933 174.239 124.946 174.224 124.962 174.208C124.948 174.227 124.934 174.245 124.92 174.263C124.907 174.31 124.885 174.32 124.894 174.296C124.548 174.736 124.262 174.917 123.857 174.776C123.425 174.625 121.52 171.665 120.5 170.251C121.244 170.722 122.53 172.048 123.639 172.794C124.878 173.627 124.955 174.097 124.923 174.251Z" fill="#2BD0EE"/>
<path d="M129.3 168.325C129.305 168.31 129.313 168.292 129.323 168.271C129.316 168.294 129.308 168.316 129.301 168.338C129.304 168.386 129.287 168.402 129.287 168.377C129.103 168.905 128.89 169.169 128.461 169.166C128.004 169.164 126.423 167.759 125 166.751C125.856 166.956 126.323 167.015 127.614 167.362C129.055 167.749 129.281 168.169 129.3 168.325Z" fill="#2BD0EE"/>
<path d="M127.354 159.288C127.354 159.272 127.354 159.253 127.357 159.23C127.358 159.253 127.358 159.277 127.359 159.299C127.378 159.343 127.367 159.365 127.359 159.341C127.365 159.901 127.255 160.221 126.851 160.365C126.42 160.518 124.681 159.42 123 158.956C123.875 158.857 124.108 159.069 125.44 158.956C126.927 158.829 127.282 159.148 127.354 159.288Z" fill="#2BD0EE"/>
<path d="M146 0H122.5L102 32H124L146 0Z" fill="white"/>
<path d="M172 0H157.58L136 32H149.5L172 0Z" fill="white"/>
<path d="M270.818 367.11L290.768 376.792L280.454 399.959L273.261 387.788L266 382.532L270.818 367.11Z" fill="#3D4B65"/>
<path d="M223.386 386.059L215.514 407.082L190 396.57L202.689 389.171L206.354 381.079L223.386 386.059Z" fill="#3D4B65"/>
<path d="M247.203 313.168C247.203 313.168 241.707 361.577 276.653 381.079" stroke="#168960" stroke-width="29" stroke-miterlimit="10"/>
<path d="M229.697 305.492H256.907C256.907 305.492 263.082 318.009 257.518 326.515C252.225 334.606 231.461 328.59 231.461 328.59C231.461 328.59 226.779 315.312 229.697 305.492Z" fill="#4DBED8"/>
<g filter="url(#filter1_d)">
<path d="M238.925 313.168L225.829 352.138L212.732 391.107" stroke="#20B47F" stroke-width="29" stroke-miterlimit="10"/>
</g>
<path d="M230.036 305.699H257.247C257.247 305.699 257.179 298.784 256.772 289.309C256.365 278.936 256.072 268.857 252 264.5C250.44 262.84 246.468 260.187 244.5 259.91C240.429 262.192 238.775 264.102 234.5 267.56C232.193 273.162 230.104 281.91 230.24 294.773C230.308 298.576 230.036 300.236 230.036 305.699Z" fill="#E2E2E2"/>
<path d="M235.871 240.07C235.532 240.208 235.193 240.139 234.989 239.932C234.311 239.24 232.546 238.203 228.814 240.001C223.725 242.421 224.471 243.113 220.128 246.156C217.821 247.816 217.686 255.146 230.171 249.06C230.578 248.853 230.986 248.922 231.257 249.268C232.275 250.444 234.718 253.002 235.668 252.518C236.482 252.103 238.043 255.63 238.857 257.567C239.129 258.189 239.875 258.327 240.35 257.912C240.35 257.912 243.064 255.423 243.132 255.354C243.879 254.731 245.371 253.625 248.493 253.348C250.732 253.071 240.282 238.341 235.871 240.07Z" fill="#6057C0"/>
<path d="M225.149 249.821L222.91 250.444C224.607 255.285 223.182 259.503 226.235 261.439C229.289 263.445 232.003 262.338 232.546 262.131L236.007 268.009C236.007 268.009 239.332 268.58 241.5 265.52C243.667 262.46 244.624 260.264 244.624 260.264C244.624 260.264 240.282 257.567 239.332 256.46C239.332 256.46 238.11 254.316 238.857 253.832C240.96 252.587 237.635 244.427 234.989 250.789L232.207 248.092C230.103 245.464 226.371 248.576 225.149 249.821Z" fill="#FFBC85"/>
<path d="M227.476 250.605C229.512 249.945 230.637 247.728 229.989 245.653C229.341 243.579 227.166 242.432 225.13 243.093C223.094 243.753 221.97 245.97 222.617 248.044C223.265 250.119 225.441 251.265 227.476 250.605Z" fill="#6057C0"/>
<path d="M290.632 311.854L241.029 339.24C236.889 341.522 231.664 340.001 229.357 335.713L214.836 308.397C212.597 304.178 214.089 298.853 218.297 296.502L267.9 269.116C272.039 266.834 277.264 268.355 279.572 272.643L294.093 299.96C296.332 304.247 294.839 309.572 290.632 311.854Z" fill="#EBFF6D" stroke="#2064B4" stroke-width="2" stroke-miterlimit="10"/>
<path d="M273.348 286.251C275.72 284.94 276.6 281.918 275.314 279.5C274.028 277.083 271.063 276.185 268.691 277.496C266.318 278.807 265.438 281.829 266.724 284.246C268.01 286.664 270.975 287.561 273.348 286.251Z" fill="#EBFF6D" stroke="#2064B4" stroke-width="2" stroke-miterlimit="10"/>
<path d="M276.11 291.315L287.239 312.269" stroke="#2064B4" stroke-width="2" stroke-miterlimit="10"/>
<path d="M254.193 277.899L275.84 318.562" stroke="#2064B4" stroke-width="2" stroke-miterlimit="10"/>
<path d="M217.55 311.37L242.928 297.332" stroke="#2064B4" stroke-width="2" stroke-miterlimit="10"/>
<path d="M221.825 319.461L246.322 305.976" stroke="#2064B4" stroke-width="2" stroke-miterlimit="10"/>
<path d="M229.765 334.399L246.865 324.994" stroke="#2064B4" stroke-width="2" stroke-miterlimit="10"/>
<path d="M292.6 324.164L241.639 348.853C237.364 350.927 232.207 349.06 230.171 344.703L217.075 316.626C215.039 312.269 216.871 307.013 221.146 304.938L272.107 280.25C276.382 278.175 281.539 280.042 283.575 284.399L296.671 312.476C298.707 316.902 296.875 322.089 292.6 324.164Z" fill="#EBFF6D" stroke="#155E6B" stroke-width="2" stroke-miterlimit="10"/>
<path d="M276.677 297.691C279.114 296.51 280.151 293.54 278.992 291.056C277.834 288.572 274.919 287.516 272.482 288.696C270.045 289.877 269.008 292.847 270.167 295.331C271.325 297.815 274.24 298.871 276.677 297.691Z" fill="#EBFF6D" stroke="#155E6B" stroke-width="2" stroke-miterlimit="10"/>
<path d="M279.096 302.864L289.139 324.371" stroke="#155E6B" stroke-width="2" stroke-miterlimit="10"/>
<path d="M257.925 288.272L277.4 330.111" stroke="#155E6B" stroke-width="2" stroke-miterlimit="10"/>
<path d="M219.586 319.807L245.711 307.151" stroke="#155E6B" stroke-width="2" stroke-miterlimit="10"/>
<path d="M223.521 328.106L248.629 315.934" stroke="#155E6B" stroke-width="2" stroke-miterlimit="10"/>
<path d="M230.646 343.458L248.154 334.952" stroke="#155E6B" stroke-width="2" stroke-miterlimit="10"/>
<path d="M254.057 303.417C253.718 303.694 243.132 310.471 246.593 317.525C246.593 317.525 248.9 321.328 249.986 319.738C251.071 318.147 254.328 314.828 254.328 314.828L257.586 304.938C257.586 304.869 255.889 301.965 254.057 303.417Z" fill="#FFBC85"/>
<path d="M246.018 271.121C246.018 271.121 260.81 286.128 252.193 305.63" stroke="#E2E2E2" stroke-width="17" stroke-miterlimit="10"/>
<path d="M242.201 266.952C243.153 266.037 244.222 262.156 245 260.6C254 261.1 262.5 279.6 264 286.6C265.2 292.2 264.5 303.1 261 309.6L254.5 306.6C262 302.6 263 287.6 259.747 286.6C258.555 286.234 254.334 288.767 254 287.6C257 284.6 259 284.6 259 282.6C259 280.1 252 266.1 250.5 265.6C249.3 265.2 247.834 266.267 247.5 267.6C247 269.6 245.5 269.731 245.5 268.6C245.5 268.1 246 267.1 246.5 265.6C246.892 264.426 243.301 266.315 242.201 266.952C242.134 267.017 242.067 267.067 242 267.1C241.783 267.209 241.896 267.129 242.201 266.952Z" fill="#C4C4C4"/>
<path d="M42 138C42.8 136 41.6667 129.167 41 126C43.8 128 43.8333 140.5 43.5 146.5L41 148L40 146.5C39 145.5 35 147.5 35 146.5C35 145.5 39 145 41 145C43 145 41 140.5 42 138Z" fill="#C4C4C4"/>
<defs>
<filter id="filter0_d" x="4.70605" y="155.129" width="53.4983" height="107.291" filterUnits="userSpaceOnUse" color-interpolation-filters="sRGB">
<feFlood flood-opacity="0" result="BackgroundImageFix"/>
<feColorMatrix in="SourceAlpha" type="matrix" values="0 0 0 0 0 0 0 0 0 0 0 0 0 0 0 0 0 0 127 0"/>
<feOffset dy="4"/>
<feGaussianBlur stdDeviation="2"/>
<feColorMatrix type="matrix" values="0 0 0 0 0 0 0 0 0 0 0 0 0 0 0 0 0 0 0.25 0"/>
<feBlend mode="normal" in2="BackgroundImageFix" result="effect1_dropShadow"/>
<feBlend mode="normal" in="SourceGraphic" in2="effect1_dropShadow" result="shape"/>
</filter>
<filter id="filter1_d" x="194.988" y="308.549" width="61.682" height="95.1772" filterUnits="userSpaceOnUse" color-interpolation-filters="sRGB">
<feFlood flood-opacity="0" result="BackgroundImageFix"/>
<feColorMatrix in="SourceAlpha" type="matrix" values="0 0 0 0 0 0 0 0 0 0 0 0 0 0 0 0 0 0 127 0"/>
<feOffset dy="4"/>
<feGaussianBlur stdDeviation="2"/>
<feColorMatrix type="matrix" values="0 0 0 0 0 0 0 0 0 0 0 0 0 0 0 0 0 0 0.25 0"/>
<feBlend mode="normal" in2="BackgroundImageFix" result="effect1_dropShadow"/>
<feBlend mode="normal" in="SourceGraphic" in2="effect1_dropShadow" result="shape"/>
</filter>
<linearGradient id="paint0_linear" x1="176.439" y1="17.838" x2="176.439" y2="276.274" gradientUnits="userSpaceOnUse">
<stop stop-color="#20B47F"/>
<stop offset="1" stop-color="#20B47F" stop-opacity="0"/>
</linearGradient>
<linearGradient id="paint1_linear" x1="304" y1="403" x2="267" y2="403" gradientUnits="userSpaceOnUse">
<stop stop-color="#C4C4C4"/>
<stop offset="1" stop-color="#C4C4C4" stop-opacity="0"/>
</linearGradient>
<linearGradient id="paint2_linear" x1="269.5" y1="416" x2="217.402" y2="416" gradientUnits="userSpaceOnUse">
<stop stop-color="#C4C4C4"/>
<stop offset="1" stop-color="#C4C4C4" stop-opacity="0"/>
</linearGradient>
</defs>
</svg>
