<svg width="559" height="698" viewBox="0 0 559 698" fill="none" xmlns="http://www.w3.org/2000/svg">
<path d="M3.14062 171.974L345.478 60.7418L506.185 577.649L140.125 577.649L3.14062 171.974Z" fill="white"/>
<rect y="162.219" width="63.0285" height="19" rx="9.5" transform="rotate(-18 0 162.219)" fill="white"/>
<g filter="url(#filter0_d)">
<path d="M13.6882 136.804C10.2748 126.299 16.0649 115.003 26.57 111.589C149.918 71.5111 226.772 46.5398 350.129 6.45879C360.62 3.04985 371.932 8.76635 375.36 19.2518L521.082 464.986C521.98 467.733 522.29 470.573 521.738 473.409C517.456 495.398 490.292 593.41 351.481 547.568C289.75 527.182 252.531 546.539 230.091 577.355C216.671 595.784 163.795 598.787 156.75 577.104L13.6882 136.804Z" fill="#155E6B"/>
</g>
<g filter="url(#filter1_d)">
<path d="M115.738 219.026L111.657 220.352L111.12 218.697L115.2 217.371L115.738 219.026ZM117.709 214.316L107.466 217.644L109.32 223.351L119.563 220.023L117.709 214.316ZM103.754 222.92L99.7598 224.217L99.2221 222.563L103.217 221.265L103.754 222.92ZM105.725 218.21L95.5395 221.519L97.3936 227.226L107.579 223.916L105.725 218.21ZM104.725 235.032L104.224 233.492L109.046 231.925L109.547 233.466L104.725 235.032ZM102.945 229.554L107.767 227.988L108.258 229.5L103.436 231.067L102.945 229.554ZM116.875 226.7L111.739 228.369L111.248 226.857L116.383 225.188L116.875 226.7ZM118.163 230.666L113.028 232.335L112.527 230.794L117.663 229.125L118.163 230.666ZM125.452 232.809L114.353 236.415L113.871 234.931L122.488 232.131L119.011 221.432L98.7823 228.005L102.259 238.704L110.39 236.062L110.872 237.546L100.03 241.069L100.976 243.979L111.818 240.456L112.995 244.08L116.476 242.949L115.299 239.325L126.398 235.719L125.452 232.809ZM136.988 225.306L149.114 221.366L149.624 222.936L137.498 226.876L136.988 225.306ZM135.681 221.283L147.807 217.344L148.317 218.913L136.191 222.853L135.681 221.283ZM134.383 217.289L146.509 213.349L147.019 214.918L134.893 218.858L134.383 217.289ZM154.206 224.318L149.403 209.538L140.929 212.292C140.953 211.685 140.967 211.049 140.944 210.394L150.844 207.177L149.843 204.096L125.991 211.846L126.992 214.928L137.007 211.674C137.106 212.272 137.187 212.908 137.249 213.487L130.002 215.842L134.804 230.622L139.483 229.101C137.771 230.919 134.793 233.306 132.305 234.872C133.288 235.373 134.686 236.18 135.498 236.737C138.187 234.916 141.556 232.181 143.632 229.93L140.51 228.768L148.1 226.302L146.428 229.116C149.899 229.218 153.672 229.664 155.907 230.137L158.541 226.789C156.134 226.467 152.161 226.181 148.699 226.107L154.206 224.318ZM162.03 217.138C162.58 219.609 163.006 222.278 162.726 224.231C163.494 224.265 164.897 224.408 165.597 224.622C165.803 222.537 165.513 219.508 164.889 216.714L162.03 217.138ZM180.55 214.528C180.179 214.648 180.047 214.439 179.816 213.725L179 211.214L183.137 209.87L182.303 207.302L179.763 208.127L179.04 205.902L181.494 205.105L180.66 202.537L179.29 202.982C179.431 201.863 179.547 200.375 179.748 198.953L176.939 199.046C177.101 200.223 177.162 202.064 177.078 203.259L178.349 203.288L174.811 204.437L176.023 203.507C175.593 202.574 174.636 201.182 173.704 200.255L171.938 201.617C172.7 202.505 173.525 203.782 173.983 204.706L172.956 205.04L173.79 207.608L176.187 206.829L176.91 209.055L174.428 209.861L175.262 212.429L176.175 212.132L176.982 214.614C177.853 217.296 178.73 218.053 181.412 217.181L183.323 216.56C183.98 216.347 184.57 216.124 184.942 215.813C184.643 215.185 184.14 213.929 183.861 213.263C183.498 213.507 182.861 213.777 182.461 213.907L180.55 214.528ZM181.999 193.553L166.678 198.532L170.478 210.23C169.586 209.132 168.494 208.004 167.467 207.076L165.394 208.853C165.894 209.322 166.411 209.848 166.901 210.383L164.465 211.332C165.521 208.465 166.543 205.01 167.334 202.104L164.149 201.719C163.947 203.33 163.562 205.253 163.083 207.175C162.715 206.916 162.271 206.619 161.808 206.359C162.345 204.419 162.782 201.784 163.141 199.491L159.869 199.419C159.885 201.022 159.707 203.194 159.418 205.023C159.125 204.897 158.832 204.771 158.567 204.637L157.654 207.457C159.175 208.256 160.988 209.37 162.204 210.394C161.971 211.133 161.729 211.842 161.468 212.495L159.45 213.277L160.748 216.104L164.611 214.502L168.375 226.085L171.286 225.14L167.448 213.328L168.837 212.75C169.212 213.322 169.569 213.837 169.812 214.294L171.341 212.883L172.629 216.849C172.019 215.943 171.325 214.97 170.638 214.215L168.502 215.698C169.658 217.12 170.886 219.056 171.483 220.407L173.343 219.046L174.956 224.01L177.981 223.028L170.657 200.488L179.873 197.493L186.084 216.609C186.214 217.009 186.117 217.198 185.727 217.356C185.328 217.486 184.044 217.903 182.884 218.217C183.534 218.858 184.35 220.012 184.695 220.783C186.702 220.162 188.015 219.641 188.828 218.841C189.612 218.05 189.675 217.177 189.165 215.608L181.999 193.553ZM200.406 192.052L196.583 193.294L194.997 188.415L191.859 189.435L193.444 194.314L189.393 195.63L190.422 198.797L201.435 195.219L200.406 192.052ZM198.447 207.672C197.556 205.027 195.82 201.333 194.105 198.484L191.571 199.906C193.19 202.755 194.936 206.573 195.713 209.159L198.447 207.672ZM202.679 206.328C202.377 203.556 201.789 199.804 201.16 196.507L197.674 197.04C198.559 200.348 199.454 204.947 199.774 207.871L200.049 207.845C197.705 209.174 195.514 210.391 193.818 211.289L195.578 214.471C198.513 212.729 202.43 210.415 205.976 208.222L204.642 205.186L202.679 206.328ZM216.375 205.474L209.613 207.671L207.806 202.107L214.568 199.91L216.375 205.474ZM216.366 190.399L215.319 187.175L208.899 189.261L207.193 184.011L203.713 185.142L208.06 198.523L203.467 200.016L207.768 213.254L211.078 212.179L210.642 210.838L217.404 208.641L217.803 209.868L221.284 208.737L217.019 195.612L211.541 197.392L209.947 192.485L216.366 190.399ZM228.765 177.979L220.149 180.779L220.983 183.347L229.6 180.547L228.765 177.979ZM231.092 181.45L219.936 185.075L220.807 187.757L231.963 184.132L231.092 181.45ZM232.623 189.659L223.836 192.514L224.661 195.054L233.448 192.198L232.623 189.659ZM244.403 188.828C244.191 190.506 243.724 192.077 242.973 193.551C241.461 192.781 240.102 191.803 238.954 190.599L244.403 188.828ZM232.873 200.524L229.849 201.506L228.783 198.225L231.807 197.242L232.873 200.524ZM245.505 184.937L244.981 185.265L234.937 188.529C237.246 185.539 236.76 182.101 235.889 179.419L235.731 178.934L238.927 177.895L240.048 181.348C240.966 184.172 241.91 184.844 244.192 184.102L245.847 183.564C247.759 182.943 248.176 181.703 247.312 178.073C246.41 178.113 244.94 178.055 244.155 177.774C244.933 180.265 244.939 180.673 244.569 180.794L243.855 181.025C243.541 181.127 243.457 181.06 243.197 180.262L241.12 173.87L231.562 176.976L232.665 180.371C233.287 182.283 233.705 184.639 231.798 187.12L231.353 185.75L222.566 188.605L223.409 191.202L232.197 188.346L231.845 187.262C232.678 187.496 234.21 188.134 234.88 188.547L233.91 188.862L234.902 191.915L238.868 190.627L236.264 192.514C237.751 194.081 239.373 195.383 241.149 196.384C239.827 198.043 238.146 199.473 236.183 200.71L233.874 193.606L225.029 196.479L228.191 206.209L231.072 205.272L230.711 204.16L236.674 202.222L236.201 200.767C237.079 201.333 238.314 202.415 238.925 203.131C241.109 201.601 242.972 199.86 244.448 197.898C246.681 198.655 249.107 199.034 251.736 198.969C251.933 197.926 252.468 196.27 252.978 195.316C250.605 195.488 248.339 195.309 246.303 194.772C247.576 191.992 248.208 188.791 247.999 185.042L245.505 184.937ZM260.664 167.615L251.619 170.554L252.454 173.122L261.498 170.183L260.664 167.615ZM262.99 171.086L251.321 174.878L252.192 177.56L263.862 173.768L262.99 171.086ZM263.506 186.943L264.572 190.224L261.319 191.281L260.253 188L263.506 186.943ZM265.601 183.297L256.443 186.273L259.604 196.002L262.543 195.047L262.181 193.934L268.401 191.913L265.601 183.297ZM256.074 184.847L265.233 181.871L264.408 179.332L255.249 182.307L256.074 184.847ZM254.823 180.995L263.981 178.019L263.138 175.423L253.979 178.399L254.823 180.995ZM279.793 170.957L273.83 172.895L270.771 163.479L267.347 164.592L270.406 174.007L264.443 175.945L265.537 179.312L271.5 177.374L275.968 191.126L279.392 190.014L274.924 176.262L280.887 174.324L279.793 170.957Z" fill="white"/>
</g>
<g filter="url(#filter2_d)">
<path d="M116.452 265.314L121.365 280.436C121.489 280.816 121.38 280.999 120.981 281.129C120.625 281.265 119.262 281.729 117.855 282.123C118.213 282.449 118.696 283.028 118.92 283.396C120.696 282.841 121.863 282.419 122.473 281.969C123.059 281.505 123.208 280.994 122.868 279.948L117.955 264.826L116.452 265.314ZM122.555 268.63C125.056 270.825 127.727 273.869 128.913 275.965L130.193 274.855C128.982 272.746 126.259 269.803 123.72 267.684L122.555 268.63ZM112.921 271.34C113.293 274.037 113.31 277.649 112.266 280.196C112.696 280.225 113.416 280.369 113.838 280.505C114.864 277.838 114.861 274.075 114.574 271.119L112.921 271.34ZM147.236 257.667L146.778 256.26L129.849 261.76L130.307 263.168L137.668 260.776C137.787 261.726 137.874 262.833 137.898 263.75L132.173 265.611L136.141 277.822L137.567 277.359L134.032 266.479L137.037 265.502L140.369 275.755L141.757 275.303L138.426 265.051L141.565 264.031L144.896 274.284L146.284 273.832L142.953 263.58L146.187 262.529L149.135 271.602C149.227 271.888 149.157 271.995 148.878 272.107C148.599 272.218 147.654 272.546 146.557 272.861C146.884 273.154 147.279 273.657 147.478 274.012C148.848 273.567 149.793 273.239 150.289 272.826C150.767 272.418 150.814 271.982 150.548 271.164L147.162 260.741L139.382 263.268C139.402 262.358 139.403 261.264 139.361 260.226L147.236 257.667ZM168.284 250.996L167.833 249.608L157.524 252.958L157.969 254.327L151.14 256.546L151.597 257.953L154.355 257.057L156.797 264.571C155.742 265.208 154.789 265.77 154.014 266.232L154.801 267.553C156.688 266.372 159.3 264.767 161.759 263.211L161.175 261.928C160.158 262.553 159.122 263.184 158.118 263.784L155.782 256.594L158.502 255.71L158.051 254.321L160.619 253.487C160.922 256.038 161.196 259.083 161.251 261.063L162.783 260.796C162.768 260.296 162.728 259.72 162.67 259.087L168.205 257.289C169.388 262.288 169.624 264.504 169.156 265.265C169.015 265.543 168.78 265.661 168.362 265.797C167.886 265.951 166.625 266.34 165.307 266.621C165.703 266.934 166.097 267.5 166.271 267.906C167.513 267.587 168.699 267.222 169.295 266.987C169.999 266.695 170.413 266.413 170.689 265.777C171.222 264.699 170.944 262.224 169.472 256.141C169.423 255.926 169.288 255.444 169.288 255.444L162.554 257.632C162.426 256.138 162.268 254.486 162.083 253.011L168.284 250.996ZM179.105 264.493C180.873 263.141 181.66 261.161 180.992 259.106C180.56 257.775 179.711 257.104 178.665 257.444C177.885 257.698 177.374 258.389 177.664 259.283C177.955 260.177 178.75 260.424 179.53 260.17C179.644 260.133 179.739 260.102 179.847 260.046C180.172 261.371 179.625 262.537 178.359 263.621L179.105 264.493ZM200.737 246.803L198.81 248.123L197.58 244.337L199.521 243.707L199.094 242.395L197.154 243.025L195.912 239.202L194.523 239.653L195.765 243.476L193.483 244.218L193.909 245.53L196.192 244.789L197.545 248.954C196.668 249.555 195.854 250.093 195.212 250.511L196.032 251.738L198.009 250.381L199.634 255.383C199.715 255.631 199.644 255.738 199.416 255.812C199.232 255.893 198.547 256.115 197.818 256.331C198.126 256.631 198.482 257.146 198.657 257.488C199.766 257.149 200.452 256.863 200.815 256.493C201.197 256.116 201.27 255.693 201.023 254.932L199.255 249.492L201.353 248.053L200.737 246.803ZM203.811 239.243L205.764 245.253L203.082 246.125L201.129 240.114L203.811 239.243ZM209.796 243.943L207.076 244.827L205.123 238.816L207.843 237.933L209.796 243.943ZM206.966 252.77C205.653 253.196 205.325 253.03 204.979 251.964L203.521 247.475L210.235 245.294L210.637 246.53L212.083 246.06L208.838 236.074L199.251 239.189L203.547 252.409C204.245 254.558 205.103 254.868 207.328 254.145L212.255 252.545C214.366 251.859 214.539 250.772 213.921 248.029C213.459 248.095 212.789 248.039 212.366 247.903C212.949 250.216 212.919 250.836 211.778 251.206L206.966 252.77ZM224.652 233.291L226.661 239.473C226.729 239.682 226.69 239.758 226.43 239.864C226.202 239.938 225.403 240.197 224.522 240.463C224.823 240.743 225.205 241.208 225.38 241.551C226.559 241.167 227.333 240.895 227.785 240.538C228.23 240.162 228.24 239.738 228.011 239.034L226.002 232.852L229.293 231.783C229.274 232.567 229.193 233.351 229.099 233.97L228.716 233.695L227.716 234.567C228.999 235.538 230.468 236.953 231.226 237.927L232.277 236.954C231.613 236.14 230.476 235.037 229.332 234.168L230.364 234.043C230.529 233.064 230.655 231.509 230.766 230.169L229.697 230.243L229.481 230.355L222.291 232.691C222.378 232.117 222.433 231.51 222.456 230.934L221.058 231.031C220.998 233.049 220.451 235.119 219.528 236.68C219.914 236.766 220.569 237.036 220.878 237.209C221.334 236.346 221.721 235.274 222.008 234.15L224.652 233.291ZM227.875 242.759C226.924 242.226 225.182 241.72 223.78 241.545L223.101 242.691C224.535 242.898 226.251 243.455 227.17 244.018L227.875 242.759ZM222.527 235.811C222.44 237.291 222.016 238.9 221.318 240.116C221.722 240.195 222.385 240.358 222.719 240.48C223.355 239.201 223.843 237.403 223.944 235.708L222.527 235.811ZM219.554 250.026C220.716 248.555 220.927 246.615 220.833 244.773L219.461 244.757C219.574 246.465 219.238 248.278 218.134 249.604L219.554 250.026ZM217.38 232.205C216.976 234.65 215.894 237.273 214.538 239.185C214.891 239.365 215.552 239.781 215.81 239.992C216.283 239.249 216.745 238.405 217.144 237.497L219.122 243.584L220.491 243.139L217.964 235.359C218.3 234.325 218.587 233.264 218.753 232.222L217.38 232.205ZM225.547 246.985C224.539 247.312 224.356 247.267 224.195 246.772L223.077 243.329L221.669 243.787L222.788 247.23C223.264 248.694 223.907 248.927 225.866 248.29L229.537 247.097C231.154 246.572 231.387 245.865 230.836 243.521C230.405 243.556 229.767 243.532 229.388 243.403C229.912 245.272 229.865 245.582 229.028 245.854L225.547 246.985ZM229.698 241.83C231.494 242.571 233.502 243.895 234.436 244.959L235.457 243.828C234.434 242.751 232.438 241.528 230.616 240.774L229.698 241.83ZM242.748 233.131L238.754 234.429L237.462 230.454L241.457 229.156L242.748 233.131ZM240.645 240.25L239.162 235.685L243.156 234.387L244.639 238.952L240.645 240.25ZM237.645 225.579C237.802 226.516 237.874 227.902 237.885 228.908L235.755 229.6L240.254 243.447L241.547 243.027L241.059 241.524L246.347 239.806L242.336 227.461L239.178 228.487C239.236 227.564 239.238 226.407 239.259 225.37L237.645 225.579ZM251.619 224.382L245.931 226.23C245.964 225.231 245.934 224.231 245.859 223.225L244.404 223.341C244.642 226.144 244.468 229.103 243.737 231.191C244.103 231.282 244.835 231.465 245.157 231.613C245.532 230.502 245.745 229.151 245.863 227.703L250.695 226.133C252.907 233.784 253.561 236.768 253.15 237.638C253.04 237.947 252.843 238.053 252.463 238.176C252.025 238.319 250.884 238.689 249.61 238.977C250.007 239.29 250.363 239.805 250.537 240.211C251.621 239.922 252.717 239.608 253.358 239.315C253.987 239.048 254.368 238.735 254.614 238.066C255.072 236.887 254.367 233.877 251.854 225.105L251.619 224.382ZM251.394 233.918C250.421 232.994 248.515 231.594 247.011 230.59L246.118 231.595C247.609 232.624 249.496 234.093 250.437 235.049L251.394 233.918ZM272.335 219.018L265.754 221.156C265.243 220.166 264.764 219.081 264.317 217.901L259.695 219.403L260.103 220.658L263.527 219.545C263.806 220.275 264.111 220.954 264.422 221.589L257.498 223.838L261.769 236.982L263.177 236.525L259.357 224.77L264.303 223.163C264.626 226.359 263.734 228.92 261.587 230.985C261.978 231.152 262.588 231.543 262.903 231.798C265.012 229.683 265.886 227.065 265.739 223.895C267.484 226.482 269.641 228.137 272.534 228.563C272.639 228.109 272.916 227.409 273.122 227.006C270.284 226.75 268.178 225.121 266.509 222.446L271.36 220.87L274.58 230.78C274.678 231.084 274.633 231.204 274.297 231.334C273.923 231.477 272.743 231.86 271.495 232.224C271.828 232.536 272.247 233.115 272.434 233.496C274.051 232.971 275.135 232.618 275.707 232.18C276.255 231.729 276.297 231.21 276.006 230.316L272.335 219.018ZM278.894 215.583L291.848 211.374L292.54 213.504L293.986 213.035L292.873 209.611L285.645 211.959L285.077 210.209L283.65 210.673L284.219 212.423L277.105 214.734L278.217 218.158L279.587 217.713L278.894 215.583ZM287.592 214.649C289.688 215.146 292.344 216.071 293.723 216.821L294.441 215.536C293.024 214.798 290.336 213.968 288.29 213.497L287.592 214.649ZM282.514 215.395C281.9 217.13 280.544 219.042 279.111 220.454C279.52 220.616 280.175 221.013 280.477 221.23C281.88 219.66 283.289 217.457 284.006 215.394L282.514 215.395ZM284.039 222.743C285.305 221.007 286.305 219.231 286.815 217.762C288.244 218.664 290.231 219.47 292.275 220.067L284.039 222.743ZM285.593 227.138L284.567 223.981L292.233 221.49L293.259 224.648L285.593 227.138ZM285.609 216.703C284.805 219.34 282.507 222.884 279.782 225.367C280.172 225.598 280.7 225.994 280.964 226.287C281.696 225.565 282.411 224.787 283.075 223.982L284.867 229.498L286.217 229.059L286.007 228.413L293.673 225.922L293.858 226.493L295.266 226.035L293.43 220.386C294.529 220.66 295.609 220.877 296.6 221.017C296.699 220.544 296.874 219.919 297.08 219.452C293.787 219.219 289.824 218.025 287.017 216.245L285.609 216.703ZM299.252 214.162L299.753 215.703L317.024 210.091L316.523 208.551L299.252 214.162ZM323.947 202.08C322.933 201.484 321.015 200.824 319.558 200.415L318.877 201.75C320.372 202.211 322.277 202.959 323.246 203.548L323.947 202.08ZM324.894 207.261C323.821 209.46 322.678 211.766 321.909 213.152L323.199 214.015C324.096 212.378 325.137 210.21 326.051 208.231L324.894 207.261ZM330.636 200.727L334.554 199.453C334.582 200.832 334.431 202.438 334.239 203.467C334.625 203.489 335.256 203.62 335.604 203.655C335.9 202.171 336.145 199.946 336.065 197.953L334.852 197.716L334.592 197.885L326.926 200.376C326.947 199.275 326.899 198.156 326.819 197.004L325.249 197.22C325.585 200.454 325.376 203.76 324.384 206.144C324.82 206.191 325.635 206.368 325.994 206.504C326.434 205.204 326.724 203.638 326.851 201.956L329.171 201.202L329.95 203.599C330.525 205.368 331.149 210.654 326.127 214.809C326.474 214.97 327.103 215.417 327.373 215.666C331.295 212.268 331.79 207.901 331.532 206.008C332.373 207.691 335.282 211.077 339.832 211.618C339.949 211.201 340.195 210.47 340.337 210.066C334.478 209.509 331.933 204.784 331.415 203.123L330.636 200.727ZM343.629 195.538L343.388 194.796L347.496 193.461L347.737 194.203L343.629 195.538ZM353.24 191.594L353.482 192.336L349.107 193.758L348.866 193.016L353.24 191.594ZM342.178 198.385L356.12 193.855L356.596 195.32L357.87 194.906L357.141 192.661L349.552 195.127L349.341 194.481L355.067 192.62L354.344 190.395L348.618 192.255L348.421 191.646L355.63 189.304L355.345 188.429L348.136 190.771L347.827 189.82L346.458 190.265L346.767 191.216L339.634 193.534L339.918 194.409L347.051 192.091L347.249 192.7L341.866 194.449L342.589 196.675L347.972 194.926L348.182 195.572L340.669 198.014L341.398 200.258L342.653 199.85L342.178 198.385ZM348.901 202.573L353.123 201.201L353.352 201.905L349.129 203.277L348.901 202.573ZM348.437 201.146L352.66 199.774L352.864 200.402L348.641 201.774L348.437 201.146ZM344.734 199.006L347.778 198.017L348.043 198.835L345 199.824L344.734 199.006ZM351.24 196.892L354.359 195.878L354.625 196.696L351.505 197.71L351.24 196.892ZM357.897 201.395C357.215 202.079 356.056 203.108 355.057 203.853C354.205 203.688 353.423 203.417 352.755 203.045L359.964 200.703L359.686 199.847L354.721 201.46L354.493 200.756L357.936 199.637L357.676 198.838L354.233 199.957L354.029 199.329L357.929 198.062L357.669 197.263L353.77 198.53L353.541 197.827L356.033 197.017L355.31 194.792L349.889 196.553L350.612 198.778L352.171 198.272L352.4 198.975L348.177 200.347L347.949 199.644L349.47 199.149L348.747 196.924L343.383 198.667L344.107 200.892L346.579 200.089L346.808 200.792L343.042 202.016L343.301 202.815L347.068 201.591L347.271 202.219L343.886 203.319L344.145 204.118L347.531 203.018L347.76 203.722L342.852 205.316L343.13 206.172L349.274 204.176C347.639 205.422 345.296 206.688 343.259 207.602C343.555 207.738 343.97 208.044 344.209 208.261C345.434 207.695 346.755 206.971 347.975 206.196L348.389 207.471C347.691 207.782 347.031 208.08 346.473 208.304L346.971 209.256C348.901 208.398 351.547 207.159 354.105 205.971L353.783 205.045C352.394 205.686 350.984 206.333 349.677 206.905L349.183 205.383C350.073 204.757 350.869 204.099 351.462 203.465C353.783 205.171 357.126 205.494 360.85 204.852C360.903 204.498 361.04 203.949 361.226 203.615C359.471 203.975 357.794 204.12 356.29 204.02C357.224 203.338 358.236 202.505 359.02 201.745L357.897 201.395ZM368.167 192.359C367.494 192.809 366.807 193.285 366.152 193.729L364.928 189.963L367.116 189.252L366.683 187.921L364.496 188.631L363.26 184.827L361.909 185.266L363.145 189.07L360.768 189.843L361.2 191.174L363.578 190.402L364.925 194.548C364.042 195.13 363.209 195.674 362.542 196.08L363.373 197.345L365.389 195.975L366.989 200.901C367.082 201.187 367.012 201.294 366.752 201.399C366.523 201.473 365.705 201.739 364.824 202.004C365.119 202.329 365.514 202.832 365.688 203.175C366.963 202.761 367.717 202.494 368.119 202.112C368.539 201.723 368.606 201.28 368.34 200.463L366.603 195.118C367.322 194.611 368.04 194.104 368.759 193.597L368.167 192.359ZM379.362 196.524L372.876 198.631L371.671 194.922L378.157 192.815L379.362 196.524ZM379.096 187.484L378.657 186.133L373.673 187.752L372.536 184.252C374.009 183.479 375.331 182.692 376.374 181.954L375.052 181.122C373.226 182.493 369.728 184.282 366.719 185.638C366.99 185.886 367.328 186.344 367.49 186.649C368.708 186.127 369.984 185.523 371.215 184.913L372.285 188.204L367.758 189.674L368.196 191.025L372.724 189.554L373.78 192.807L369.881 194.074L372.174 201.13L373.543 200.685L373.296 199.925L379.782 197.817L380.005 198.502L381.393 198.051L379.125 191.07L375.169 192.355L374.112 189.103L379.096 187.484Z" fill="white"/>
</g>
<g filter="url(#filter3_d)">
<rect x="328.125" y="277.329" width="92.5096" height="224.226" rx="10" transform="rotate(-18 328.125 277.329)" fill="url(#paint0_linear)"/>
</g>
<g filter="url(#filter4_d)">
<path d="M356.267 41.9693C356.392 41.7232 356.294 41.4221 356.048 41.2968L352.039 39.2538C351.793 39.1285 351.492 39.2263 351.366 39.4723C351.241 39.7184 351.339 40.0195 351.585 40.1448L355.149 41.9608L353.333 45.5248C353.208 45.7709 353.305 46.0719 353.551 46.1973C353.797 46.3227 354.099 46.2248 354.224 45.9788L356.267 41.9693ZM342.28 46.668L355.976 42.2178L355.667 41.2668L341.97 45.717L342.28 46.668Z" fill="white"/>
</g>
<g filter="url(#filter5_d)">
<line y1="-0.5" x2="32.0254" y2="-0.5" transform="matrix(0.951057 -0.309017 0.432293 0.901733 51.125 137.639)" stroke="white"/>
</g>
<g filter="url(#filter6_d)">
<line y1="-0.5" x2="32.0254" y2="-0.5" transform="matrix(0.951057 -0.309017 0.432293 0.901733 54.125 147.639)" stroke="white"/>
</g>
<g filter="url(#filter7_d)">
<line y1="-0.5" x2="32.0254" y2="-0.5" transform="matrix(0.951057 -0.309017 0.432293 0.901733 57.125 157.639)" stroke="white"/>
</g>
<g filter="url(#filter8_d)">
<rect x="126.125" y="342.479" width="91.9071" height="224.226" rx="10" transform="rotate(-18 126.125 342.479)" fill="url(#paint1_linear)"/>
</g>
<g filter="url(#filter9_d)">
<rect x="227.125" y="310.329" width="92.5096" height="224.226" rx="10" transform="rotate(-18 227.125 310.329)" fill="url(#paint2_linear)"/>
</g>
<defs>
<filter id="filter0_d" x="8.70801" y="5.47321" width="517.305" height="600.816" filterUnits="userSpaceOnUse" color-interpolation-filters="sRGB">
<feFlood flood-opacity="0" result="BackgroundImageFix"/>
<feColorMatrix in="SourceAlpha" type="matrix" values="0 0 0 0 0 0 0 0 0 0 0 0 0 0 0 0 0 0 127 0"/>
<feOffset dy="10"/>
<feGaussianBlur stdDeviation="2"/>
<feColorMatrix type="matrix" values="0 0 0 0 0 0 0 0 0 0 0 0 0 0 0 0 0 0 0.25 0"/>
<feBlend mode="normal" in2="BackgroundImageFix" result="effect1_dropShadow"/>
<feBlend mode="normal" in="SourceGraphic" in2="effect1_dropShadow" result="shape"/>
</filter>
<filter id="filter1_d" x="91.5391" y="163.479" width="193.347" height="94.6001" filterUnits="userSpaceOnUse" color-interpolation-filters="sRGB">
<feFlood flood-opacity="0" result="BackgroundImageFix"/>
<feColorMatrix in="SourceAlpha" type="matrix" values="0 0 0 0 0 0 0 0 0 0 0 0 0 0 0 0 0 0 127 0"/>
<feOffset dy="10"/>
<feGaussianBlur stdDeviation="2"/>
<feColorMatrix type="matrix" values="0 0 0 0 0 0 0 0 0 0 0 0 0 0 0 0 0 0 0.25 0"/>
<feBlend mode="normal" in2="BackgroundImageFix" result="effect1_dropShadow"/>
<feBlend mode="normal" in="SourceGraphic" in2="effect1_dropShadow" result="shape"/>
</filter>
<filter id="filter2_d" x="108.266" y="181.122" width="277.128" height="116.275" filterUnits="userSpaceOnUse" color-interpolation-filters="sRGB">
<feFlood flood-opacity="0" result="BackgroundImageFix"/>
<feColorMatrix in="SourceAlpha" type="matrix" values="0 0 0 0 0 0 0 0 0 0 0 0 0 0 0 0 0 0 127 0"/>
<feOffset dy="10"/>
<feGaussianBlur stdDeviation="2"/>
<feColorMatrix type="matrix" values="0 0 0 0 0 0 0 0 0 0 0 0 0 0 0 0 0 0 0.25 0"/>
<feBlend mode="normal" in2="BackgroundImageFix" result="effect1_dropShadow"/>
<feBlend mode="normal" in="SourceGraphic" in2="effect1_dropShadow" result="shape"/>
</filter>
<filter id="filter3_d" x="326.723" y="251.34" width="160.075" height="244.643" filterUnits="userSpaceOnUse" color-interpolation-filters="sRGB">
<feFlood flood-opacity="0" result="BackgroundImageFix"/>
<feColorMatrix in="SourceAlpha" type="matrix" values="0 0 0 0 0 0 0 0 0 0 0 0 0 0 0 0 0 0 127 0"/>
<feOffset dy="4"/>
<feGaussianBlur stdDeviation="2"/>
<feColorMatrix type="matrix" values="0 0 0 0 0 0 0 0 0 0 0 0 0 0 0 0 0 0 0.25 0"/>
<feBlend mode="normal" in2="BackgroundImageFix" result="effect1_dropShadow"/>
<feBlend mode="normal" in="SourceGraphic" in2="effect1_dropShadow" result="shape"/>
</filter>
<filter id="filter4_d" x="337.971" y="39.1992" width="22.351" height="15.4688" filterUnits="userSpaceOnUse" color-interpolation-filters="sRGB">
<feFlood flood-opacity="0" result="BackgroundImageFix"/>
<feColorMatrix in="SourceAlpha" type="matrix" values="0 0 0 0 0 0 0 0 0 0 0 0 0 0 0 0 0 0 127 0"/>
<feOffset dy="4"/>
<feGaussianBlur stdDeviation="2"/>
<feColorMatrix type="matrix" values="0 0 0 0 0 0 0 0 0 0 0 0 0 0 0 0 0 0 0.25 0"/>
<feBlend mode="normal" in2="BackgroundImageFix" result="effect1_dropShadow"/>
<feBlend mode="normal" in="SourceGraphic" in2="effect1_dropShadow" result="shape"/>
</filter>
<filter id="filter5_d" x="46.6924" y="126.84" width="38.8903" height="18.7981" filterUnits="userSpaceOnUse" color-interpolation-filters="sRGB">
<feFlood flood-opacity="0" result="BackgroundImageFix"/>
<feColorMatrix in="SourceAlpha" type="matrix" values="0 0 0 0 0 0 0 0 0 0 0 0 0 0 0 0 0 0 127 0"/>
<feOffset dy="4"/>
<feGaussianBlur stdDeviation="2"/>
<feColorMatrix type="matrix" values="0 0 0 0 0 0 0 0 0 0 0 0 0 0 0 0 0 0 0.25 0"/>
<feBlend mode="normal" in2="BackgroundImageFix" result="effect1_dropShadow"/>
<feBlend mode="normal" in="SourceGraphic" in2="effect1_dropShadow" result="shape"/>
</filter>
<filter id="filter6_d" x="49.6924" y="136.84" width="38.8903" height="18.7981" filterUnits="userSpaceOnUse" color-interpolation-filters="sRGB">
<feFlood flood-opacity="0" result="BackgroundImageFix"/>
<feColorMatrix in="SourceAlpha" type="matrix" values="0 0 0 0 0 0 0 0 0 0 0 0 0 0 0 0 0 0 127 0"/>
<feOffset dy="4"/>
<feGaussianBlur stdDeviation="2"/>
<feColorMatrix type="matrix" values="0 0 0 0 0 0 0 0 0 0 0 0 0 0 0 0 0 0 0.25 0"/>
<feBlend mode="normal" in2="BackgroundImageFix" result="effect1_dropShadow"/>
<feBlend mode="normal" in="SourceGraphic" in2="effect1_dropShadow" result="shape"/>
</filter>
<filter id="filter7_d" x="52.6924" y="146.84" width="38.8903" height="18.7981" filterUnits="userSpaceOnUse" color-interpolation-filters="sRGB">
<feFlood flood-opacity="0" result="BackgroundImageFix"/>
<feColorMatrix in="SourceAlpha" type="matrix" values="0 0 0 0 0 0 0 0 0 0 0 0 0 0 0 0 0 0 127 0"/>
<feOffset dy="4"/>
<feGaussianBlur stdDeviation="2"/>
<feColorMatrix type="matrix" values="0 0 0 0 0 0 0 0 0 0 0 0 0 0 0 0 0 0 0.25 0"/>
<feBlend mode="normal" in2="BackgroundImageFix" result="effect1_dropShadow"/>
<feBlend mode="normal" in="SourceGraphic" in2="effect1_dropShadow" result="shape"/>
</filter>
<filter id="filter8_d" x="124.723" y="316.676" width="159.502" height="244.457" filterUnits="userSpaceOnUse" color-interpolation-filters="sRGB">
<feFlood flood-opacity="0" result="BackgroundImageFix"/>
<feColorMatrix in="SourceAlpha" type="matrix" values="0 0 0 0 0 0 0 0 0 0 0 0 0 0 0 0 0 0 127 0"/>
<feOffset dy="4"/>
<feGaussianBlur stdDeviation="2"/>
<feColorMatrix type="matrix" values="0 0 0 0 0 0 0 0 0 0 0 0 0 0 0 0 0 0 0.25 0"/>
<feBlend mode="normal" in2="BackgroundImageFix" result="effect1_dropShadow"/>
<feBlend mode="normal" in="SourceGraphic" in2="effect1_dropShadow" result="shape"/>
</filter>
<filter id="filter9_d" x="225.723" y="284.34" width="160.075" height="244.643" filterUnits="userSpaceOnUse" color-interpolation-filters="sRGB">
<feFlood flood-opacity="0" result="BackgroundImageFix"/>
<feColorMatrix in="SourceAlpha" type="matrix" values="0 0 0 0 0 0 0 0 0 0 0 0 0 0 0 0 0 0 127 0"/>
<feOffset dy="4"/>
<feGaussianBlur stdDeviation="2"/>
<feColorMatrix type="matrix" values="0 0 0 0 0 0 0 0 0 0 0 0 0 0 0 0 0 0 0.25 0"/>
<feBlend mode="normal" in2="BackgroundImageFix" result="effect1_dropShadow"/>
<feBlend mode="normal" in="SourceGraphic" in2="effect1_dropShadow" result="shape"/>
</filter>
<linearGradient id="paint0_linear" x1="374.38" y1="277.329" x2="374.38" y2="501.555" gradientUnits="userSpaceOnUse">
<stop stop-color="#20B47F"/>
<stop offset="1" stop-color="#20B47F" stop-opacity="0"/>
</linearGradient>
<linearGradient id="paint1_linear" x1="172.079" y1="342.479" x2="172.079" y2="566.705" gradientUnits="userSpaceOnUse">
<stop stop-color="#20B47F"/>
<stop offset="1" stop-color="#20B47F" stop-opacity="0"/>
</linearGradient>
<linearGradient id="paint2_linear" x1="273.38" y1="310.329" x2="273.38" y2="534.555" gradientUnits="userSpaceOnUse">
<stop stop-color="#20B47F"/>
<stop offset="1" stop-color="#20B47F" stop-opacity="0"/>
</linearGradient>
</defs>
</svg>
