<svg width="518" height="669" viewBox="0 0 518 669" fill="none" xmlns="http://www.w3.org/2000/svg">
<g filter="url(#filter0_d)">
<path d="M292.058 160.4C292.249 160.201 292.243 159.884 292.044 159.693L288.801 156.573C288.602 156.382 288.285 156.388 288.094 156.587C287.902 156.786 287.909 157.102 288.108 157.294L290.99 160.067L288.217 162.949C288.026 163.148 288.032 163.465 288.231 163.656C288.43 163.848 288.747 163.842 288.938 163.643L292.058 160.4ZM277.309 160.832L291.707 160.553L291.688 159.553L277.289 159.832L277.309 160.832Z" fill="#191A25"/>
</g>
<g filter="url(#filter1_d)">
<path d="M16.9889 127.236C13.5756 116.731 19.3611 105.436 29.8661 102.023C143.368 65.1439 214.214 42.1248 328.71 4.92279C337.048 2.21354 346.035 6.75775 348.759 15.091C349.28 16.6856 349.546 18.3527 349.546 20.0303L349.546 316.498L349.546 487.709C349.546 499.205 338.469 507.584 327.553 503.979C276.146 487.001 243.199 499.955 222.083 523.577C206.889 540.574 152.173 543.291 145.128 521.609L16.9889 127.236Z" fill="#155E6B"/>
</g>
<g filter="url(#filter2_d)">
<path d="M102.613 200.791L98.5325 202.117L97.9948 200.462L102.075 199.136L102.613 200.791ZM104.584 196.081L94.3408 199.41L96.1949 205.116L106.438 201.788L104.584 196.081ZM90.6292 204.685L86.6348 205.982L86.0971 204.328L90.0915 203.03L90.6292 204.685ZM92.6003 199.975L82.4145 203.285L84.2686 208.991L94.4544 205.681L92.6003 199.975ZM91.5998 216.798L91.0992 215.257L95.9211 213.69L96.4217 215.231L91.5998 216.798ZM89.8199 211.319L94.6417 209.753L95.1331 211.265L90.3112 212.832L89.8199 211.319ZM103.75 208.465L98.6139 210.134L98.1226 208.622L103.258 206.953L103.75 208.465ZM105.038 212.431L99.9025 214.1L99.4019 212.559L104.538 210.89L105.038 212.431ZM112.327 214.574L101.228 218.18L100.746 216.696L109.363 213.897L105.886 203.197L85.6573 209.77L89.1338 220.469L97.2653 217.827L97.7474 219.311L86.9053 222.834L87.8509 225.744L98.6929 222.221L99.8703 225.845L103.351 224.714L102.174 221.09L113.273 217.484L112.327 214.574ZM123.863 207.072L135.989 203.132L136.499 204.701L124.373 208.641L123.863 207.072ZM122.556 203.049L134.682 199.109L135.192 200.678L123.066 204.618L122.556 203.049ZM121.258 199.054L133.384 195.114L133.894 196.683L121.768 200.623L121.258 199.054ZM141.081 206.083L136.278 191.303L127.804 194.057C127.828 193.45 127.842 192.814 127.819 192.159L137.719 188.942L136.718 185.861L112.866 193.611L113.867 196.693L123.882 193.439C123.981 194.037 124.062 194.673 124.124 195.253L116.877 197.607L121.679 212.387L126.358 210.866C124.646 212.684 121.668 215.071 119.18 216.637C120.163 217.138 121.561 217.945 122.373 218.502C125.062 216.682 128.431 213.946 130.507 211.695L127.385 210.533L134.975 208.067L133.303 210.881C136.774 210.983 140.547 211.429 142.782 211.902L145.416 208.554C143.009 208.232 139.036 207.946 135.574 207.872L141.081 206.083ZM148.905 198.903C149.455 201.374 149.881 204.043 149.601 205.996C150.369 206.03 151.772 206.173 152.472 206.387C152.678 204.302 152.388 201.273 151.764 198.479L148.905 198.903ZM167.425 196.293C167.054 196.413 166.922 196.204 166.691 195.49L165.875 192.98L170.012 191.635L169.178 189.067L166.638 189.893L165.915 187.667L168.369 186.87L167.535 184.302L166.165 184.747C166.306 183.629 166.422 182.14 166.623 180.718L163.814 180.811C163.976 181.989 164.037 183.829 163.953 185.024L165.224 185.053L161.686 186.202L162.898 185.272C162.468 184.339 161.511 182.947 160.579 182.02L158.813 183.382C159.575 184.27 160.4 185.548 160.858 186.471L159.831 186.805L160.665 189.373L163.062 188.594L163.785 190.82L161.303 191.626L162.137 194.194L163.05 193.897L163.857 196.38C164.728 199.062 165.605 199.818 168.287 198.946L170.198 198.325C170.855 198.112 171.445 197.889 171.817 197.578C171.518 196.95 171.015 195.694 170.736 195.028C170.373 195.272 169.736 195.542 169.336 195.672L167.425 196.293ZM168.874 175.318L153.553 180.297L157.353 191.995C156.461 190.897 155.369 189.769 154.342 188.841L152.269 190.618C152.769 191.087 153.286 191.613 153.776 192.148L151.34 193.097C152.396 190.23 153.418 186.775 154.209 183.869L151.024 183.484C150.822 185.095 150.437 187.018 149.958 188.941C149.59 188.682 149.146 188.384 148.683 188.124C149.22 186.184 149.657 183.55 150.016 181.256L146.744 181.184C146.76 182.788 146.582 184.959 146.293 186.788C146 186.662 145.707 186.536 145.442 186.402L144.529 189.222C146.05 190.021 147.863 191.135 149.079 192.159C148.846 192.898 148.604 193.607 148.343 194.26L146.325 195.042L147.623 197.869L151.486 196.267L155.25 207.851L158.161 206.905L154.323 195.093L155.712 194.515C156.087 195.087 156.444 195.602 156.687 196.059L158.216 194.648L159.504 198.614C158.894 197.708 158.2 196.735 157.513 195.98L155.377 197.463C156.533 198.885 157.761 200.821 158.358 202.172L160.218 200.811L161.831 205.775L164.856 204.793L157.532 182.253L166.748 179.258L172.959 198.375C173.089 198.774 172.992 198.963 172.602 199.121C172.203 199.251 170.919 199.668 169.759 199.982C170.409 200.623 171.225 201.777 171.57 202.548C173.577 201.927 174.89 201.406 175.703 200.606C176.487 199.815 176.55 198.943 176.04 197.373L168.874 175.318ZM187.281 173.817L183.458 175.059L181.872 170.18L178.734 171.2L180.319 176.079L176.268 177.395L177.297 180.562L188.31 176.984L187.281 173.817ZM185.322 189.437C184.431 186.792 182.695 183.098 180.98 180.249L178.446 181.671C180.065 184.52 181.811 188.338 182.588 190.924L185.322 189.437ZM189.554 188.093C189.252 185.321 188.664 181.569 188.035 178.272L184.549 178.805C185.434 182.113 186.329 186.712 186.649 189.636L186.924 189.61C184.58 190.939 182.389 192.156 180.693 193.054L182.453 196.236C185.388 194.494 189.305 192.18 192.851 189.987L191.517 186.951L189.554 188.093ZM203.25 187.239L196.488 189.436L194.681 183.872L201.443 181.675L203.25 187.239ZM203.241 172.164L202.194 168.94L195.774 171.026L194.068 165.776L190.588 166.907L194.935 180.288L190.342 181.781L194.643 195.019L197.953 193.944L197.517 192.603L204.279 190.406L204.678 191.633L208.159 190.502L203.894 177.377L198.416 179.157L196.822 174.25L203.241 172.164ZM215.64 159.745L207.024 162.544L207.858 165.112L216.475 162.312L215.64 159.745ZM217.967 163.215L206.811 166.84L207.682 169.522L218.838 165.897L217.967 163.215ZM219.498 171.424L210.711 174.279L211.536 176.819L220.323 173.963L219.498 171.424ZM231.278 170.593C231.066 172.271 230.599 173.842 229.848 175.316C228.336 174.546 226.977 173.568 225.829 172.364L231.278 170.593ZM219.748 182.289L216.724 183.271L215.658 179.99L218.682 179.007L219.748 182.289ZM232.38 166.702L231.856 167.03L221.812 170.294C224.121 167.304 223.635 163.866 222.764 161.184L222.606 160.699L225.802 159.66L226.923 163.113C227.841 165.937 228.785 166.609 231.067 165.867L232.722 165.329C234.634 164.708 235.051 163.468 234.187 159.838C233.285 159.878 231.815 159.82 231.03 159.539C231.808 162.03 231.814 162.438 231.444 162.559L230.73 162.791C230.416 162.893 230.332 162.825 230.072 162.027L227.995 155.636L218.437 158.741L219.54 162.136C220.162 164.048 220.58 166.404 218.673 168.885L218.228 167.515L209.441 170.37L210.284 172.967L219.072 170.111L218.72 169.027C219.553 169.261 221.085 169.899 221.755 170.312L220.785 170.627L221.777 173.68L225.743 172.392L223.139 174.279C224.626 175.846 226.248 177.148 228.024 178.149C226.702 179.808 225.021 181.238 223.058 182.475L220.749 175.371L211.904 178.244L215.066 187.974L217.947 187.037L217.586 185.925L223.549 183.987L223.076 182.532C223.954 183.098 225.189 184.18 225.8 184.896C227.984 183.366 229.847 181.625 231.323 179.663C233.556 180.42 235.982 180.799 238.611 180.734C238.808 179.692 239.343 178.035 239.853 177.081C237.48 177.253 235.214 177.074 233.178 176.537C234.451 173.757 235.083 170.556 234.874 166.807L232.38 166.702ZM247.539 149.38L238.494 152.319L239.329 154.887L248.373 151.948L247.539 149.38ZM249.865 152.851L238.196 156.643L239.067 159.325L250.737 155.533L249.865 152.851ZM250.381 168.708L251.447 171.989L248.194 173.046L247.128 169.765L250.381 168.708ZM252.476 165.062L243.318 168.038L246.479 177.767L249.418 176.812L249.056 175.699L255.276 173.678L252.476 165.062ZM242.949 166.612L252.108 163.636L251.283 161.097L242.124 164.072L242.949 166.612ZM241.698 162.76L250.856 159.784L250.013 157.188L240.854 160.164L241.698 162.76ZM266.668 152.722L260.705 154.66L257.646 145.245L254.222 146.357L257.281 155.772L251.318 157.71L252.412 161.077L258.375 159.139L262.843 172.891L266.267 171.779L261.799 158.027L267.762 156.089L266.668 152.722Z" fill="white"/>
</g>
<g filter="url(#filter3_d)">
<path d="M102.06 243.303L106.974 258.425C107.097 258.805 106.988 258.988 106.589 259.118C106.234 259.254 104.87 259.718 103.463 260.112C103.821 260.438 104.304 261.017 104.529 261.385C106.304 260.83 107.471 260.408 108.082 259.958C108.667 259.494 108.816 258.983 108.476 257.937L103.563 242.815L102.06 243.303ZM108.164 246.619C110.664 248.814 113.336 251.858 114.521 253.954L115.801 252.844C114.59 250.735 111.868 247.792 109.328 245.673L108.164 246.619ZM98.5296 249.329C98.9013 252.026 98.9181 255.638 97.8742 258.185C98.304 258.214 99.024 258.358 99.4467 258.494C100.473 255.827 100.47 252.063 100.182 249.108L98.5296 249.329ZM128.945 236.923L128.487 235.516L111.558 241.016L112.016 242.424L119.377 240.032C119.496 240.981 119.583 242.089 119.607 243.006L113.882 244.866L117.85 257.078L119.276 256.615L115.741 245.734L118.747 244.758L122.078 255.01L123.466 254.559L120.135 244.307L123.274 243.287L126.605 253.539L127.993 253.088L124.662 242.836L127.896 241.785L130.844 250.858C130.936 251.144 130.866 251.251 130.587 251.362C130.308 251.474 129.363 251.802 128.266 252.116C128.593 252.41 128.988 252.912 129.187 253.268C130.557 252.823 131.502 252.495 131.998 252.081C132.476 251.674 132.523 251.238 132.257 250.42L128.871 239.996L121.091 242.524C121.111 241.614 121.113 240.519 121.07 239.482L128.945 236.923ZM146.094 231.519L145.643 230.131L135.333 233.48L135.778 234.85L128.95 237.069L129.407 238.476L132.165 237.58L134.606 245.093C133.552 245.731 132.599 246.293 131.824 246.755L132.61 248.076C134.498 246.895 137.11 245.289 139.569 243.733L138.984 242.451C137.968 243.076 136.932 243.707 135.928 244.307L133.592 237.117L136.312 236.233L135.861 234.844L138.429 234.01C138.732 236.561 139.006 239.605 139.06 241.585L140.593 241.319C140.578 240.819 140.538 240.243 140.479 239.61L146.015 237.812C147.197 242.811 147.434 245.026 146.966 245.788C146.825 246.065 146.59 246.184 146.171 246.32C145.696 246.474 144.434 246.863 143.117 247.144C143.513 247.457 143.907 248.023 144.081 248.429C145.323 248.109 146.508 247.745 147.105 247.509C147.809 247.218 148.222 246.936 148.499 246.299C149.032 245.222 148.754 242.747 147.282 236.664C147.233 236.448 147.098 235.967 147.098 235.967L140.364 238.155C140.236 236.661 140.078 235.009 139.893 233.534L146.094 231.519ZM153.015 246.283C154.784 244.93 155.57 242.95 154.903 240.896C154.47 239.565 153.621 238.894 152.575 239.234C151.795 239.487 151.284 240.179 151.575 241.073C151.865 241.967 152.66 242.214 153.44 241.96C153.554 241.923 153.649 241.892 153.757 241.836C154.082 243.16 153.536 244.326 152.269 245.411L153.015 246.283ZM170.748 229.86L168.821 231.179L167.591 227.394L169.532 226.764L169.105 225.451L167.165 226.082L165.923 222.258L164.534 222.71L165.777 226.533L163.494 227.275L163.92 228.587L166.203 227.845L167.556 232.011C166.679 232.612 165.865 233.149 165.223 233.568L166.043 234.795L168.02 233.438L169.645 238.44C169.726 238.687 169.655 238.794 169.427 238.869C169.243 238.949 168.558 239.172 167.829 239.388C168.137 239.687 168.494 240.202 168.668 240.545C169.777 240.206 170.463 239.92 170.826 239.55C171.208 239.173 171.281 238.75 171.034 237.989L169.266 232.549L171.364 231.11L170.748 229.86ZM173.822 222.299L175.775 228.31L173.093 229.182L171.14 223.171L173.822 222.299ZM179.808 227L177.088 227.884L175.135 221.873L177.855 220.989L179.808 227ZM176.977 235.827C175.664 236.253 175.337 236.086 174.99 235.021L173.532 230.532L180.246 228.35L180.648 229.587L182.094 229.117L178.849 219.131L169.262 222.246L173.558 235.466C174.256 237.615 175.114 237.925 177.339 237.202L182.266 235.601C184.377 234.915 184.55 233.829 183.932 231.085C183.47 231.151 182.8 231.096 182.377 230.96C182.96 233.273 182.93 233.892 181.789 234.263L176.977 235.827ZM190.764 217.615L192.772 223.797C192.84 224.006 192.802 224.082 192.542 224.187C192.313 224.261 191.514 224.521 190.633 224.786C190.935 225.067 191.317 225.531 191.492 225.874C192.671 225.491 193.445 225.219 193.896 224.862C194.342 224.485 194.351 224.062 194.123 223.358L192.114 217.176L195.405 216.107C195.386 216.891 195.304 217.675 195.211 218.294L194.827 218.019L193.828 218.891C195.111 219.862 196.58 221.277 197.338 222.25L198.389 221.278C197.725 220.463 196.588 219.361 195.444 218.492L196.476 218.367C196.641 217.388 196.767 215.833 196.878 214.493L195.809 214.567L195.593 214.679L188.403 217.015C188.489 216.44 188.545 215.834 188.568 215.258L187.169 215.355C187.11 217.372 186.563 219.443 185.64 221.004C186.025 221.089 186.681 221.36 186.99 221.533C187.445 220.67 187.833 219.598 188.12 218.474L190.764 217.615ZM193.987 227.082C193.036 226.55 191.294 226.044 189.891 225.868L189.212 227.014C190.646 227.221 192.363 227.778 193.282 228.342L193.987 227.082ZM188.638 220.135C188.551 221.614 188.128 223.224 187.429 224.439C187.834 224.518 188.496 224.681 188.831 224.804C189.467 223.525 189.955 221.726 190.056 220.032L188.638 220.135ZM185.665 234.349C186.828 232.878 187.038 230.938 186.945 229.097L185.573 229.08C185.686 230.789 185.35 232.601 184.246 233.928L185.665 234.349ZM183.492 216.529C183.088 218.973 182.005 221.596 180.65 223.509C181.003 223.689 181.664 224.105 181.921 224.315C182.395 223.573 182.857 222.729 183.256 221.821L185.234 227.908L186.603 227.463L184.075 219.683C184.412 218.648 184.698 217.588 184.864 216.546L183.492 216.529ZM191.659 231.308C190.651 231.636 190.468 231.59 190.307 231.096L189.189 227.653L187.781 228.11L188.9 231.553C189.375 233.018 190.019 233.25 191.978 232.614L195.649 231.421C197.266 230.896 197.499 230.189 196.948 227.845C196.517 227.879 195.879 227.856 195.5 227.726C196.023 229.596 195.977 229.906 195.14 230.177L191.659 231.308ZM195.809 226.154C197.606 226.895 199.614 228.219 200.548 229.282L201.569 228.152C200.546 227.075 198.55 225.852 196.728 225.098L195.809 226.154ZM204.961 218.722L200.966 220.02L199.675 216.045L203.669 214.747L204.961 218.722ZM202.857 225.84L201.374 221.275L205.369 219.977L206.852 224.543L202.857 225.84ZM199.857 211.17C200.014 212.107 200.086 213.492 200.097 214.498L197.967 215.19L202.466 229.038L203.76 228.617L203.271 227.115L208.559 225.397L204.548 213.052L201.391 214.078C201.448 213.155 201.451 211.998 201.471 210.96L199.857 211.17ZM213.831 209.973L208.144 211.821C208.177 210.822 208.146 209.822 208.072 208.816L206.616 208.931C206.854 211.735 206.68 214.694 205.949 216.782C206.316 216.873 207.048 217.056 207.369 217.203C207.744 216.093 207.957 214.741 208.076 213.294L212.907 211.724C215.12 219.375 215.774 222.359 215.362 223.228C215.252 223.537 215.055 223.643 214.675 223.767C214.238 223.909 213.096 224.28 211.823 224.568C212.219 224.881 212.576 225.396 212.75 225.802C213.833 225.513 214.93 225.198 215.571 224.906C216.199 224.639 216.581 224.325 216.826 223.657C217.284 222.478 216.58 219.468 214.066 210.696L213.831 209.973ZM213.607 219.509C212.634 218.584 210.728 217.185 209.224 216.18L208.331 217.185C209.822 218.215 211.708 219.684 212.65 220.64L213.607 219.509ZM230.648 205.875L224.067 208.014C223.556 207.023 223.077 205.938 222.63 204.758L218.008 206.26L218.416 207.516L221.84 206.403C222.119 207.133 222.424 207.812 222.735 208.446L215.812 210.696L220.082 223.84L221.49 223.382L217.67 211.627L222.616 210.02C222.939 213.217 222.047 215.778 219.9 217.842C220.291 218.01 220.901 218.4 221.216 218.656C223.325 216.54 224.199 213.922 224.052 210.752C225.797 213.34 227.954 214.994 230.848 215.421C230.952 214.966 231.229 214.266 231.435 213.863C228.597 213.608 226.491 211.979 224.822 209.304L229.673 207.728L232.893 217.638C232.991 217.942 232.946 218.062 232.61 218.192C232.236 218.335 231.057 218.718 229.808 219.081C230.141 219.394 230.56 219.973 230.747 220.354C232.364 219.828 233.448 219.476 234.02 219.038C234.568 218.586 234.61 218.068 234.319 217.174L230.648 205.875ZM233.308 203.707L246.262 199.498L246.954 201.629L248.399 201.159L247.287 197.735L240.059 200.084L239.49 198.334L238.064 198.797L238.632 200.547L231.518 202.859L232.631 206.283L234 205.838L233.308 203.707ZM242.006 202.774C244.102 203.271 246.757 204.195 248.137 204.946L248.855 203.661C247.437 202.923 244.749 202.093 242.704 201.622L242.006 202.774ZM236.927 203.52C236.313 205.254 234.958 207.167 233.524 208.579C233.934 208.74 234.589 209.137 234.891 209.355C236.294 207.784 237.702 205.581 238.42 203.518L236.927 203.52ZM238.453 210.868C239.718 209.132 240.718 207.356 241.229 205.886C242.658 206.789 244.644 207.595 246.689 208.192L238.453 210.868ZM240.007 215.263L238.981 212.105L246.647 209.615L247.672 212.772L240.007 215.263ZM240.023 204.827C239.219 207.465 236.921 211.008 234.195 213.492C234.586 213.723 235.114 214.119 235.377 214.412C236.11 213.69 236.824 212.911 237.488 212.107L239.281 217.623L240.631 217.184L240.421 216.537L248.087 214.047L248.272 214.617L249.68 214.16L247.844 208.511C248.942 208.785 250.022 209.001 251.014 209.142C251.113 208.668 251.288 208.043 251.494 207.577C248.201 207.343 244.238 206.149 241.43 204.37L240.023 204.827ZM249.766 203.554L250.267 205.095L267.538 199.483L267.038 197.942L249.766 203.554ZM270.562 192.738C269.548 192.142 267.631 191.483 266.173 191.073L265.492 192.409C266.988 192.869 268.892 193.617 269.861 194.207L270.562 192.738ZM271.509 197.919C270.436 200.118 269.293 202.425 268.524 203.81L269.814 204.674C270.712 203.036 271.753 200.868 272.666 198.889L271.509 197.919ZM277.251 191.385L281.17 190.112C281.197 191.491 281.046 193.096 280.854 194.126C281.24 194.148 281.872 194.279 282.219 194.313C282.515 192.829 282.76 190.605 282.68 188.612L281.467 188.375L281.207 188.544L273.541 191.034C273.562 189.934 273.514 188.814 273.434 187.662L271.864 187.878C272.2 191.113 271.991 194.419 270.999 196.802C271.435 196.85 272.25 197.027 272.609 197.162C273.049 195.863 273.339 194.296 273.466 192.615L275.787 191.861L276.565 194.258C277.14 196.027 277.764 201.312 272.742 205.468C273.089 205.628 273.718 206.076 273.988 206.325C277.91 202.926 278.405 198.56 278.147 196.667C278.988 198.349 281.897 201.736 286.447 202.277C286.564 201.86 286.81 201.128 286.952 200.724C281.093 200.168 278.549 195.443 278.03 193.782L277.251 191.385ZM286.344 187.463L286.103 186.721L290.212 185.386L290.453 186.128L286.344 187.463ZM295.956 183.52L296.197 184.262L291.822 185.683L291.581 184.941L295.956 183.52ZM284.893 190.311L298.836 185.781L299.312 187.245L300.586 186.831L299.857 184.587L292.267 187.053L292.057 186.406L297.783 184.546L297.06 182.32L291.334 184.181L291.136 183.572L298.345 181.23L298.061 180.355L290.852 182.697L290.543 181.746L289.174 182.191L289.483 183.142L282.35 185.46L282.634 186.335L289.767 184.017L289.965 184.626L284.582 186.375L285.305 188.6L290.688 186.851L290.898 187.498L283.385 189.939L284.114 192.183L285.369 191.776L284.893 190.311ZM291.616 194.498L295.839 193.126L296.068 193.83L291.845 195.202L291.616 194.498ZM291.153 193.072L295.375 191.7L295.579 192.327L291.357 193.699L291.153 193.072ZM287.45 190.931L290.493 189.942L290.759 190.76L287.716 191.749L287.45 190.931ZM293.955 188.818L297.075 187.804L297.341 188.622L294.221 189.635L293.955 188.818ZM300.613 193.321C299.931 194.005 298.772 195.033 297.773 195.778C296.921 195.614 296.138 195.342 295.471 194.97L302.68 192.628L302.402 191.772L297.437 193.385L297.209 192.681L300.651 191.563L300.392 190.764L296.949 191.882L296.745 191.255L300.644 189.988L300.385 189.189L296.485 190.456L296.257 189.752L298.749 188.942L298.025 186.717L292.604 188.478L293.328 190.704L294.887 190.197L295.116 190.901L290.893 192.273L290.665 191.569L292.186 191.075L291.463 188.849L286.099 190.592L286.822 192.818L289.295 192.014L289.524 192.718L285.758 193.942L286.017 194.74L289.783 193.517L289.987 194.144L286.601 195.245L286.861 196.043L290.247 194.943L290.475 195.647L285.568 197.242L285.846 198.098L291.99 196.101C290.355 197.348 288.012 198.614 285.974 199.528C286.271 199.663 286.686 199.97 286.924 200.187C288.149 199.62 289.47 198.897 290.691 198.122L291.105 199.396C290.407 199.707 289.747 200.006 289.188 200.229L289.687 201.182C291.616 200.323 294.263 199.085 296.821 197.896L296.499 196.97C295.109 197.611 293.7 198.258 292.393 198.83L291.899 197.309C292.789 196.683 293.584 196.025 294.177 195.391C296.498 197.097 299.842 197.42 303.565 196.777C303.619 196.424 303.756 195.874 303.942 195.541C302.187 195.9 300.51 196.046 299.005 195.946C299.94 195.264 300.952 194.43 301.736 193.671L300.613 193.321ZM306.984 185.552C306.31 186.002 305.623 186.477 304.968 186.922L303.745 183.155L305.932 182.445L305.5 181.113L303.312 181.824L302.076 178.02L300.726 178.458L301.962 182.263L299.584 183.035L300.017 184.367L302.394 183.594L303.742 187.741C302.858 188.322 302.025 188.866 301.358 189.272L302.19 190.537L304.205 189.167L305.806 194.094C305.898 194.379 305.828 194.486 305.568 194.592C305.34 194.666 304.522 194.932 303.641 195.197C303.935 195.522 304.33 196.024 304.505 196.367C305.779 195.953 306.534 195.687 306.935 195.304C307.355 194.915 307.422 194.473 307.156 193.655L305.42 188.31C306.138 187.803 306.857 187.296 307.575 186.79L306.984 185.552ZM318.179 189.716L311.692 191.824L310.487 188.115L316.973 186.007L318.179 189.716ZM317.912 180.676L317.473 179.326L312.49 180.945L311.352 177.445C312.826 176.672 314.147 175.885 315.19 175.147L313.868 174.314C312.043 175.686 308.544 177.474 305.536 178.83C305.806 179.079 306.144 179.537 306.306 179.842C307.524 179.32 308.8 178.716 310.032 178.105L311.101 181.396L306.574 182.867L307.013 184.217L311.54 182.746L312.597 185.999L308.697 187.266L310.99 194.323L312.36 193.878L312.113 193.117L318.599 191.01L318.821 191.694L320.21 191.243L317.942 184.262L313.985 185.548L312.928 182.295L317.912 180.676Z" fill="white"/>
</g>
<g filter="url(#filter4_d)">
<path d="M323.996 39.4208C324.121 39.1747 324.023 38.8736 323.777 38.7483L319.768 36.7053C319.522 36.5799 319.22 36.6778 319.095 36.9238C318.97 37.1698 319.068 37.4709 319.314 37.5963L322.878 39.4123L321.062 42.9763C320.936 43.2223 321.034 43.5234 321.28 43.6488C321.526 43.7742 321.827 43.6763 321.953 43.4303L323.996 39.4208ZM311.092 43.7672L323.705 39.6693L323.396 38.7182L310.783 42.8162L311.092 43.7672Z" fill="white"/>
</g>
<g filter="url(#filter5_d)">
<line y1="-0.5" x2="29.4903" y2="-0.5" transform="matrix(0.951057 -0.309017 0.432293 0.901733 50.9736 126.499)" stroke="white"/>
</g>
<g filter="url(#filter6_d)">
<line y1="-0.5" x2="29.4903" y2="-0.5" transform="matrix(0.951057 -0.309017 0.432293 0.901733 53.7363 135.707)" stroke="white"/>
</g>
<g filter="url(#filter7_d)">
<line y1="-0.5" x2="29.4903" y2="-0.5" transform="matrix(0.951057 -0.309017 0.432293 0.901733 56.4985 144.916)" stroke="white"/>
</g>
<g filter="url(#filter8_d)">
<rect x="120.037" y="315.124" width="84.6317" height="206.476" rx="10" transform="rotate(-18 120.037 315.124)" fill="url(#paint0_linear)"/>
</g>
<g filter="url(#filter9_d)">
<rect x="213.042" y="285.519" width="85.1865" height="206.476" rx="10" transform="rotate(-18 213.042 285.519)" fill="url(#paint1_linear)"/>
</g>
<circle cx="159.308" cy="491.998" r="4" stroke="#191A25"/>
<circle cx="219.308" cy="495.998" r="4" stroke="#191A25"/>
<circle cx="245.308" cy="420.998" r="4" stroke="#191A25"/>
<circle cx="297.308" cy="362.998" r="4" stroke="#191A25"/>
<line x1="162.846" y1="492" x2="214.846" y2="496" stroke="#191A25"/>
<line x1="222.33" y1="493.352" x2="243.33" y2="424.352" stroke="#191A25"/>
<line x1="247.437" y1="417.163" x2="294.437" y2="365.163" stroke="#191A25"/>
<path d="M299.535 360.079L326.808 326.498" stroke="#191A25"/>
<defs>
<filter id="filter0_d" x="273.289" y="156.433" width="22.9082" height="15.3628" filterUnits="userSpaceOnUse" color-interpolation-filters="sRGB">
<feFlood flood-opacity="0" result="BackgroundImageFix"/>
<feColorMatrix in="SourceAlpha" type="matrix" values="0 0 0 0 0 0 0 0 0 0 0 0 0 0 0 0 0 0 127 0"/>
<feOffset dy="4"/>
<feGaussianBlur stdDeviation="2"/>
<feColorMatrix type="matrix" values="0 0 0 0 0 0 0 0 0 0 0 0 0 0 0 0 0 0 0.25 0"/>
<feBlend mode="normal" in2="BackgroundImageFix" result="effect1_dropShadow"/>
<feBlend mode="normal" in="SourceGraphic" in2="effect1_dropShadow" result="shape"/>
</filter>
<filter id="filter1_d" x="12.0083" y="4.13962" width="341.538" height="546.959" filterUnits="userSpaceOnUse" color-interpolation-filters="sRGB">
<feFlood flood-opacity="0" result="BackgroundImageFix"/>
<feColorMatrix in="SourceAlpha" type="matrix" values="0 0 0 0 0 0 0 0 0 0 0 0 0 0 0 0 0 0 127 0"/>
<feOffset dy="10"/>
<feGaussianBlur stdDeviation="2"/>
<feColorMatrix type="matrix" values="0 0 0 0 0 0 0 0 0 0 0 0 0 0 0 0 0 0 0.25 0"/>
<feBlend mode="normal" in2="BackgroundImageFix" result="effect1_dropShadow"/>
<feBlend mode="normal" in="SourceGraphic" in2="effect1_dropShadow" result="shape"/>
</filter>
<filter id="filter2_d" x="78.4146" y="145.245" width="193.347" height="94.6001" filterUnits="userSpaceOnUse" color-interpolation-filters="sRGB">
<feFlood flood-opacity="0" result="BackgroundImageFix"/>
<feColorMatrix in="SourceAlpha" type="matrix" values="0 0 0 0 0 0 0 0 0 0 0 0 0 0 0 0 0 0 127 0"/>
<feOffset dy="10"/>
<feGaussianBlur stdDeviation="2"/>
<feColorMatrix type="matrix" values="0 0 0 0 0 0 0 0 0 0 0 0 0 0 0 0 0 0 0.25 0"/>
<feBlend mode="normal" in2="BackgroundImageFix" result="effect1_dropShadow"/>
<feBlend mode="normal" in="SourceGraphic" in2="effect1_dropShadow" result="shape"/>
</filter>
<filter id="filter3_d" x="93.874" y="174.314" width="230.336" height="101.071" filterUnits="userSpaceOnUse" color-interpolation-filters="sRGB">
<feFlood flood-opacity="0" result="BackgroundImageFix"/>
<feColorMatrix in="SourceAlpha" type="matrix" values="0 0 0 0 0 0 0 0 0 0 0 0 0 0 0 0 0 0 127 0"/>
<feOffset dy="10"/>
<feGaussianBlur stdDeviation="2"/>
<feColorMatrix type="matrix" values="0 0 0 0 0 0 0 0 0 0 0 0 0 0 0 0 0 0 0.25 0"/>
<feBlend mode="normal" in2="BackgroundImageFix" result="effect1_dropShadow"/>
<feBlend mode="normal" in="SourceGraphic" in2="effect1_dropShadow" result="shape"/>
</filter>
<filter id="filter4_d" x="306.784" y="36.6507" width="21.2668" height="15.1165" filterUnits="userSpaceOnUse" color-interpolation-filters="sRGB">
<feFlood flood-opacity="0" result="BackgroundImageFix"/>
<feColorMatrix in="SourceAlpha" type="matrix" values="0 0 0 0 0 0 0 0 0 0 0 0 0 0 0 0 0 0 127 0"/>
<feOffset dy="4"/>
<feGaussianBlur stdDeviation="2"/>
<feColorMatrix type="matrix" values="0 0 0 0 0 0 0 0 0 0 0 0 0 0 0 0 0 0 0.25 0"/>
<feBlend mode="normal" in2="BackgroundImageFix" result="effect1_dropShadow"/>
<feBlend mode="normal" in="SourceGraphic" in2="effect1_dropShadow" result="shape"/>
</filter>
<filter id="filter5_d" x="46.5415" y="116.484" width="36.4792" height="18.0147" filterUnits="userSpaceOnUse" color-interpolation-filters="sRGB">
<feFlood flood-opacity="0" result="BackgroundImageFix"/>
<feColorMatrix in="SourceAlpha" type="matrix" values="0 0 0 0 0 0 0 0 0 0 0 0 0 0 0 0 0 0 127 0"/>
<feOffset dy="4"/>
<feGaussianBlur stdDeviation="2"/>
<feColorMatrix type="matrix" values="0 0 0 0 0 0 0 0 0 0 0 0 0 0 0 0 0 0 0.25 0"/>
<feBlend mode="normal" in2="BackgroundImageFix" result="effect1_dropShadow"/>
<feBlend mode="normal" in="SourceGraphic" in2="effect1_dropShadow" result="shape"/>
</filter>
<filter id="filter6_d" x="49.3042" y="125.692" width="36.4792" height="18.0147" filterUnits="userSpaceOnUse" color-interpolation-filters="sRGB">
<feFlood flood-opacity="0" result="BackgroundImageFix"/>
<feColorMatrix in="SourceAlpha" type="matrix" values="0 0 0 0 0 0 0 0 0 0 0 0 0 0 0 0 0 0 127 0"/>
<feOffset dy="4"/>
<feGaussianBlur stdDeviation="2"/>
<feColorMatrix type="matrix" values="0 0 0 0 0 0 0 0 0 0 0 0 0 0 0 0 0 0 0.25 0"/>
<feBlend mode="normal" in2="BackgroundImageFix" result="effect1_dropShadow"/>
<feBlend mode="normal" in="SourceGraphic" in2="effect1_dropShadow" result="shape"/>
</filter>
<filter id="filter7_d" x="52.0664" y="134.901" width="36.4792" height="18.0147" filterUnits="userSpaceOnUse" color-interpolation-filters="sRGB">
<feFlood flood-opacity="0" result="BackgroundImageFix"/>
<feColorMatrix in="SourceAlpha" type="matrix" values="0 0 0 0 0 0 0 0 0 0 0 0 0 0 0 0 0 0 127 0"/>
<feOffset dy="4"/>
<feGaussianBlur stdDeviation="2"/>
<feColorMatrix type="matrix" values="0 0 0 0 0 0 0 0 0 0 0 0 0 0 0 0 0 0 0.25 0"/>
<feBlend mode="normal" in2="BackgroundImageFix" result="effect1_dropShadow"/>
<feBlend mode="normal" in="SourceGraphic" in2="effect1_dropShadow" result="shape"/>
</filter>
<filter id="filter8_d" x="118.635" y="291.569" width="147.098" height="225.327" filterUnits="userSpaceOnUse" color-interpolation-filters="sRGB">
<feFlood flood-opacity="0" result="BackgroundImageFix"/>
<feColorMatrix in="SourceAlpha" type="matrix" values="0 0 0 0 0 0 0 0 0 0 0 0 0 0 0 0 0 0 127 0"/>
<feOffset dy="4"/>
<feGaussianBlur stdDeviation="2"/>
<feColorMatrix type="matrix" values="0 0 0 0 0 0 0 0 0 0 0 0 0 0 0 0 0 0 0.25 0"/>
<feBlend mode="normal" in2="BackgroundImageFix" result="effect1_dropShadow"/>
<feBlend mode="normal" in="SourceGraphic" in2="effect1_dropShadow" result="shape"/>
</filter>
<filter id="filter9_d" x="211.64" y="261.793" width="147.626" height="225.499" filterUnits="userSpaceOnUse" color-interpolation-filters="sRGB">
<feFlood flood-opacity="0" result="BackgroundImageFix"/>
<feColorMatrix in="SourceAlpha" type="matrix" values="0 0 0 0 0 0 0 0 0 0 0 0 0 0 0 0 0 0 127 0"/>
<feOffset dy="4"/>
<feGaussianBlur stdDeviation="2"/>
<feColorMatrix type="matrix" values="0 0 0 0 0 0 0 0 0 0 0 0 0 0 0 0 0 0 0.25 0"/>
<feBlend mode="normal" in2="BackgroundImageFix" result="effect1_dropShadow"/>
<feBlend mode="normal" in="SourceGraphic" in2="effect1_dropShadow" result="shape"/>
</filter>
<linearGradient id="paint0_linear" x1="162.352" y1="315.124" x2="162.352" y2="521.6" gradientUnits="userSpaceOnUse">
<stop stop-color="#20B47F"/>
<stop offset="1" stop-color="#20B47F" stop-opacity="0"/>
</linearGradient>
<linearGradient id="paint1_linear" x1="255.635" y1="285.519" x2="255.635" y2="491.995" gradientUnits="userSpaceOnUse">
<stop stop-color="#20B47F"/>
<stop offset="1" stop-color="#20B47F" stop-opacity="0"/>
</linearGradient>
</defs>
</svg>
