<svg width="678" height="721" viewBox="0 0 678 721" fill="none" xmlns="http://www.w3.org/2000/svg">
<rect width="377.973" height="355.409" rx="10" transform="matrix(0.81169 -0.584088 0.844826 0.535042 42.5166 444.219)" fill="white"/>
<g filter="url(#filter0_d)">
<path d="M36.5004 440.392C31.8344 437.437 31.7148 432.406 36.1976 429.18C148.224 348.561 214.536 300.84 326.569 220.217C331.042 216.997 338.469 216.75 343.138 219.688L585.352 372.126C587.196 373.286 588.411 374.794 588.573 376.511C589.806 389.598 587.309 449.273 448.681 489.388C348.712 518.316 332.389 568.895 333.635 601.651C333.949 609.902 315.411 616.998 306.599 611.418L36.5004 440.392Z" fill="#249DB3"/>
</g>
<g filter="url(#filter1_d)">
<path d="M146.497 445.342L147.333 445.871L143.51 448.623L142.674 448.093L146.497 445.342ZM145.994 450.195L145.132 449.65L148.955 446.899L149.817 447.444L145.994 450.195ZM154.146 446.661L147.353 442.359L138.295 448.878L155.353 459.679L157.983 457.787L147.718 451.287L154.146 446.661ZM156.465 442.66L155.603 442.115L159.548 439.276L160.409 439.822L156.465 442.66ZM157.089 437.719L157.926 438.249L153.981 441.088L153.144 440.558L157.089 437.719ZM159.195 451.702L158.105 451.012L162.147 448.103L163.237 448.793L159.195 451.702ZM159.461 446.402L160.525 447.076L156.483 449.985L155.419 449.311L159.461 446.402ZM158.043 434.667L148.79 441.326L155.583 445.627L162.133 440.913L169.357 445.487C169.711 445.712 169.691 445.863 169.326 446.126C169.009 446.354 168.061 447.071 167.036 447.74L160.345 443.503L151.14 450.127L159.124 455.182L161.73 453.307L160.843 452.746L167.198 448.172C168.176 448.429 169.329 448.764 170.012 449.13C171.839 447.849 173.079 446.889 173.475 445.986C173.946 445.099 173.479 444.441 172.085 443.558L158.043 434.667ZM147.359 435.84C147.147 435.41 146.911 434.997 146.651 434.601L143.19 436.166C144.022 437.384 144.538 438.831 144.629 440.239L142.83 439.1L137.424 442.99C137.213 442.593 137.003 442.196 136.768 441.817L133.304 443.28C134.449 444.994 135.012 447.195 134.794 449.066C135.781 448.802 137.737 448.491 138.778 448.393C138.777 447.503 138.622 446.483 138.317 445.433L138.585 445.241C139.834 445.405 141.21 445.683 142.063 445.961L143.861 443.673C143.234 443.507 142.334 443.332 141.41 443.208L144.648 440.877C144.635 441.264 144.596 441.635 144.532 441.99C145.493 441.675 147.444 441.231 148.484 441.066C148.534 440.241 148.481 439.285 148.228 438.301L149.494 437.39C150.889 437.483 152.436 437.639 153.364 437.897L155.209 435.54C154.508 435.393 153.51 435.288 152.489 435.235L156.507 432.343L154.226 430.899L147.359 435.84ZM179.258 416.245L175.776 418.751L174.306 417.82L177.788 415.314L179.258 416.245ZM178.691 412.23L169.949 418.52L175.019 421.73L183.76 415.439L178.691 412.23ZM169.031 423.605L165.622 426.058L164.152 425.127L167.561 422.674L169.031 423.605ZM168.464 419.589L159.771 425.845L164.84 429.055L173.533 422.799L168.464 419.589ZM176.728 431.575L175.36 430.709L179.475 427.747L180.843 428.614L176.728 431.575ZM171.862 428.494L175.977 425.533L177.32 426.383L173.205 429.345L171.862 428.494ZM184.674 421.091L180.291 424.245L178.948 423.395L183.331 420.24L184.674 421.091ZM188.197 423.322L183.814 426.476L182.445 425.609L186.828 422.455L188.197 423.322ZM196.911 421.955L187.439 428.771L186.121 427.937L193.474 422.645L183.97 416.626L166.705 429.05L176.21 435.069L183.15 430.074L184.468 430.909L175.215 437.568L177.8 439.205L187.053 432.546L190.272 434.584L193.243 432.446L190.024 430.408L199.496 423.592L196.911 421.955ZM216.496 410.638L211.604 407.54L218.593 402.511L215.678 400.665L208.689 405.695L204.305 402.918L212.462 397.048L209.522 395.186L201.803 400.741L202.105 399.186C199.916 399.184 196.2 399.664 193.602 400.127L192.939 402.936C194.995 402.657 197.622 402.343 199.684 402.265L189.944 409.275L192.884 411.137L201.115 405.214L205.5 407.99L198.56 412.984L201.475 414.83L208.414 409.836L213.306 412.933L204.053 419.592L207.019 421.47L228.812 405.786L225.846 403.909L216.496 410.638ZM226.083 396.778C228.017 398.266 229.933 399.974 230.721 401.395C231.558 401.102 233.186 400.65 234.028 400.524C233.112 398.989 231.089 397.016 228.924 395.316L226.083 396.778ZM246.808 387.864L240.852 384.092L242.971 382.567L248.927 386.339L246.808 387.864ZM236.299 387.369L238.32 385.914L244.276 389.686L242.255 391.14L236.299 387.369ZM229.778 380.506L235.582 384.181L233.561 385.636L227.757 381.96L229.778 380.506ZM240.233 380.834L238.115 382.359L232.31 378.683L234.429 377.159L240.233 380.834ZM222.387 382.019L232.703 388.551C230.922 388.049 228.621 387.613 226.574 387.338L225.443 389.455C226.167 389.551 226.942 389.713 227.693 389.859L225.606 391.601C225.113 389.246 224.337 386.548 223.549 384.303L219.996 385.248C220.653 386.455 221.32 387.964 221.887 389.476C221.314 389.443 220.617 389.43 219.92 389.417C219.379 387.921 218.45 385.949 217.553 384.229L214.033 385.459C214.937 386.591 215.904 388.159 216.641 389.548C216.244 389.56 215.872 389.588 215.499 389.616L216.189 391.897C218.275 391.801 220.861 391.792 222.708 392.006C222.874 392.572 222.99 393.14 223.106 393.674C222.45 394.214 221.819 394.737 221.26 395.174L224.335 396.561C225.256 395.727 226.298 394.806 227.413 393.832L237.754 400.38L240.335 398.523L229.69 391.782L230.95 390.669C231.753 390.914 232.481 391.145 233.06 391.38L234.046 389.401L239.825 393.061C238.141 392.455 235.706 391.704 233.603 391.229L232.171 393.254C234.327 393.829 237.062 394.671 238.575 395.366L240.053 393.205L243.779 395.564L246.336 393.724L244.967 392.858L251.639 388.056L252.78 388.778L255.458 386.851L234.294 373.45L222.387 382.019ZM269.084 362.438C269.049 363.766 268.728 365.54 268.302 367.115C266.654 366.895 265.077 366.522 263.445 366.016L271.188 360.443L268.628 358.822L259.278 365.551L257.859 364.653L265.48 359.168L263.072 357.643L255.451 363.128L254.158 362.31L262.729 356.141L260.169 354.52L251.598 360.689L249.925 359.629L247.028 361.715L248.7 362.774L240.324 368.802L242.884 370.423L251.26 364.395L252.553 365.213L245.321 370.418L247.729 371.942L254.961 366.738L256.38 367.637L247.103 374.313L249.663 375.934L257.065 370.607C256.424 373.297 254.752 376.455 252.64 379.038C253.857 378.985 255.825 379.111 256.924 379.247C257.832 378.01 258.638 376.676 259.293 375.279L262.917 377.574C261.953 378.61 261.037 379.579 260.265 380.374L263.905 381.526C266.24 378.92 269.444 375.414 272.329 372.069L269.324 370.529C267.976 372.047 266.555 373.618 265.207 375.103L260.492 372.118C260.875 370.78 261.109 369.445 261.122 368.202C268.356 370.608 274.887 371.12 281.85 368.578C281.428 367.751 281.039 366.384 281.038 365.528C277.918 366.813 274.777 367.393 271.667 367.368C272.341 365.752 272.977 363.717 273.37 361.891L269.084 362.438Z" fill="white"/>
</g>
<g filter="url(#filter2_d)">
<rect width="149.068" height="233.475" rx="10" transform="matrix(0.996134 -0.0878512 0.107574 0.994197 236.839 44.1519)" fill="white"/>
</g>
<path d="M274 295.447V258.447L308 268.74L274 295.447Z" fill="white" stroke="white"/>
<g filter="url(#filter3_d)">
<path d="M237.717 53.7161C237.122 48.2253 241.108 43.38 246.609 42.8945C295.352 38.5932 326.56 35.8392 375.307 31.5375C380.801 31.0527 385.746 35.0986 386.349 40.5812L405.557 214.953C405.719 216.429 405.559 217.911 404.941 219.247C400.933 227.924 382.214 259.896 333.677 231.863C317.982 222.798 305.411 222.228 295.448 226.085C284.923 230.16 256.198 224.429 254.977 213.148L237.717 53.7161Z" fill="#155E6B"/>
</g>
<g filter="url(#filter4_d)">
<path d="M362.514 190.738C363.975 191.311 365.711 192.306 366.525 193.222L367.646 191.251C366.786 190.366 365.041 189.442 363.571 188.938L362.514 190.738ZM372.441 176.015L371.95 174.146L366.246 178.007L365.343 174.567L369.981 171.429L369.498 169.587L364.86 172.726L364.092 169.801L362.376 170.962L363.144 173.887L358.622 176.947L359.105 178.788L363.627 175.728L364.53 179.168L358.64 183.154L359.13 185.022L367.896 179.091L368.749 182.341L360.841 187.692L360.213 186.235L357.772 189.003L356.379 183.695L358.767 182.079L358.27 180.183L355.881 181.799L354.453 176.356L352.876 177.423L354.304 182.866L352.495 184.09C352.338 182.762 352.173 181.406 351.962 180.082L350.377 180.804C350.959 184.269 351.421 188.007 351.16 190.862C351.557 190.817 352.35 190.822 352.67 190.893C352.796 189.5 352.781 187.884 352.668 186.206L354.802 184.762L356.337 190.612C354.863 192.279 353.484 193.787 352.4 194.966L353.362 196.548L356.849 192.562L359.358 202.122L360.934 201.055L358.276 190.926L360.477 188.385L360.86 189.847L369.232 184.182L371.087 191.251C371.194 191.657 371.122 191.801 370.735 192.095C370.348 192.389 369.096 193.236 367.667 194.139C368.094 194.52 368.531 195.245 368.749 195.767C370.535 194.559 371.757 193.7 372.398 192.916C373.024 192.077 373.1 191.324 372.787 190.133L370.925 183.037L373.638 181.201L373.155 179.359L370.441 181.195L369.589 177.945L372.441 176.015ZM387.571 158.123C387.338 159.524 387.017 161.113 386.626 162.43L380.249 166.745C380.844 165.163 381.332 163.589 381.727 162.077L387.571 158.123ZM395.213 164.56L389.323 168.546L388.037 163.644L393.927 159.658L395.213 164.56ZM380.825 168.524L386.321 164.805L387.607 169.707L382.111 173.426L380.825 168.524ZM387.544 180.497C384.993 182.224 384.4 182.147 383.959 180.468L382.587 175.241L395.689 166.375L396.009 167.593L397.748 166.417L395.183 156.64L388.643 161.065C389.121 159.243 389.518 157.22 389.743 155.473L388.356 155.391L388.067 155.746L382.339 159.622C382.482 158.919 382.632 158.243 382.76 157.583L380.744 158.437C380.226 161.977 378.781 166.877 376.288 171.53C376.784 171.545 377.534 171.803 377.91 172.091C378.323 171.27 378.735 170.448 379.087 169.604L382.236 181.602C383.082 184.825 384.417 184.814 388.15 182.288L397.148 176.199C400.557 173.892 400.97 172.241 400.327 168.021C399.758 168.246 398.968 168.462 398.412 168.423C398.993 171.889 398.837 172.855 396.611 174.362L387.544 180.497Z" fill="white"/>
</g>
<g filter="url(#filter5_d)">
<path d="M364.609 95.5644L361.33 95.1891L362.015 93.5569L365.294 93.9323L364.609 95.5644ZM369.167 97.5068L368.052 100.162L364.774 99.7872L365.888 97.1315L369.167 97.5068ZM360.762 96.5446L364.04 96.9199L362.926 99.5756L359.647 99.2003L360.762 96.5446ZM355.754 95.9714L358.943 96.3365L357.829 98.9922L354.64 98.6271L355.754 95.9714ZM359.512 94.981L354.386 94.3941L352.146 99.7331L369.492 101.719L371.732 96.3799L366.457 95.776L367.142 94.1438L373.341 94.8535L374.003 93.2767L355.047 91.1066L354.385 92.6835L360.197 93.3488L359.512 94.981ZM351.334 108.367L363.525 109.762L362.84 111.395L350.649 109.999L351.334 108.367ZM352.53 105.518L364.72 106.913L364.059 108.49L351.868 107.094L352.53 105.518ZM353.714 102.696L365.904 104.091L365.254 105.641L353.064 104.245L353.714 102.696ZM364.44 112.94L368.607 103.009L352.214 101.133L348.047 111.064L364.44 112.94ZM353.304 89.6025C350.086 93.6989 345.967 97.6342 342.243 100.107C342.391 100.646 342.535 101.793 342.535 102.315C343.971 101.349 345.417 100.21 346.892 98.9287L340.392 114.42L342.508 114.663L350.552 95.4917C352.177 93.8513 353.718 92.1142 355.14 90.3635L353.304 89.6025ZM352.705 111.8C350.772 112.535 347.47 113.259 344.656 113.488C344.923 113.895 345.192 114.593 345.328 115.014C348.194 114.734 351.568 113.989 353.885 113.008L352.705 111.8ZM357.064 113.546C359.279 114.669 361.449 116.048 362.621 117.052L365.01 116.05C363.647 115.053 361.227 113.674 358.982 112.548L357.064 113.546ZM341.715 137.843C343.774 137.18 345.854 136.316 347.885 135.273C348.817 136.627 350.033 137.896 351.581 138.972L341.715 137.843ZM339.31 144.99L341.539 139.678L349.854 140.63L347.626 145.942L339.31 144.99ZM347.939 127.625L354.437 128.369C352.841 130.013 350.957 131.45 348.946 132.669C348.085 131.15 347.585 129.585 347.373 128.082L347.939 127.625ZM356.627 126.648L356.205 126.687L349.826 125.957C350.61 125.206 351.364 124.451 352.07 123.662L350.156 122.864C347.81 125.552 344.776 128.017 341.746 129.729L342.385 128.207L338.54 127.767L341.024 121.847L338.908 121.605L336.424 127.525L331.983 127.016L331.182 128.925L335.384 129.406C332.84 133.087 329.063 137.177 326.12 139.276C326.31 139.791 326.51 140.654 326.517 141.235C328.743 139.576 331.427 136.752 333.8 133.777L328.322 146.834L330.438 147.076L336.23 133.272C336.655 134.567 337.083 136.153 337.223 137.01L339.208 135.556C338.92 134.827 337.71 131.905 337.217 130.921L337.739 129.676L341.137 130.065C340.817 130.231 340.468 130.394 340.148 130.56C340.527 130.923 341.101 131.713 341.326 132.145C342.688 131.431 344.089 130.548 345.477 129.547C345.737 130.939 346.223 132.387 346.952 133.775C343.613 135.48 340.035 136.636 336.683 137.18C336.968 137.618 337.221 138.43 337.239 138.983C338.159 138.799 339.05 138.611 339.976 138.34L336.018 147.773L338.045 148.005L338.556 146.788L346.871 147.74L346.407 148.846L348.493 149.085L352.486 139.569C352.864 139.786 353.271 140.007 353.678 140.227C354.197 139.736 355.159 139.005 355.769 138.669C353.196 137.505 351.268 135.921 349.903 134.113C352.795 132.356 355.504 130.144 357.743 127.414L356.627 126.648Z" fill="white"/>
</g>
<g filter="url(#filter6_d)">
<path d="M277.609 73.1073L277.917 75.0025L271.756 73.837L272.189 76.5021L278.349 77.6676L278.715 79.9182L270.048 78.2787L270.51 81.1215L291.202 85.0363L290.741 82.1935L282.163 80.5707L281.798 78.3201L288.047 79.5023L287.615 76.8372L281.366 75.655L281.058 73.7597L288.192 75.1093L287.745 72.3553L280.611 71.0058L280.294 69.0513L276.846 68.3989L277.163 70.3533L273.92 69.7399C274.074 69.2811 274.194 68.7871 274.289 68.3171L271.104 66.9968C270.737 68.9655 269.796 70.7394 268.505 71.7579C269.314 72.3415 270.696 73.4641 271.372 74.1087C271.89 73.6039 272.384 72.9511 272.805 72.1983L277.609 73.1073ZM270.937 64.2098C272.614 64.1538 274.335 64.0202 275.929 63.805C277.568 64.5744 279.089 65.3214 280.429 66.0054L270.937 64.2098ZM278.265 60.9461C277.473 61.1693 276.562 61.3702 275.583 61.5008C274.077 60.8426 272.57 60.1844 271.132 59.5965L278.265 60.9461ZM288.594 67.5501L282.581 66.4125L283.853 65.4476C282.543 64.7692 280.958 63.9814 279.225 63.1657C280.406 62.8724 281.46 62.4977 282.332 62.0598L281.625 61.5818L286.401 62.4852L285.954 59.7312L275.637 57.7794L275.315 55.7954L271.807 55.1317L272.129 57.1158L262.313 55.2588L262.76 58.0128L268.302 59.0612L266.981 59.9021C268.478 60.5011 270.073 61.176 271.703 61.8861C269.859 61.9679 267.971 61.9552 266.246 61.8871C266.569 62.2926 267.048 62.9574 267.429 63.5462L263.745 62.8491L264.547 67.7944C265.08 71.0814 265.604 75.7156 263.784 78.5861C264.588 79.1401 266.22 80.5683 266.885 81.3257C269.021 78.1131 268.605 72.3798 267.971 68.4709L267.625 66.3388L289.055 70.393L288.594 67.5501ZM285.778 99.5005L275.461 97.5487L274.812 93.5509L285.129 95.5027L285.778 99.5005ZM288.148 92.8017L270.874 89.5338L272.614 100.254L289.887 103.521L288.148 92.8017ZM277.215 106.779L278.042 111.872L273.65 111.041L272.823 105.948L277.215 106.779ZM271.136 115.273L274.438 115.898L274.197 114.417L278.589 115.248L278.806 116.581L282.313 117.244L280.175 104.067L268.974 101.947L271.136 115.273ZM287.415 113.646L286.589 108.552L291.276 109.439L292.102 114.532L287.415 113.646ZM282.681 104.541L284.843 117.866L288.203 118.502L287.963 117.021L292.65 117.908L292.871 119.27L296.408 119.939L294.265 106.732L282.681 104.541ZM285.295 128.046C288.307 132.347 293.809 137.378 298.885 140.663C299.356 139.69 299.925 138.621 300.661 137.871C295.583 135.101 290.266 130.336 286.423 124.786L282.679 124.078C281.245 127.567 277.45 131.47 272.666 132.976C273.547 133.832 274.707 135.343 275.288 136.285C279.788 134.611 283.635 131.377 285.295 128.046ZM289.744 135.92L292.478 152.77L296.133 153.461L293.399 136.612L289.744 135.92ZM279.628 134.15L280.209 137.733C280.757 141.109 280.933 145.189 276.274 147.293C277.279 148.029 278.886 149.481 279.601 150.362C284.758 147.807 284.527 142.683 283.849 138.508L283.253 134.836L279.628 134.15ZM280.611 174.024C280.779 176.466 280.735 179.013 280.164 180.598C280.973 181.01 282.371 181.877 283.053 182.379C283.6 180.646 283.739 177.801 283.582 175.074L280.611 174.024ZM287.094 175.767C288.056 177.642 289.192 180.067 289.698 181.598L292.138 181.141C291.573 179.599 290.456 177.293 289.445 175.465L287.094 175.767ZM285.289 168.335C285.748 169.054 286.222 169.861 286.666 170.663L283.856 170.246C285.323 168.198 286.872 165.592 288.075 163.323L285 161.449C284.557 162.772 283.888 164.281 283.155 165.75C282.802 165.339 282.411 164.863 281.96 164.376C282.752 162.918 283.562 160.861 284.296 159.048L281.077 157.349C280.831 158.823 280.323 160.622 279.761 162.094C279.492 161.842 279.223 161.591 278.987 161.374L277.696 163.455C279.097 164.868 280.767 166.705 281.828 168.14C281.467 168.732 281.101 169.294 280.75 169.773L278.642 169.46L279.432 172.566L283.663 173.108L285.594 185.013L288.63 185.587L286.665 173.475L288.149 173.641C288.418 174.238 288.617 174.763 288.778 175.224L291.071 174.567C290.473 172.818 288.906 170.024 287.459 167.799L285.289 168.335ZM302.51 179.028L303.326 184.062L296.488 182.768L295.671 177.734L302.51 179.028ZM293.981 186.513L297.194 187.121L296.992 185.877L303.831 187.171L304.013 188.296L307.403 188.938L305.395 176.559L291.953 174.017L293.981 186.513ZM288.697 160.111L289.221 163.338L293.2 164.091C293.239 166.969 292.551 169.25 289.156 170.158C289.989 170.889 291.134 172.312 291.647 173.184C295.835 171.881 296.727 168.748 296.649 164.744L300.953 165.558C301.382 169.084 301.445 170.531 301.164 170.908C300.966 171.1 300.681 171.104 300.268 171.026C299.708 170.92 298.529 170.697 297.272 170.344C297.976 171.338 298.576 172.743 298.803 173.791C300.222 174.088 301.608 174.35 302.384 174.383C303.279 174.437 303.884 174.293 304.378 173.64C304.966 172.862 304.76 170.354 303.937 164.228C303.899 163.819 303.76 162.96 303.76 162.96L288.697 160.111Z" fill="white"/>
</g>
<g filter="url(#filter7_d)">
<rect width="101.52" height="152.164" rx="10" transform="matrix(0.893312 -0.449437 0.467051 0.884231 48.334 198.807)" fill="white"/>
</g>
<path d="M205.663 321.732L191.645 286.448L171.663 299.232L205.663 321.732Z" fill="white" stroke="white"/>
<g filter="url(#filter8_d)">
<path d="M49.5821 201.161C47.0024 196.278 48.9168 190.303 53.8502 187.821C81.0251 174.147 99.453 164.875 126.631 151.199C131.558 148.72 137.647 150.654 140.233 155.526L194.546 257.877C195.24 259.184 195.641 260.625 195.525 262.087C194.94 269.512 190.207 292.679 153.703 287.264C151.083 286.875 148.653 286.699 146.4 286.71C134.957 286.766 95.2853 287.675 89.9825 277.637L49.5821 201.161Z" fill="#155E6B"/>
</g>
<g filter="url(#filter9_d)">
<path d="M103.091 189.16L90.4074 190.125L90.2589 188.904L102.942 187.939L103.091 189.16ZM103.503 192.555L90.8201 193.52L90.6681 192.27L103.351 191.304L103.503 192.555ZM106.227 185.404L86.5736 186.901L87.6852 196.043L107.338 194.547L106.227 185.404ZM106.571 202.39C106.163 203.503 105.594 204.538 104.892 205.463C103.979 204.661 103.172 203.731 102.533 202.698L106.571 202.39ZM91.1478 207.141L95.0366 206.845L95.1778 208.006C93.8761 208.226 92.5708 208.415 91.3253 208.6L91.1478 207.141ZM90.6989 203.448L94.5876 203.152L94.7397 204.403L90.8509 204.699L90.6989 203.448ZM94.1422 199.489L94.2871 200.68L90.3983 200.976L90.2535 199.785L94.1422 199.489ZM108.321 199.401L107.737 199.566L98.4342 200.274L98.7637 202.984L101.516 202.775L99.6066 203.461C100.524 205.045 101.632 206.463 102.865 207.662C101.72 208.68 100.342 209.507 98.8776 210.129L97.5524 199.229L111.253 198.186L110.912 195.387L84.3193 197.412L84.6597 200.211L86.9929 200.033L88.0937 209.087C87.1772 209.247 86.2834 209.345 85.5129 209.464L86.1515 212.481C88.7549 212.042 92.1288 211.485 95.529 210.895L95.8223 213.307L99.2325 213.048L98.9392 210.635C99.6243 211.305 100.402 212.237 100.814 212.897C102.586 212.071 104.178 211.018 105.563 209.74C107.297 210.841 109.264 211.623 111.463 212.086C111.841 211.216 112.612 209.865 113.221 209.157C111.188 208.831 109.303 208.223 107.688 207.355C109.135 205.351 110.139 202.93 110.606 200.069L108.321 199.401ZM125.427 188.872C125.31 189.903 124.998 191.309 124.718 192.232L126.743 192.499L120.88 192.945L122.325 192.414C122.097 191.53 121.541 190.19 120.91 189.216L125.427 188.872ZM126.483 200.784L131.418 200.408L131.056 197.43L126.12 197.806L125.842 195.513L131.047 195.117L130.692 192.198L127.67 192.428C127.981 191.503 128.314 190.275 128.697 188.954L126.922 188.758L130.003 188.523L129.652 185.635L124.687 186.013L124.357 183.303L120.917 183.565L121.247 186.275L116.221 186.657L116.572 189.546L119.923 189.291L118.149 189.847C118.69 190.827 119.205 192.081 119.444 193.054L116.692 193.264L117.047 196.182L122.402 195.775L122.68 198.068L117.416 198.469L117.778 201.447L122.325 201.101C121.22 203.439 119.428 205.83 117.639 207.258C118.456 207.767 119.614 208.851 120.246 209.584C121.406 208.444 122.571 206.853 123.535 205.096L124.263 211.082L127.703 210.82L126.932 204.477C127.9 205.245 128.847 206.074 129.398 206.633L131.154 203.945C130.401 203.461 127.679 201.685 126.512 201.022L126.483 200.784ZM144.305 191.432L134.972 192.143L134.465 187.973C137.526 187.079 140.824 185.896 143.315 184.534L140.159 182.16C138.453 183.282 135.608 184.46 132.849 185.361L130.717 184.953L131.969 195.257C132.469 199.366 132.726 204.456 129.727 208.352C130.586 208.707 132.02 209.83 132.563 210.57C136.016 206.19 135.88 199.858 135.37 195.419L138.422 195.186L140.192 209.749L143.632 209.487L141.862 194.924L144.703 194.708L144.305 191.432ZM111.321 224.821C110.94 226.654 110.093 229.123 109.38 230.71L112.599 231.607C113.356 230.136 114.236 227.936 114.94 225.778L111.321 224.821ZM94.3802 253.342C95.6298 250.211 96.8586 246.661 97.8472 243.37L94.9541 241.426C93.7625 245.033 92.1846 248.941 90.9641 251.318L94.3802 253.342ZM95.9438 236.902C94.6133 235.892 92.0165 234.647 90.0569 233.924L88.3568 236.578C90.3609 237.418 92.9123 238.786 94.1567 239.834L95.9438 236.902ZM88.7769 228.611C90.7211 229.455 93.2427 230.826 94.4272 231.878L96.3077 228.97C95.0035 227.927 92.4964 226.675 90.5404 225.982L88.7769 228.611ZM103.114 231.067C102.477 229.552 100.926 227.476 99.5307 225.929L96.6986 227.467C98.0753 229.106 99.5243 231.34 100.061 232.772L103.114 231.067ZM103.164 243.897L102.893 241.663L111.957 240.973L112.228 243.207L103.164 243.897ZM111.33 235.821L111.595 237.995L102.531 238.685L102.266 236.511L111.33 235.821ZM114.398 232.251L108.296 232.716L107.289 224.437L103.7 224.71L104.706 232.989L98.3646 233.472L100.733 252.949L104.233 252.682L103.526 246.875L112.59 246.185L112.829 248.15C112.876 248.537 112.745 248.698 112.3 248.762C111.821 248.798 110.266 248.917 108.879 248.932C109.47 249.819 110.126 251.242 110.361 252.185C112.605 252.015 114.216 251.862 115.254 251.212C116.326 250.589 116.513 249.643 116.303 247.916L114.398 232.251ZM129.661 235.868L141.746 234.948L141.931 236.467L129.846 237.387L129.661 235.868ZM129.169 231.818L141.254 230.898L141.439 232.417L129.354 233.337L129.169 231.818ZM128.684 227.827L140.769 226.907L140.946 228.367L128.861 229.287L128.684 227.827ZM133.191 241.31C134.932 242.47 136.892 244.184 137.795 245.408L140.346 243.29C139.416 242.099 137.579 240.646 135.945 239.628L145.847 238.874L144.029 223.924L135.683 224.559C135.936 223.909 136.242 223.194 136.51 222.423L132.141 222.244C132.112 222.998 131.959 223.971 131.794 224.855L124.914 225.379L126.732 240.329L135.257 239.68L133.191 241.31ZM126.043 250.06C127.624 248.166 128.379 245.434 128.83 242.935L125.522 242.044C125.161 244.296 124.244 246.68 122.802 248.233L126.043 250.06ZM135.793 247.063C134.357 247.173 134.137 247.099 134.032 246.236L133.514 241.977L129.984 242.246L130.509 246.564C130.882 249.631 131.929 250.543 135.818 250.247L140.664 249.878C143.565 249.658 144.444 248.689 144.405 245.145C143.453 245.007 141.892 244.585 141.112 244.134C141.231 246.349 141.057 246.662 139.951 246.747L135.793 247.063ZM142.656 242.183C144.959 243.991 147.416 246.569 148.486 248.411L151.294 246.184C150.154 244.257 147.596 241.837 145.277 240.15L142.656 242.183Z" fill="white"/>
</g>
<circle cx="282" cy="365.448" r="7.5" stroke="white"/>
<g filter="url(#filter10_d)">
<path d="M314 367.948L283 363.533L308 344.948L308 354.448L322.5 350.948L324 356.448L309.5 358.948L314 367.948Z" fill="white"/>
<path d="M314 367.948L283 363.533L308 344.948L308 354.448L322.5 350.948L324 356.448L309.5 358.948L314 367.948Z" stroke="black"/>
</g>
<g filter="url(#filter11_d)">
<path d="M63.4489 567.821C58.7828 564.866 58.6342 559.856 63.1169 556.63L137.238 503.289C141.721 500.063 149.138 499.843 153.804 502.797L260.438 570.318C265.104 573.273 265.253 578.283 260.77 581.509L186.649 634.85C182.166 638.076 174.749 638.296 170.083 635.342L63.4489 567.821Z" fill="url(#paint0_linear)"/>
</g>
<g filter="url(#filter12_d)">
<path d="M178.449 483.821C173.783 480.866 173.634 475.856 178.117 472.63L252.238 419.289C256.721 416.063 264.138 415.843 268.804 418.797L375.438 486.318C380.104 489.273 380.253 494.283 375.77 497.509L301.649 550.85C297.166 554.076 289.749 554.296 285.083 551.342L178.449 483.821Z" fill="url(#paint1_linear)"/>
</g>
<g filter="url(#filter13_d)">
<path d="M290.449 403.821C285.783 400.866 285.634 395.856 290.117 392.63L364.238 339.289C368.721 336.063 376.138 335.843 380.804 338.797L487.438 406.318C492.104 409.273 492.253 414.283 487.77 417.509L413.649 470.85C409.166 474.076 401.749 474.296 397.083 471.342L290.449 403.821Z" fill="url(#paint2_linear)"/>
</g>
<defs>
<filter id="filter0_d" x="28.916" y="217.634" width="563.815" height="409.772" filterUnits="userSpaceOnUse" color-interpolation-filters="sRGB">
<feFlood flood-opacity="0" result="BackgroundImageFix"/>
<feColorMatrix in="SourceAlpha" type="matrix" values="0 0 0 0 0 0 0 0 0 0 0 0 0 0 0 0 0 0 127 0"/>
<feOffset dy="10"/>
<feGaussianBlur stdDeviation="2"/>
<feColorMatrix type="matrix" values="0 0 0 0 0 0 0 0 0 0 0 0 0 0 0 0 0 0 0.25 0"/>
<feBlend mode="normal" in2="BackgroundImageFix" result="effect1_dropShadow"/>
<feBlend mode="normal" in="SourceGraphic" in2="effect1_dropShadow" result="shape"/>
</filter>
<filter id="filter1_d" x="129.305" y="354.52" width="156.546" height="119.159" filterUnits="userSpaceOnUse" color-interpolation-filters="sRGB">
<feFlood flood-opacity="0" result="BackgroundImageFix"/>
<feColorMatrix in="SourceAlpha" type="matrix" values="0 0 0 0 0 0 0 0 0 0 0 0 0 0 0 0 0 0 127 0"/>
<feOffset dy="10"/>
<feGaussianBlur stdDeviation="2"/>
<feColorMatrix type="matrix" values="0 0 0 0 0 0 0 0 0 0 0 0 0 0 0 0 0 0 0.25 0"/>
<feBlend mode="normal" in2="BackgroundImageFix" result="effect1_dropShadow"/>
<feBlend mode="normal" in="SourceGraphic" in2="effect1_dropShadow" result="shape"/>
</filter>
<filter id="filter2_d" x="233.855" y="31.8953" width="179.573" height="251.537" filterUnits="userSpaceOnUse" color-interpolation-filters="sRGB">
<feFlood flood-opacity="0" result="BackgroundImageFix"/>
<feColorMatrix in="SourceAlpha" type="matrix" values="0 0 0 0 0 0 0 0 0 0 0 0 0 0 0 0 0 0 127 0"/>
<feOffset dy="4"/>
<feGaussianBlur stdDeviation="2"/>
<feColorMatrix type="matrix" values="0 0 0 0 0 0 0 0 0 0 0 0 0 0 0 0 0 0 0.25 0"/>
<feBlend mode="normal" in2="BackgroundImageFix" result="effect1_dropShadow"/>
<feBlend mode="normal" in="SourceGraphic" in2="effect1_dropShadow" result="shape"/>
</filter>
<filter id="filter3_d" x="233.658" y="31.498" width="175.958" height="225.647" filterUnits="userSpaceOnUse" color-interpolation-filters="sRGB">
<feFlood flood-opacity="0" result="BackgroundImageFix"/>
<feColorMatrix in="SourceAlpha" type="matrix" values="0 0 0 0 0 0 0 0 0 0 0 0 0 0 0 0 0 0 127 0"/>
<feOffset dy="10"/>
<feGaussianBlur stdDeviation="2"/>
<feColorMatrix type="matrix" values="0 0 0 0 0 0 0 0 0 0 0 0 0 0 0 0 0 0 0.25 0"/>
<feBlend mode="normal" in2="BackgroundImageFix" result="effect1_dropShadow"/>
<feBlend mode="normal" in="SourceGraphic" in2="effect1_dropShadow" result="shape"/>
</filter>
<filter id="filter4_d" x="346.377" y="155.391" width="58.2041" height="60.7312" filterUnits="userSpaceOnUse" color-interpolation-filters="sRGB">
<feFlood flood-opacity="0" result="BackgroundImageFix"/>
<feColorMatrix in="SourceAlpha" type="matrix" values="0 0 0 0 0 0 0 0 0 0 0 0 0 0 0 0 0 0 127 0"/>
<feOffset dy="10"/>
<feGaussianBlur stdDeviation="2"/>
<feColorMatrix type="matrix" values="0 0 0 0 0 0 0 0 0 0 0 0 0 0 0 0 0 0 0.25 0"/>
<feBlend mode="normal" in2="BackgroundImageFix" result="effect1_dropShadow"/>
<feBlend mode="normal" in="SourceGraphic" in2="effect1_dropShadow" result="shape"/>
</filter>
<filter id="filter5_d" x="322.12" y="89.6025" width="55.8825" height="73.4827" filterUnits="userSpaceOnUse" color-interpolation-filters="sRGB">
<feFlood flood-opacity="0" result="BackgroundImageFix"/>
<feColorMatrix in="SourceAlpha" type="matrix" values="0 0 0 0 0 0 0 0 0 0 0 0 0 0 0 0 0 0 127 0"/>
<feOffset dy="10"/>
<feGaussianBlur stdDeviation="2"/>
<feColorMatrix type="matrix" values="0 0 0 0 0 0 0 0 0 0 0 0 0 0 0 0 0 0 0.25 0"/>
<feBlend mode="normal" in2="BackgroundImageFix" result="effect1_dropShadow"/>
<feBlend mode="normal" in="SourceGraphic" in2="effect1_dropShadow" result="shape"/>
</filter>
<filter id="filter6_d" x="258.313" y="55.1318" width="53.0901" height="147.806" filterUnits="userSpaceOnUse" color-interpolation-filters="sRGB">
<feFlood flood-opacity="0" result="BackgroundImageFix"/>
<feColorMatrix in="SourceAlpha" type="matrix" values="0 0 0 0 0 0 0 0 0 0 0 0 0 0 0 0 0 0 127 0"/>
<feOffset dy="10"/>
<feGaussianBlur stdDeviation="2"/>
<feColorMatrix type="matrix" values="0 0 0 0 0 0 0 0 0 0 0 0 0 0 0 0 0 0 0.25 0"/>
<feBlend mode="normal" in2="BackgroundImageFix" result="effect1_dropShadow"/>
<feBlend mode="normal" in="SourceGraphic" in2="effect1_dropShadow" result="shape"/>
</filter>
<filter id="filter7_d" x="47.8555" y="156.596" width="162.715" height="181.344" filterUnits="userSpaceOnUse" color-interpolation-filters="sRGB">
<feFlood flood-opacity="0" result="BackgroundImageFix"/>
<feColorMatrix in="SourceAlpha" type="matrix" values="0 0 0 0 0 0 0 0 0 0 0 0 0 0 0 0 0 0 127 0"/>
<feOffset dy="4"/>
<feGaussianBlur stdDeviation="2"/>
<feColorMatrix type="matrix" values="0 0 0 0 0 0 0 0 0 0 0 0 0 0 0 0 0 0 0.25 0"/>
<feBlend mode="normal" in2="BackgroundImageFix" result="effect1_dropShadow"/>
<feBlend mode="normal" in="SourceGraphic" in2="effect1_dropShadow" result="shape"/>
</filter>
<filter id="filter8_d" x="44.4336" y="150.119" width="155.111" height="151.956" filterUnits="userSpaceOnUse" color-interpolation-filters="sRGB">
<feFlood flood-opacity="0" result="BackgroundImageFix"/>
<feColorMatrix in="SourceAlpha" type="matrix" values="0 0 0 0 0 0 0 0 0 0 0 0 0 0 0 0 0 0 127 0"/>
<feOffset dy="10"/>
<feGaussianBlur stdDeviation="2"/>
<feColorMatrix type="matrix" values="0 0 0 0 0 0 0 0 0 0 0 0 0 0 0 0 0 0 0.25 0"/>
<feBlend mode="normal" in2="BackgroundImageFix" result="effect1_dropShadow"/>
<feBlend mode="normal" in="SourceGraphic" in2="effect1_dropShadow" result="shape"/>
</filter>
<filter id="filter9_d" x="80.3193" y="182.16" width="74.9748" height="85.1822" filterUnits="userSpaceOnUse" color-interpolation-filters="sRGB">
<feFlood flood-opacity="0" result="BackgroundImageFix"/>
<feColorMatrix in="SourceAlpha" type="matrix" values="0 0 0 0 0 0 0 0 0 0 0 0 0 0 0 0 0 0 127 0"/>
<feOffset dy="10"/>
<feGaussianBlur stdDeviation="2"/>
<feColorMatrix type="matrix" values="0 0 0 0 0 0 0 0 0 0 0 0 0 0 0 0 0 0 0.25 0"/>
<feBlend mode="normal" in2="BackgroundImageFix" result="effect1_dropShadow"/>
<feBlend mode="normal" in="SourceGraphic" in2="effect1_dropShadow" result="shape"/>
</filter>
<filter id="filter10_d" x="277.727" y="343.953" width="50.9006" height="32.6242" filterUnits="userSpaceOnUse" color-interpolation-filters="sRGB">
<feFlood flood-opacity="0" result="BackgroundImageFix"/>
<feColorMatrix in="SourceAlpha" type="matrix" values="0 0 0 0 0 0 0 0 0 0 0 0 0 0 0 0 0 0 127 0"/>
<feOffset dy="4"/>
<feGaussianBlur stdDeviation="2"/>
<feColorMatrix type="matrix" values="0 0 0 0 0 0 0 0 0 0 0 0 0 0 0 0 0 0 0.25 0"/>
<feBlend mode="normal" in2="BackgroundImageFix" result="effect1_dropShadow"/>
<feBlend mode="normal" in="SourceGraphic" in2="effect1_dropShadow" result="shape"/>
</filter>
<filter id="filter11_d" x="55.8496" y="500.718" width="212.188" height="144.704" filterUnits="userSpaceOnUse" color-interpolation-filters="sRGB">
<feFlood flood-opacity="0" result="BackgroundImageFix"/>
<feColorMatrix in="SourceAlpha" type="matrix" values="0 0 0 0 0 0 0 0 0 0 0 0 0 0 0 0 0 0 127 0"/>
<feOffset dy="4"/>
<feGaussianBlur stdDeviation="2"/>
<feColorMatrix type="matrix" values="0 0 0 0 0 0 0 0 0 0 0 0 0 0 0 0 0 0 0.25 0"/>
<feBlend mode="normal" in2="BackgroundImageFix" result="effect1_dropShadow"/>
<feBlend mode="normal" in="SourceGraphic" in2="effect1_dropShadow" result="shape"/>
</filter>
<filter id="filter12_d" x="170.85" y="416.718" width="212.188" height="144.704" filterUnits="userSpaceOnUse" color-interpolation-filters="sRGB">
<feFlood flood-opacity="0" result="BackgroundImageFix"/>
<feColorMatrix in="SourceAlpha" type="matrix" values="0 0 0 0 0 0 0 0 0 0 0 0 0 0 0 0 0 0 127 0"/>
<feOffset dy="4"/>
<feGaussianBlur stdDeviation="2"/>
<feColorMatrix type="matrix" values="0 0 0 0 0 0 0 0 0 0 0 0 0 0 0 0 0 0 0.25 0"/>
<feBlend mode="normal" in2="BackgroundImageFix" result="effect1_dropShadow"/>
<feBlend mode="normal" in="SourceGraphic" in2="effect1_dropShadow" result="shape"/>
</filter>
<filter id="filter13_d" x="282.85" y="336.718" width="212.188" height="144.704" filterUnits="userSpaceOnUse" color-interpolation-filters="sRGB">
<feFlood flood-opacity="0" result="BackgroundImageFix"/>
<feColorMatrix in="SourceAlpha" type="matrix" values="0 0 0 0 0 0 0 0 0 0 0 0 0 0 0 0 0 0 127 0"/>
<feOffset dy="4"/>
<feGaussianBlur stdDeviation="2"/>
<feColorMatrix type="matrix" values="0 0 0 0 0 0 0 0 0 0 0 0 0 0 0 0 0 0 0.25 0"/>
<feBlend mode="normal" in2="BackgroundImageFix" result="effect1_dropShadow"/>
<feBlend mode="normal" in="SourceGraphic" in2="effect1_dropShadow" result="shape"/>
</filter>
<linearGradient id="paint0_linear" x1="186.004" y1="468.195" x2="265.236" y2="578.295" gradientUnits="userSpaceOnUse">
<stop offset="0.229167" stop-color="#7FDFBD"/>
<stop offset="1" stop-color="#20B47F" stop-opacity="0"/>
</linearGradient>
<linearGradient id="paint1_linear" x1="301.004" y1="384.195" x2="380.236" y2="494.295" gradientUnits="userSpaceOnUse">
<stop offset="0.229167" stop-color="#7FDFBD"/>
<stop offset="1" stop-color="#20B47F" stop-opacity="0"/>
</linearGradient>
<linearGradient id="paint2_linear" x1="413.004" y1="304.195" x2="492.236" y2="414.295" gradientUnits="userSpaceOnUse">
<stop offset="0.229167" stop-color="#7FDFBD"/>
<stop offset="1" stop-color="#20B47F" stop-opacity="0"/>
</linearGradient>
</defs>
</svg>
