<svg width="595" height="647" viewBox="0 0 595 647" fill="none" xmlns="http://www.w3.org/2000/svg">
<g filter="url(#filter0_d)">
<path d="M304 185.976L192.48 112.12C185.396 107.428 194.041 95.1027 204.417 95.1027L493.143 95.1028C497.428 95.1028 500.285 97.5175 500.285 101.139L500.285 285.586C500.285 293.521 487.913 300.755 481.349 296.658L304 185.976Z" fill="#8348FF"/>
</g>
<g filter="url(#filter1_d)">
<path d="M173.927 296.103C169.642 296.103 166.785 293.688 166.785 290.067L166.785 107.324C166.785 101.375 174.206 95.1027 181.245 95.1027L493.143 95.1029C497.428 95.1029 500.285 97.5175 500.285 101.139L500.285 283.881C500.285 289.83 492.864 296.103 485.825 296.103L173.927 296.103Z" fill="url(#paint0_linear)"/>
</g>
<g filter="url(#filter2_d)">
<path d="M333.283 140.752L333.28 141.922L322.81 141.893L322.813 140.723L333.283 140.752ZM322.8 145.463L322.804 144.263L333.274 144.292L333.27 145.492L322.8 145.463ZM319.282 148.603L322.792 148.613L322.794 147.803L333.264 147.832L333.262 148.552L336.922 148.562L336.95 138.422L319.31 138.373L319.282 148.603ZM318.405 129.251C319.937 128.595 321.439 127.849 322.821 127.043L322.818 128.183L333.348 128.212L333.35 127.192C334.758 127.976 336.256 128.7 337.695 129.304L318.405 129.251ZM335.398 135.267L332.848 135.26C333.331 134.422 333.904 133.253 334.507 132.055L332.169 131.478L335.409 131.487L335.398 135.267ZM320.638 135.227L320.649 131.447L324.009 131.456L321.697 132.11C322.174 133.071 322.561 134.302 322.708 135.233L320.638 135.227ZM326.458 135.243L323.428 135.235L325.35 134.67C325.172 133.769 324.696 132.478 324.159 131.456L326.469 131.463L326.458 135.243ZM331.539 131.477C331.266 132.466 330.752 133.845 330.33 134.773L332.098 135.258L329.338 135.251L329.349 131.471L331.539 131.477ZM324.714 125.878C325.976 125.041 327.059 124.204 327.901 123.367C328.799 124.209 329.936 125.082 331.224 125.896L324.714 125.878ZM326.109 120.602C323.641 123.265 318.714 126.072 313.82 127.498C314.478 128.22 315.254 129.512 315.672 130.293C316.333 130.055 317.023 129.817 317.684 129.549L317.662 137.409L338.512 137.466L338.534 129.636C339.103 129.878 339.703 130.089 340.242 130.271C340.785 129.372 341.538 128.114 342.29 127.306C337.673 126.154 332.85 123.77 329.469 120.611L326.109 120.602ZM367.193 126.385L355.073 126.351L355.078 124.401L367.198 124.435L367.193 126.385ZM371.016 121.655L351.486 121.601L351.465 129.101L370.995 129.155L371.016 121.655ZM353.626 139.757L368.326 139.798L368.322 141.118L353.622 141.077L353.626 139.757ZM353.636 136.217L368.336 136.258L368.332 137.518L353.632 137.477L353.636 136.217ZM353.646 132.647L368.346 132.688L368.342 133.978L353.642 133.937L353.646 132.647ZM372.006 143.528L372.042 130.268L350.112 130.208L350.076 143.468L354.786 143.481C352.743 144.495 349.65 145.567 347.039 146.129C347.847 146.822 349.074 147.935 349.732 148.687C352.764 147.945 356.608 146.516 359.041 145.112L356.736 143.486L364.926 143.508L362.401 145.302C365.578 146.24 369.714 147.722 372.021 148.808L375.178 146.297C373.111 145.451 369.963 144.362 367.146 143.515L372.006 143.528ZM386.474 140.688C384.908 142.603 382.293 144.636 379.859 145.889C380.758 146.462 382.314 147.666 383.063 148.358C385.407 146.865 388.293 144.413 390.16 142.048L386.474 140.688ZM408.168 139.187C406.703 137.143 403.592 134.165 401.167 132.148L398.222 134C398.91 134.602 399.658 135.294 400.407 136.016C397.646 136.098 394.886 136.151 392.246 136.173C395.493 133.722 398.981 130.762 401.779 127.89L398.364 126.02C396.588 128.055 394.182 130.359 391.716 132.452C391.058 131.88 390.249 131.278 389.411 130.676C391.005 129.24 392.78 127.415 394.285 125.649L394.195 125.589C398.366 125.27 402.417 124.801 405.779 124.091L403.268 121.084C397.925 122.149 389.133 122.755 381.422 122.884C381.78 123.725 382.196 125.166 382.284 126.096C384.534 126.072 386.934 126.019 389.334 125.905C388.521 126.923 387.559 127.941 386.686 128.838C386.147 128.507 385.668 128.205 385.189 127.934L382.722 130.207C384.759 131.473 387.184 133.28 388.83 134.784C388.138 135.322 387.447 135.83 386.786 136.278C384.476 136.302 382.346 136.326 380.516 136.351L380.806 139.922C383.926 139.841 387.856 139.761 392.057 139.623L392.031 148.803L395.841 148.813L395.867 139.513C398.357 139.43 400.877 139.317 403.398 139.234C404.026 139.986 404.594 140.707 404.982 141.338L408.168 139.187ZM397.598 142.578C399.994 144.265 403.077 146.733 404.453 148.357L407.669 146.086C406.113 144.432 402.94 142.083 400.574 140.546L397.598 142.578ZM424.679 135.182C428.07 134.922 432.751 134.545 437.222 134.197C437.669 134.978 438.028 135.699 438.296 136.33L441.24 134.748C440.435 132.826 438.433 129.97 436.759 127.896L434.025 129.358C434.473 129.959 434.922 130.591 435.37 131.252C433.689 131.367 432.009 131.483 430.389 131.598C430.992 130.34 431.656 128.902 432.26 127.553L440.66 127.576L440.669 124.396L433.979 124.378L433.988 120.898L430.358 120.888L430.349 124.368L424.229 124.351L424.22 127.531L428.27 127.542C427.876 128.951 427.302 130.51 426.758 131.828C425.918 131.886 425.108 131.914 424.388 131.942L424.679 135.182ZM414.17 138.394C413.923 140.913 413.436 143.582 412.561 145.349C413.34 145.621 414.658 146.255 415.287 146.647C416.163 144.729 416.801 141.731 417.109 138.912L414.17 138.394ZM422.155 136.526C422.334 137.096 422.452 137.606 422.541 138.057L425.064 136.924C424.739 135.213 423.576 132.599 422.442 130.556L420.069 131.54C420.427 132.201 420.785 132.952 421.113 133.703L418.233 133.815C420.129 131.39 422.208 128.366 423.865 125.76L420.958 124.402C420.264 125.87 419.3 127.578 418.275 129.255C417.976 128.894 417.647 128.473 417.258 128.052C418.343 126.375 419.549 124.068 420.635 122.031L417.548 120.883C417.034 122.471 416.188 124.449 415.344 126.097C415.104 125.886 414.865 125.675 414.655 125.495L412.939 127.92C414.165 129.124 415.601 130.718 416.468 132.01C415.986 132.699 415.504 133.357 415.052 133.926L412.892 134.01L413.184 137.101L417.534 136.843L417.501 148.903L420.591 148.911L420.625 136.641L422.155 136.526ZM425.046 143.583C424.72 142.083 423.946 139.89 423.201 138.178L420.679 138.951C421.364 140.723 422.137 143.035 422.403 144.536L425.046 143.583ZM427.527 136C427.332 141.22 426.934 144.429 422.398 146.306C423.117 146.908 424.013 148.141 424.401 148.952C429.838 146.597 430.659 142.369 430.917 136.01L427.527 136ZM436.83 145.596C436.41 145.595 436.351 145.505 436.353 144.635L436.377 135.995L433.017 135.985L432.993 144.655C432.985 147.685 433.582 148.707 436.192 148.714L438.172 148.72C440.332 148.725 441.145 147.588 441.427 143.238C440.527 142.996 439.119 142.452 438.461 141.88C438.392 145.12 438.3 145.6 437.82 145.599L436.83 145.596Z" fill="white"/>
</g>
<g filter="url(#filter3_i)">
<rect x="184" y="109.976" width="99" height="103" rx="10" fill="#DDDDDD"/>
</g>
<g filter="url(#filter4_d)">
<path d="M233.5 157.326C229.643 157.326 225.873 156.231 222.666 154.179C219.46 152.127 216.96 149.21 215.484 145.798C214.008 142.385 213.622 138.63 214.375 135.008C215.127 131.385 216.984 128.058 219.711 125.446C222.439 122.834 225.913 121.055 229.696 120.335C233.478 119.614 237.399 119.984 240.962 121.398C244.525 122.811 247.571 125.205 249.714 128.276C251.856 131.347 253 134.958 253 138.651C252.994 143.602 250.938 148.349 247.282 151.85C243.627 155.351 238.67 157.321 233.5 157.326ZM233.5 128.276C231.357 128.276 229.263 128.885 227.481 130.025C225.7 131.165 224.311 132.785 223.491 134.681C222.671 136.577 222.457 138.663 222.875 140.675C223.293 142.688 224.325 144.536 225.84 145.987C227.355 147.438 229.285 148.426 231.387 148.827C233.488 149.227 235.666 149.022 237.646 148.236C239.625 147.451 241.317 146.121 242.508 144.415C243.698 142.709 244.333 140.703 244.333 138.651C244.333 135.899 243.192 133.261 241.16 131.315C239.129 129.369 236.373 128.276 233.5 128.276ZM266 198.826V196.751C266 188.496 262.576 180.579 256.481 174.742C250.386 168.905 242.12 165.626 233.5 165.626C224.88 165.626 216.614 168.905 210.519 174.742C204.424 180.579 201 188.496 201 196.751V198.826C201 199.927 201.457 200.982 202.269 201.761C203.082 202.539 204.184 202.976 205.333 202.976C206.483 202.976 207.585 202.539 208.397 201.761C209.21 200.982 209.667 199.927 209.667 198.826V196.751C209.667 190.698 212.178 184.892 216.647 180.611C221.117 176.331 227.179 173.926 233.5 173.926C239.821 173.926 245.883 176.331 250.353 180.611C254.822 184.892 257.333 190.698 257.333 196.751V198.826C257.333 199.927 257.79 200.982 258.603 201.761C259.415 202.539 260.517 202.976 261.667 202.976C262.816 202.976 263.918 202.539 264.731 201.761C265.543 200.982 266 199.927 266 198.826Z" fill="white"/>
</g>
<path d="M338.88 270.556L334.34 263.476H337.02C337.087 263.583 337.2 263.763 337.36 264.016C337.52 264.269 337.7 264.563 337.9 264.896C338.1 265.216 338.313 265.563 338.54 265.936C338.767 266.296 338.98 266.643 339.18 266.976C339.38 267.296 339.553 267.583 339.7 267.836C339.86 268.089 339.973 268.269 340.04 268.376C340.053 268.403 340.1 268.496 340.18 268.656C340.26 268.803 340.32 268.936 340.36 269.056C340.4 268.936 340.46 268.803 340.54 268.656C340.62 268.496 340.667 268.403 340.68 268.376C340.747 268.269 340.853 268.089 341 267.836C341.16 267.583 341.333 267.296 341.52 266.976C341.72 266.643 341.927 266.296 342.14 265.936C342.353 265.563 342.553 265.216 342.74 264.896C342.94 264.563 343.113 264.269 343.26 264.016C343.42 263.763 343.533 263.583 343.6 263.476H346.28C346.2 263.596 346.047 263.843 345.82 264.216C345.593 264.576 345.32 265.003 345 265.496C344.693 265.989 344.367 266.516 344.02 267.076C343.673 267.636 343.34 268.163 343.02 268.656C342.713 269.149 342.44 269.583 342.2 269.956C341.973 270.316 341.827 270.556 341.76 270.676L346.48 277.976H343.76L340.8 273.216C340.773 273.176 340.733 273.116 340.68 273.036C340.627 272.956 340.573 272.869 340.52 272.776C340.467 272.669 340.413 272.569 340.36 272.476C340.307 272.383 340.267 272.309 340.24 272.256C340.2 272.376 340.147 272.503 340.08 272.636C340.013 272.769 339.973 272.843 339.96 272.856C339.853 273.029 339.647 273.363 339.34 273.856C339.047 274.336 338.733 274.856 338.4 275.416C338.08 275.976 337.767 276.503 337.46 276.996C337.167 277.476 336.967 277.803 336.86 277.976H334.14L338.88 270.556ZM348.908 270.736C348.908 269.736 349.102 268.789 349.488 267.896C349.875 266.989 350.402 266.196 351.068 265.516C351.748 264.836 352.535 264.303 353.428 263.916C354.322 263.516 355.282 263.316 356.308 263.316C357.322 263.316 358.275 263.516 359.168 263.916C360.075 264.303 360.862 264.836 361.528 265.516C362.208 266.196 362.742 266.989 363.128 267.896C363.528 268.789 363.728 269.736 363.728 270.736C363.728 271.763 363.528 272.723 363.128 273.616C362.742 274.509 362.208 275.296 361.528 275.976C360.862 276.643 360.075 277.169 359.168 277.556C358.275 277.943 357.322 278.136 356.308 278.136C355.282 278.136 354.322 277.943 353.428 277.556C352.535 277.169 351.748 276.643 351.068 275.976C350.402 275.296 349.875 274.509 349.488 273.616C349.102 272.723 348.908 271.763 348.908 270.736ZM351.088 270.756C351.088 271.489 351.222 272.183 351.488 272.836C351.768 273.476 352.148 274.036 352.628 274.516C353.108 274.996 353.668 275.376 354.308 275.656C354.948 275.936 355.628 276.076 356.348 276.076C357.068 276.076 357.742 275.936 358.368 275.656C359.008 275.376 359.562 274.996 360.028 274.516C360.508 274.036 360.882 273.476 361.148 272.836C361.428 272.183 361.568 271.483 361.568 270.736C361.568 270.003 361.428 269.316 361.148 268.676C360.882 268.023 360.508 267.456 360.028 266.976C359.548 266.496 358.988 266.116 358.348 265.836C357.722 265.556 357.048 265.416 356.328 265.416C355.608 265.416 354.928 265.556 354.288 265.836C353.648 266.116 353.088 266.496 352.608 266.976C352.142 267.456 351.768 268.023 351.488 268.676C351.222 269.329 351.088 270.023 351.088 270.756ZM370.907 270.556L366.367 263.476H369.047C369.114 263.583 369.227 263.763 369.387 264.016C369.547 264.269 369.727 264.563 369.927 264.896C370.127 265.216 370.341 265.563 370.567 265.936C370.794 266.296 371.007 266.643 371.207 266.976C371.407 267.296 371.581 267.583 371.727 267.836C371.887 268.089 372.001 268.269 372.067 268.376C372.081 268.403 372.127 268.496 372.207 268.656C372.287 268.803 372.347 268.936 372.387 269.056C372.427 268.936 372.487 268.803 372.567 268.656C372.647 268.496 372.694 268.403 372.707 268.376C372.774 268.269 372.881 268.089 373.027 267.836C373.187 267.583 373.361 267.296 373.547 266.976C373.747 266.643 373.954 266.296 374.167 265.936C374.381 265.563 374.581 265.216 374.767 264.896C374.967 264.563 375.141 264.269 375.287 264.016C375.447 263.763 375.561 263.583 375.627 263.476H378.307C378.227 263.596 378.074 263.843 377.847 264.216C377.621 264.576 377.347 265.003 377.027 265.496C376.721 265.989 376.394 266.516 376.047 267.076C375.701 267.636 375.367 268.163 375.047 268.656C374.741 269.149 374.467 269.583 374.227 269.956C374.001 270.316 373.854 270.556 373.787 270.676L378.507 277.976H375.787L372.827 273.216C372.801 273.176 372.761 273.116 372.707 273.036C372.654 272.956 372.601 272.869 372.547 272.776C372.494 272.669 372.441 272.569 372.387 272.476C372.334 272.383 372.294 272.309 372.267 272.256C372.227 272.376 372.174 272.503 372.107 272.636C372.041 272.769 372.001 272.843 371.987 272.856C371.881 273.029 371.674 273.363 371.367 273.856C371.074 274.336 370.761 274.856 370.427 275.416C370.107 275.976 369.794 276.503 369.487 276.996C369.194 277.476 368.994 277.803 368.887 277.976H366.167L370.907 270.556ZM380.936 270.736C380.936 269.736 381.129 268.789 381.516 267.896C381.902 266.989 382.429 266.196 383.096 265.516C383.776 264.836 384.562 264.303 385.456 263.916C386.349 263.516 387.309 263.316 388.336 263.316C389.349 263.316 390.302 263.516 391.196 263.916C392.102 264.303 392.889 264.836 393.556 265.516C394.236 266.196 394.769 266.989 395.156 267.896C395.556 268.789 395.756 269.736 395.756 270.736C395.756 271.763 395.556 272.723 395.156 273.616C394.769 274.509 394.236 275.296 393.556 275.976C392.889 276.643 392.102 277.169 391.196 277.556C390.302 277.943 389.349 278.136 388.336 278.136C387.309 278.136 386.349 277.943 385.456 277.556C384.562 277.169 383.776 276.643 383.096 275.976C382.429 275.296 381.902 274.509 381.516 273.616C381.129 272.723 380.936 271.763 380.936 270.736ZM383.116 270.756C383.116 271.489 383.249 272.183 383.516 272.836C383.796 273.476 384.176 274.036 384.656 274.516C385.136 274.996 385.696 275.376 386.336 275.656C386.976 275.936 387.656 276.076 388.376 276.076C389.096 276.076 389.769 275.936 390.396 275.656C391.036 275.376 391.589 274.996 392.056 274.516C392.536 274.036 392.909 273.476 393.176 272.836C393.456 272.183 393.596 271.483 393.596 270.736C393.596 270.003 393.456 269.316 393.176 268.676C392.909 268.023 392.536 267.456 392.056 266.976C391.576 266.496 391.016 266.116 390.376 265.836C389.749 265.556 389.076 265.416 388.356 265.416C387.636 265.416 386.956 265.556 386.316 265.836C385.676 266.116 385.116 266.496 384.636 266.976C384.169 267.456 383.796 268.023 383.516 268.676C383.249 269.329 383.116 270.023 383.116 270.756ZM402.935 270.556L398.395 263.476H401.075C401.141 263.583 401.255 263.763 401.415 264.016C401.575 264.269 401.755 264.563 401.955 264.896C402.155 265.216 402.368 265.563 402.595 265.936C402.821 266.296 403.035 266.643 403.235 266.976C403.435 267.296 403.608 267.583 403.755 267.836C403.915 268.089 404.028 268.269 404.095 268.376C404.108 268.403 404.155 268.496 404.235 268.656C404.315 268.803 404.375 268.936 404.415 269.056C404.455 268.936 404.515 268.803 404.595 268.656C404.675 268.496 404.721 268.403 404.735 268.376C404.801 268.269 404.908 268.089 405.055 267.836C405.215 267.583 405.388 267.296 405.575 266.976C405.775 266.643 405.981 266.296 406.195 265.936C406.408 265.563 406.608 265.216 406.795 264.896C406.995 264.563 407.168 264.269 407.315 264.016C407.475 263.763 407.588 263.583 407.655 263.476H410.335C410.255 263.596 410.101 263.843 409.875 264.216C409.648 264.576 409.375 265.003 409.055 265.496C408.748 265.989 408.421 266.516 408.075 267.076C407.728 267.636 407.395 268.163 407.075 268.656C406.768 269.149 406.495 269.583 406.255 269.956C406.028 270.316 405.881 270.556 405.815 270.676L410.535 277.976H407.815L404.855 273.216C404.828 273.176 404.788 273.116 404.735 273.036C404.681 272.956 404.628 272.869 404.575 272.776C404.521 272.669 404.468 272.569 404.415 272.476C404.361 272.383 404.321 272.309 404.295 272.256C404.255 272.376 404.201 272.503 404.135 272.636C404.068 272.769 404.028 272.843 404.015 272.856C403.908 273.029 403.701 273.363 403.395 273.856C403.101 274.336 402.788 274.856 402.455 275.416C402.135 275.976 401.821 276.503 401.515 276.996C401.221 277.476 401.021 277.803 400.915 277.976H398.195L402.935 270.556ZM412.963 270.736C412.963 269.736 413.156 268.789 413.543 267.896C413.93 266.989 414.456 266.196 415.123 265.516C415.803 264.836 416.59 264.303 417.483 263.916C418.376 263.516 419.336 263.316 420.363 263.316C421.376 263.316 422.33 263.516 423.223 263.916C424.13 264.303 424.916 264.836 425.583 265.516C426.263 266.196 426.796 266.989 427.183 267.896C427.583 268.789 427.783 269.736 427.783 270.736C427.783 271.763 427.583 272.723 427.183 273.616C426.796 274.509 426.263 275.296 425.583 275.976C424.916 276.643 424.13 277.169 423.223 277.556C422.33 277.943 421.376 278.136 420.363 278.136C419.336 278.136 418.376 277.943 417.483 277.556C416.59 277.169 415.803 276.643 415.123 275.976C414.456 275.296 413.93 274.509 413.543 273.616C413.156 272.723 412.963 271.763 412.963 270.736ZM415.143 270.756C415.143 271.489 415.276 272.183 415.543 272.836C415.823 273.476 416.203 274.036 416.683 274.516C417.163 274.996 417.723 275.376 418.363 275.656C419.003 275.936 419.683 276.076 420.403 276.076C421.123 276.076 421.796 275.936 422.423 275.656C423.063 275.376 423.616 274.996 424.083 274.516C424.563 274.036 424.936 273.476 425.203 272.836C425.483 272.183 425.623 271.483 425.623 270.736C425.623 270.003 425.483 269.316 425.203 268.676C424.936 268.023 424.563 267.456 424.083 266.976C423.603 266.496 423.043 266.116 422.403 265.836C421.776 265.556 421.103 265.416 420.383 265.416C419.663 265.416 418.983 265.556 418.343 265.836C417.703 266.116 417.143 266.496 416.663 266.976C416.196 267.456 415.823 268.023 415.543 268.676C415.276 269.329 415.143 270.023 415.143 270.756ZM434.962 270.556L430.422 263.476H433.102C433.169 263.583 433.282 263.763 433.442 264.016C433.602 264.269 433.782 264.563 433.982 264.896C434.182 265.216 434.395 265.563 434.622 265.936C434.849 266.296 435.062 266.643 435.262 266.976C435.462 267.296 435.635 267.583 435.782 267.836C435.942 268.089 436.055 268.269 436.122 268.376C436.135 268.403 436.182 268.496 436.262 268.656C436.342 268.803 436.402 268.936 436.442 269.056C436.482 268.936 436.542 268.803 436.622 268.656C436.702 268.496 436.749 268.403 436.762 268.376C436.829 268.269 436.935 268.089 437.082 267.836C437.242 267.583 437.415 267.296 437.602 266.976C437.802 266.643 438.009 266.296 438.222 265.936C438.435 265.563 438.635 265.216 438.822 264.896C439.022 264.563 439.195 264.269 439.342 264.016C439.502 263.763 439.615 263.583 439.682 263.476H442.362C442.282 263.596 442.129 263.843 441.902 264.216C441.675 264.576 441.402 265.003 441.082 265.496C440.775 265.989 440.449 266.516 440.102 267.076C439.755 267.636 439.422 268.163 439.102 268.656C438.795 269.149 438.522 269.583 438.282 269.956C438.055 270.316 437.909 270.556 437.842 270.676L442.562 277.976H439.842L436.882 273.216C436.855 273.176 436.815 273.116 436.762 273.036C436.709 272.956 436.655 272.869 436.602 272.776C436.549 272.669 436.495 272.569 436.442 272.476C436.389 272.383 436.349 272.309 436.322 272.256C436.282 272.376 436.229 272.503 436.162 272.636C436.095 272.769 436.055 272.843 436.042 272.856C435.935 273.029 435.729 273.363 435.422 273.856C435.129 274.336 434.815 274.856 434.482 275.416C434.162 275.976 433.849 276.503 433.542 276.996C433.249 277.476 433.049 277.803 432.942 277.976H430.222L434.962 270.556ZM444.99 270.736C444.99 269.736 445.184 268.789 445.57 267.896C445.957 266.989 446.484 266.196 447.15 265.516C447.83 264.836 448.617 264.303 449.51 263.916C450.404 263.516 451.364 263.316 452.39 263.316C453.404 263.316 454.357 263.516 455.25 263.916C456.157 264.303 456.944 264.836 457.61 265.516C458.29 266.196 458.824 266.989 459.21 267.896C459.61 268.789 459.81 269.736 459.81 270.736C459.81 271.763 459.61 272.723 459.21 273.616C458.824 274.509 458.29 275.296 457.61 275.976C456.944 276.643 456.157 277.169 455.25 277.556C454.357 277.943 453.404 278.136 452.39 278.136C451.364 278.136 450.404 277.943 449.51 277.556C448.617 277.169 447.83 276.643 447.15 275.976C446.484 275.296 445.957 274.509 445.57 273.616C445.184 272.723 444.99 271.763 444.99 270.736ZM447.17 270.756C447.17 271.489 447.304 272.183 447.57 272.836C447.85 273.476 448.23 274.036 448.71 274.516C449.19 274.996 449.75 275.376 450.39 275.656C451.03 275.936 451.71 276.076 452.43 276.076C453.15 276.076 453.824 275.936 454.45 275.656C455.09 275.376 455.644 274.996 456.11 274.516C456.59 274.036 456.964 273.476 457.23 272.836C457.51 272.183 457.65 271.483 457.65 270.736C457.65 270.003 457.51 269.316 457.23 268.676C456.964 268.023 456.59 267.456 456.11 266.976C455.63 266.496 455.07 266.116 454.43 265.836C453.804 265.556 453.13 265.416 452.41 265.416C451.69 265.416 451.01 265.556 450.37 265.836C449.73 266.116 449.17 266.496 448.69 266.976C448.224 267.456 447.85 268.023 447.57 268.676C447.304 269.329 447.17 270.023 447.17 270.756ZM466.989 270.556L462.449 263.476H465.129C465.196 263.583 465.309 263.763 465.469 264.016C465.629 264.269 465.809 264.563 466.009 264.896C466.209 265.216 466.423 265.563 466.649 265.936C466.876 266.296 467.089 266.643 467.289 266.976C467.489 267.296 467.663 267.583 467.809 267.836C467.969 268.089 468.083 268.269 468.149 268.376C468.163 268.403 468.209 268.496 468.289 268.656C468.369 268.803 468.429 268.936 468.469 269.056C468.509 268.936 468.569 268.803 468.649 268.656C468.729 268.496 468.776 268.403 468.789 268.376C468.856 268.269 468.963 268.089 469.109 267.836C469.269 267.583 469.443 267.296 469.629 266.976C469.829 266.643 470.036 266.296 470.249 265.936C470.463 265.563 470.663 265.216 470.849 264.896C471.049 264.563 471.223 264.269 471.369 264.016C471.529 263.763 471.643 263.583 471.709 263.476H474.389C474.309 263.596 474.156 263.843 473.929 264.216C473.703 264.576 473.429 265.003 473.109 265.496C472.803 265.989 472.476 266.516 472.129 267.076C471.783 267.636 471.449 268.163 471.129 268.656C470.823 269.149 470.549 269.583 470.309 269.956C470.083 270.316 469.936 270.556 469.869 270.676L474.589 277.976H471.869L468.909 273.216C468.883 273.176 468.843 273.116 468.789 273.036C468.736 272.956 468.683 272.869 468.629 272.776C468.576 272.669 468.523 272.569 468.469 272.476C468.416 272.383 468.376 272.309 468.349 272.256C468.309 272.376 468.256 272.503 468.189 272.636C468.123 272.769 468.083 272.843 468.069 272.856C467.963 273.029 467.756 273.363 467.449 273.856C467.156 274.336 466.843 274.856 466.509 275.416C466.189 275.976 465.876 276.503 465.569 276.996C465.276 277.476 465.076 277.803 464.969 277.976H462.249L466.989 270.556Z" fill="white"/>
<g filter="url(#filter5_d)">
<path d="M226 440.976L114.48 367.12C107.396 362.428 116.041 350.103 126.417 350.103L415.143 350.103C419.428 350.103 422.285 352.517 422.285 356.139L422.285 540.586C422.285 548.521 409.913 555.755 403.349 551.658L226 440.976Z" fill="#8348FF"/>
</g>
<g filter="url(#filter6_d)">
<path d="M95.9269 551.103C91.6418 551.103 88.785 548.688 88.785 545.067L88.785 362.324C88.7851 356.375 96.2063 350.103 103.245 350.103L415.143 350.103C419.428 350.103 422.285 352.518 422.285 356.139L422.285 538.881C422.285 544.83 414.864 551.103 407.825 551.103L95.9269 551.103Z" fill="url(#paint1_linear)"/>
</g>
<g filter="url(#filter7_d)">
<path d="M255.283 395.752L255.28 396.922L244.81 396.893L244.813 395.723L255.283 395.752ZM244.8 400.463L244.804 399.263L255.274 399.292L255.27 400.492L244.8 400.463ZM241.282 403.603L244.792 403.613L244.794 402.803L255.264 402.832L255.262 403.552L258.922 403.562L258.95 393.422L241.31 393.373L241.282 403.603ZM240.405 384.251C241.937 383.595 243.439 382.849 244.821 382.043L244.818 383.183L255.348 383.212L255.35 382.192C256.758 382.976 258.256 383.7 259.695 384.304L240.405 384.251ZM257.398 390.267L254.848 390.26C255.331 389.422 255.904 388.253 256.507 387.055L254.169 386.478L257.409 386.487L257.398 390.267ZM242.638 390.227L242.649 386.447L246.009 386.456L243.697 387.11C244.174 388.071 244.561 389.302 244.708 390.233L242.638 390.227ZM248.458 390.243L245.428 390.235L247.35 389.67C247.172 388.769 246.696 387.478 246.159 386.456L248.469 386.463L248.458 390.243ZM253.539 386.477C253.266 387.466 252.752 388.845 252.33 389.773L254.098 390.258L251.338 390.251L251.349 386.471L253.539 386.477ZM246.714 380.878C247.976 380.041 249.059 379.204 249.901 378.367C250.799 379.209 251.936 380.082 253.224 380.896L246.714 380.878ZM248.109 375.602C245.641 378.265 240.714 381.072 235.82 382.498C236.478 383.22 237.254 384.512 237.672 385.293C238.333 385.055 239.023 384.817 239.684 384.549L239.662 392.409L260.512 392.466L260.534 384.636C261.103 384.878 261.703 385.089 262.242 385.271C262.785 384.372 263.538 383.114 264.29 382.306C259.673 381.154 254.85 378.77 251.469 375.611L248.109 375.602ZM289.193 381.385L277.073 381.351L277.078 379.401L289.198 379.435L289.193 381.385ZM293.016 376.655L273.486 376.601L273.465 384.101L292.995 384.155L293.016 376.655ZM275.626 394.757L290.326 394.798L290.322 396.118L275.622 396.077L275.626 394.757ZM275.636 391.217L290.336 391.258L290.332 392.518L275.632 392.477L275.636 391.217ZM275.646 387.647L290.346 387.688L290.342 388.978L275.642 388.937L275.646 387.647ZM294.006 398.528L294.042 385.268L272.112 385.208L272.076 398.468L276.786 398.481C274.743 399.495 271.65 400.567 269.039 401.129C269.847 401.822 271.074 402.935 271.732 403.687C274.764 402.945 278.608 401.516 281.041 400.112L278.736 398.486L286.926 398.508L284.401 400.302C287.578 401.24 291.714 402.722 294.021 403.808L297.178 401.297C295.111 400.451 291.963 399.362 289.146 398.515L294.006 398.528ZM308.474 395.688C306.908 397.603 304.293 399.636 301.859 400.889C302.758 401.462 304.314 402.666 305.063 403.358C307.407 401.865 310.293 399.413 312.16 397.048L308.474 395.688ZM330.168 394.187C328.703 392.143 325.592 389.165 323.167 387.148L320.222 389C320.91 389.602 321.658 390.294 322.407 391.016C319.646 391.098 316.886 391.151 314.246 391.173C317.493 388.722 320.981 385.762 323.779 382.89L320.364 381.02C318.588 383.055 316.182 385.359 313.716 387.452C313.058 386.88 312.249 386.278 311.411 385.676C313.005 384.24 314.78 382.415 316.285 380.649L316.195 380.589C320.366 380.27 324.417 379.801 327.779 379.091L325.268 376.084C319.925 377.149 311.133 377.755 303.422 377.884C303.78 378.725 304.196 380.166 304.284 381.096C306.534 381.072 308.934 381.019 311.334 380.905C310.521 381.923 309.559 382.941 308.686 383.838C308.147 383.507 307.668 383.205 307.189 382.934L304.722 385.207C306.759 386.473 309.184 388.28 310.83 389.784C310.138 390.322 309.447 390.83 308.786 391.278C306.476 391.302 304.346 391.326 302.516 391.351L302.806 394.922C305.926 394.841 309.856 394.761 314.057 394.623L314.031 403.803L317.841 403.813L317.867 394.513C320.357 394.43 322.877 394.317 325.398 394.234C326.026 394.986 326.594 395.707 326.982 396.338L330.168 394.187ZM319.598 397.578C321.994 399.265 325.077 401.733 326.453 403.357L329.669 401.086C328.113 399.432 324.94 397.083 322.574 395.546L319.598 397.578ZM346.679 390.182C350.07 389.922 354.751 389.545 359.222 389.197C359.669 389.978 360.028 390.699 360.296 391.33L363.24 389.748C362.435 387.826 360.433 384.97 358.759 382.896L356.025 384.358C356.473 384.959 356.922 385.591 357.37 386.252C355.689 386.367 354.009 386.483 352.389 386.598C352.992 385.34 353.656 383.902 354.26 382.553L362.66 382.576L362.669 379.396L355.979 379.378L355.988 375.898L352.358 375.888L352.349 379.368L346.229 379.351L346.22 382.531L350.27 382.542C349.876 383.951 349.302 385.51 348.758 386.828C347.918 386.886 347.108 386.914 346.388 386.942L346.679 390.182ZM336.17 393.394C335.923 395.913 335.436 398.582 334.561 400.349C335.34 400.621 336.658 401.255 337.287 401.647C338.163 399.729 338.801 396.731 339.109 393.912L336.17 393.394ZM344.155 391.526C344.334 392.096 344.452 392.606 344.541 393.057L347.064 391.924C346.739 390.213 345.576 387.599 344.442 385.556L342.069 386.54C342.427 387.201 342.785 387.952 343.113 388.703L340.233 388.815C342.129 386.39 344.208 383.366 345.865 380.76L342.958 379.402C342.264 380.87 341.3 382.578 340.275 384.255C339.976 383.894 339.647 383.473 339.258 383.052C340.343 381.375 341.549 379.068 342.635 377.031L339.548 375.883C339.034 377.471 338.188 379.449 337.344 381.097C337.104 380.886 336.865 380.675 336.655 380.495L334.939 382.92C336.165 384.124 337.601 385.718 338.468 387.01C337.986 387.699 337.504 388.357 337.052 388.926L334.892 389.01L335.184 392.101L339.534 391.843L339.501 403.903L342.591 403.911L342.625 391.641L344.155 391.526ZM347.046 398.583C346.72 397.083 345.946 394.89 345.201 393.178L342.679 393.951C343.364 395.723 344.137 398.035 344.403 399.536L347.046 398.583ZM349.527 391C349.332 396.22 348.934 399.429 344.398 401.306C345.117 401.908 346.013 403.141 346.401 403.952C351.838 401.597 352.659 397.369 352.917 391.01L349.527 391ZM358.83 400.596C358.41 400.595 358.351 400.505 358.353 399.635L358.377 390.995L355.017 390.985L354.993 399.655C354.985 402.685 355.582 403.707 358.192 403.714L360.172 403.72C362.332 403.725 363.145 402.588 363.427 398.238C362.527 397.996 361.119 397.452 360.461 396.88C360.392 400.12 360.3 400.6 359.82 400.599L358.83 400.596Z" fill="white"/>
</g>
<g filter="url(#filter8_i)">
<rect x="106" y="364.976" width="99" height="103" rx="10" fill="#DDDDDD"/>
</g>
<g filter="url(#filter9_d)">
<path d="M155.5 412.326C151.643 412.326 147.873 411.231 144.666 409.179C141.46 407.127 138.96 404.21 137.484 400.798C136.008 397.385 135.622 393.63 136.375 390.008C137.127 386.385 138.984 383.058 141.711 380.446C144.439 377.834 147.913 376.055 151.696 375.335C155.478 374.614 159.399 374.984 162.962 376.398C166.525 377.811 169.571 380.205 171.714 383.276C173.856 386.347 175 389.958 175 393.651C174.994 398.602 172.938 403.349 169.282 406.85C165.627 410.351 160.67 412.321 155.5 412.326ZM155.5 383.276C153.357 383.276 151.263 383.885 149.481 385.025C147.7 386.165 146.311 387.785 145.491 389.681C144.671 391.577 144.457 393.663 144.875 395.675C145.293 397.688 146.325 399.536 147.84 400.987C149.355 402.438 151.285 403.426 153.387 403.827C155.488 404.227 157.666 404.022 159.646 403.236C161.625 402.451 163.317 401.121 164.508 399.415C165.698 397.709 166.333 395.703 166.333 393.651C166.333 390.899 165.192 388.261 163.16 386.315C161.129 384.369 158.373 383.276 155.5 383.276ZM188 453.826V451.751C188 443.496 184.576 435.579 178.481 429.742C172.386 423.905 164.12 420.626 155.5 420.626C146.88 420.626 138.614 423.905 132.519 429.742C126.424 435.579 123 443.496 123 451.751L123 453.826C123 454.927 123.457 455.982 124.269 456.761C125.082 457.539 126.184 457.976 127.333 457.976C128.483 457.976 129.585 457.539 130.397 456.761C131.21 455.982 131.667 454.927 131.667 453.826V451.751C131.667 445.698 134.178 439.892 138.647 435.611C143.117 431.331 149.179 428.926 155.5 428.926C161.821 428.926 167.883 431.331 172.353 435.611C176.822 439.892 179.333 445.698 179.333 451.751V453.826C179.333 454.927 179.79 455.982 180.603 456.761C181.415 457.539 182.517 457.976 183.667 457.976C184.816 457.976 185.918 457.539 186.731 456.761C187.543 455.982 188 454.927 188 453.826Z" fill="white"/>
</g>
<path d="M260.88 525.556L256.34 518.476H259.02C259.087 518.583 259.2 518.763 259.36 519.016C259.52 519.269 259.7 519.563 259.9 519.896C260.1 520.216 260.313 520.563 260.54 520.936C260.767 521.296 260.98 521.643 261.18 521.976C261.38 522.296 261.553 522.583 261.7 522.836C261.86 523.089 261.973 523.269 262.04 523.376C262.053 523.403 262.1 523.496 262.18 523.656C262.26 523.803 262.32 523.936 262.36 524.056C262.4 523.936 262.46 523.803 262.54 523.656C262.62 523.496 262.667 523.403 262.68 523.376C262.747 523.269 262.853 523.089 263 522.836C263.16 522.583 263.333 522.296 263.52 521.976C263.72 521.643 263.927 521.296 264.14 520.936C264.353 520.563 264.553 520.216 264.74 519.896C264.94 519.563 265.113 519.269 265.26 519.016C265.42 518.763 265.533 518.583 265.6 518.476H268.28C268.2 518.596 268.047 518.843 267.82 519.216C267.593 519.576 267.32 520.003 267 520.496C266.693 520.989 266.367 521.516 266.02 522.076C265.673 522.636 265.34 523.163 265.02 523.656C264.713 524.149 264.44 524.583 264.2 524.956C263.973 525.316 263.827 525.556 263.76 525.676L268.48 532.976H265.76L262.8 528.216C262.773 528.176 262.733 528.116 262.68 528.036C262.627 527.956 262.573 527.869 262.52 527.776C262.467 527.669 262.413 527.569 262.36 527.476C262.307 527.383 262.267 527.309 262.24 527.256C262.2 527.376 262.147 527.503 262.08 527.636C262.013 527.769 261.973 527.843 261.96 527.856C261.853 528.029 261.647 528.363 261.34 528.856C261.047 529.336 260.733 529.856 260.4 530.416C260.08 530.976 259.767 531.503 259.46 531.996C259.167 532.476 258.967 532.803 258.86 532.976H256.14L260.88 525.556ZM270.908 525.736C270.908 524.736 271.102 523.789 271.488 522.896C271.875 521.989 272.402 521.196 273.068 520.516C273.748 519.836 274.535 519.303 275.428 518.916C276.322 518.516 277.282 518.316 278.308 518.316C279.322 518.316 280.275 518.516 281.168 518.916C282.075 519.303 282.862 519.836 283.528 520.516C284.208 521.196 284.742 521.989 285.128 522.896C285.528 523.789 285.728 524.736 285.728 525.736C285.728 526.763 285.528 527.723 285.128 528.616C284.742 529.509 284.208 530.296 283.528 530.976C282.862 531.643 282.075 532.169 281.168 532.556C280.275 532.943 279.322 533.136 278.308 533.136C277.282 533.136 276.322 532.943 275.428 532.556C274.535 532.169 273.748 531.643 273.068 530.976C272.402 530.296 271.875 529.509 271.488 528.616C271.102 527.723 270.908 526.763 270.908 525.736ZM273.088 525.756C273.088 526.489 273.222 527.183 273.488 527.836C273.768 528.476 274.148 529.036 274.628 529.516C275.108 529.996 275.668 530.376 276.308 530.656C276.948 530.936 277.628 531.076 278.348 531.076C279.068 531.076 279.742 530.936 280.368 530.656C281.008 530.376 281.562 529.996 282.028 529.516C282.508 529.036 282.882 528.476 283.148 527.836C283.428 527.183 283.568 526.483 283.568 525.736C283.568 525.003 283.428 524.316 283.148 523.676C282.882 523.023 282.508 522.456 282.028 521.976C281.548 521.496 280.988 521.116 280.348 520.836C279.722 520.556 279.048 520.416 278.328 520.416C277.608 520.416 276.928 520.556 276.288 520.836C275.648 521.116 275.088 521.496 274.608 521.976C274.142 522.456 273.768 523.023 273.488 523.676C273.222 524.329 273.088 525.023 273.088 525.756ZM292.907 525.556L288.367 518.476H291.047C291.114 518.583 291.227 518.763 291.387 519.016C291.547 519.269 291.727 519.563 291.927 519.896C292.127 520.216 292.341 520.563 292.567 520.936C292.794 521.296 293.007 521.643 293.207 521.976C293.407 522.296 293.581 522.583 293.727 522.836C293.887 523.089 294.001 523.269 294.067 523.376C294.081 523.403 294.127 523.496 294.207 523.656C294.287 523.803 294.347 523.936 294.387 524.056C294.427 523.936 294.487 523.803 294.567 523.656C294.647 523.496 294.694 523.403 294.707 523.376C294.774 523.269 294.881 523.089 295.027 522.836C295.187 522.583 295.361 522.296 295.547 521.976C295.747 521.643 295.954 521.296 296.167 520.936C296.381 520.563 296.581 520.216 296.767 519.896C296.967 519.563 297.141 519.269 297.287 519.016C297.447 518.763 297.561 518.583 297.627 518.476H300.307C300.227 518.596 300.074 518.843 299.847 519.216C299.621 519.576 299.347 520.003 299.027 520.496C298.721 520.989 298.394 521.516 298.047 522.076C297.701 522.636 297.367 523.163 297.047 523.656C296.741 524.149 296.467 524.583 296.227 524.956C296.001 525.316 295.854 525.556 295.787 525.676L300.507 532.976H297.787L294.827 528.216C294.801 528.176 294.761 528.116 294.707 528.036C294.654 527.956 294.601 527.869 294.547 527.776C294.494 527.669 294.441 527.569 294.387 527.476C294.334 527.383 294.294 527.309 294.267 527.256C294.227 527.376 294.174 527.503 294.107 527.636C294.041 527.769 294.001 527.843 293.987 527.856C293.881 528.029 293.674 528.363 293.367 528.856C293.074 529.336 292.761 529.856 292.427 530.416C292.107 530.976 291.794 531.503 291.487 531.996C291.194 532.476 290.994 532.803 290.887 532.976H288.167L292.907 525.556ZM302.936 525.736C302.936 524.736 303.129 523.789 303.516 522.896C303.902 521.989 304.429 521.196 305.096 520.516C305.776 519.836 306.562 519.303 307.456 518.916C308.349 518.516 309.309 518.316 310.336 518.316C311.349 518.316 312.302 518.516 313.196 518.916C314.102 519.303 314.889 519.836 315.556 520.516C316.236 521.196 316.769 521.989 317.156 522.896C317.556 523.789 317.756 524.736 317.756 525.736C317.756 526.763 317.556 527.723 317.156 528.616C316.769 529.509 316.236 530.296 315.556 530.976C314.889 531.643 314.102 532.169 313.196 532.556C312.302 532.943 311.349 533.136 310.336 533.136C309.309 533.136 308.349 532.943 307.456 532.556C306.562 532.169 305.776 531.643 305.096 530.976C304.429 530.296 303.902 529.509 303.516 528.616C303.129 527.723 302.936 526.763 302.936 525.736ZM305.116 525.756C305.116 526.489 305.249 527.183 305.516 527.836C305.796 528.476 306.176 529.036 306.656 529.516C307.136 529.996 307.696 530.376 308.336 530.656C308.976 530.936 309.656 531.076 310.376 531.076C311.096 531.076 311.769 530.936 312.396 530.656C313.036 530.376 313.589 529.996 314.056 529.516C314.536 529.036 314.909 528.476 315.176 527.836C315.456 527.183 315.596 526.483 315.596 525.736C315.596 525.003 315.456 524.316 315.176 523.676C314.909 523.023 314.536 522.456 314.056 521.976C313.576 521.496 313.016 521.116 312.376 520.836C311.749 520.556 311.076 520.416 310.356 520.416C309.636 520.416 308.956 520.556 308.316 520.836C307.676 521.116 307.116 521.496 306.636 521.976C306.169 522.456 305.796 523.023 305.516 523.676C305.249 524.329 305.116 525.023 305.116 525.756ZM324.935 525.556L320.395 518.476H323.075C323.141 518.583 323.255 518.763 323.415 519.016C323.575 519.269 323.755 519.563 323.955 519.896C324.155 520.216 324.368 520.563 324.595 520.936C324.821 521.296 325.035 521.643 325.235 521.976C325.435 522.296 325.608 522.583 325.755 522.836C325.915 523.089 326.028 523.269 326.095 523.376C326.108 523.403 326.155 523.496 326.235 523.656C326.315 523.803 326.375 523.936 326.415 524.056C326.455 523.936 326.515 523.803 326.595 523.656C326.675 523.496 326.721 523.403 326.735 523.376C326.801 523.269 326.908 523.089 327.055 522.836C327.215 522.583 327.388 522.296 327.575 521.976C327.775 521.643 327.981 521.296 328.195 520.936C328.408 520.563 328.608 520.216 328.795 519.896C328.995 519.563 329.168 519.269 329.315 519.016C329.475 518.763 329.588 518.583 329.655 518.476H332.335C332.255 518.596 332.101 518.843 331.875 519.216C331.648 519.576 331.375 520.003 331.055 520.496C330.748 520.989 330.421 521.516 330.075 522.076C329.728 522.636 329.395 523.163 329.075 523.656C328.768 524.149 328.495 524.583 328.255 524.956C328.028 525.316 327.881 525.556 327.815 525.676L332.535 532.976H329.815L326.855 528.216C326.828 528.176 326.788 528.116 326.735 528.036C326.681 527.956 326.628 527.869 326.575 527.776C326.521 527.669 326.468 527.569 326.415 527.476C326.361 527.383 326.321 527.309 326.295 527.256C326.255 527.376 326.201 527.503 326.135 527.636C326.068 527.769 326.028 527.843 326.015 527.856C325.908 528.029 325.701 528.363 325.395 528.856C325.101 529.336 324.788 529.856 324.455 530.416C324.135 530.976 323.821 531.503 323.515 531.996C323.221 532.476 323.021 532.803 322.915 532.976H320.195L324.935 525.556ZM334.963 525.736C334.963 524.736 335.156 523.789 335.543 522.896C335.93 521.989 336.456 521.196 337.123 520.516C337.803 519.836 338.59 519.303 339.483 518.916C340.376 518.516 341.336 518.316 342.363 518.316C343.376 518.316 344.33 518.516 345.223 518.916C346.13 519.303 346.916 519.836 347.583 520.516C348.263 521.196 348.796 521.989 349.183 522.896C349.583 523.789 349.783 524.736 349.783 525.736C349.783 526.763 349.583 527.723 349.183 528.616C348.796 529.509 348.263 530.296 347.583 530.976C346.916 531.643 346.13 532.169 345.223 532.556C344.33 532.943 343.376 533.136 342.363 533.136C341.336 533.136 340.376 532.943 339.483 532.556C338.59 532.169 337.803 531.643 337.123 530.976C336.456 530.296 335.93 529.509 335.543 528.616C335.156 527.723 334.963 526.763 334.963 525.736ZM337.143 525.756C337.143 526.489 337.276 527.183 337.543 527.836C337.823 528.476 338.203 529.036 338.683 529.516C339.163 529.996 339.723 530.376 340.363 530.656C341.003 530.936 341.683 531.076 342.403 531.076C343.123 531.076 343.796 530.936 344.423 530.656C345.063 530.376 345.616 529.996 346.083 529.516C346.563 529.036 346.936 528.476 347.203 527.836C347.483 527.183 347.623 526.483 347.623 525.736C347.623 525.003 347.483 524.316 347.203 523.676C346.936 523.023 346.563 522.456 346.083 521.976C345.603 521.496 345.043 521.116 344.403 520.836C343.776 520.556 343.103 520.416 342.383 520.416C341.663 520.416 340.983 520.556 340.343 520.836C339.703 521.116 339.143 521.496 338.663 521.976C338.196 522.456 337.823 523.023 337.543 523.676C337.276 524.329 337.143 525.023 337.143 525.756ZM356.962 525.556L352.422 518.476H355.102C355.169 518.583 355.282 518.763 355.442 519.016C355.602 519.269 355.782 519.563 355.982 519.896C356.182 520.216 356.395 520.563 356.622 520.936C356.849 521.296 357.062 521.643 357.262 521.976C357.462 522.296 357.635 522.583 357.782 522.836C357.942 523.089 358.055 523.269 358.122 523.376C358.135 523.403 358.182 523.496 358.262 523.656C358.342 523.803 358.402 523.936 358.442 524.056C358.482 523.936 358.542 523.803 358.622 523.656C358.702 523.496 358.749 523.403 358.762 523.376C358.829 523.269 358.935 523.089 359.082 522.836C359.242 522.583 359.415 522.296 359.602 521.976C359.802 521.643 360.009 521.296 360.222 520.936C360.435 520.563 360.635 520.216 360.822 519.896C361.022 519.563 361.195 519.269 361.342 519.016C361.502 518.763 361.615 518.583 361.682 518.476H364.362C364.282 518.596 364.129 518.843 363.902 519.216C363.675 519.576 363.402 520.003 363.082 520.496C362.775 520.989 362.449 521.516 362.102 522.076C361.755 522.636 361.422 523.163 361.102 523.656C360.795 524.149 360.522 524.583 360.282 524.956C360.055 525.316 359.909 525.556 359.842 525.676L364.562 532.976H361.842L358.882 528.216C358.855 528.176 358.815 528.116 358.762 528.036C358.709 527.956 358.655 527.869 358.602 527.776C358.549 527.669 358.495 527.569 358.442 527.476C358.389 527.383 358.349 527.309 358.322 527.256C358.282 527.376 358.229 527.503 358.162 527.636C358.095 527.769 358.055 527.843 358.042 527.856C357.935 528.029 357.729 528.363 357.422 528.856C357.129 529.336 356.815 529.856 356.482 530.416C356.162 530.976 355.849 531.503 355.542 531.996C355.249 532.476 355.049 532.803 354.942 532.976H352.222L356.962 525.556ZM366.99 525.736C366.99 524.736 367.184 523.789 367.57 522.896C367.957 521.989 368.484 521.196 369.15 520.516C369.83 519.836 370.617 519.303 371.51 518.916C372.404 518.516 373.364 518.316 374.39 518.316C375.404 518.316 376.357 518.516 377.25 518.916C378.157 519.303 378.944 519.836 379.61 520.516C380.29 521.196 380.824 521.989 381.21 522.896C381.61 523.789 381.81 524.736 381.81 525.736C381.81 526.763 381.61 527.723 381.21 528.616C380.824 529.509 380.29 530.296 379.61 530.976C378.944 531.643 378.157 532.169 377.25 532.556C376.357 532.943 375.404 533.136 374.39 533.136C373.364 533.136 372.404 532.943 371.51 532.556C370.617 532.169 369.83 531.643 369.15 530.976C368.484 530.296 367.957 529.509 367.57 528.616C367.184 527.723 366.99 526.763 366.99 525.736ZM369.17 525.756C369.17 526.489 369.304 527.183 369.57 527.836C369.85 528.476 370.23 529.036 370.71 529.516C371.19 529.996 371.75 530.376 372.39 530.656C373.03 530.936 373.71 531.076 374.43 531.076C375.15 531.076 375.824 530.936 376.45 530.656C377.09 530.376 377.644 529.996 378.11 529.516C378.59 529.036 378.964 528.476 379.23 527.836C379.51 527.183 379.65 526.483 379.65 525.736C379.65 525.003 379.51 524.316 379.23 523.676C378.964 523.023 378.59 522.456 378.11 521.976C377.63 521.496 377.07 521.116 376.43 520.836C375.804 520.556 375.13 520.416 374.41 520.416C373.69 520.416 373.01 520.556 372.37 520.836C371.73 521.116 371.17 521.496 370.69 521.976C370.224 522.456 369.85 523.023 369.57 523.676C369.304 524.329 369.17 525.023 369.17 525.756ZM388.989 525.556L384.449 518.476H387.129C387.196 518.583 387.309 518.763 387.469 519.016C387.629 519.269 387.809 519.563 388.009 519.896C388.209 520.216 388.423 520.563 388.649 520.936C388.876 521.296 389.089 521.643 389.289 521.976C389.489 522.296 389.663 522.583 389.809 522.836C389.969 523.089 390.083 523.269 390.149 523.376C390.163 523.403 390.209 523.496 390.289 523.656C390.369 523.803 390.429 523.936 390.469 524.056C390.509 523.936 390.569 523.803 390.649 523.656C390.729 523.496 390.776 523.403 390.789 523.376C390.856 523.269 390.963 523.089 391.109 522.836C391.269 522.583 391.443 522.296 391.629 521.976C391.829 521.643 392.036 521.296 392.249 520.936C392.463 520.563 392.663 520.216 392.849 519.896C393.049 519.563 393.223 519.269 393.369 519.016C393.529 518.763 393.643 518.583 393.709 518.476H396.389C396.309 518.596 396.156 518.843 395.929 519.216C395.703 519.576 395.429 520.003 395.109 520.496C394.803 520.989 394.476 521.516 394.129 522.076C393.783 522.636 393.449 523.163 393.129 523.656C392.823 524.149 392.549 524.583 392.309 524.956C392.083 525.316 391.936 525.556 391.869 525.676L396.589 532.976H393.869L390.909 528.216C390.883 528.176 390.843 528.116 390.789 528.036C390.736 527.956 390.683 527.869 390.629 527.776C390.576 527.669 390.523 527.569 390.469 527.476C390.416 527.383 390.376 527.309 390.349 527.256C390.309 527.376 390.256 527.503 390.189 527.636C390.123 527.769 390.083 527.843 390.069 527.856C389.963 528.029 389.756 528.363 389.449 528.856C389.156 529.336 388.843 529.856 388.509 530.416C388.189 530.976 387.876 531.503 387.569 531.996C387.276 532.476 387.076 532.803 386.969 532.976H384.249L388.989 525.556Z" fill="white"/>
<defs>
<filter id="filter0_d" x="185.896" y="95.1028" width="318.388" height="210.739" filterUnits="userSpaceOnUse" color-interpolation-filters="sRGB">
<feFlood flood-opacity="0" result="BackgroundImageFix"/>
<feColorMatrix in="SourceAlpha" type="matrix" values="0 0 0 0 0 0 0 0 0 0 0 0 0 0 0 0 0 0 127 0"/>
<feOffset dy="4"/>
<feGaussianBlur stdDeviation="2"/>
<feColorMatrix type="matrix" values="0 0 0 0 0 0 0 0 0 0 0 0 0 0 0 0 0 0 0.25 0"/>
<feBlend mode="normal" in2="BackgroundImageFix" result="effect1_dropShadow"/>
<feBlend mode="normal" in="SourceGraphic" in2="effect1_dropShadow" result="shape"/>
</filter>
<filter id="filter1_d" x="162.785" y="95.1028" width="341.5" height="209" filterUnits="userSpaceOnUse" color-interpolation-filters="sRGB">
<feFlood flood-opacity="0" result="BackgroundImageFix"/>
<feColorMatrix in="SourceAlpha" type="matrix" values="0 0 0 0 0 0 0 0 0 0 0 0 0 0 0 0 0 0 127 0"/>
<feOffset dy="4"/>
<feGaussianBlur stdDeviation="2"/>
<feColorMatrix type="matrix" values="0 0 0 0 0 0 0 0 0 0 0 0 0 0 0 0 0 0 0.25 0"/>
<feBlend mode="normal" in2="BackgroundImageFix" result="effect1_dropShadow"/>
<feBlend mode="normal" in="SourceGraphic" in2="effect1_dropShadow" result="shape"/>
</filter>
<filter id="filter2_d" x="309.819" y="120.602" width="135.607" height="42.3499" filterUnits="userSpaceOnUse" color-interpolation-filters="sRGB">
<feFlood flood-opacity="0" result="BackgroundImageFix"/>
<feColorMatrix in="SourceAlpha" type="matrix" values="0 0 0 0 0 0 0 0 0 0 0 0 0 0 0 0 0 0 127 0"/>
<feOffset dy="10"/>
<feGaussianBlur stdDeviation="2"/>
<feColorMatrix type="matrix" values="0 0 0 0 0 0 0 0 0 0 0 0 0 0 0 0 0 0 0.25 0"/>
<feBlend mode="normal" in2="BackgroundImageFix" result="effect1_dropShadow"/>
<feBlend mode="normal" in="SourceGraphic" in2="effect1_dropShadow" result="shape"/>
</filter>
<filter id="filter3_i" x="184" y="109.976" width="99" height="109" filterUnits="userSpaceOnUse" color-interpolation-filters="sRGB">
<feFlood flood-opacity="0" result="BackgroundImageFix"/>
<feBlend mode="normal" in="SourceGraphic" in2="BackgroundImageFix" result="shape"/>
<feColorMatrix in="SourceAlpha" type="matrix" values="0 0 0 0 0 0 0 0 0 0 0 0 0 0 0 0 0 0 127 0" result="hardAlpha"/>
<feOffset dy="6"/>
<feGaussianBlur stdDeviation="3"/>
<feComposite in2="hardAlpha" operator="arithmetic" k2="-1" k3="1"/>
<feColorMatrix type="matrix" values="0 0 0 0 0 0 0 0 0 0 0 0 0 0 0 0 0 0 0.25 0"/>
<feBlend mode="normal" in2="shape" result="effect1_innerShadow"/>
</filter>
<filter id="filter4_d" x="197" y="119.976" width="73" height="91" filterUnits="userSpaceOnUse" color-interpolation-filters="sRGB">
<feFlood flood-opacity="0" result="BackgroundImageFix"/>
<feColorMatrix in="SourceAlpha" type="matrix" values="0 0 0 0 0 0 0 0 0 0 0 0 0 0 0 0 0 0 127 0"/>
<feOffset dy="4"/>
<feGaussianBlur stdDeviation="2"/>
<feColorMatrix type="matrix" values="0 0 0 0 0 0 0 0 0 0 0 0 0 0 0 0 0 0 0.25 0"/>
<feBlend mode="normal" in2="BackgroundImageFix" result="effect1_dropShadow"/>
<feBlend mode="normal" in="SourceGraphic" in2="effect1_dropShadow" result="shape"/>
</filter>
<filter id="filter5_d" x="107.896" y="350.103" width="318.388" height="210.739" filterUnits="userSpaceOnUse" color-interpolation-filters="sRGB">
<feFlood flood-opacity="0" result="BackgroundImageFix"/>
<feColorMatrix in="SourceAlpha" type="matrix" values="0 0 0 0 0 0 0 0 0 0 0 0 0 0 0 0 0 0 127 0"/>
<feOffset dy="4"/>
<feGaussianBlur stdDeviation="2"/>
<feColorMatrix type="matrix" values="0 0 0 0 0 0 0 0 0 0 0 0 0 0 0 0 0 0 0.25 0"/>
<feBlend mode="normal" in2="BackgroundImageFix" result="effect1_dropShadow"/>
<feBlend mode="normal" in="SourceGraphic" in2="effect1_dropShadow" result="shape"/>
</filter>
<filter id="filter6_d" x="84.7852" y="350.103" width="341.5" height="209" filterUnits="userSpaceOnUse" color-interpolation-filters="sRGB">
<feFlood flood-opacity="0" result="BackgroundImageFix"/>
<feColorMatrix in="SourceAlpha" type="matrix" values="0 0 0 0 0 0 0 0 0 0 0 0 0 0 0 0 0 0 127 0"/>
<feOffset dy="4"/>
<feGaussianBlur stdDeviation="2"/>
<feColorMatrix type="matrix" values="0 0 0 0 0 0 0 0 0 0 0 0 0 0 0 0 0 0 0.25 0"/>
<feBlend mode="normal" in2="BackgroundImageFix" result="effect1_dropShadow"/>
<feBlend mode="normal" in="SourceGraphic" in2="effect1_dropShadow" result="shape"/>
</filter>
<filter id="filter7_d" x="231.819" y="375.602" width="135.607" height="42.3499" filterUnits="userSpaceOnUse" color-interpolation-filters="sRGB">
<feFlood flood-opacity="0" result="BackgroundImageFix"/>
<feColorMatrix in="SourceAlpha" type="matrix" values="0 0 0 0 0 0 0 0 0 0 0 0 0 0 0 0 0 0 127 0"/>
<feOffset dy="10"/>
<feGaussianBlur stdDeviation="2"/>
<feColorMatrix type="matrix" values="0 0 0 0 0 0 0 0 0 0 0 0 0 0 0 0 0 0 0.25 0"/>
<feBlend mode="normal" in2="BackgroundImageFix" result="effect1_dropShadow"/>
<feBlend mode="normal" in="SourceGraphic" in2="effect1_dropShadow" result="shape"/>
</filter>
<filter id="filter8_i" x="106" y="364.976" width="99" height="109" filterUnits="userSpaceOnUse" color-interpolation-filters="sRGB">
<feFlood flood-opacity="0" result="BackgroundImageFix"/>
<feBlend mode="normal" in="SourceGraphic" in2="BackgroundImageFix" result="shape"/>
<feColorMatrix in="SourceAlpha" type="matrix" values="0 0 0 0 0 0 0 0 0 0 0 0 0 0 0 0 0 0 127 0" result="hardAlpha"/>
<feOffset dy="6"/>
<feGaussianBlur stdDeviation="3"/>
<feComposite in2="hardAlpha" operator="arithmetic" k2="-1" k3="1"/>
<feColorMatrix type="matrix" values="0 0 0 0 0 0 0 0 0 0 0 0 0 0 0 0 0 0 0.25 0"/>
<feBlend mode="normal" in2="shape" result="effect1_innerShadow"/>
</filter>
<filter id="filter9_d" x="119" y="374.976" width="73" height="91" filterUnits="userSpaceOnUse" color-interpolation-filters="sRGB">
<feFlood flood-opacity="0" result="BackgroundImageFix"/>
<feColorMatrix in="SourceAlpha" type="matrix" values="0 0 0 0 0 0 0 0 0 0 0 0 0 0 0 0 0 0 127 0"/>
<feOffset dy="4"/>
<feGaussianBlur stdDeviation="2"/>
<feColorMatrix type="matrix" values="0 0 0 0 0 0 0 0 0 0 0 0 0 0 0 0 0 0 0.25 0"/>
<feBlend mode="normal" in2="BackgroundImageFix" result="effect1_dropShadow"/>
<feBlend mode="normal" in="SourceGraphic" in2="effect1_dropShadow" result="shape"/>
</filter>
<linearGradient id="paint0_linear" x1="295.505" y1="-7.32194" x2="578.408" y2="119.892" gradientUnits="userSpaceOnUse">
<stop offset="0.229167" stop-color="#7FDFBD"/>
<stop offset="1" stop-color="#20B47F" stop-opacity="0"/>
</linearGradient>
<linearGradient id="paint1_linear" x1="217.505" y1="247.678" x2="500.408" y2="374.892" gradientUnits="userSpaceOnUse">
<stop offset="0.229167" stop-color="#7FDFBD"/>
<stop offset="1" stop-color="#20B47F" stop-opacity="0"/>
</linearGradient>
</defs>
</svg>
